<svg width="96" height="22" viewBox="0 0 96 22" fill="none" xmlns="http://www.w3.org/2000/svg">
<path d="M16.7172 8.49881C16.7172 8.64614 16.6302 8.80685 16.4561 8.98096L12.8098 12.5368L13.6737 17.5591C13.6804 17.606 13.6837 17.6729 13.6837 17.76C13.6837 17.9006 13.6486 18.0195 13.5783 18.1166C13.508 18.2137 13.4058 18.2622 13.2719 18.2622C13.1447 18.2622 13.0107 18.222 12.8701 18.1417L8.36007 15.7711L3.85003 18.1417C3.70271 18.222 3.56878 18.2622 3.44824 18.2622C3.30762 18.2622 3.20215 18.2137 3.13184 18.1166C3.06152 18.0195 3.02637 17.9006 3.02637 17.76C3.02637 17.7198 3.03306 17.6528 3.04646 17.5591L3.9103 12.5368L0.254046 8.98096C0.086635 8.80015 0.00292969 8.63944 0.00292969 8.49881C0.00292969 8.25105 0.19043 8.09703 0.56543 8.03676L5.60784 7.3035L7.86788 2.73319C7.99512 2.45864 8.15918 2.32136 8.36007 2.32136C8.56097 2.32136 8.72503 2.45864 8.85226 2.73319L11.1123 7.3035L16.1547 8.03676C16.5297 8.09703 16.7172 8.25105 16.7172 8.49881Z" fill="#FFCD37"/>
<path d="M36.4369 8.49881C36.4369 8.64614 36.3499 8.80685 36.1758 8.98096L32.5296 12.5368L33.3934 17.5591C33.4001 17.606 33.4035 17.6729 33.4035 17.76C33.4035 17.9006 33.3683 18.0195 33.298 18.1166C33.2277 18.2137 33.1256 18.2622 32.9916 18.2622C32.8644 18.2622 32.7305 18.222 32.5898 18.1417L28.0798 15.7711L23.5698 18.1417C23.4224 18.222 23.2885 18.2622 23.168 18.2622C23.0273 18.2622 22.9219 18.2137 22.8516 18.1166C22.7812 18.0195 22.7461 17.9006 22.7461 17.76C22.7461 17.7198 22.7528 17.6528 22.7662 17.5591L23.63 12.5368L19.9738 8.98096C19.8064 8.80015 19.7227 8.63944 19.7227 8.49881C19.7227 8.25105 19.9102 8.09703 20.2852 8.03676L25.3276 7.3035L27.5876 2.73319C27.7148 2.45864 27.8789 2.32136 28.0798 2.32136C28.2807 2.32136 28.4448 2.45864 28.572 2.73319L30.832 7.3035L35.8744 8.03676C36.2494 8.09703 36.4369 8.25105 36.4369 8.49881Z" fill="#FFCD37"/>
<path d="M56.1576 8.49881C56.1576 8.64614 56.0706 8.80685 55.8965 8.98096L52.2503 12.5368L53.1141 17.5591C53.1208 17.606 53.1242 17.6729 53.1242 17.76C53.1242 17.9006 53.089 18.0195 53.0187 18.1166C52.9484 18.2137 52.8463 18.2622 52.7123 18.2622C52.5851 18.2622 52.4512 18.222 52.3105 18.1417L47.8005 15.7711L43.2905 18.1417C43.1431 18.222 43.0092 18.2622 42.8887 18.2622C42.748 18.2622 42.6426 18.2137 42.5723 18.1166C42.502 18.0195 42.4668 17.9006 42.4668 17.76C42.4668 17.7198 42.4735 17.6528 42.4869 17.5591L43.3507 12.5368L39.6945 8.98096C39.5271 8.80015 39.4434 8.63944 39.4434 8.49881C39.4434 8.25105 39.6309 8.09703 40.0059 8.03676L45.0483 7.3035L47.3083 2.73319C47.4355 2.45864 47.5996 2.32136 47.8005 2.32136C48.0014 2.32136 48.1655 2.45864 48.2927 2.73319L50.5527 7.3035L55.5951 8.03676C55.9701 8.09703 56.1576 8.25105 56.1576 8.49881Z" fill="#FFCD37"/>
<path d="M75.8774 8.49881C75.8774 8.64614 75.7903 8.80685 75.6162 8.98096L71.97 12.5368L72.8338 17.5591C72.8405 17.606 72.8439 17.6729 72.8439 17.76C72.8439 17.9006 72.8087 18.0195 72.7384 18.1166C72.6681 18.2137 72.566 18.2622 72.4321 18.2622C72.3048 18.2622 72.1709 18.222 72.0303 18.1417L67.5202 15.7711L63.0102 18.1417C62.8629 18.222 62.7289 18.2622 62.6084 18.2622C62.4678 18.2622 62.3623 18.2137 62.292 18.1166C62.2217 18.0195 62.1865 17.9006 62.1865 17.76C62.1865 17.7198 62.1932 17.6528 62.2066 17.5591L63.0705 12.5368L59.4142 8.98096C59.2468 8.80015 59.1631 8.63944 59.1631 8.49881C59.1631 8.25105 59.3506 8.09703 59.7256 8.03676L64.768 7.3035L67.028 2.73319C67.1553 2.45864 67.3193 2.32136 67.5202 2.32136C67.7211 2.32136 67.8852 2.45864 68.0124 2.73319L70.2725 7.3035L75.3149 8.03676C75.6899 8.09703 75.8774 8.25105 75.8774 8.49881Z" fill="#FFCD37"/>
<path d="M95.5871 8.49881C95.5871 8.64614 95.5001 8.80685 95.3261 8.98096L91.6821 12.5368L92.5454 17.5591C92.5521 17.606 92.5554 17.6729 92.5554 17.76C92.5554 17.9006 92.5203 18.0195 92.45 18.1166C92.3798 18.2137 92.2777 18.2622 92.1438 18.2622C92.0167 18.2622 91.8828 18.222 91.7423 18.1417L87.235 15.7711L82.7276 18.1417C82.5804 18.222 82.4465 18.2622 82.3261 18.2622C82.1855 18.2622 82.0801 18.2137 82.0098 18.1166C81.9396 18.0195 81.9044 17.9006 81.9044 17.76C81.9044 17.7198 81.9111 17.6528 81.9245 17.5591L82.7878 12.5368L79.1338 8.98096C78.9665 8.80015 78.8828 8.63944 78.8828 8.49881C78.8828 8.25105 79.0702 8.09703 79.445 8.03676L84.4844 7.3035L86.7431 2.73319C86.8702 2.45864 87.0342 2.32136 87.235 2.32136C87.4357 2.32136 87.5997 2.45864 87.7268 2.73319L89.9855 7.3035L95.0249 8.03676C95.3997 8.09703 95.5871 8.25105 95.5871 8.49881Z" fill="#FFCD37"/>
</svg>
