<svg width="60" height="67" viewBox="0 0 60 67" fill="none" xmlns="http://www.w3.org/2000/svg">
<g clip-path="url(#clip0_937_9659)">
<path d="M5.07279 61.0611C1.51256 60.2215 0.0436165 58.3547 0.0436165 54.731C0.0413285 38.8704 0.0985302 23.0076 0.000143267 7.14699C-0.0227374 3.45694 2.69777 0.915308 6.18708 0.949623C17.664 1.06401 29.1455 0.990802 40.6248 0.993089C43.7594 0.993089 45.5945 2.37943 46.5303 5.35115C46.6195 5.63253 47.0314 5.95967 47.3334 6.00772C50.4978 6.51101 52.4038 8.66373 52.4106 11.8962C52.4266 19.4456 52.3992 26.995 52.4335 34.5444C52.4381 35.67 52.5982 36.8115 52.8362 37.9142C53.2984 40.0532 53.2709 42.1647 52.6005 44.2305C52.3282 45.0701 52.5342 45.4727 53.2343 45.8868C54.5134 46.6417 55.7512 47.4653 56.9959 48.2775C59.6157 49.9864 60.6111 52.7179 59.6341 55.4883C58.6708 58.2266 56.1653 59.6999 53.0353 59.3728C52.8865 59.3568 52.7332 59.3728 52.4106 59.3728C52.4106 60.0637 52.4312 60.7339 52.406 61.4042C52.2871 64.5864 49.9143 66.897 46.7225 66.8993C35.1288 66.9084 23.5352 66.8238 11.9416 66.9496C8.22575 66.9908 5.41142 65.2567 5.07279 61.0611ZM50.4063 32.9064C50.4063 32.3551 50.4063 32.0623 50.4063 31.7694C50.4063 25.1351 50.4108 18.5031 50.404 11.8688C50.4017 9.39579 48.9717 8.00945 46.4777 8.01631C38.776 8.03461 31.0744 8.05292 23.3728 8.07122C22.9289 8.07122 22.4827 8.07122 21.9244 8.07122C21.9244 8.70033 21.9267 9.18761 21.9244 9.67489C21.9015 12.3812 21.9908 15.0922 21.8237 17.7893C21.643 20.7107 19.3252 22.7331 16.4193 22.7468C13.7514 22.7605 11.0813 22.7514 8.41108 22.7514C8.00838 22.7514 7.60797 22.7514 7.18696 22.7514C7.16408 23.1494 7.13891 23.3736 7.13891 23.5978C7.13663 36.1023 7.13434 48.6069 7.13891 61.1114C7.13891 61.45 7.16179 61.8 7.24188 62.1294C7.68805 64.0053 9.03572 64.9227 11.3764 64.9227C22.9678 64.9273 34.5591 64.925 46.1505 64.9227C46.5692 64.9227 46.9925 64.9136 47.4043 64.8587C48.8206 64.6711 50.2164 63.5638 50.3079 62.1798C50.42 60.448 51.0446 58.5217 49.2256 57.1446C48.8824 56.8838 48.7017 56.4056 48.4545 56.0236C47.5485 54.6235 46.6447 53.2189 45.7523 51.8371C38.4237 54.4199 32.612 50.4508 30.4406 46.0035C27.9672 40.9385 29.3881 34.5764 33.8452 31.209C38.3619 27.7934 45.1735 27.512 50.4063 32.911V32.9064ZM44.5465 6.00085C44.0637 3.80924 42.9014 2.97423 40.4829 2.97423C29.1158 2.96966 17.751 2.96966 6.38385 2.97423C3.21717 2.97423 2.02966 4.16155 2.02966 7.31628C2.02966 23.1037 2.02966 38.891 2.02966 54.6784C2.02966 55.136 2.02051 55.5958 2.07313 56.0487C2.25847 57.609 3.51919 58.7986 5.09109 58.8443V57.4831C5.09109 42.4576 5.1277 27.432 5.06592 12.4087C5.04991 8.59052 7.55077 5.91621 11.5137 5.95967C22.0388 6.07863 32.5662 6.00085 43.0936 6.00085C43.5466 6.00085 43.9997 6.00085 44.542 6.00085H44.5465ZM51.159 40.6663C51.143 35.1301 46.6744 30.7263 41.087 30.74C35.6391 30.756 31.1407 35.3199 31.214 40.7578C31.2895 46.2757 35.7398 50.6681 41.2288 50.6452C46.6927 50.6223 51.1728 46.1202 51.159 40.664V40.6663ZM47.9054 51.4322C48.6834 52.6401 49.6878 54.349 50.8433 55.9435C51.7883 57.2498 53.1931 57.7531 54.7879 57.4214C56.4262 57.0828 57.513 56.0327 57.8951 54.4222C58.2635 52.8711 57.8905 51.391 56.5749 50.421C54.9321 49.2108 53.1634 48.1699 51.969 47.3944C50.5733 48.7807 49.3423 50.0047 47.9054 51.4299V51.4322ZM8.95335 20.6879C11.6624 20.6879 14.5019 20.832 17.3162 20.6307C18.8927 20.5186 19.9178 18.9103 19.9361 17.222C19.959 15.0533 19.9429 12.8845 19.9429 10.7158C19.9429 10.3726 19.9429 10.0295 19.9429 9.72064C16.2042 13.4519 12.5548 17.0939 8.95335 20.6879ZM18.1926 8.07122C15.7009 8.07122 13.3007 8.05978 10.9005 8.0735C8.61472 8.08723 7.1984 9.469 7.14578 11.759C7.10917 13.3581 7.13891 14.9618 7.13663 16.5609C7.13663 17.4119 7.13663 18.2606 7.13663 19.0979C10.8479 15.3941 14.4722 11.7796 18.1903 8.06893L18.1926 8.07122Z" fill="white"/>
<path d="M35.9652 14.7264C33.3362 14.7264 30.7072 14.7173 28.0782 14.7333C27.3483 14.7379 26.7145 14.5869 26.7168 13.7381C26.7214 12.8825 27.3918 12.7476 28.0965 12.7476C33.3156 12.7476 38.537 12.7476 43.756 12.7521C44.4448 12.7521 45.122 12.8665 45.1083 13.761C45.0946 14.6486 44.4402 14.7333 43.7355 14.731C41.1454 14.7218 38.553 14.7264 35.9629 14.7264H35.9652Z" fill="white"/>
<path d="M35.8508 22.5041C38.4798 22.5041 41.1111 22.5087 43.74 22.5018C44.4425 22.5018 45.1014 22.5865 45.1106 23.4741C45.1198 24.3617 44.4379 24.4921 43.7538 24.4944C38.5324 24.5036 33.311 24.5013 28.0897 24.4967C27.3918 24.4967 26.7214 24.3434 26.7168 23.4878C26.7122 22.6231 27.3552 22.4973 28.0759 22.4995C30.6683 22.5133 33.2584 22.5041 35.8508 22.5041Z" fill="white"/>
<path d="M35.9707 17.6819C38.5608 17.6819 41.1486 17.6865 43.7387 17.6796C44.4251 17.6796 45.1184 17.7025 45.1115 18.6222C45.1047 19.5121 44.432 19.5899 43.7387 19.5899C38.5219 19.5876 33.3051 19.5853 28.0906 19.5899C27.3859 19.5899 26.7269 19.5006 26.7246 18.6176C26.7201 17.7117 27.395 17.6728 28.0929 17.6774C30.7196 17.6911 33.3463 17.6819 35.9753 17.6819H35.9707Z" fill="white"/>
<path d="M18.1173 48.3484C16.4402 48.3484 14.763 48.3439 13.0836 48.3507C12.3743 48.353 11.713 48.2318 11.7268 47.3556C11.7405 46.5091 12.3903 46.3398 13.0973 46.3398C16.5294 46.3398 19.9615 46.3398 23.3913 46.3398C24.0801 46.3398 24.7733 46.4359 24.8008 47.303C24.8305 48.2478 24.1258 48.353 23.3776 48.3484C21.6227 48.337 19.87 48.3461 18.1151 48.3461L18.1173 48.3484Z" fill="white"/>
<path d="M18.2212 31.9436C16.4708 31.9436 14.7205 31.9413 12.9701 31.9436C12.2974 31.9436 11.7002 31.8018 11.7254 30.9759C11.7505 30.1867 12.3226 30.022 13.0067 30.022C16.5074 30.0288 20.0082 30.0288 23.5089 30.022C24.1816 30.022 24.7719 30.1569 24.804 30.9576C24.8406 31.875 24.1656 31.9436 23.4723 31.9436C21.7219 31.9413 19.9716 31.9436 18.2212 31.9436Z" fill="white"/>
<path d="M18.286 40.1565C16.5356 40.1565 14.7852 40.1474 13.0348 40.1611C12.3599 40.1657 11.765 40.0239 11.7284 39.2369C11.6872 38.3332 12.3599 38.2395 13.0577 38.2417C16.5585 38.2417 20.0592 38.244 23.56 38.2417C24.2281 38.2417 24.8298 38.3653 24.807 39.2003C24.7864 39.9987 24.2189 40.1634 23.5371 40.1611C21.7867 40.152 20.0363 40.1588 18.286 40.1588V40.1565Z" fill="white"/>
<path d="M40.4738 44.1322C41.1327 43.0524 41.7482 42.0596 42.35 41.0599C43.2309 39.5935 44.0592 38.0927 45.0156 36.6766C45.2261 36.3655 45.9514 36.1345 46.3129 36.2534C46.9582 36.4662 46.9948 37.0999 46.6516 37.6764C44.9607 40.52 43.2767 43.3659 41.5606 46.1935C41.1076 46.9415 40.4509 46.9827 39.8491 46.365C38.4969 44.9741 37.1401 43.5809 35.8793 42.1076C35.6391 41.8262 35.6368 41.0507 35.8565 40.7304C36.2523 40.1516 36.8541 40.3484 37.314 40.8242C38.339 41.8903 39.3595 42.9632 40.4761 44.1322H40.4738Z" fill="white"/>
</g>
<defs>
<clipPath id="clip0_937_9659">
<rect width="60" height="66" fill="white" transform="translate(0 0.949707)"/>
</clipPath>
</defs>
</svg>
