<svg width="348" height="111" viewBox="0 0 348 111" fill="none" xmlns="http://www.w3.org/2000/svg">
<g filter="url(#filter0_d_1234_3389)">
<mask id="path-1-inside-1_1234_3389" fill="white">
<path d="M20 50.5C20 30.8939 35.8939 15 55.5 15H292.5C312.106 15 328 30.8939 328 50.5C328 70.1061 312.106 86 292.5 86H55.5C35.8939 86 20 70.1061 20 50.5Z"/>
</mask>
<path d="M20 50.5C20 30.8939 35.8939 15 55.5 15H292.5C312.106 15 328 30.8939 328 50.5C328 70.1061 312.106 86 292.5 86H55.5C35.8939 86 20 70.1061 20 50.5Z" fill="#00BDE0"/>
<path d="M55.5 15V16H292.5V15V14H55.5V15ZM292.5 86V85H55.5V86V87H292.5V86ZM55.5 86V85C36.4462 85 21 69.5538 21 50.5H20H19C19 70.6584 35.3416 87 55.5 87V86ZM328 50.5H327C327 69.5538 311.554 85 292.5 85V86V87C312.658 87 329 70.6584 329 50.5H328ZM292.5 15V16C311.554 16 327 31.4462 327 50.5H328H329C329 30.3416 312.658 14 292.5 14V15ZM55.5 15V14C35.3416 14 19 30.3416 19 50.5H20H21C21 31.4462 36.4462 16 55.5 16V15Z" fill="#00BDE0" mask="url(#path-1-inside-1_1234_3389)"/>
<rect x="28" y="23" width="55" height="55" rx="27.5" fill="white"/>
<path d="M66.4914 59.4065C66.4914 59.844 66.4093 60.2541 66.2453 60.6369C66.0812 61.0197 65.839 61.3557 65.5187 61.6447C65.1984 61.9338 64.839 62.1447 64.4406 62.2776C64.0421 62.4104 63.632 62.4533 63.2101 62.4065C61.5851 62.2346 60.0109 61.8791 58.4874 61.3401C56.964 60.801 55.5226 60.0861 54.1632 59.1955C52.882 58.383 51.7101 57.4494 50.6476 56.3947C49.5851 55.3401 48.6554 54.1721 47.8585 52.8908C46.9679 51.5158 46.2492 50.0588 45.7023 48.5197C45.1554 46.9807 44.796 45.3987 44.6242 43.7737C44.5929 43.3518 44.6437 42.9416 44.7765 42.5432C44.9093 42.1447 45.1164 41.7893 45.3976 41.4768C45.6789 41.1643 46.0109 40.9221 46.3937 40.7502C46.7765 40.5783 47.1789 40.4924 47.6007 40.4924H50.6007C51.3664 40.508 52.0265 40.7541 52.5812 41.2307C53.1359 41.7072 53.4757 42.3283 53.6007 43.094C53.7257 43.9846 53.9367 44.844 54.2335 45.6721C54.4523 46.2346 54.4992 46.7971 54.3742 47.3596C54.2492 47.9221 53.9835 48.4221 53.5773 48.8596L52.8507 49.5627C53.4445 50.4846 54.1242 51.3322 54.8898 52.1057C55.6554 52.8791 56.507 53.5627 57.4445 54.1565L58.1476 53.4299C58.5851 53.008 59.0851 52.7385 59.6476 52.6213C60.2101 52.5041 60.7648 52.5471 61.3117 52.7502C62.1554 53.0627 63.0226 53.2815 63.9132 53.4065C64.6789 53.5315 65.2999 53.8713 65.7765 54.426C66.2531 54.9807 66.4914 55.6486 66.4914 56.4299V59.4065ZM64.4992 56.4299C64.4992 56.1486 64.421 55.9143 64.2648 55.7268C64.1085 55.5393 63.9054 55.4221 63.6554 55.3752C62.6085 55.2346 61.5929 54.9846 60.6085 54.6252C60.4367 54.5627 60.257 54.551 60.0695 54.5901C59.882 54.6291 59.7179 54.7111 59.5773 54.8361L58.2882 56.1252C58.132 56.2815 57.9445 56.3752 57.7257 56.4065C57.507 56.4377 57.296 56.3986 57.0929 56.2893C55.7648 55.5236 54.5617 54.6018 53.4835 53.5236C52.4054 52.4455 51.4835 51.2424 50.7179 49.9143C50.6085 49.7112 50.5695 49.5002 50.6007 49.2815C50.632 49.0627 50.7257 48.8674 50.882 48.6955L52.1476 47.4299C52.2882 47.2893 52.3781 47.1252 52.4171 46.9377C52.4562 46.7502 52.4445 46.5627 52.382 46.3752C52.007 45.4065 51.7492 44.3987 51.6085 43.3518C51.5773 43.1018 51.4679 42.8986 51.2804 42.7424C51.0929 42.5862 50.8664 42.508 50.6007 42.508H47.6007C47.3195 42.508 47.0812 42.6135 46.8859 42.8244C46.6906 43.0354 46.6007 43.2815 46.6164 43.5627C46.7726 45.0471 47.0968 46.4807 47.589 47.8635C48.0812 49.2463 48.7257 50.5627 49.5226 51.8127C50.257 52.969 51.1046 54.0236 52.0656 54.9768C53.0265 55.9299 54.0851 56.7736 55.2414 57.508C56.4757 58.3049 57.7804 58.9494 59.1554 59.4416C60.5304 59.9338 61.9445 60.258 63.3976 60.4143C63.6945 60.4455 63.9523 60.3596 64.171 60.1565C64.3898 59.9533 64.4992 59.7111 64.4992 59.4299V56.4299ZM58.3585 45.4846C58.0929 45.4065 57.8898 45.2619 57.7492 45.051C57.6085 44.8401 57.5617 44.5979 57.6085 44.3244C57.6554 44.051 57.7882 43.8401 58.007 43.6916C58.2257 43.5432 58.4679 43.4846 58.7335 43.5158C59.9523 43.7658 60.9835 44.3127 61.8273 45.1565C62.671 46.0002 63.2257 47.0315 63.4914 48.2502C63.5226 48.4377 63.5109 48.6174 63.4562 48.7893C63.4015 48.9612 63.3039 49.1096 63.1632 49.2346C63.0226 49.3596 62.8664 49.4377 62.6945 49.469C62.5226 49.5002 62.3468 49.4846 62.1671 49.4221C61.9874 49.3596 61.8429 49.258 61.7335 49.1174C61.6242 48.9768 61.5539 48.8205 61.5226 48.6487C61.3507 47.8362 60.9835 47.1487 60.421 46.5862C59.8585 46.0237 59.171 45.6565 58.3585 45.4846ZM58.4289 41.5002C58.257 41.469 58.1007 41.4026 57.9601 41.301C57.8195 41.1994 57.7101 41.0666 57.632 40.9026C57.5539 40.7385 57.5265 40.5666 57.5499 40.3869C57.5734 40.2072 57.6398 40.0471 57.7492 39.9065C57.8585 39.7658 57.9914 39.6604 58.1476 39.5901C58.3039 39.5197 58.4757 39.4924 58.6632 39.508C61.0226 39.8049 63.007 40.758 64.6164 42.3674C66.2257 43.9768 67.1867 45.9612 67.4992 48.3205C67.5148 48.6018 67.4406 48.8479 67.2765 49.0588C67.1124 49.2697 66.8898 49.3908 66.6085 49.4221C66.3273 49.4533 66.0812 49.3869 65.8703 49.2229C65.6593 49.0588 65.5382 48.8362 65.507 48.5549C65.257 46.6643 64.4914 45.0744 63.2101 43.7854C61.9289 42.4963 60.3351 41.7346 58.4289 41.5002Z" fill="#031B4E"/>
<path d="M109.493 51.42H104.957V56.076H101.789V51.42H97.2532V48.492H101.789V43.836H104.957V48.492H109.493V51.42ZM116.617 53.58C116.745 54.284 117.033 54.828 117.481 55.212C117.945 55.58 118.561 55.764 119.329 55.764C120.321 55.764 121.041 55.356 121.489 54.54C121.937 53.708 122.161 52.316 122.161 50.364C121.793 50.876 121.273 51.276 120.601 51.564C119.945 51.852 119.233 51.996 118.465 51.996C117.441 51.996 116.513 51.788 115.681 51.372C114.865 50.94 114.217 50.308 113.737 49.476C113.257 48.628 113.017 47.604 113.017 46.404C113.017 44.628 113.545 43.22 114.601 42.18C115.657 41.124 117.097 40.596 118.921 40.596C121.193 40.596 122.793 41.324 123.721 42.78C124.665 44.236 125.137 46.428 125.137 49.356C125.137 51.436 124.953 53.14 124.585 54.468C124.233 55.796 123.617 56.804 122.737 57.492C121.873 58.18 120.689 58.524 119.185 58.524C118.001 58.524 116.993 58.3 116.161 57.852C115.329 57.388 114.689 56.788 114.241 56.052C113.809 55.3 113.561 54.476 113.497 53.58H116.617ZM119.161 49.26C119.993 49.26 120.649 49.004 121.129 48.492C121.609 47.98 121.849 47.292 121.849 46.428C121.849 45.484 121.593 44.756 121.081 44.244C120.585 43.716 119.905 43.452 119.041 43.452C118.177 43.452 117.489 43.724 116.977 44.268C116.481 44.796 116.233 45.5 116.233 46.38C116.233 47.228 116.473 47.924 116.953 48.468C117.449 48.996 118.185 49.26 119.161 49.26ZM127.344 44.1V41.004H133.128V58.5H129.672V44.1H127.344ZM147.056 48.516V51.348H136.88V48.516H147.056ZM150.296 55.092V52.452L158.144 41.22H162.056V52.164H164.168V55.092H162.056V58.5H158.696V55.092H150.296ZM158.912 44.82L153.992 52.164H158.912V44.82ZM166.163 55.092V52.452L174.011 41.22H177.923V52.164H180.035V55.092H177.923V58.5H174.563V55.092H166.163ZM174.779 44.82L169.859 52.164H174.779V44.82ZM192.782 48.516V51.348H182.606V48.516H192.782ZM197.223 54.708C198.759 53.428 199.983 52.364 200.895 51.516C201.807 50.652 202.567 49.756 203.175 48.828C203.783 47.9 204.087 46.988 204.087 46.092C204.087 45.276 203.895 44.636 203.511 44.172C203.127 43.708 202.535 43.476 201.735 43.476C200.935 43.476 200.319 43.748 199.887 44.292C199.455 44.82 199.231 45.548 199.215 46.476H195.951C196.015 44.556 196.583 43.1 197.655 42.108C198.743 41.116 200.119 40.62 201.783 40.62C203.607 40.62 205.007 41.108 205.983 42.084C206.959 43.044 207.447 44.316 207.447 45.9C207.447 47.148 207.111 48.34 206.439 49.476C205.767 50.612 204.999 51.604 204.135 52.452C203.271 53.284 202.143 54.292 200.751 55.476H207.831V58.26H195.975V55.764L197.223 54.708ZM212.876 49.236C211.276 48.404 210.476 47.116 210.476 45.372C210.476 44.508 210.692 43.724 211.124 43.02C211.572 42.3 212.236 41.732 213.116 41.316C214.012 40.884 215.1 40.668 216.38 40.668C217.66 40.668 218.74 40.884 219.62 41.316C220.516 41.732 221.18 42.3 221.612 43.02C222.06 43.724 222.284 44.508 222.284 45.372C222.284 46.252 222.068 47.028 221.636 47.7C221.204 48.356 220.628 48.868 219.908 49.236C220.788 49.62 221.476 50.18 221.972 50.916C222.468 51.652 222.716 52.524 222.716 53.532C222.716 54.62 222.436 55.572 221.876 56.388C221.332 57.188 220.58 57.804 219.62 58.236C218.66 58.668 217.58 58.884 216.38 58.884C215.18 58.884 214.1 58.668 213.14 58.236C212.196 57.804 211.444 57.188 210.884 56.388C210.34 55.572 210.068 54.62 210.068 53.532C210.068 52.524 210.316 51.652 210.812 50.916C211.308 50.164 211.996 49.604 212.876 49.236ZM219.02 45.852C219.02 45.068 218.78 44.46 218.3 44.028C217.836 43.596 217.196 43.38 216.38 43.38C215.58 43.38 214.94 43.596 214.46 44.028C213.996 44.46 213.764 45.076 213.764 45.876C213.764 46.596 214.004 47.172 214.484 47.604C214.98 48.036 215.612 48.252 216.38 48.252C217.148 48.252 217.78 48.036 218.276 47.604C218.772 47.156 219.02 46.572 219.02 45.852ZM216.38 50.7C215.468 50.7 214.724 50.932 214.148 51.396C213.588 51.86 213.308 52.524 213.308 53.388C213.308 54.188 213.58 54.844 214.124 55.356C214.684 55.852 215.436 56.1 216.38 56.1C217.324 56.1 218.068 55.844 218.612 55.332C219.156 54.82 219.428 54.172 219.428 53.388C219.428 52.54 219.148 51.884 218.588 51.42C218.028 50.94 217.292 50.7 216.38 50.7ZM225.418 45.612C225.498 44.012 226.058 42.78 227.098 41.916C228.154 41.036 229.538 40.596 231.25 40.596C232.418 40.596 233.418 40.804 234.25 41.22C235.082 41.62 235.706 42.172 236.122 42.876C236.554 43.564 236.77 44.348 236.77 45.228C236.77 46.236 236.506 47.092 235.978 47.796C235.466 48.484 234.85 48.948 234.13 49.188V49.284C235.058 49.572 235.778 50.084 236.29 50.82C236.818 51.556 237.082 52.5 237.082 53.652C237.082 54.612 236.858 55.468 236.41 56.22C235.978 56.972 235.33 57.564 234.466 57.996C233.618 58.412 232.594 58.62 231.394 58.62C229.586 58.62 228.114 58.164 226.978 57.252C225.842 56.34 225.242 54.996 225.178 53.22H228.442C228.474 54.004 228.738 54.636 229.234 55.116C229.746 55.58 230.442 55.812 231.322 55.812C232.138 55.812 232.762 55.588 233.194 55.14C233.642 54.676 233.866 54.084 233.866 53.364C233.866 52.404 233.562 51.716 232.954 51.3C232.346 50.884 231.402 50.676 230.122 50.676H229.426V47.916H230.122C232.394 47.916 233.53 47.156 233.53 45.636C233.53 44.948 233.322 44.412 232.906 44.028C232.506 43.644 231.922 43.452 231.154 43.452C230.402 43.452 229.818 43.66 229.402 44.076C229.002 44.476 228.77 44.988 228.706 45.612H225.418ZM248.809 45.372C248.649 44.7 248.369 44.196 247.969 43.86C247.585 43.524 247.025 43.356 246.289 43.356C245.185 43.356 244.369 43.804 243.841 44.7C243.329 45.58 243.065 47.02 243.049 49.02C243.433 48.38 243.993 47.884 244.729 47.532C245.465 47.164 246.265 46.98 247.129 46.98C248.169 46.98 249.089 47.204 249.889 47.652C250.689 48.1 251.313 48.756 251.761 49.62C252.209 50.468 252.433 51.492 252.433 52.692C252.433 53.828 252.201 54.844 251.737 55.74C251.289 56.62 250.625 57.308 249.745 57.804C248.865 58.3 247.817 58.548 246.601 58.548C244.937 58.548 243.625 58.18 242.665 57.444C241.721 56.708 241.057 55.684 240.673 54.372C240.305 53.044 240.121 51.412 240.121 49.476C240.121 46.548 240.625 44.34 241.633 42.852C242.641 41.348 244.233 40.596 246.409 40.596C248.089 40.596 249.393 41.052 250.321 41.964C251.249 42.876 251.785 44.012 251.929 45.372H248.809ZM246.361 49.74C245.513 49.74 244.801 49.988 244.225 50.484C243.649 50.98 243.361 51.7 243.361 52.644C243.361 53.588 243.625 54.332 244.153 54.876C244.697 55.42 245.457 55.692 246.433 55.692C247.297 55.692 247.977 55.428 248.473 54.9C248.985 54.372 249.241 53.66 249.241 52.764C249.241 51.836 248.993 51.1 248.497 50.556C248.017 50.012 247.305 49.74 246.361 49.74ZM255.088 49.524C255.088 46.756 255.584 44.588 256.576 43.02C257.584 41.452 259.248 40.668 261.568 40.668C263.888 40.668 265.544 41.452 266.536 43.02C267.544 44.588 268.048 46.756 268.048 49.524C268.048 52.308 267.544 54.492 266.536 56.076C265.544 57.66 263.888 58.452 261.568 58.452C259.248 58.452 257.584 57.66 256.576 56.076C255.584 54.492 255.088 52.308 255.088 49.524ZM264.736 49.524C264.736 48.34 264.656 47.348 264.496 46.548C264.352 45.732 264.048 45.068 263.584 44.556C263.136 44.044 262.464 43.788 261.568 43.788C260.672 43.788 259.992 44.044 259.528 44.556C259.08 45.068 258.776 45.732 258.616 46.548C258.472 47.348 258.4 48.34 258.4 49.524C258.4 50.74 258.472 51.764 258.616 52.596C258.76 53.412 259.064 54.076 259.528 54.588C259.992 55.084 260.672 55.332 261.568 55.332C262.464 55.332 263.144 55.084 263.608 54.588C264.072 54.076 264.376 53.412 264.52 52.596C264.664 51.764 264.736 50.74 264.736 49.524ZM270.604 49.524C270.604 46.756 271.1 44.588 272.092 43.02C273.1 41.452 274.764 40.668 277.084 40.668C279.404 40.668 281.06 41.452 282.052 43.02C283.06 44.588 283.564 46.756 283.564 49.524C283.564 52.308 283.06 54.492 282.052 56.076C281.06 57.66 279.404 58.452 277.084 58.452C274.764 58.452 273.1 57.66 272.092 56.076C271.1 54.492 270.604 52.308 270.604 49.524ZM280.252 49.524C280.252 48.34 280.172 47.348 280.012 46.548C279.868 45.732 279.564 45.068 279.1 44.556C278.652 44.044 277.98 43.788 277.084 43.788C276.188 43.788 275.508 44.044 275.044 44.556C274.596 45.068 274.292 45.732 274.132 46.548C273.988 47.348 273.916 48.34 273.916 49.524C273.916 50.74 273.988 51.764 274.132 52.596C274.276 53.412 274.58 54.076 275.044 54.588C275.508 55.084 276.188 55.332 277.084 55.332C277.98 55.332 278.66 55.084 279.124 54.588C279.588 54.076 279.892 53.412 280.036 52.596C280.18 51.764 280.252 50.74 280.252 49.524ZM286.12 49.524C286.12 46.756 286.616 44.588 287.608 43.02C288.616 41.452 290.28 40.668 292.6 40.668C294.92 40.668 296.576 41.452 297.568 43.02C298.576 44.588 299.08 46.756 299.08 49.524C299.08 52.308 298.576 54.492 297.568 56.076C296.576 57.66 294.92 58.452 292.6 58.452C290.28 58.452 288.616 57.66 287.608 56.076C286.616 54.492 286.12 52.308 286.12 49.524ZM295.768 49.524C295.768 48.34 295.688 47.348 295.528 46.548C295.384 45.732 295.08 45.068 294.616 44.556C294.168 44.044 293.496 43.788 292.6 43.788C291.704 43.788 291.024 44.044 290.56 44.556C290.112 45.068 289.808 45.732 289.648 46.548C289.504 47.348 289.432 48.34 289.432 49.524C289.432 50.74 289.504 51.764 289.648 52.596C289.792 53.412 290.096 54.076 290.56 54.588C291.024 55.084 291.704 55.332 292.6 55.332C293.496 55.332 294.176 55.084 294.64 54.588C295.104 54.076 295.408 53.412 295.552 52.596C295.696 51.764 295.768 50.74 295.768 49.524ZM310.707 45.372C310.547 44.7 310.267 44.196 309.867 43.86C309.483 43.524 308.923 43.356 308.187 43.356C307.083 43.356 306.267 43.804 305.739 44.7C305.227 45.58 304.963 47.02 304.947 49.02C305.331 48.38 305.891 47.884 306.627 47.532C307.363 47.164 308.163 46.98 309.027 46.98C310.067 46.98 310.987 47.204 311.787 47.652C312.587 48.1 313.211 48.756 313.659 49.62C314.107 50.468 314.331 51.492 314.331 52.692C314.331 53.828 314.099 54.844 313.635 55.74C313.187 56.62 312.523 57.308 311.643 57.804C310.763 58.3 309.715 58.548 308.499 58.548C306.835 58.548 305.523 58.18 304.563 57.444C303.619 56.708 302.955 55.684 302.571 54.372C302.203 53.044 302.019 51.412 302.019 49.476C302.019 46.548 302.523 44.34 303.531 42.852C304.539 41.348 306.131 40.596 308.307 40.596C309.987 40.596 311.291 41.052 312.219 41.964C313.147 42.876 313.683 44.012 313.827 45.372H310.707ZM308.259 49.74C307.411 49.74 306.699 49.988 306.123 50.484C305.547 50.98 305.259 51.7 305.259 52.644C305.259 53.588 305.523 54.332 306.051 54.876C306.595 55.42 307.355 55.692 308.331 55.692C309.195 55.692 309.875 55.428 310.371 54.9C310.883 54.372 311.139 53.66 311.139 52.764C311.139 51.836 310.891 51.1 310.395 50.556C309.915 50.012 309.203 49.74 308.259 49.74Z" fill="white"/>
</g>
<defs>
<filter id="filter0_d_1234_3389" x="0" y="0" width="348" height="111" filterUnits="userSpaceOnUse" color-interpolation-filters="sRGB">
<feFlood flood-opacity="0" result="BackgroundImageFix"/>
<feColorMatrix in="SourceAlpha" type="matrix" values="0 0 0 0 0 0 0 0 0 0 0 0 0 0 0 0 0 0 127 0" result="hardAlpha"/>
<feOffset dy="5"/>
<feGaussianBlur stdDeviation="10"/>
<feComposite in2="hardAlpha" operator="out"/>
<feColorMatrix type="matrix" values="0 0 0 0 0 0 0 0 0 0 0 0 0 0 0 0 0 0 0.05 0"/>
<feBlend mode="normal" in2="BackgroundImageFix" result="effect1_dropShadow_1234_3389"/>
<feBlend mode="normal" in="SourceGraphic" in2="effect1_dropShadow_1234_3389" result="shape"/>
</filter>
</defs>
</svg>
