<svg width="24" height="24" viewBox="0 0 24 24" fill="none" xmlns="http://www.w3.org/2000/svg">
<path d="M22.4914 20.4065C22.4914 20.844 22.4093 21.2541 22.2453 21.6369C22.0812 22.0197 21.839 22.3557 21.5187 22.6447C21.1984 22.9338 20.839 23.1447 20.4406 23.2776C20.0421 23.4104 19.632 23.4533 19.2101 23.4065C17.5851 23.2346 16.0109 22.8791 14.4874 22.3401C12.964 21.801 11.5226 21.0861 10.1632 20.1955C8.88198 19.383 7.7101 18.4494 6.6476 17.3947C5.5851 16.3401 4.65541 15.1721 3.85854 13.8908C2.96791 12.5158 2.24916 11.0588 1.70229 9.51974C1.15541 7.98068 0.796038 6.39865 0.624163 4.77365C0.592913 4.35178 0.643694 3.94162 0.776507 3.54318C0.909319 3.14474 1.11635 2.78927 1.3976 2.47678C1.67885 2.16428 2.01088 1.92209 2.39369 1.75021C2.77651 1.57834 3.17885 1.4924 3.60073 1.4924H6.60073C7.36635 1.50803 8.02651 1.75412 8.58119 2.23068C9.13588 2.70724 9.47573 3.32834 9.60073 4.09396C9.72573 4.98459 9.93666 5.84396 10.2335 6.67209C10.4523 7.23459 10.4992 7.79709 10.3742 8.35959C10.2492 8.92209 9.98354 9.42209 9.57729 9.85959L8.85073 10.5627C9.44448 11.4846 10.1242 12.3322 10.8898 13.1057C11.6554 13.8791 12.507 14.5627 13.4445 15.1565L14.1476 14.4299C14.5851 14.008 15.0851 13.7385 15.6476 13.6213C16.2101 13.5041 16.7648 13.5471 17.3117 13.7502C18.1554 14.0627 19.0226 14.2815 19.9132 14.4065C20.6789 14.5315 21.2999 14.8713 21.7765 15.426C22.2531 15.9807 22.4914 16.6486 22.4914 17.4299V20.4065ZM20.4992 17.4299C20.4992 17.1486 20.421 16.9143 20.2648 16.7268C20.1085 16.5393 19.9054 16.4221 19.6554 16.3752C18.6085 16.2346 17.5929 15.9846 16.6085 15.6252C16.4367 15.5627 16.257 15.551 16.0695 15.5901C15.882 15.6291 15.7179 15.7111 15.5773 15.8361L14.2882 17.1252C14.132 17.2815 13.9445 17.3752 13.7257 17.4065C13.507 17.4377 13.296 17.3986 13.0929 17.2893C11.7648 16.5236 10.5617 15.6018 9.48354 14.5236C8.40541 13.4455 7.48354 12.2424 6.71791 10.9143C6.60854 10.7112 6.56948 10.5002 6.60073 10.2815C6.63198 10.0627 6.72573 9.8674 6.88198 9.69553L8.1476 8.4299C8.28823 8.28928 8.37807 8.12521 8.41713 7.93771C8.45619 7.75021 8.44448 7.56271 8.38198 7.37521C8.00698 6.40646 7.74916 5.39865 7.60854 4.35178C7.57729 4.10177 7.46791 3.89865 7.28041 3.7424C7.09291 3.58615 6.86635 3.50803 6.60073 3.50803H3.60073C3.31948 3.50803 3.08119 3.61349 2.88588 3.82443C2.69057 4.03537 2.60073 4.28146 2.61635 4.56271C2.7726 6.04709 3.09682 7.48068 3.58901 8.86349C4.08119 10.2463 4.72573 11.5627 5.5226 12.8127C6.25698 13.969 7.10463 15.0236 8.06557 15.9768C9.02651 16.9299 10.0851 17.7736 11.2414 18.508C12.4757 19.3049 13.7804 19.9494 15.1554 20.4416C16.5304 20.9338 17.9445 21.258 19.3976 21.4143C19.6945 21.4455 19.9523 21.3596 20.171 21.1565C20.3898 20.9533 20.4992 20.7111 20.4992 20.4299V17.4299ZM14.3585 6.48459C14.0929 6.40646 13.8898 6.26193 13.7492 6.05099C13.6085 5.84006 13.5617 5.59787 13.6085 5.32443C13.6554 5.05099 13.7882 4.84006 14.007 4.69162C14.2257 4.54318 14.4679 4.48459 14.7335 4.51584C15.9523 4.76584 16.9835 5.31271 17.8273 6.15646C18.671 7.00021 19.2257 8.03146 19.4914 9.25021C19.5226 9.43771 19.5109 9.6174 19.4562 9.78928C19.4015 9.96115 19.3039 10.1096 19.1632 10.2346C19.0226 10.3596 18.8664 10.4377 18.6945 10.469C18.5226 10.5002 18.3468 10.4846 18.1671 10.4221C17.9874 10.3596 17.8429 10.258 17.7335 10.1174C17.6242 9.97678 17.5539 9.82053 17.5226 9.64865C17.3507 8.83615 16.9835 8.14865 16.421 7.58615C15.8585 7.02365 15.171 6.65646 14.3585 6.48459ZM14.4289 2.50021C14.257 2.46896 14.1007 2.40256 13.9601 2.30099C13.8195 2.19943 13.7101 2.06662 13.632 1.90256C13.5539 1.73849 13.5265 1.56662 13.5499 1.38693C13.5734 1.20724 13.6398 1.04709 13.7492 0.906464C13.8585 0.765839 13.9914 0.66037 14.1476 0.590057C14.3039 0.519745 14.4757 0.492399 14.6632 0.508026C17.0226 0.804901 19.007 1.75803 20.6164 3.3674C22.2257 4.97677 23.1867 6.96115 23.4992 9.32053C23.5148 9.60178 23.4406 9.84787 23.2765 10.0588C23.1124 10.2697 22.8898 10.3908 22.6085 10.4221C22.3273 10.4533 22.0812 10.3869 21.8703 10.2229C21.6593 10.0588 21.5382 9.83615 21.507 9.5549C21.257 7.66428 20.4914 6.07443 19.2101 4.78537C17.9289 3.49631 16.3351 2.73459 14.4289 2.50021Z" fill="#031B4E"/>
</svg>
