<svg width="61" height="79" viewBox="0 0 61 79" fill="none" xmlns="http://www.w3.org/2000/svg">
<g clip-path="url(#clip0_1203_2264)">
<path d="M18.7606 62.9441H31.8478V65.4672H18.8435V70.5912H38.5676V73.1118H18.8616V76.4587H41.5156V54.4524H25.141V51.893C25.5814 51.893 26.0166 51.893 26.4518 51.893C31.4774 51.893 36.5029 51.9111 41.5285 51.8697C42.1891 51.8645 42.9248 51.6909 43.4973 51.3723C51.2636 47.0358 56.0923 40.5284 57.499 31.7129C59.1129 21.6048 54.7764 10.8982 45.6241 4.75876C45.5257 4.6914 45.3961 4.6655 45.1086 4.55152V7.14202H42.601V0.111392C45.9117 1.68124 48.8312 3.62152 51.3491 6.14208C56.3773 11.1754 59.3382 17.1906 60.1465 24.2963C61.4832 36.0494 55.8177 47.3207 45.4376 53.2245C44.5102 53.7504 44.233 54.3125 44.2408 55.3383C44.2874 62.7498 44.2641 70.1638 44.2641 77.5752V79H16.1183C16.1183 78.557 16.1183 78.083 16.1183 77.6089C16.1183 70.1146 16.1027 62.6177 16.139 55.1233C16.1442 54.2218 15.854 53.7659 15.0769 53.3074C6.95307 48.5253 1.83423 41.5413 0.368009 32.1922C-1.5127 20.2215 3.92736 8.32847 14.5484 1.85221C15.5561 1.23826 16.6053 0.694255 17.8487 0V7.14202H15.3593V4.34687C14.4474 4.99708 13.7376 5.44783 13.09 5.9737C6.03344 11.7168 2.34974 19.1879 2.60879 28.2417C2.91188 38.8265 8.11621 46.6135 17.4006 51.6417C18.4601 52.2168 18.8305 52.8152 18.7891 54.0042C18.6932 56.9185 18.758 59.8406 18.758 62.9441H18.7606Z" fill="white"/>
<path d="M29.824 27.2136C27.7646 27.2136 25.7077 27.1877 23.6483 27.2265C22.9644 27.2395 22.537 27.053 22.1665 26.4364C19.9775 22.8149 17.7601 19.2089 15.5089 15.6263C15.1385 15.0382 15.1722 14.647 15.5581 14.0979C18.0865 10.4971 20.5604 6.85999 23.1121 3.27733C23.3841 2.89652 24.0265 2.58048 24.5006 2.5753C28.5754 2.5209 32.6529 2.51572 36.7252 2.58048C37.2199 2.58825 37.9064 2.96387 38.1707 3.37835C40.4425 6.95066 42.6211 10.5825 44.8723 14.1704C45.2427 14.7584 45.2142 15.1392 44.8257 15.6936C42.2999 19.2944 39.8286 22.9341 37.2873 26.5245C37.036 26.8794 36.4428 27.1695 35.9998 27.1825C33.9429 27.2524 31.8835 27.2136 29.8266 27.2136H29.824ZM18.1227 14.9372C20.0112 18.0069 21.8608 21.0611 23.783 24.0687C24.0032 24.4132 24.6353 24.6619 25.0808 24.6671C28.2076 24.7189 31.3369 24.7293 34.4636 24.6593C34.9766 24.649 35.6682 24.3226 35.961 23.9159C37.9582 21.1492 39.8519 18.3126 41.8233 15.5278C42.2015 14.9942 42.1574 14.6289 41.8336 14.1134C40.1058 11.3675 38.4297 8.59045 36.6811 5.85747C36.4661 5.52329 35.935 5.20207 35.5465 5.19689C32.2539 5.14508 28.9614 5.15026 25.6689 5.18912C25.2907 5.1943 24.7674 5.40931 24.5576 5.70204C22.3893 8.74847 20.2755 11.8312 18.1227 14.9346V14.9372Z" fill="white"/>
<path d="M17.8151 29.6949H42.5052V23.5217H45.0336V29.7674C46.492 29.7674 47.8028 29.8633 49.0955 29.7415C50.3933 29.6198 50.8285 30.099 50.6264 31.3243C50.5798 31.6015 50.5746 31.8865 50.5436 32.2647H9.90633C9.86229 32.073 9.78975 31.8813 9.7768 31.687C9.68527 30.409 10.275 29.77 11.5461 29.77C12.7662 29.77 13.9864 29.77 15.3205 29.77V23.5088H17.8151V29.6975V29.6949Z" fill="white"/>
<path d="M41.176 39.9508H19.1904V37.4795H41.176V39.9508Z" fill="white"/>
<path d="M34.5 63.0215H38.5516V65.4229H34.5V63.0215Z" fill="white"/>
<path d="M13.2197 37.438H16.5071V39.9352H13.2197V37.438Z" fill="white"/>
<path d="M43.8623 39.9302V37.4434H47.1419V39.9302H43.8623Z" fill="white"/>
<path d="M31.4361 13.6156H36.9124V16.1543H31.4361V21.6514H28.9985V16.2139H23.46V13.626H28.9052V8.19629H31.4335V13.6182L31.4361 13.6156Z" fill="white"/>
</g>
<defs>
<clipPath id="clip0_1203_2264">
<rect width="60.3432" height="79" fill="white"/>
</clipPath>
</defs>
</svg>
