<svg width="70" height="70" viewBox="0 0 70 70" fill="none" xmlns="http://www.w3.org/2000/svg">
<g clip-path="url(#clip0_937_8271)">
<path d="M12.1254 12.1591C12.1254 10.6854 12.121 9.38574 12.1254 8.08613C12.1321 6.74186 12.2795 6.59225 13.5836 6.58108C14.2468 6.57662 14.91 6.58108 15.7295 6.58108C15.7295 5.01798 15.7228 3.54419 15.7295 2.0704C15.7362 0.79982 15.9595 0.576519 17.2256 0.572053C19.9789 0.565354 22.7322 0.567587 25.4878 0.572053C26.8075 0.574286 27.0018 0.775257 27.0084 2.14856C27.0174 3.58885 27.0084 5.02691 27.0084 6.57885C27.6985 6.57885 28.2478 6.57885 28.7949 6.57885C30.6103 6.57885 30.6304 6.60118 30.6326 8.36972C30.6326 9.58895 30.6326 10.8059 30.6326 12.1569C32.5575 12.1569 34.3685 12.1569 36.1817 12.1569C40.2725 12.1614 42.7355 14.5842 42.7378 18.6483C42.7445 33.4598 42.7467 48.2691 42.7378 63.0807C42.7355 67.0532 40.2323 69.5363 36.2464 69.5408C26.3475 69.5497 16.4485 69.4984 6.54962 69.5654C2.63962 69.5966 -0.026596 66.6513 0.00020015 63.0159C0.109618 48.2066 0.107385 33.3951 0.00020015 18.5835C-0.024363 14.9772 2.77583 11.9582 6.53399 12.1435C8.34496 12.2328 10.1649 12.1591 12.1232 12.1591H12.1254ZM12.1254 13.7401C10.2274 13.7401 8.44544 13.825 6.67467 13.72C3.83428 13.5525 1.54991 15.5913 1.57001 18.8247C1.66379 33.4844 1.66603 48.1441 1.57001 62.8038C1.54768 66.1868 3.87894 68.0246 6.73049 67.9777C13.0544 67.8727 19.3805 67.9442 25.7066 67.9442C29.3152 67.9442 32.9259 67.9665 36.5345 67.9353C39.2788 67.9129 41.1456 66.0841 41.1479 63.4179C41.159 48.3495 41.1568 33.2789 41.1479 18.2106C41.1479 16.0155 39.8282 14.1688 37.6889 13.9344C35.3934 13.6843 33.0487 13.8786 30.6393 13.8786C30.6393 15.301 30.6237 16.7078 30.646 18.1168C30.6572 18.9542 30.3111 19.3271 29.4469 19.3249C24.0899 19.307 18.7307 19.3048 13.3737 19.3249C12.4537 19.3293 12.1031 18.9363 12.121 18.0498C12.1478 16.6743 12.1277 15.2988 12.1277 13.7379L12.1254 13.7401ZM29.0159 8.16205C28.3527 8.16205 27.7677 8.16205 27.1804 8.16205C25.4297 8.16205 25.4096 8.14196 25.4051 6.44934C25.4029 5.37079 25.3538 4.28778 25.4208 3.2137C25.4721 2.354 25.1394 2.13516 24.3266 2.15749C22.3571 2.20885 20.3809 2.22225 18.4136 2.15302C17.4891 2.11953 17.2658 2.45895 17.306 3.30749C17.3641 4.56914 17.3083 5.83749 17.3217 7.10137C17.3306 7.84273 17.0224 8.19778 16.252 8.16875C15.4459 8.13749 14.6398 8.16205 13.7913 8.16205V17.6613H29.0182V8.16205H29.0159Z" fill="white"/>
<path d="M62.8283 52.1883C64.943 52.1928 66.678 52.6908 68.0781 54.1065C69.3621 55.4039 69.8846 56.9938 69.9047 58.7556C69.9404 61.8818 69.8958 65.0081 69.927 68.1343C69.9382 69.195 69.4894 69.5656 68.4443 69.5612C61.0754 69.5344 53.7087 69.5344 46.3398 69.5612C45.2701 69.5656 44.9017 69.1704 44.9196 68.1097C44.9687 65.0594 44.9307 62.0069 44.9374 58.9544C44.9464 54.9729 47.2553 52.5144 51.2568 52.2129C51.431 52.1995 51.6052 52.1705 52.0027 52.1191C49.1623 49.7655 47.8939 46.8872 48.3227 43.3769C48.6152 40.9853 49.7965 39.0448 51.6387 37.5041C55.2539 34.4783 60.7471 34.8446 64.0721 38.337C67.0822 41.4945 68.1496 47.4789 62.8283 52.1883ZM68.259 67.8998C68.259 64.6307 68.3371 61.4754 68.2344 58.3269C68.1496 55.7165 66.3788 53.9145 63.7595 53.8475C59.5234 53.7425 55.2807 53.7381 51.0447 53.8452C48.3271 53.9145 46.543 55.9353 46.5251 58.6551C46.5072 61.4442 46.5184 64.2332 46.5251 67.0222C46.5251 67.3036 46.5854 67.5849 46.6211 67.8998H68.259ZM57.4311 52.1794C61.6336 52.1705 65.0278 48.7741 65.0032 44.6073C64.9765 40.4673 61.4885 36.9972 57.3798 37.0262C53.2107 37.0552 49.8478 40.465 49.8545 44.6609C49.8612 48.888 53.1862 52.1883 57.4311 52.1794Z" fill="white"/>
<path d="M30.2077 44.4129C28.4995 44.4129 26.7934 44.3906 25.0852 44.4241C24.2054 44.442 23.7632 44.1204 23.7766 43.2027C23.7967 41.7557 23.7431 40.3064 23.7945 38.8594C23.8682 36.718 25.1611 35.4005 27.2914 35.338C29.2564 35.2799 31.226 35.2777 33.191 35.3447C35.2163 35.4139 36.5048 36.7091 36.5874 38.7277C36.6499 40.2461 36.5986 41.7713 36.6075 43.292C36.612 44.0847 36.2324 44.4263 35.4419 44.4174C33.6979 44.3973 31.9539 44.4107 30.2077 44.4129ZM34.9819 42.7627C34.9819 41.3247 35.0355 39.9938 34.9662 38.6674C34.9082 37.5621 34.2539 36.9726 33.1709 36.9592C31.1679 36.9346 29.1649 36.9435 27.1596 36.9592C26.2062 36.9659 25.5452 37.4973 25.4782 38.4039C25.371 39.833 25.4492 41.2733 25.4492 42.7672H34.9819V42.7627Z" fill="white"/>
<path d="M21.3694 61.2184C25.8712 61.2184 30.3707 61.2184 34.8725 61.2184C35.2074 61.2184 35.5848 61.1425 35.8639 61.272C36.1475 61.4037 36.5115 61.7454 36.5115 61.9977C36.5115 62.2568 36.1631 62.6096 35.8818 62.748C35.6094 62.8842 35.2275 62.8105 34.8926 62.8105C25.8913 62.8105 16.8878 62.8105 7.88654 62.8105C7.84858 62.8105 7.81285 62.8105 7.77489 62.8105C7.11615 62.7949 6.22741 62.9311 6.21401 62.0111C6.20062 61.0509 7.10945 61.2229 7.75479 61.2206C12.2923 61.2139 16.832 61.2162 21.3694 61.2162V61.2184Z" fill="white"/>
<path d="M30.1501 34.065C27.5331 34.0538 25.405 31.9325 25.3849 29.3154C25.3648 26.6849 27.5621 24.463 30.1903 24.4563C32.8253 24.4519 35.0226 26.6603 35.0114 29.2997C35.0002 31.9704 32.8521 34.0739 30.1501 34.0627V34.065ZM33.3813 29.2305C33.359 27.4821 31.9187 26.0462 30.1948 26.0529C28.4285 26.0596 26.948 27.5759 26.9837 29.3422C27.0195 31.1286 28.5067 32.5421 30.3042 32.4974C32.0415 32.455 33.4014 31.0102 33.3791 29.2305H33.3813Z" fill="white"/>
<path d="M27.7581 48.9749C30.2836 48.9749 32.8091 48.9794 35.3347 48.9727C35.922 48.9727 36.5427 48.9861 36.5472 49.7564C36.5517 50.5201 35.9354 50.567 35.3458 50.567C30.2568 50.567 25.17 50.5849 20.081 50.5313C19.6612 50.5268 18.9377 50.0713 18.8953 49.7542C18.797 49.0285 19.4781 48.9727 20.0698 48.9727C22.6333 48.9794 25.1946 48.9749 27.7581 48.9749Z" fill="white"/>
<path d="M27.6624 56.6563C25.1368 56.6563 22.6113 56.6519 20.0858 56.6586C19.4963 56.6586 18.813 56.6139 18.8978 55.8882C18.9358 55.5733 19.6548 55.1044 20.0701 55.0999C25.1569 55.0463 30.246 55.0642 35.3328 55.0642C35.9178 55.0642 36.5408 55.0955 36.5475 55.8592C36.5542 56.6273 35.9424 56.6608 35.3506 56.6586C32.7871 56.6519 30.2259 56.6563 27.6624 56.6563Z" fill="white"/>
<path d="M14.2952 26.0373C11.9908 26.0373 9.68632 26.0284 7.38185 26.0418C6.76777 26.0462 6.13806 25.9413 6.22962 25.2267C6.26981 24.9253 6.94865 24.4854 7.33942 24.4809C11.9863 24.4295 16.6332 24.4295 21.2779 24.4809C21.6552 24.4854 22.2984 24.9275 22.3497 25.2446C22.4792 26.0328 21.7803 26.0328 21.2064 26.0351C18.9019 26.0351 16.5975 26.0351 14.293 26.0351L14.2952 26.0373Z" fill="white"/>
<path d="M14.3429 30.6172C16.6072 30.6172 18.8714 30.6105 21.1357 30.6217C21.6761 30.6239 22.3661 30.5324 22.3884 31.3452C22.413 32.2094 21.7208 32.1915 21.1179 32.1915C16.5536 32.196 11.9871 32.2094 7.42281 32.1692C7.0231 32.1647 6.37106 31.8789 6.27727 31.5819C6.00931 30.7423 6.69708 30.6239 7.32902 30.6217C9.66698 30.6128 12.0049 30.6172 14.3429 30.6172Z" fill="white"/>
<path d="M8.74018 54.9659C10.665 53.0121 12.3286 51.315 14.0034 49.6268C14.4187 49.2092 14.8877 48.6086 15.4883 49.207C16.118 49.8322 15.5464 50.3391 15.0909 50.7924C13.3268 52.5521 11.5493 54.2983 9.80979 56.0802C9.15552 56.7501 8.59726 56.8439 7.94746 56.1048C7.48076 55.5755 6.90018 55.1401 6.48707 54.5752C6.30396 54.3251 6.40891 53.8651 6.38212 53.4988C6.77736 53.4921 7.28649 53.3291 7.54552 53.5122C7.98319 53.8226 8.26008 54.3541 8.74018 54.9637V54.9659Z" fill="white"/>
<path d="M8.74878 42.7156C10.6513 40.7841 12.3417 39.0647 14.0365 37.3475C14.4564 36.9232 14.9208 36.3516 15.5148 36.979C16.0619 37.5574 15.593 38.0509 15.1508 38.4908C13.3599 40.2705 11.5579 42.0413 9.79606 43.85C9.12616 44.5356 8.57237 44.5579 7.93373 43.8433C7.4648 43.3163 6.88645 42.8787 6.47557 42.3159C6.2947 42.0681 6.40635 41.6058 6.38402 41.2419C6.77926 41.2374 7.29509 41.0766 7.54742 41.2642C8.00742 41.6103 8.31111 42.1641 8.74654 42.7134L8.74878 42.7156Z" fill="white"/>
<path d="M20.4539 44.4106C20.2708 44.4106 20.052 44.4754 19.909 44.3972C19.5339 44.1962 19.1922 43.935 18.835 43.696C19.1833 43.4035 19.4915 43.015 19.8934 42.852C20.2395 42.709 20.733 42.7113 21.0836 42.852C21.4833 43.0127 21.7959 43.3923 22.1487 43.6759C21.8049 43.9216 21.4788 44.2007 21.1082 44.395C20.934 44.4865 20.675 44.4106 20.4539 44.4106Z" fill="white"/>
<path d="M20.4813 36.3136C21.1669 36.7982 22.0578 37.1264 22.0779 37.5016C22.1315 38.5422 21.1624 38.2809 20.5103 38.2876C19.8494 38.2943 18.8981 38.5198 18.9093 37.5172C18.9137 37.1555 19.8092 36.8049 20.4813 36.3136Z" fill="white"/>
</g>
<defs>
<clipPath id="clip0_937_8271">
<rect width="69.9267" height="69" fill="white" transform="translate(0 0.569824)"/>
</clipPath>
</defs>
</svg>
