<svg width="60" height="60" viewBox="0 0 60 60" fill="none" xmlns="http://www.w3.org/2000/svg">
<rect width="60" height="60" rx="30" fill="white"/>
<path d="M30.7734 39.1641C31.8359 38.3203 32.8359 37.4141 33.7734 36.4453C35.1172 35.0391 36.1562 33.625 36.8906 32.2031C37.625 30.7812 37.9922 29.3828 37.9922 28.0078C37.9453 25.7422 37.168 23.8555 35.6602 22.3477C34.1523 20.8398 32.2656 20.0547 30 19.9922C27.7344 20.0547 25.8477 20.8398 24.3398 22.3477C22.832 23.8555 22.0547 25.7422 22.0078 28.0078C22.0078 29.3828 22.375 30.7812 23.1094 32.2031C23.8438 33.625 24.8828 35.0391 26.2266 36.4453C27.3828 37.6641 28.6406 38.7734 30 39.7734C30.25 39.5859 30.5078 39.3828 30.7734 39.1641ZM35.2266 37.8047C33.9141 39.1797 32.4922 40.4219 30.9609 41.5312L30.5625 41.8359C30.3906 41.9453 30.2031 42 30 42C29.7969 42 29.6094 41.9453 29.4375 41.8359L29.0391 41.5312C27.5078 40.4219 26.0859 39.1797 24.7734 37.8047C23.2734 36.2422 22.1055 34.6406 21.2695 33C20.4336 31.3594 20.0078 29.6953 19.9922 28.0078C20.0703 25.1641 21.0508 22.8047 22.9336 20.9297C24.8164 19.0547 27.1719 18.0781 30 18C32.8281 18.0781 35.1836 19.0547 37.0664 20.9297C38.9492 22.8047 39.9297 25.1641 40.0078 28.0078C39.9922 29.6953 39.5664 31.3594 38.7305 33C37.8945 34.6406 36.7266 36.2422 35.2266 37.8047ZM30 31.9922C29.2813 31.9922 28.6172 31.8164 28.0078 31.4648C27.3984 31.1133 26.9102 30.625 26.543 30C26.1758 29.375 25.9922 28.7109 25.9922 28.0078C25.9922 27.3047 26.1758 26.6367 26.543 26.0039C26.9102 25.3711 27.3984 24.8789 28.0078 24.5273C28.6172 24.1758 29.2813 24 30 24C31.1406 24.0313 32.0859 24.4219 32.8359 25.1719C33.5859 25.9219 33.9766 26.8672 34.0078 28.0078C33.9766 29.1328 33.5859 30.0703 32.8359 30.8203C32.0859 31.5703 31.1406 31.9609 30 31.9922ZM30 30C30.5625 29.9844 31.0312 29.7891 31.4062 29.4141C31.7812 29.0391 31.9688 28.5664 31.9688 27.9961C31.9688 27.4258 31.7812 26.9531 31.4062 26.5781C31.0312 26.2031 30.5625 26.0156 30 26.0156C29.4375 26.0156 28.9688 26.2031 28.5938 26.5781C28.2188 26.9531 28.0312 27.4258 28.0312 27.9961C28.0312 28.5664 28.2188 29.0391 28.5938 29.4141C28.9688 29.7891 29.4375 29.9844 30 30Z" fill="#00BDE0"/>
</svg>
