<svg width="60" height="60" viewBox="0 0 60 60" fill="none" xmlns="http://www.w3.org/2000/svg">
<rect width="60" height="60" rx="30" fill="white"/>
<path d="M40.9923 38.9065C40.9923 39.344 40.9103 39.7541 40.7462 40.1369C40.5822 40.5197 40.34 40.8557 40.0197 41.1447C39.6994 41.4338 39.34 41.6447 38.9415 41.7776C38.5431 41.9104 38.133 41.9533 37.7111 41.9065C36.0861 41.7346 34.5119 41.3791 32.9884 40.8401C31.465 40.301 30.0236 39.5861 28.6642 38.6955C27.383 37.883 26.2111 36.9494 25.1486 35.8947C24.0861 34.8401 23.1564 33.6721 22.3595 32.3908C21.4689 31.0158 20.7501 29.5588 20.2033 28.0197C19.6564 26.4807 19.297 24.8987 19.1251 23.2737C19.0939 22.8518 19.1447 22.4416 19.2775 22.0432C19.4103 21.6447 19.6173 21.2893 19.8986 20.9768C20.1798 20.6643 20.5119 20.4221 20.8947 20.2502C21.2775 20.0783 21.6798 19.9924 22.1017 19.9924H25.1017C25.8673 20.008 26.5275 20.2541 27.0822 20.7307C27.6369 21.2072 27.9767 21.8283 28.1017 22.594C28.2267 23.4846 28.4376 24.344 28.7345 25.1721C28.9533 25.7346 29.0001 26.2971 28.8751 26.8596C28.7501 27.4221 28.4845 27.9221 28.0783 28.3596L27.3517 29.0627C27.9455 29.9846 28.6251 30.8322 29.3908 31.6057C30.1564 32.3791 31.008 33.0627 31.9455 33.6565L32.6486 32.9299C33.0861 32.508 33.5861 32.2385 34.1486 32.1213C34.7111 32.0041 35.2658 32.0471 35.8126 32.2502C36.6564 32.5627 37.5236 32.7815 38.4142 32.9065C39.1798 33.0315 39.8009 33.3713 40.2775 33.926C40.754 34.4807 40.9923 35.1486 40.9923 35.9299V38.9065ZM39.0001 35.9299C39.0001 35.6486 38.922 35.4143 38.7658 35.2268C38.6095 35.0393 38.4064 34.9221 38.1564 34.8752C37.1095 34.7346 36.0939 34.4846 35.1095 34.1252C34.9376 34.0627 34.758 34.051 34.5705 34.0901C34.383 34.1291 34.2189 34.2111 34.0783 34.3361L32.7892 35.6252C32.633 35.7815 32.4455 35.8752 32.2267 35.9065C32.008 35.9377 31.797 35.8986 31.5939 35.7893C30.2658 35.0236 29.0626 34.1018 27.9845 33.0236C26.9064 31.9455 25.9845 30.7424 25.2189 29.4143C25.1095 29.2112 25.0705 29.0002 25.1017 28.7815C25.133 28.5627 25.2267 28.3674 25.383 28.1955L26.6486 26.9299C26.7892 26.7893 26.879 26.6252 26.9181 26.4377C26.9572 26.2502 26.9455 26.0627 26.883 25.8752C26.508 24.9065 26.2501 23.8987 26.1095 22.8518C26.0783 22.6018 25.9689 22.3987 25.7814 22.2424C25.5939 22.0862 25.3673 22.008 25.1017 22.008H22.1017C21.8205 22.008 21.5822 22.1135 21.3869 22.3244C21.1915 22.5354 21.1017 22.7815 21.1173 23.0627C21.2736 24.5471 21.5978 25.9807 22.09 27.3635C22.5822 28.7463 23.2267 30.0627 24.0236 31.3127C24.758 32.469 25.6056 33.5236 26.5665 34.4768C27.5275 35.4299 28.5861 36.2736 29.7423 37.008C30.9767 37.8049 32.2814 38.4494 33.6564 38.9416C35.0314 39.4338 36.4455 39.758 37.8986 39.9143C38.1955 39.9455 38.4533 39.8596 38.672 39.6565C38.8908 39.4533 39.0001 39.2111 39.0001 38.9299V35.9299ZM32.8595 24.9846C32.5939 24.9065 32.3908 24.7619 32.2501 24.551C32.1095 24.3401 32.0626 24.0979 32.1095 23.8244C32.1564 23.551 32.2892 23.3401 32.508 23.1916C32.7267 23.0432 32.9689 22.9846 33.2345 23.0158C34.4533 23.2658 35.4845 23.8127 36.3283 24.6565C37.172 25.5002 37.7267 26.5315 37.9923 27.7502C38.0236 27.9377 38.0119 28.1174 37.9572 28.2893C37.9025 28.4612 37.8048 28.6096 37.6642 28.7346C37.5236 28.8596 37.3673 28.9377 37.1955 28.969C37.0236 29.0002 36.8478 28.9846 36.6681 28.9221C36.4884 28.8596 36.3439 28.758 36.2345 28.6174C36.1251 28.4768 36.0548 28.3205 36.0236 28.1487C35.8517 27.3362 35.4845 26.6487 34.922 26.0862C34.3595 25.5237 33.672 25.1565 32.8595 24.9846ZM32.9298 21.0002C32.758 20.969 32.6017 20.9026 32.4611 20.801C32.3205 20.6994 32.2111 20.5666 32.133 20.4026C32.0548 20.2385 32.0275 20.0666 32.0509 19.8869C32.0744 19.7072 32.1408 19.5471 32.2501 19.4065C32.3595 19.2658 32.4923 19.1604 32.6486 19.0901C32.8048 19.0197 32.9767 18.9924 33.1642 19.008C35.5236 19.3049 37.508 20.258 39.1173 21.8674C40.7267 23.4768 41.6876 25.4612 42.0001 27.8205C42.0158 28.1018 41.9415 28.3479 41.7775 28.5588C41.6134 28.7697 41.3908 28.8908 41.1095 28.9221C40.8283 28.9533 40.5822 28.8869 40.3712 28.7229C40.1603 28.5588 40.0392 28.3362 40.008 28.0549C39.758 26.1643 38.9923 24.5744 37.7111 23.2854C36.4298 21.9963 34.8361 21.2346 32.9298 21.0002Z" fill="#00BDE0"/>
</svg>
