<svg width="60" height="60" viewBox="0 0 60 60" fill="none" xmlns="http://www.w3.org/2000/svg">
<rect width="60" height="60" rx="30" fill="white"/>
<path d="M30 39.7822C26.8906 39.7041 24.3008 38.6299 22.2305 36.5596C20.1602 34.4893 19.0859 31.8994 19.0078 28.79C19.0859 25.6807 20.1602 23.0908 22.2305 21.0205C24.3008 18.9502 26.8906 17.876 30 17.7979C33.1094 17.876 35.6992 18.9502 37.7695 21.0205C39.8398 23.0908 40.9141 25.6807 40.9922 28.79C40.9141 31.8994 39.8398 34.4893 37.7695 36.5596C35.6992 38.6299 33.1094 39.7041 30 39.7822ZM30 37.79C32.5469 37.7275 34.668 36.8486 36.3633 35.1533C38.0586 33.458 38.9375 31.3369 39 28.79C38.9375 26.2432 38.0586 24.1221 36.3633 22.4268C34.668 20.7314 32.5469 19.8525 30 19.79C27.4531 19.8525 25.332 20.7314 23.6367 22.4268C21.9414 24.1221 21.0625 26.2432 21 28.79C21.0625 31.3369 21.9414 33.458 23.6367 35.1533C25.332 36.8486 27.4531 37.7275 30 37.79ZM31.0078 22.79C30.9922 22.5088 30.8906 22.2744 30.7031 22.0869C30.5156 21.8994 30.2812 21.8057 30 21.8057C29.7188 21.8057 29.4844 21.8994 29.2969 22.0869C29.1094 22.2744 29.0078 22.5088 28.9922 22.79V28.79C29.0078 29.0713 29.1094 29.3057 29.2969 29.4932L32.2969 32.4932C32.5 32.6807 32.7344 32.7744 33 32.7744C33.2656 32.7744 33.4961 32.6768 33.6914 32.4814C33.8867 32.2861 33.9844 32.0557 33.9844 31.79C33.9844 31.5244 33.8906 31.29 33.7031 31.0869L31.0078 28.3682V22.79Z" fill="#00BDE0"/>
</svg>
