<svg width="70" height="76" viewBox="0 0 70 76" fill="none" xmlns="http://www.w3.org/2000/svg">
<g clip-path="url(#clip0_937_7713)">
<path d="M43.1251 57.867C43.45 60.5858 42.7604 61.5236 40.2449 61.9999C40.0217 62.042 39.8257 62.2777 39.6446 62.4513C39.5652 62.5282 39.5503 62.6771 39.5131 62.7937C38.114 67.1747 37.0572 66.4677 33.1302 66.3436C32.4852 66.3238 31.7013 65.5423 31.2796 64.9147C30.7189 64.0812 30.4535 63.0517 30.0566 62.0966C27.5833 61.9626 26.3355 60.9827 26.7423 57.8843C25.8319 57.4055 24.909 56.8747 23.9391 56.4455C23.7009 56.3388 23.2246 56.4703 23.0088 56.6613C22.2671 57.3162 21.5799 58.0356 20.8927 58.7501C20.1535 59.5191 19.4638 59.5935 18.6774 58.7823C17.0947 57.15 15.4897 55.5425 13.8623 53.9573C13.071 53.1883 13.0759 52.5061 13.8549 51.742C14.7058 50.906 15.9908 50.1196 16.1942 49.1298C16.3803 48.2268 15.326 47.0956 14.8993 46.0339C14.4676 44.9671 14.1352 43.8582 13.716 42.6452C12.5079 42.6452 11.2328 42.6352 9.96015 42.6476C9.0398 42.6576 8.59078 42.2532 8.59574 41.3056C8.61311 38.867 8.60567 36.4285 8.6007 33.9899C8.6007 33.1018 9.04476 32.7198 9.90805 32.7297C11.1459 32.7421 12.3838 32.7322 13.5126 32.7322C14.4478 30.6384 15.3657 28.634 16.2141 26.5998C16.3083 26.3765 16.0876 25.9201 15.8792 25.6894C15.1871 24.9228 14.4354 24.2133 13.7085 23.479C13.066 22.8291 13.071 22.194 13.7259 21.5441C15.4277 19.8547 17.1195 18.1579 18.8114 16.461C19.4688 15.8012 20.0964 15.8508 20.7489 16.4759C21.6667 17.3541 22.5052 18.7309 23.562 18.9294C24.5469 19.1154 25.7525 18.0041 26.8911 17.5327C27.8735 17.1284 28.8956 16.8232 29.9797 16.4461C29.9797 15.2256 30.002 13.9902 29.9722 12.7548C29.9474 11.7551 30.3964 11.3334 31.3887 11.3458C33.7454 11.3706 36.0996 11.3755 38.4563 11.3458C39.5503 11.3309 39.92 11.8642 39.8976 12.8739C39.8703 14.0671 39.8902 15.2628 39.8902 16.2849C41.9715 17.2028 43.9115 18.0859 45.8787 18.8971C46.1466 19.0087 46.6551 18.8624 46.8958 18.654C47.645 18.009 48.3321 17.2871 49.0193 16.5727C49.7313 15.8309 50.3961 15.7937 51.1378 16.5479C52.7578 18.2 54.3901 19.8398 56.0472 21.4572C56.7964 22.189 56.7964 22.8613 56.0671 23.5807C55.36 24.2753 54.6208 24.9476 53.9882 25.7042C53.7699 25.9647 53.6533 26.5229 53.7773 26.828C54.5662 28.7655 55.4345 30.6707 56.3424 32.7396C57.3694 32.7396 58.6048 32.7619 59.8402 32.7322C60.8201 32.7098 61.284 33.1092 61.2716 34.1239C61.2443 36.5202 61.2493 38.9191 61.2691 41.3155C61.2766 42.2731 60.8127 42.6601 59.9023 42.6526C58.6644 42.6427 57.429 42.6501 56.3375 42.6501C55.4072 44.7439 54.5067 46.7185 53.6731 48.7205C53.5739 48.9562 53.7476 49.4201 53.946 49.6433C54.6332 50.4123 55.3898 51.1194 56.1191 51.8512C56.8038 52.5383 56.784 53.1957 56.0869 53.8829C54.4397 55.5078 52.7974 57.1376 51.1825 58.7947C50.3961 59.601 49.7065 59.5266 48.9672 58.7526C48.2825 58.0356 47.6003 57.3088 46.8462 56.6688C46.6155 56.4728 46.097 56.4033 45.8142 56.5199C44.9087 56.8995 44.0504 57.3956 43.13 57.8694L43.1251 57.867ZM32.195 13.5214C32.195 14.7766 32.1776 15.8905 32.1999 17.0043C32.2173 17.8899 31.7757 18.2819 30.962 18.5895C28.7021 19.4429 26.4595 20.3533 24.2665 21.3654C23.4603 21.7376 22.8848 21.7921 22.2968 21.1273C21.5377 20.2665 20.7836 19.4032 20.1138 18.6366C18.6005 20.1251 17.3478 21.3555 15.9263 22.7522C16.6879 23.4666 17.4842 24.2357 18.3053 24.9774C18.9875 25.5951 19.0247 26.1681 18.6154 27.0414C17.5909 29.2294 16.6879 31.4769 15.837 33.7393C15.5294 34.553 15.1548 34.9946 14.2568 34.9673C13.1156 34.9326 11.972 34.9599 10.8036 34.9599V40.4522C12.0142 40.4522 13.128 40.4646 14.2394 40.4472C15.1151 40.4348 15.5244 40.859 15.832 41.6802C16.6829 43.9401 17.5884 46.1877 18.608 48.3781C18.9851 49.1869 19.0396 49.755 18.3798 50.3429C17.5239 51.1094 16.6656 51.8735 16.0231 52.4465C17.4867 53.9499 18.7295 55.2275 20.0642 56.5968C20.7216 55.9097 21.4856 55.1555 22.2001 54.3567C22.8773 53.6001 23.5595 53.5753 24.3806 54.121C25.0405 54.5601 25.7575 54.9124 26.2536 55.1927C26.849 54.2773 27.2112 53.4041 27.8462 52.8435C28.3945 52.3597 28.5284 52.0025 28.2332 51.4096C27.2211 49.3878 26.1544 47.3933 25.2092 45.3417C24.3335 43.4464 23.1651 41.5536 22.855 39.5492C21.5055 30.817 29.362 23.7842 37.9552 25.8382C43.7403 27.2225 47.7318 32.8884 47.1637 38.8224C46.8933 41.6355 45.5041 43.955 44.1571 46.3315C43.1846 48.0432 42.3982 49.8616 41.5721 51.6502C41.463 51.8834 41.5027 52.3101 41.6515 52.5185C42.2791 53.3843 42.9762 54.1979 43.7378 55.1431C44.1347 54.9198 44.8244 54.6296 45.3949 54.1855C46.3599 53.4413 47.0843 53.6348 47.8434 54.4932C48.538 55.2771 49.3294 55.9791 49.8479 56.4877C51.247 55.1282 52.5072 53.9077 53.9113 52.5433C53.1621 51.8536 52.3484 51.0945 51.5248 50.3454C50.8674 49.7475 50.9146 49.1596 51.2768 48.3608C52.2765 46.1604 53.1944 43.9203 54.0552 41.6628C54.3603 40.859 54.7324 40.3951 55.6329 40.42C56.7741 40.4522 57.9177 40.4274 59.0787 40.4274V34.9499C57.8656 34.9499 56.7517 34.9326 55.6379 34.9549C54.7523 34.9723 54.3553 34.5257 54.0477 33.717C53.1919 31.4571 52.2815 29.2145 51.2743 27.019C50.9046 26.2128 50.855 25.6298 51.5224 25.0468C52.3856 24.2902 53.2539 23.5386 54.0353 22.8588C52.5295 21.3406 51.2941 20.0928 49.8379 18.6193C49.1433 19.3982 48.3991 20.2193 47.6673 21.0529C47.0595 21.745 46.4716 21.7723 45.6008 21.3679C43.4128 20.3483 41.1653 19.4429 38.9053 18.5895C38.0892 18.2819 37.6551 17.8825 37.6699 16.9994C37.6898 15.8582 37.6749 14.7171 37.6749 13.5238H32.1925L32.195 13.5214ZM39.1609 52.2779C39.6595 49.2067 41.3365 46.6987 42.8919 44.1237C43.4649 43.1761 43.966 42.1664 44.363 41.1319C46.154 36.4657 44.1719 31.2313 39.7587 28.8473C35.3852 26.4832 29.7837 27.6739 26.8812 31.6406C23.9912 35.5924 24.274 39.6311 26.72 43.6697C28.3647 46.3836 30.1211 49.043 30.6842 52.2357H32.1329C32.1329 47.9316 32.1404 43.7218 32.1205 39.512C32.1205 39.2019 32.0015 38.8372 31.8129 38.5917C31.349 37.9864 30.6371 37.7705 30.1111 38.3361C29.7837 38.6884 29.6547 39.4326 29.7738 39.9164C29.8531 40.2413 30.5726 40.3654 30.9223 40.6755C31.3044 41.0128 31.5946 41.4594 31.9221 41.8588C31.4483 42.1639 30.967 42.732 30.4981 42.7246C28.5979 42.6948 27.0747 40.7251 27.3774 38.8745C27.68 37.0164 29.1858 35.7934 31.0389 35.9025C32.8697 36.0092 34.2118 37.4034 34.2416 39.3384C34.2813 42.1069 34.2564 44.8753 34.2564 47.6438C34.2564 49.1645 34.2564 50.6852 34.2564 52.325C34.7774 52.2977 35.1545 52.2754 35.6159 52.2506C35.6159 51.6353 35.6159 51.1442 35.6159 50.653C35.6209 46.8103 35.5886 42.9652 35.6481 39.1225C35.6779 37.2669 37.1936 35.9075 39.0443 35.8901C40.8478 35.8728 42.3684 37.2645 42.5322 39.0804C42.6835 40.7722 41.3786 42.3897 39.652 42.7221C38.8408 42.8784 38.1686 42.6973 37.9875 41.8836C37.8113 41.0823 38.3869 40.7127 39.1485 40.6259C39.3072 40.6085 39.523 40.5564 39.5975 40.4448C39.8728 40.0255 40.3739 39.5021 40.2797 39.1573C40.1581 38.7132 39.5851 38.1873 39.1311 38.1054C38.7763 38.0409 38.1934 38.5197 37.9279 38.9042C37.7022 39.2317 37.7419 39.7725 37.7394 40.2215C37.727 43.8161 37.732 47.4131 37.732 51.0077C37.732 51.4121 37.732 51.8164 37.732 52.2729H39.1559L39.1609 52.2779Z" fill="white"/>
<path d="M22.031 70.2881C22.8174 71.4863 23.3979 72.3769 23.9883 73.265C24.4051 73.8926 24.5316 74.55 23.8271 74.9965C23.1523 75.4232 22.5991 75.1156 22.1724 74.4607C20.8403 72.4215 19.461 70.4121 18.1363 68.368C17.4714 67.341 17.8361 66.5397 18.9896 66.4553C21.3786 66.2767 23.77 66.1353 26.1614 65.984C26.9429 65.9344 27.764 65.9418 27.8062 66.9862C27.8508 68.0951 26.985 68.1646 26.1664 68.1819C25.4743 68.1968 24.7797 68.1844 24.0875 68.1844C24.0578 68.3283 24.0305 68.4722 24.0007 68.6161C25.127 68.9534 26.2408 69.3603 27.3844 69.6208C44.0326 73.4237 60.7726 64.3269 66.0764 47.8672C69.7033 36.6096 67.5425 26.2005 60.2541 16.8729C60.1772 16.7762 60.1003 16.6794 60.0185 16.5852C59.4901 15.9898 59.0535 15.315 59.7878 14.6477C60.5642 13.9407 61.1249 14.551 61.6334 15.1488C64.2506 18.2324 66.2526 21.6781 67.679 25.4563C75.2328 45.4882 62.8887 67.7156 41.8942 71.9402C35.6329 73.2005 29.5055 72.7887 23.4798 70.7098C23.1374 70.5907 22.7852 70.5064 22.0385 70.293L22.031 70.2881Z" fill="white"/>
<path d="M47.9229 5.24817C47.134 4.03509 46.5138 3.07009 45.8813 2.11005C45.467 1.47994 45.3429 0.825026 46.0524 0.383456C46.7272 -0.035788 47.2804 0.271823 47.7071 0.926737C49.0343 2.96838 50.4111 4.98025 51.7308 7.02686C52.3981 8.06381 52.0409 8.84772 50.8775 8.93702C48.4463 9.1206 46.0127 9.25208 43.5816 9.41332C42.8126 9.46542 42.0833 9.35379 42.0287 8.42847C41.9691 7.42626 42.7382 7.25509 43.5419 7.22036C44.3035 7.18563 45.0676 7.1509 45.8292 7.11368C45.849 6.98469 45.8713 6.85321 45.8912 6.72421C44.172 6.29504 42.4752 5.75672 40.7337 5.45655C23.3413 2.46727 7.10244 13.0129 3.05388 30.1969C0.65253 40.3878 2.89015 49.755 9.29044 58.0853C9.56828 58.445 10.0123 58.7526 10.1165 59.152C10.2505 59.6655 10.1165 60.2485 10.0967 60.8017C9.55588 60.7 8.80422 60.7943 8.50901 60.4693C6.1548 57.8893 4.33394 54.9373 2.94969 51.7346C-5.23425 32.8066 4.21982 11.3036 23.7209 4.61063C31.7063 1.86942 39.6918 2.1671 47.9229 5.24569V5.24817Z" fill="white"/>
<path d="M49.5522 23.9454C49.5845 24.9203 46.2157 28.1775 45.4615 28.1081C44.6106 28.0312 44.1839 27.0488 44.8041 26.3517C45.7567 25.2825 46.8061 24.2952 47.8703 23.3326C48.0787 23.1441 48.5947 23.0995 48.8601 23.2235C49.1851 23.3748 49.396 23.7717 49.5498 23.9454H49.5522Z" fill="white"/>
<path d="M25.3536 27.1824C25.2171 27.3933 25.0857 27.8547 24.8326 27.9341C24.4531 28.0532 23.8453 28.0681 23.5898 27.8423C22.5206 26.8922 21.501 25.8726 20.5707 24.7861C20.3599 24.538 20.4343 23.8186 20.6501 23.506C20.8238 23.2554 21.6027 23.0719 21.7838 23.2306C22.977 24.285 24.0859 25.4335 25.2072 26.5672C25.304 26.6665 25.2866 26.8773 25.3561 27.1849L25.3536 27.1824Z" fill="white"/>
<path d="M35.9733 20.7179C35.9733 21.3803 36.0924 22.0724 35.9311 22.6901C35.822 23.1069 35.3159 23.4195 34.9884 23.7767C34.6263 23.4095 33.9912 23.0697 33.954 22.6703C33.8225 21.3183 33.8349 19.9415 33.949 18.587C33.9788 18.2199 34.5618 17.8998 34.8917 17.5575C35.2539 17.9073 35.8195 18.2025 35.9311 18.6192C36.1072 19.2742 35.9783 20.0109 35.9758 20.7155L35.9733 20.7179Z" fill="white"/>
<path d="M17.8517 36.6692C18.5488 36.6692 19.2757 36.5526 19.9355 36.7114C20.3449 36.8106 20.9179 37.3191 20.9328 37.664C20.9477 38.0063 20.3746 38.6563 20.0224 38.6836C18.5538 38.7977 17.0678 38.7828 15.5992 38.6761C15.2991 38.6538 14.8203 38.0262 14.8252 37.6863C14.8327 37.344 15.2991 36.7982 15.6439 36.7238C16.3509 36.5725 17.1125 36.6791 17.8492 36.6791C17.8492 36.6766 17.8492 36.6742 17.8492 36.6692H17.8517Z" fill="white"/>
<path d="M51.9517 38.7455C51.2918 38.7455 50.5898 38.8795 49.9845 38.6984C49.5479 38.5669 49.2353 38.0162 48.8682 37.6515C49.2279 37.324 49.5677 36.746 49.9547 36.7138C51.3067 36.5972 52.6811 36.5997 54.0355 36.7113C54.4076 36.7411 55.0601 37.3712 55.0129 37.6217C54.936 38.041 54.4597 38.5867 54.0455 38.7008C53.393 38.8819 52.6562 38.748 51.9542 38.748L51.9517 38.7455Z" fill="white"/>
</g>
<defs>
<clipPath id="clip0_937_7713">
<rect width="69.9095" height="75" fill="white" transform="translate(0 0.189941)"/>
</clipPath>
</defs>
</svg>
