<svg width="60" height="60" viewBox="0 0 60 60" fill="none" xmlns="http://www.w3.org/2000/svg">
<rect width="60" height="60" rx="30" fill="white"/>
<path d="M39.75 21C40.9688 21 42 22.0312 42 23.25V36.75C42 38.0156 40.9688 39 39.75 39H20.25C18.9844 39 18 38.0156 18 36.75V23.25C18 22.0312 18.9844 21 20.25 21H39.75ZM39.75 23.25H20.25V25.1719C21.2812 26.0625 22.9688 27.375 26.5312 30.1875C27.3281 30.7969 28.875 32.2969 30 32.25C31.0781 32.2969 32.625 30.7969 33.4219 30.1875C36.9844 27.375 38.6719 26.0625 39.75 25.1719V23.25ZM20.25 36.75H39.75V28.0781C38.6719 28.9219 37.125 30.1406 34.8281 31.9688C33.75 32.7656 31.9688 34.5469 30 34.5C27.9844 34.5469 26.1562 32.7656 25.125 31.9688C22.8281 30.1406 21.2812 28.9219 20.25 28.0781V36.75Z" fill="#00BDE0"/>
</svg>
