<svg width="56" height="80" viewBox="0 0 56 80" fill="none" xmlns="http://www.w3.org/2000/svg">
<g clip-path="url(#clip0_937_9649)">
<path d="M50.0055 66.7353C50.0055 69.7402 50.0134 72.6768 50.0055 75.6133C49.9976 78.3473 48.4109 79.9366 45.6744 79.9418C40.6749 79.9497 35.6754 79.9497 30.6785 79.9418C27.9314 79.9366 26.3368 78.3578 26.3263 75.6344C26.3158 72.7452 26.3263 69.856 26.3263 66.78C25.7895 66.78 25.3264 66.78 24.8633 66.78C18.9007 66.78 12.9355 66.7852 6.97299 66.78C2.75499 66.7747 0.00263132 64.0013 0.00263132 59.757C0 42.5193 0 25.2815 0 8.04375C0.00263132 3.71787 2.7392 0.970775 7.04666 0.970775C17.1325 0.965513 27.2183 0.9813 37.3042 0.949725C38.3041 0.947093 39.0329 1.23917 39.7355 1.94962C44.5798 6.84124 49.4766 11.6776 54.2919 16.5955C54.8314 17.1455 55.2261 18.1006 55.2287 18.8716C55.2839 32.3808 55.2708 45.89 55.2682 59.3991C55.2682 63.3014 53.8157 65.3617 50.0029 66.7379L50.0055 66.7353ZM36.8516 3.5942C36.2858 3.5942 35.899 3.5942 35.5096 3.5942C26.079 3.5942 16.651 3.5942 7.22033 3.5942C4.15485 3.5942 2.63132 5.12825 2.62868 8.20953C2.62605 20.5372 2.62868 32.865 2.62868 45.1927C2.62868 45.6032 2.67342 46.0136 2.70762 46.6136C3.19968 46.2005 3.53123 45.9321 3.85225 45.6479C6.50724 43.2876 9.18066 40.9484 11.7988 38.5512C12.7698 37.6645 13.5776 37.6408 14.5196 38.5539C15.5274 39.5301 16.6036 40.4352 17.6509 41.3667C20.0033 43.456 22.3557 45.5426 24.7659 47.6819C25.1106 47.2425 25.3817 46.9083 25.6369 46.5636C29.7339 40.9799 33.8229 35.3937 37.9199 29.81C39.0908 28.2154 39.8618 28.2154 41.0327 29.81C44.5087 34.5437 47.9768 39.2854 51.4501 44.0191C51.7659 44.448 52.1001 44.8664 52.5421 45.44V19.3874C47.9741 19.3874 43.5062 19.3874 39.0356 19.3874C37.1279 19.3874 36.8489 19.1032 36.8489 17.177C36.8489 12.7091 36.8489 8.2411 36.8489 3.59157L36.8516 3.5942ZM50.5265 63.654C51.8501 63.0067 52.65 61.7226 52.6447 59.9175C52.6368 56.9336 52.6737 53.9497 52.6158 50.9658C52.6053 50.4053 52.3658 49.7685 52.0343 49.308C48.6451 44.619 45.2139 39.959 41.7906 35.2937C41.0512 34.2859 40.2907 33.2912 39.475 32.2019C39.0329 32.7913 38.6935 33.2386 38.3593 33.6938C34.4176 39.067 30.4785 44.4401 26.5342 49.8106C25.429 51.3157 24.8949 51.3578 23.4845 50.0974C21.5557 48.3739 19.6296 46.6452 17.6956 44.9269C16.1984 43.5955 14.6933 42.2719 13.1592 40.9194C10.1411 43.5928 7.32821 46.3136 4.26273 48.7107C2.47607 50.108 2.47344 51.6789 2.72604 53.6234C3.26809 53.6234 3.74436 53.6234 4.218 53.6234C6.67565 53.6234 9.13067 53.626 11.5883 53.6234C12.454 53.6234 13.0908 53.9786 13.1197 54.8812C13.1513 55.86 12.4988 56.2521 11.5725 56.2521C9.77271 56.2521 7.97552 56.2521 6.1757 56.2521C5.01266 56.2521 3.84698 56.2521 2.62342 56.2521C2.62342 57.5441 2.61816 58.6361 2.62342 59.7307C2.64184 62.5488 4.21274 64.146 7.01246 64.1539C11.1805 64.1671 15.3485 64.1566 19.5138 64.1566C21.7452 64.1566 23.9792 64.1566 26.1842 64.1566C26.9815 61.0621 28.0919 60.207 31.2232 60.207C33.373 60.207 35.5228 60.207 37.6726 60.207H44.7139C44.7139 58.5992 44.8324 57.1073 44.6929 55.6416C44.2114 50.5658 38.4962 47.9845 34.336 50.9263C32.5704 52.1735 31.71 53.9339 31.5837 56.0653C31.5337 56.931 31.16 57.5493 30.2549 57.5335C29.2734 57.5177 28.9155 56.8415 28.9524 55.9232C28.9603 55.7469 28.9524 55.5706 28.9708 55.3969C29.4155 50.8605 33.2019 47.2319 37.6831 47.0504C42.3747 46.8583 46.3743 49.979 47.1506 54.6023C47.4163 56.1863 47.2847 57.8335 47.3821 59.4491C47.4058 59.8412 47.5216 60.3017 47.7636 60.5911C48.5951 61.5937 49.5029 62.5383 50.5213 63.6566L50.5265 63.654ZM38.033 77.3158C40.4881 77.3158 42.9457 77.321 45.4007 77.3158C46.9611 77.3105 47.3716 76.9184 47.3768 75.4054C47.3874 71.8532 47.3874 68.2983 47.3768 64.746C47.3716 63.2303 46.9637 62.8383 45.4007 62.8356C40.5775 62.8304 35.7517 62.8304 30.9285 62.8356C29.3655 62.8356 28.9576 63.2303 28.9524 64.746C28.9418 68.2983 28.9418 71.8532 28.9524 75.4054C28.9576 76.9211 29.3655 77.3105 30.9259 77.3158C33.294 77.3237 35.6622 77.3158 38.0304 77.3158H38.033ZM39.5276 16.6455H49.9845C46.5796 13.2011 43.0141 9.5936 39.5276 6.06763V16.6455Z" fill="white"/>
<path d="M17.1559 12.817C20.7872 12.838 23.7184 15.8298 23.6816 19.4768C23.6448 23.1028 20.6372 26.0235 16.9902 25.9735C13.4221 25.9235 10.5224 22.9633 10.5303 19.3795C10.5382 15.743 13.5116 12.7985 17.1559 12.8196V12.817ZM21.0503 19.3479C21.024 17.206 19.2321 15.4404 17.0928 15.4483C14.9009 15.4562 13.0985 17.3165 13.1616 19.5058C13.2248 21.645 15.0483 23.3843 17.1823 23.3396C19.3215 23.2949 21.0766 21.4845 21.0477 19.3479H21.0503Z" fill="white"/>
<path d="M18.3082 56.2203C17.8293 56.2203 17.2583 56.3861 16.8979 56.1782C16.4426 55.9151 15.8795 55.3494 15.8848 54.9204C15.8901 54.4915 16.4847 53.7837 16.9163 53.6995C17.8793 53.5127 18.9292 53.5153 19.8949 53.6969C20.3344 53.7785 20.9948 54.5047 20.958 54.8757C20.908 55.3599 20.3396 55.9256 19.8502 56.1861C19.445 56.4019 18.8292 56.2308 18.3082 56.2308C18.3082 56.2256 18.3082 56.2229 18.3082 56.2177V56.2203Z" fill="white"/>
<path d="M38.1566 70.7269C37.3277 70.7269 36.4988 70.7401 35.6726 70.7243C34.8043 70.7059 34.1201 70.2375 34.2964 69.3902C34.399 68.8929 35.1279 68.2114 35.6252 68.164C37.3119 68.0114 39.0302 68.0114 40.7168 68.164C41.2115 68.2088 41.9351 68.9034 42.0325 69.4007C42.1983 70.248 41.5115 70.7085 40.6432 70.7217C39.8143 70.7348 38.9854 70.7243 38.1592 70.7243L38.1566 70.7269Z" fill="white"/>
</g>
<defs>
<clipPath id="clip0_937_9649">
<rect width="55.2708" height="79" fill="white" transform="translate(0 0.949707)"/>
</clipPath>
</defs>
</svg>
