<svg width="71" height="67" viewBox="0 0 71 67" fill="none" xmlns="http://www.w3.org/2000/svg">
<g clip-path="url(#clip0_937_7674)">
<path d="M70.2706 44.2332C69.8703 44.4559 69.4753 44.6945 69.067 44.9013C67.6248 45.633 66.7525 46.6245 67.4392 48.3584C67.4683 48.4326 67.4657 48.528 67.4471 48.6076C67.0574 50.5296 67.577 51.9506 69.5415 52.7062C70.2892 52.9952 70.2149 53.6394 69.8729 54.2836C69.0484 55.8293 68.2266 57.3775 67.4524 58.9496C67.0336 59.8033 66.445 60.079 65.6497 59.57C64.2923 58.7004 63.261 58.9629 62.0706 60.0499C61.0818 60.9512 59.7774 61.5769 58.5155 62.0833C57.6724 62.4226 57.4205 62.8336 57.3304 63.6819C57.0706 66.0998 57.0255 66.0918 54.6183 66.121C53.3219 66.1369 52.0255 66.1263 50.7317 66.1872C49.8065 66.2323 49.202 65.8877 49.2922 64.9386C49.4857 62.8627 48.2503 62.078 46.6569 61.0705C44.9098 59.965 43.5525 59.6681 41.8743 60.8585C41.2327 61.3145 40.7051 61.0361 40.326 60.3786C39.4273 58.825 38.5206 57.2741 37.5954 55.7365C37.1871 55.0578 37.1261 54.3897 37.9108 54.0503C39.9337 53.1781 40.2412 51.6405 39.7613 49.7316C39.7401 49.6521 39.7269 49.5593 39.7454 49.4824C40.2942 47.2899 39.6076 45.739 37.4761 44.8085C37.2428 44.7051 37.1049 43.8196 37.2719 43.4564C38.0434 41.7915 38.966 40.2008 39.7719 38.5518C40.1617 37.7538 40.729 37.6027 41.3865 38.0189C43.115 39.1165 44.6818 39.1165 46.1108 37.5311C46.1373 37.502 46.1797 37.4834 46.2195 37.4701C48.237 36.7888 49.3187 35.4977 49.088 33.2548C49.0058 32.4515 49.5785 32.1997 50.3129 32.2023C52.1103 32.2103 53.9078 32.205 55.7079 32.1891C56.543 32.1811 56.9778 32.5788 56.938 33.4007C56.8638 35.0656 57.4179 36.1234 59.1915 36.6085C60.2732 36.9055 61.2594 37.6849 62.174 38.3954C62.8024 38.8832 63.2345 38.8991 63.9423 38.573C66.3284 37.4807 65.9625 36.9505 67.5823 39.7369C68.2107 40.8185 68.8575 41.8922 69.4885 42.9739C69.6555 43.2602 69.7907 43.5651 69.9392 43.862C70.0479 43.9866 70.1566 44.1086 70.2653 44.2332H70.2706ZM68.2504 53.817C67.7653 53.4883 67.349 53.1331 66.8718 52.8998C65.875 52.4146 65.586 51.7173 65.6788 50.5906C65.7875 49.2783 65.4986 47.9395 65.5251 46.6139C65.5357 46.0784 65.7955 45.4395 66.156 45.0391C66.6624 44.4771 67.3676 44.0927 68.0012 43.6234C67.1635 42.2104 66.4026 40.9272 65.6152 39.5964C65.0532 39.8403 64.5627 39.9834 64.1544 40.2485C63.1603 40.8954 62.3967 40.7814 61.4953 39.9463C60.6549 39.1669 59.6395 38.3742 58.5658 38.0905C56.3548 37.5046 54.9974 36.4813 55.4587 33.9282H50.631C50.5462 34.758 50.4136 35.5004 50.4136 36.2427C50.4136 37.0274 50.061 37.3694 49.3744 37.73C47.9109 38.5014 46.5695 39.5009 45.1219 40.3069C44.6553 40.5667 43.9819 40.6754 43.465 40.564C42.6378 40.3864 41.8637 39.9649 41.0206 39.6282C40.2624 41.1075 39.5678 42.4596 38.7778 43.9972C41.4024 44.6945 42.0095 46.3674 41.3653 48.6818C41.2566 49.0689 41.2619 49.5408 41.3706 49.9278C42.0334 52.2555 41.7974 54.1856 39.0535 55.0207C39.9443 56.5239 40.7211 57.8388 41.641 59.3924C43.807 57.2158 45.4692 58.4804 47.4735 59.684C49.4433 60.8664 51.482 61.6061 50.7158 64.5011H55.6019C55.6602 63.8675 55.7583 63.2949 55.7583 62.7196C55.7583 61.6538 56.2222 61.158 57.2721 60.7922C58.6268 60.3176 60.0823 59.7185 61.0818 58.7455C62.6618 57.2078 64.1147 56.5424 66.0288 58.1172C66.6704 56.895 67.2324 55.8266 67.7891 54.7555C67.9402 54.4666 68.0755 54.1696 68.2504 53.8091V53.817Z" fill="white"/>
<path d="M36.1506 10.8155C35.965 12.2206 35.7688 13.6257 35.5991 15.0334C35.4825 16.0064 35.4586 16.9953 35.281 17.9576C35.1537 18.6363 34.9019 19.3124 34.589 19.9327C34.0509 20.9958 33.465 22.043 32.8234 23.0478C31.8 24.6517 30.9305 26.4333 29.6129 27.7562C26.1054 31.2716 21.1584 31.1921 17.6907 27.6184C16.5242 26.4174 15.6785 24.8744 14.8195 23.411C14.0693 22.1305 13.4966 20.7466 12.8603 19.4025C12.7198 19.1029 12.4892 18.753 12.5395 18.4719C12.916 16.3855 11.7707 14.6066 11.4208 12.6713C10.9621 10.1368 11.1769 7.70304 12.2797 5.34353C12.4998 4.87428 12.5077 4.23005 12.4096 3.70513C12.1154 2.15156 12.6376 1.35622 14.0321 1.87584C16.4738 2.78784 18.5179 2.08263 20.6838 1.08581C22.8604 0.0836779 25.1987 -0.0674368 27.5317 0.590045C28.1627 0.767671 28.8122 1.04074 29.3292 1.43311C30.7873 2.54658 32.1526 3.71573 33.8202 4.60916C35.7555 5.64576 35.7926 7.94164 36.0551 9.93264C36.0922 10.219 36.0604 10.5159 36.0604 10.8102C36.0922 10.8128 36.124 10.8155 36.1532 10.8208L36.1506 10.8155ZM19.5836 10.2852C18.1228 10.2269 16.7522 10.6856 16.1186 11.9289C15.2251 13.6787 14.5279 15.5822 14.1143 17.499C13.9579 18.2254 14.8354 19.1665 15.2198 20.0202C15.424 20.4736 15.5353 20.9773 15.7792 21.4068C16.7177 23.0611 17.4574 24.9063 18.7034 26.2928C21.6409 29.5643 25.8111 29.5563 28.7937 26.3299C29.9257 25.1051 30.6388 23.4905 31.5164 22.0351C32.0917 21.0833 32.7147 20.1448 33.1336 19.1241C33.4066 18.456 33.6797 17.4725 33.3881 16.9422C32.0758 14.5483 30.3976 12.4035 28.0063 10.9586C26.7867 10.2216 25.4267 9.8266 24.072 10.4629C23.0672 10.9348 22.1658 10.8658 21.1769 10.5451C20.6706 10.3807 20.1165 10.3701 19.5836 10.2905V10.2852ZM33.8706 14.4051C34.027 14.3839 34.1834 14.36 34.3398 14.3388C34.3398 12.6368 34.4035 10.9295 34.3239 9.23274C34.2099 6.80165 33.4278 5.93473 31.177 5.30641C30.8006 5.20037 30.4639 4.78414 30.2094 4.43419C29.0826 2.89123 27.5688 1.83608 25.6918 1.89175C23.9818 1.94212 22.1658 2.21784 20.6123 2.89388C18.547 3.79262 16.6143 4.51372 14.4059 3.60173C14.3503 3.57787 14.2575 3.64945 14.4325 3.58583C14.1647 4.54554 14.0401 5.38595 13.7034 6.13092C12.6244 8.51694 12.4282 10.9189 13.3322 13.5223C13.5973 12.9629 13.7829 12.5016 14.0242 12.0695C15.2384 9.89553 17.0491 8.48777 19.581 8.69721C21.4739 8.85363 23.2846 8.95437 25.1961 8.64949C27.6245 8.26243 29.4803 9.77888 31.1373 11.359C32.1208 12.2975 32.9612 13.3844 33.8653 14.4025L33.8706 14.4051Z" fill="white"/>
<path d="M37.3123 33.4405C35.6076 36.036 33.9825 38.5122 32.3547 40.9857C31.3738 42.4782 31.0583 42.4889 29.9103 41.0784C29.7513 40.8849 29.571 40.7046 29.4358 40.4952C28.325 38.7614 27.1823 37.6426 24.7618 38.6235C23.0969 39.2995 21.2332 38.5175 19.4781 37.4994C18.59 38.7508 17.7151 39.9994 16.8243 41.2349C15.9627 42.4305 15.5332 42.4146 14.7458 41.1606C13.3911 39.0053 12.0523 36.8393 10.7002 34.6839C10.4855 34.3393 10.2416 34.0158 9.94995 33.5916C7.69118 35.1213 5.16995 36.1447 3.57662 38.4353C2.37566 40.1612 1.68636 42.0435 1.68636 44.1644C1.68636 46.8394 1.67046 49.517 1.65985 52.192C1.65985 52.4836 1.74999 52.823 1.63334 53.0616C1.4239 53.4937 1.09251 53.8675 0.808836 54.2652C0.533118 53.8649 0.0294029 53.4672 0.0214495 53.0616C-0.0289221 50.0101 -0.00506188 46.956 0.0559142 43.9046C0.071821 43.0801 0.23354 42.2449 0.435026 41.4417C1.18265 38.4194 2.92179 36.097 5.54641 34.4427C7.94834 32.9289 10.3821 31.4681 12.7575 29.9145C13.1976 29.6255 13.4123 29.0025 13.7596 28.5545C13.9452 28.3159 14.1971 27.9474 14.4065 27.9553C14.6981 27.9659 15.0878 28.2151 15.2363 28.475C15.4802 28.8991 15.5571 29.4161 15.7109 29.8933C16.5248 32.3907 17.9193 34.4771 20.1117 35.9644C22.5455 37.6134 25.072 37.5869 27.4713 35.9034C29.8706 34.2173 31.2253 31.826 32.0392 29.0609C32.1691 28.6208 32.5482 28.011 32.9141 27.9288C33.6352 27.7698 33.6935 28.3716 33.7121 28.9893C33.72 29.2411 34.1469 29.5328 34.4385 29.7183C36.6575 31.1261 38.8924 32.5126 41.122 33.9045C41.4057 34.0821 41.7821 34.1961 41.9491 34.4506C42.2036 34.8377 42.3123 35.3175 42.482 35.7603C42.0366 35.7815 41.4984 35.9724 41.1618 35.7894C39.8839 35.0975 38.675 34.2836 37.3123 33.4379V33.4405ZM33.4204 31.0784C31.9013 33.1701 30.4485 35.1744 28.8976 37.3165C29.4809 38.019 30.2338 38.9257 31.0901 39.957C32.7603 37.4172 34.3086 35.0604 35.9231 32.6054C34.9634 32.0195 34.0938 31.4893 33.4204 31.0784ZM11.3922 32.7274C12.8874 35.1293 14.319 37.4305 15.8275 39.8536C16.6679 38.6394 17.3917 37.5922 17.9882 36.7306C16.6467 34.7767 15.4139 32.9819 14.1149 31.089C13.3063 31.5768 12.3969 32.1229 11.3922 32.7274Z" fill="white"/>
<path d="M25.8827 44.0447H21.9697C21.9697 44.1693 21.922 44.3177 21.9776 44.3973C23.2793 46.322 23.3748 48.3475 22.8419 50.585C22.2533 53.0506 22.0068 55.5983 21.5269 58.093C21.45 58.4881 20.9304 58.7956 20.6149 59.1455C20.4188 58.7054 20.0025 58.2362 20.0582 57.8306C20.4188 55.1476 20.8058 52.462 21.3361 49.8082C21.6542 48.2123 21.5879 46.7753 20.6653 45.4021C20.3896 44.9911 20.1855 44.5192 20.0105 44.0526C19.6923 43.2149 20.0927 42.5044 20.9941 42.4778C22.8737 42.4195 24.756 42.4169 26.633 42.4778C27.5821 42.507 28.115 43.2175 27.6272 44.0182C25.6362 47.2897 26.6993 50.6221 27.2295 53.9626C27.439 55.2802 27.6696 56.5978 27.7704 57.926C27.7995 58.3131 27.4151 58.732 27.2189 59.1376C26.8849 58.8035 26.3202 58.5066 26.2539 58.1275C25.6547 54.6784 25.0795 51.2239 24.6579 47.751C24.5678 47.006 25.1139 46.1815 25.379 45.3968C25.5222 44.9752 25.6919 44.5616 25.8854 44.0473L25.8827 44.0447Z" fill="white"/>
<path d="M6.77323 51.5395C6.77323 50.8343 6.69105 50.1159 6.8077 49.4292C6.86602 49.0793 7.27695 48.7903 7.53146 48.4722C7.83369 48.7479 8.37717 49.0103 8.39308 49.3046C8.48056 50.8343 8.48056 52.3773 8.39043 53.907C8.37187 54.2066 7.83104 54.477 7.53146 54.7607C7.2796 54.4346 6.86337 54.1323 6.8077 53.7744C6.6937 53.0454 6.77323 52.2845 6.77323 51.5395Z" fill="white"/>
<path d="M53.6559 39.6414C59.0218 39.7104 63.2689 44.037 63.192 49.3579C63.1151 54.6416 58.7143 58.8701 53.3484 58.8091C48.2184 58.7508 43.9262 54.3579 43.9395 49.1776C43.9527 43.8674 48.3271 39.5725 53.6559 39.6414ZM45.6203 49.2041C45.623 53.6288 49.1675 57.2132 53.5419 57.2211C57.9083 57.2291 61.657 53.4724 61.5987 49.1431C61.543 44.8483 57.9242 41.2374 53.6638 41.2268C49.1357 41.2162 45.615 44.7051 45.6203 49.2041Z" fill="white"/>
<path d="M49.9153 46.3543C50.3023 45.8214 50.6867 45.2885 51.0738 44.7583C51.445 45.3097 51.8188 45.8612 52.1899 46.41C52.1502 46.4179 52.1078 46.4259 52.068 46.4365C52.5797 46.858 53.0913 47.2769 53.6056 47.6984C53.1152 48.051 52.6221 48.4063 51.8877 48.9338C51.8877 49.8644 51.9619 51.1555 51.8479 52.4307C51.8082 52.8814 51.3045 53.2923 51.0155 53.7191C50.753 53.3056 50.2997 52.9105 50.2652 52.4784C50.1645 51.2032 50.2281 49.9121 50.2281 49.0319C49.5176 48.4089 49.0775 48.0218 48.6348 47.6321C49.0775 47.2451 49.5202 46.8607 49.9603 46.4736C49.9444 46.4338 49.9312 46.3914 49.9153 46.3516V46.3543Z" fill="white"/>
<path d="M57.1661 50.5958C57.7918 51.2242 58.1603 51.598 58.5315 51.9718C58.1576 52.3297 57.7838 52.6876 57.532 52.9262C57.0919 53.4644 56.7472 53.8859 56.4052 54.3101C56.0394 53.9098 55.6735 53.5121 55.3077 53.1118C55.3368 53.0906 55.366 53.072 55.3925 53.0508C54.9895 52.7035 54.5866 52.3562 54.1836 52.0089C54.5839 51.6112 54.9816 51.2136 55.5887 50.6117C55.5887 49.4744 55.5754 48.0216 55.594 46.5688C55.6019 45.967 55.48 45.1292 56.4105 45.2458C56.7128 45.283 57.1025 46.0624 57.1317 46.521C57.2244 47.9739 57.1661 49.4346 57.1661 50.5958Z" fill="white"/>
</g>
<defs>
<clipPath id="clip0_937_7674">
<rect width="70.271" height="66" fill="white" transform="translate(0 0.189941)"/>
</clipPath>
</defs>
</svg>
