<svg width="70" height="77" viewBox="0 0 70 77" fill="none" xmlns="http://www.w3.org/2000/svg">
<g clip-path="url(#clip0_1203_2280)">
<path d="M53.5614 24.4993C59.2689 24.9251 63.7137 27.2846 66.8934 31.8641C70.494 37.0497 70.7995 44.6429 67.6053 49.333C67.1556 49.9944 66.6649 50.6366 66.131 51.2283C64.1828 53.3906 63.3217 55.9593 63.3241 58.8191C63.3241 60.344 62.8142 61.5322 61.5803 62.4341C60.8564 62.9657 60.9021 63.9614 61.6236 64.4377C62.4799 65.0053 62.4943 65.6595 61.5707 66.1261C60.7361 66.5494 60.9598 67.1146 61.4023 67.4971C62.5616 68.4952 62.5568 68.8247 61.0993 69.491C61.0993 69.9383 61.0752 70.417 61.1041 70.8932C61.1739 72.0044 60.7385 72.5456 59.5624 72.4662C59.3098 72.4494 58.8985 72.726 58.7879 72.9713C57.4987 75.8166 55.5866 77.113 52.7701 76.9904C50.1484 76.8773 48.2411 75.3308 47.2502 72.4373C46.8172 72.4373 46.3434 72.4373 45.8696 72.4373C33.199 72.4373 20.5308 72.3532 7.86265 72.4854C3.77141 72.5287 -0.0167805 69.3274 5.59109e-05 64.6277C0.0674014 45.7012 0.0265131 26.7723 0.0313235 7.84335C0.0313235 3.01612 3.07149 0 7.92759 0C22.0004 0 36.0732 0 50.146 0C52.6739 0 53.559 0.863466 53.5614 3.36728C53.5662 9.9046 53.5614 16.4419 53.5614 22.9769C53.5614 23.4507 53.5614 23.9245 53.5614 24.4993ZM42.6899 57.6261C42.7909 55.5408 41.913 53.6479 40.2342 51.3582C39.0412 49.7323 37.7352 48.027 37.1507 46.1485C34.5411 37.7592 38.8753 28.9682 47.0505 25.7332C48.5225 25.1512 50.1051 24.8505 51.7479 24.3863V23.1813C51.7479 16.6849 51.7479 10.1908 51.7479 3.69438C51.7479 1.8496 51.7094 1.80871 49.8766 1.80871C37.0882 1.80871 24.2998 1.80871 11.5137 1.80871C11.0856 1.80871 10.6599 1.84479 10.2005 1.86643V57.6261H42.6899ZM53.0347 61.1618C54.9564 61.1618 56.8806 61.1618 58.8023 61.1618C60.9069 61.1618 61.5611 60.5701 61.5611 58.492C61.5611 55.3123 62.5568 52.5223 64.6999 50.17C66.9944 47.647 68.0527 44.6982 67.9637 41.29C67.8098 35.3275 65.1737 30.7913 59.9135 28.0542C54.7399 25.3628 49.5664 25.7933 44.6766 28.9995C37.6222 33.6223 36.0083 44.602 41.4993 50.1363C43.8781 52.5343 44.6477 55.6322 44.7319 58.9346C44.7728 60.534 45.4126 61.1497 47.0241 61.157C49.0276 61.1666 51.0287 61.1594 53.0323 61.1594L53.0347 61.1618ZM45.0518 70.6719C45.1384 70.0049 44.946 69.5182 44.4746 69.212C43.854 68.8079 43.8396 68.0454 44.4457 67.6318C45.4511 66.9487 45.4607 66.7082 44.5034 66.102C43.8228 65.6715 43.83 64.9235 44.5179 64.4737C45.427 63.8796 45.3958 63.0931 44.5804 62.3379C44.0104 61.8112 43.4043 61.1786 43.1661 60.4763C42.8919 59.6609 42.536 59.4589 41.7326 59.4637C34.9596 59.4926 28.189 59.4805 21.4159 59.4805C16.8076 59.4805 12.1992 59.4589 7.59326 59.4902C4.45208 59.5118 2.05891 61.7246 1.88814 64.6758C1.6885 68.132 4.21396 70.7128 7.85303 70.7176C19.9151 70.7296 31.9772 70.7224 44.0368 70.72C44.3519 70.72 44.6646 70.6912 45.047 70.6743L45.0518 70.6719ZM1.85446 60.1516C3.78824 58.237 5.87595 57.6069 8.17773 57.6526V1.7606C7.32148 1.86162 6.51814 1.8496 5.77975 2.06606C3.18213 2.8213 1.85687 4.84407 1.85687 7.95399C1.85206 24.8337 1.85687 41.7157 1.85687 58.5954C1.85687 58.9899 1.85687 59.3867 1.85687 60.1516H1.85446ZM59.1679 66.2728H46.9519C46.9784 66.7226 46.9976 67.0689 47.0217 67.461H59.1679V66.2728ZM59.216 69.3924H46.9423C46.9784 69.8734 47.0072 70.251 47.0409 70.6623H59.1583C59.1799 70.2246 59.1968 69.8397 59.2184 69.3924H59.216ZM47.0121 63.1268V64.315H59.1631V63.1268H47.0121ZM49.2946 72.4975C49.8478 74.246 51.2981 75.2009 53.203 75.1672C55.0646 75.1336 56.4116 74.1811 56.9094 72.4975H49.2946Z" fill="white"/>
<path d="M30.9382 21.4761C26.6113 21.4761 22.2819 21.4833 17.955 21.4737C15.8144 21.4688 14.9701 20.627 14.9653 18.5032C14.9581 15.1768 14.9557 11.8505 14.9653 8.52407C14.9701 6.44838 15.8961 5.5296 17.9766 5.52719C26.5921 5.52238 35.2075 5.52479 43.8229 5.52719C45.9707 5.52719 46.8823 6.43636 46.8895 8.60344C46.9015 11.8889 46.9015 15.1768 46.8895 18.4623C46.8823 20.6054 46.0309 21.4688 43.9215 21.4737C39.5946 21.4833 35.2652 21.4761 30.9382 21.4761ZM30.9647 19.7275C35.2099 19.7275 39.4526 19.7082 43.6978 19.7419C44.6479 19.7491 45.076 19.4894 45.0616 18.4551C45.0135 15.172 45.0159 11.8865 45.0616 8.60344C45.076 7.62933 44.6888 7.36957 43.7868 7.37198C35.2195 7.39122 26.6498 7.39603 18.0825 7.36717C17.0867 7.36476 16.7572 7.7063 16.7716 8.69243C16.8173 11.8962 16.8221 15.0999 16.7716 18.3036C16.7524 19.41 17.1372 19.7636 18.2388 19.7491C22.4816 19.6986 26.7267 19.7275 30.9719 19.7275H30.9647Z" fill="white"/>
<path d="M49.2102 50.1794C48.7436 50.2925 48.5873 50.3334 48.4309 50.367C47.7479 50.5065 46.8652 50.9731 46.425 50.7086C45.4942 50.1482 44.7221 49.2582 44.0487 48.3803C43.837 48.1037 44.0631 47.4014 44.2242 46.942C44.7823 45.3546 44.6572 44.9337 43.0649 44.2891C42.1438 43.9163 41.7228 43.3631 41.8672 42.3698C41.9177 42.0162 41.9225 41.641 41.8672 41.2898C41.6699 40.0656 42.151 39.3753 43.3343 38.9568C44.5658 38.519 44.8376 37.8408 44.2483 36.6093C43.7216 35.5077 43.8947 34.7164 44.8255 34.0045C45.0781 33.8121 45.3234 33.586 45.5062 33.3286C46.1941 32.3713 47.0215 32.3545 48.0317 32.7898C49.3449 33.3551 49.9438 33.1386 50.4273 31.8013C50.8409 30.654 51.5336 30.2716 52.6978 30.3534C53.9437 30.4424 55.2641 30.0792 55.8197 31.8133C56.2502 33.1602 56.8972 33.3719 58.2081 32.7874C59.2399 32.3281 60.036 32.4219 60.7215 33.3503C60.9572 33.6702 61.2555 33.9564 61.5681 34.2017C62.345 34.8126 62.4629 35.4789 62.0636 36.4049C61.3733 38.0043 61.5369 38.4084 63.1123 39.0506C64.084 39.445 64.4928 40.0415 64.375 41.0661C64.3293 41.4606 64.3269 41.8719 64.375 42.2663C64.5121 43.3511 64.0575 43.9452 63.0281 44.3372C61.597 44.8808 61.3853 45.4075 62.0131 46.8146C62.4605 47.8151 62.3715 48.5583 61.5056 49.2342C61.1616 49.5036 60.8514 49.8307 60.5724 50.1674C59.9783 50.8841 59.3265 51.002 58.451 50.6484C56.7674 49.9702 56.3561 50.1289 55.6898 51.75C55.3314 52.6183 54.8432 53.0609 53.8907 52.9382C53.5757 52.8973 53.2437 52.8877 52.9311 52.9382C51.5697 53.1667 50.764 52.6375 50.2998 51.3195C50.1242 50.8216 49.5109 50.4777 49.2102 50.177V50.1794ZM53.0056 51.4734C53.5708 51.0212 54.0615 50.8072 54.2635 50.4344C55.2449 48.6377 56.5316 48.1037 58.451 48.6473C58.8599 48.7628 59.4997 48.5319 59.8484 48.2408C60.1034 48.0268 60.2236 47.4014 60.1154 47.0479C59.5285 45.155 60.0961 43.7503 61.799 42.8436C62.1526 42.656 62.4172 42.1461 62.5494 41.7276C62.7443 41.1166 62.4364 40.7294 61.8207 40.4504C60.1082 39.6807 59.5237 38.1558 60.0745 36.4073C60.1972 36.0176 60.0504 35.4572 59.8436 35.0748C59.5646 34.5553 59.1076 34.3989 58.4414 34.6443C56.5846 35.3297 55.2088 34.6875 54.2732 32.951C54.0856 32.6046 53.5035 32.2896 53.1042 32.2896C52.7122 32.2896 52.147 32.6191 51.9594 32.9654C51.0406 34.6803 49.6023 35.337 47.7695 34.6346C47.1514 34.3965 46.7329 34.5048 46.4635 35.0002C46.247 35.3971 46.0185 35.9503 46.1316 36.3351C46.68 38.2088 46.1219 39.5893 44.4624 40.4841C44.0751 40.6933 43.7937 41.2465 43.6374 41.7011C43.4041 42.3794 43.9116 42.6488 44.4672 42.9037C46.1171 43.6613 46.7016 45.2103 46.1797 46.9204C46.0522 47.3389 46.1869 48.0436 46.4803 48.3322C46.7762 48.6209 47.4737 48.7339 47.9018 48.6064C49.5445 48.1158 51.0983 48.7315 51.8704 50.2347C52.0844 50.6532 52.5198 50.9587 53.0032 51.4734H53.0056Z" fill="white"/>
<path d="M26.7121 63.7522C22.3491 63.7522 17.9861 63.7522 13.623 63.7522C13.2647 63.7522 12.8486 63.8292 12.5623 63.6777C12.2617 63.5165 11.9057 63.1221 11.9033 62.8286C11.9033 62.5424 12.2665 62.1552 12.5672 61.9988C12.8558 61.8473 13.2695 61.9171 13.6278 61.9171C22.3948 61.9147 31.1593 61.9147 39.9263 61.9171C40.2847 61.9171 40.7008 61.8449 40.987 61.9964C41.2804 62.1528 41.6219 62.5472 41.6195 62.8359C41.6171 63.1293 41.2756 63.5237 40.9798 63.6825C40.6935 63.834 40.2774 63.7546 39.9191 63.7546C35.5151 63.757 31.1136 63.7546 26.7097 63.7546L26.7121 63.7522Z" fill="white"/>
<path d="M26.8135 66.4099C31.1765 66.4099 35.5395 66.4099 39.9049 66.4099C40.2248 66.4099 40.6073 66.3089 40.8502 66.446C41.1797 66.6336 41.6102 67.0016 41.615 67.2998C41.6223 67.6004 41.2158 68.0093 40.8911 68.1897C40.6097 68.3461 40.1888 68.2619 39.8304 68.2619C31.1428 68.2643 22.4552 68.2691 13.7701 68.2571C13.0124 68.2571 11.9229 68.5 11.8988 67.3407C11.8748 66.1357 12.9715 66.4195 13.7244 66.4171C18.0874 66.4027 22.4504 66.4099 26.8159 66.4099H26.8135Z" fill="white"/>
<path d="M30.9188 15.1408C34.4016 15.1408 37.8843 15.1408 41.3646 15.1408C41.6845 15.1408 42.0741 15.0398 42.3074 15.1841C42.6297 15.3838 42.9857 15.7517 43.0362 16.0885C43.0699 16.3242 42.6634 16.7475 42.3628 16.8774C42.0212 17.0265 41.5787 16.9592 41.1794 16.9592C34.3342 16.9616 27.4914 16.9616 20.6462 16.9592C20.2855 16.9592 19.8742 17.0482 19.5807 16.9038C19.2488 16.7403 18.763 16.3049 18.8087 16.0837C18.8808 15.7301 19.2993 15.3982 19.6481 15.1721C19.8453 15.0422 20.1941 15.1408 20.4731 15.1408C23.9558 15.1408 27.4385 15.1408 30.9188 15.1408Z" fill="white"/>
<path d="M30.8319 11.8889C27.4237 11.8889 24.018 11.8889 20.6098 11.8889C20.249 11.8889 19.8329 11.9779 19.5443 11.8287C19.2172 11.6604 18.7939 11.2587 18.8059 10.9773C18.8179 10.6814 19.2629 10.2317 19.5852 10.1619C20.1985 10.0272 20.86 10.1138 21.4997 10.1138C28.114 10.1138 34.7283 10.1138 41.3426 10.1138C41.7034 10.1138 42.1219 10.0272 42.4057 10.1788C42.7016 10.3351 43.0407 10.7368 43.0383 11.0302C43.0359 11.3044 42.6607 11.6748 42.36 11.8191C42.0618 11.9634 41.6529 11.8913 41.2945 11.8913C37.807 11.8937 34.3194 11.8913 30.8319 11.8913V11.8889Z" fill="white"/>
<path d="M47.3825 41.6028C47.4114 38.4448 49.9946 35.8712 53.1262 35.8784C56.2842 35.8881 58.9491 38.5987 58.8866 41.7447C58.8241 44.9605 56.2144 47.4739 52.9794 47.4306C49.8142 47.3873 47.3513 44.8234 47.3801 41.6028H47.3825ZM53.1791 37.7497C50.947 37.7232 49.1552 39.4405 49.1287 41.6317C49.1023 43.7771 50.935 45.6315 53.0949 45.6435C55.2235 45.6556 57.0129 43.9094 57.0562 41.7784C57.1019 39.5464 55.3967 37.7761 53.1791 37.7521V37.7497Z" fill="white"/>
</g>
<defs>
<clipPath id="clip0_1203_2280">
<rect width="69.8109" height="77" fill="white"/>
</clipPath>
</defs>
</svg>
