<svg width="71" height="70" viewBox="0 0 71 70" fill="none" xmlns="http://www.w3.org/2000/svg">
<g clip-path="url(#clip0_937_9162)">
<path d="M32.8069 35.2619H30.3486C29.6885 40.8294 27.0072 45.136 21.9382 47.7376C18.7356 49.381 15.3395 49.7498 11.7887 48.9804C5.49734 47.6216 -0.766692 41.576 0.0777695 32.6011C0.701442 25.9706 5.77731 20.114 13.25 19.1603C17.5224 18.614 21.442 19.7247 24.8039 22.5222C28.118 25.2786 29.8706 28.8659 30.3031 33.1519H32.8069C32.8069 32.7149 32.8069 32.312 32.8069 31.9114C32.8069 27.3613 32.8024 22.809 32.8069 18.2589C32.8115 14.0889 35.1013 11.8059 39.2781 11.7923C39.797 11.7923 40.3137 11.7923 41.0808 11.7923C40.6552 11.3234 40.2659 11.073 40.159 10.7339C40.0201 10.2923 39.945 9.68681 40.1544 9.33628C40.2773 9.12915 41.1605 9.08362 41.4245 9.30214C42.4761 10.1648 43.4366 11.1413 44.3904 12.1132C44.9025 12.6345 44.6749 13.1534 44.2128 13.6018C43.423 14.3666 42.6309 15.1291 41.841 15.8939C41.3266 16.3947 40.769 16.6883 40.1726 16.0647C39.6104 15.4774 39.9245 14.9653 40.4116 14.5032C40.5709 14.353 40.7052 14.1777 40.7917 13.7111C39.6263 13.8135 38.404 13.7247 37.3115 14.0639C35.5634 14.6079 34.8031 16.0191 34.8031 17.8401C34.8031 28.7247 34.7895 39.6071 34.8122 50.4918C34.819 53.1458 36.3646 54.6071 39.0163 54.6231C39.6172 54.6276 40.2159 54.6231 41.0603 54.6231C40.6734 54.202 40.3092 53.9766 40.2227 53.6739C40.0884 53.2005 40.1407 52.6724 40.1157 52.1671C40.5869 52.1853 41.2014 52.0191 41.4996 52.2536C42.4761 53.0252 43.3433 53.9402 44.2447 54.8097C44.8206 55.3651 44.791 55.941 44.2265 56.485C43.382 57.3021 42.5239 58.1056 41.6703 58.9137C41.1901 59.3712 40.6711 59.4873 40.1772 58.9751C39.6832 58.4607 39.8289 57.9508 40.2978 57.4842C40.5027 57.2817 40.687 57.0563 40.942 56.7741C39.64 56.658 38.4268 56.6785 37.2773 56.419C34.5937 55.8112 32.8388 53.5988 32.816 50.8515C32.7773 46.1125 32.8024 41.3712 32.8001 36.6299C32.8001 36.2202 32.8001 35.8082 32.8001 35.2642L32.8069 35.2619ZM15.1574 47.3325C22.4662 47.3279 28.2978 41.5032 28.3001 34.2126C28.3001 26.9357 22.4708 21.0677 15.1893 21.0222C7.93968 20.9766 1.90326 26.9949 1.93741 34.2331C1.97155 41.4713 7.89188 47.337 15.1574 47.3325Z" fill="white"/>
<path d="M70.2176 13.866C70.2176 15.5708 70.1835 17.2757 70.2313 18.9806C70.2609 20.0572 69.7943 20.7992 68.9111 21.3114C65.9339 23.0367 62.9475 24.7461 59.9657 26.4646C59.0667 26.9813 58.1926 26.9768 57.2844 26.4487C54.3094 24.7211 51.3208 23.0117 48.3345 21.3C47.4331 20.7833 46.987 20.0117 46.9893 18.9715C46.9915 15.523 46.9938 12.0769 46.9893 8.62851C46.9893 7.58147 47.4559 6.82805 48.355 6.31136C51.3368 4.59512 54.3163 2.87433 57.2935 1.14672C58.1949 0.625472 59.0803 0.630024 59.9771 1.14672C62.9885 2.89027 66.0022 4.62927 69.0135 6.37282C69.8352 6.84854 70.2404 7.54732 70.2267 8.51925C70.2017 10.2992 70.2199 12.0792 70.2199 13.8614L70.2176 13.866ZM49.006 9.40924C49.006 12.7598 48.9923 15.8895 49.0333 19.017C49.0355 19.2605 49.3815 19.5746 49.6433 19.7317C50.8747 20.4737 52.1334 21.168 53.3808 21.885C54.7465 22.6702 56.1099 23.4623 57.4802 24.2545C57.5735 24.0724 57.6327 24.0109 57.6327 23.9494C57.6418 21.9032 57.4392 19.8296 57.6987 17.8174C58.0378 15.1793 57.0864 13.6611 54.6782 12.6255C52.7571 11.8015 51.0135 10.5678 49.0082 9.40924H49.006ZM59.6425 24.2044C59.9293 24.1111 60.0818 24.0906 60.2025 24.02C62.6949 22.5837 65.2032 21.168 67.6569 19.668C68.0029 19.4563 68.2624 18.8303 68.2715 18.3887C68.3284 15.7347 68.3034 13.0784 68.2943 10.4244C68.2943 10.1467 68.2328 9.86902 68.1987 9.58678C68.0234 9.61409 67.9392 9.60499 67.8777 9.63913C66.2002 10.5951 64.6 11.7355 62.8315 12.473C60.2525 13.5496 59.1827 15.1702 59.5856 18.0177C59.8679 20.0117 59.6403 22.0762 59.6403 24.2021L59.6425 24.2044ZM67.2427 7.66341C64.4088 6.02456 61.7434 4.46766 59.0553 2.95172C58.8231 2.82198 58.3792 2.85612 58.1334 2.99497C55.4703 4.49952 52.8277 6.03822 50.0598 7.63609C50.4263 7.87054 50.6972 8.05946 50.9794 8.22562C52.6114 9.17706 54.3686 9.96917 55.8527 11.1118C57.833 12.6391 59.4991 12.5139 61.4635 11.0799C63.2161 9.80074 65.2055 8.84702 67.2404 7.66341H67.2427Z" fill="white"/>
<path d="M70.218 56.6809C70.218 58.4244 70.1952 60.1657 70.2271 61.9092C70.2453 62.9221 69.8561 63.6573 68.9889 64.1581C65.9752 65.8971 62.9638 67.6384 59.9502 69.3796C59.0511 69.8986 58.1656 69.8781 57.2666 69.3569C54.2893 67.6293 51.3075 65.913 48.328 64.1922C47.4289 63.6733 46.9828 62.9062 46.9873 61.8614C46.9942 58.413 46.9919 54.9669 46.9896 51.5185C46.9896 50.476 47.4585 49.7203 48.3576 49.2036C51.3439 47.4942 54.3303 45.7825 57.3075 44.0572C58.2157 43.5314 59.0875 43.5496 59.9889 44.0686C62.9365 45.7711 65.8887 47.4646 68.8386 49.1626C69.7628 49.6953 70.2658 50.4396 70.2316 51.5663C70.1816 53.2689 70.218 54.976 70.218 56.6809ZM59.6497 67.0101C59.8204 67.0215 59.9092 67.0579 59.9615 67.0284C62.5905 65.5261 65.2218 64.0283 67.8348 62.4988C68.0533 62.3713 68.2741 62.0276 68.2764 61.7818C68.306 58.6884 68.2969 55.5951 68.2969 52.4517C68.0738 52.4881 67.9532 52.4768 67.8667 52.5268C65.2787 54.0223 62.6884 55.5155 60.114 57.0359C59.9001 57.1634 59.6725 57.4843 59.6702 57.7165C59.6406 60.8144 59.6497 63.9145 59.6497 67.0079V67.0101ZM48.9995 52.3174C48.9995 54.3409 48.9881 56.146 49.0018 57.9532C49.0131 59.3872 48.5943 61.0807 49.2134 62.1846C49.8052 63.2408 51.4851 63.6892 52.6937 64.3948C54.2825 65.3189 55.8758 66.234 57.6444 67.2537C57.6444 63.9419 57.6649 60.8508 57.6125 57.7598C57.608 57.4616 57.2096 57.0792 56.8978 56.8903C55.4433 56.0071 53.957 55.1763 52.482 54.3273C51.3804 53.6922 50.2787 53.0572 48.9995 52.322V52.3174ZM67.2408 50.5602C64.3842 48.9168 61.7757 47.4009 59.1467 45.9214C58.894 45.7802 58.4433 45.7188 58.2134 45.8485C55.523 47.3667 52.8576 48.9305 50.0124 50.5807C52.8781 52.2332 55.5776 53.7969 58.2931 55.3356C58.4729 55.4381 58.8166 55.4267 59.001 55.322C61.6869 53.7901 64.3591 52.2309 67.2408 50.5602Z" fill="white"/>
<path d="M15.1684 23.1847C21.2959 23.1938 26.2261 28.1194 26.217 34.2241C26.2078 40.2719 21.1821 45.2749 15.1229 45.2704C9.04093 45.2658 4.13122 40.3083 4.1426 34.1763C4.15398 27.9919 8.98402 23.1755 15.1684 23.1847ZM15.2071 25.1877C10.1745 25.1535 6.15929 29.0959 6.10921 34.1217C6.05914 39.1111 10.0834 43.2104 15.05 43.2332C20.0713 43.256 24.1729 39.2704 24.2116 34.3334C24.2526 29.2529 20.2807 25.2218 15.2048 25.1877H15.2071Z" fill="white"/>
<path d="M11.1279 36.1996C11.3282 36.0061 11.6105 35.5144 11.9109 35.5031C12.2933 35.4894 12.8487 35.7648 13.0513 36.0903C13.832 37.3468 14.5695 37.8339 15.9033 37.5084C16.3609 37.3968 16.7137 36.8642 17.1143 36.5251C16.7933 36.1472 16.543 35.6328 16.1355 35.4257C15.6165 35.1639 14.9701 35.1571 14.3806 35.0273C12.9238 34.7064 11.829 33.6707 11.6651 32.4689C11.4671 31.019 12.068 30.0061 13.5293 29.1571C13.8184 28.9886 13.9527 28.5653 14.1894 28.2853C14.4989 27.9188 14.8381 27.5774 15.1636 27.2246C15.5164 27.5865 15.8806 27.9416 16.222 28.3149C16.4701 28.5858 16.6704 28.9022 16.9208 29.1707C17.5786 29.8764 18.348 30.5046 18.8669 31.299C19.0536 31.5858 18.6552 32.255 18.5232 32.7489C18.0566 32.5531 17.3806 32.4849 17.1621 32.1343C16.5452 31.1374 15.7941 30.582 14.6446 30.9507C14.2531 31.0782 13.7455 31.5334 13.7114 31.8817C13.6772 32.2117 14.1211 32.7603 14.4853 32.9219C15.1249 33.2064 15.876 33.236 16.5612 33.4363C18.0839 33.8801 19.0832 35.0478 19.1446 36.3908C19.2015 37.6654 18.3912 38.7034 16.9299 39.3703C16.6317 39.5069 16.4724 39.9257 16.222 40.1897C15.892 40.5334 15.5255 41.1161 15.1909 41.1047C14.8472 41.0934 14.5149 40.4993 14.1962 40.1419C13.9345 39.8483 13.7592 39.409 13.4382 39.2496C12.2387 38.6556 11.442 37.7906 11.137 36.2018L11.1279 36.1996Z" fill="white"/>
</g>
<defs>
<clipPath id="clip0_937_9162">
<rect width="70.2314" height="69" fill="white" transform="translate(0 0.759766)"/>
</clipPath>
</defs>
</svg>
