<svg width="70" height="79" viewBox="0 0 70 79" fill="none" xmlns="http://www.w3.org/2000/svg">
<g clip-path="url(#clip0_937_10544)">
<path d="M0.000821593 39.2962C0.000821593 27.8761 0.000821593 16.4534 0.000821593 5.03321C0.00338907 1.77508 1.44118 0.32959 4.6762 0.32959C15.9705 0.32959 27.2623 0.32959 38.5541 0.32959C41.8276 0.32959 43.2911 1.81359 43.2988 5.13078C43.3013 6.92801 43.25 8.72524 43.327 10.5199C43.3527 11.131 43.7096 11.7215 43.8739 12.3326C43.9432 12.5893 44.0305 13.0078 43.8996 13.1285C42.7545 14.1991 43.5093 15.5496 43.3373 16.7538C43.3142 16.9129 43.5735 17.1543 43.7507 17.2955C44.6775 18.0298 45.7122 18.6563 46.5466 19.4804C51.9615 24.8336 57.3326 30.2304 62.7192 35.6119C65.4125 38.3026 65.4022 40.2051 62.6807 42.9241C57.1734 48.4262 51.6739 53.936 46.1615 59.4304C45.6506 59.9413 45.0703 60.3804 44.5158 60.8476C44.1204 61.1788 43.3835 61.4895 43.3758 61.8233C43.3501 62.9144 43.5838 64.0133 43.7276 65.1071C43.7712 65.446 43.9535 65.8029 43.8944 66.1161C43.7584 66.8196 43.3604 67.4948 43.3322 68.1932C43.25 70.1573 43.3322 72.1291 43.2962 74.0958C43.25 76.7198 41.6325 78.3245 39.0162 78.327C27.4241 78.3373 15.8319 78.3373 4.23716 78.327C1.61063 78.327 0.013659 76.7198 0.0110915 74.0804C-0.00431336 62.4831 0.000821593 50.8909 0.000821593 39.2962ZM32.387 25.3702C31.7066 25.3702 31.2445 25.3702 30.7823 25.3702C27.0184 25.3702 23.2493 25.4549 19.4906 25.3317C17.7755 25.2752 16.5302 25.722 15.3543 27.0083C13.9987 28.4923 12.8228 30.4821 10.2707 30.0841C10.1449 30.0636 9.98061 30.3434 9.84453 30.3331C9.18726 30.2792 8.39134 30.3768 7.91122 30.0405C7.28219 29.5988 7.42854 28.7952 7.97541 28.2381C8.57107 27.627 9.24374 27.6527 9.93953 28.1405C10.8921 28.8106 11.7522 28.654 12.5507 27.8222C13.4698 26.8671 14.4634 25.9813 15.3415 24.9902C16.0501 24.1917 16.8229 23.8734 17.909 23.8939C21.4162 23.9632 24.9233 23.9299 28.4331 23.9144C30.3125 23.9067 32.3973 24.3561 34.0096 23.6859C35.622 23.0158 36.726 21.1647 38.1227 19.9117C39.1882 18.9566 40.3898 18.153 41.481 17.2262C41.7172 17.0259 41.8507 16.5792 41.8533 16.2454C41.879 12.3531 41.8918 8.45823 41.8584 4.56593C41.843 2.7764 40.8212 1.82386 39.0419 1.79305C38.5721 1.78535 38.0894 1.85467 37.6324 1.78022C34.8569 1.32577 32.6437 2.18331 31.0134 4.50431C30.5025 5.23347 29.7784 5.40806 28.8952 5.40293C23.8912 5.36442 18.8846 5.40806 13.8806 5.35415C13.2747 5.34644 12.43 5.08713 12.1116 4.64552C10.281 2.11142 7.85217 1.31037 4.87646 1.79049C4.7943 1.80332 4.70444 1.79049 4.61972 1.79049C2.27818 1.79819 1.44631 2.60951 1.44631 4.94592C1.44118 27.8761 1.44118 50.8062 1.44631 73.7364C1.44631 76.0497 2.28844 76.8584 4.65566 76.8584C15.9936 76.861 27.3291 76.861 38.6671 76.8584C40.9341 76.8584 41.861 75.9418 41.8661 73.6825C41.8764 70.5168 41.861 67.3511 41.8738 64.1854C41.879 62.6859 42.2076 61.071 40.1408 60.5318C39.8147 60.4471 39.5657 60.0363 39.2935 59.7667C38.2922 58.7705 37.3551 57.7025 36.2767 56.8013C35.7478 56.3597 34.9647 56.0079 34.2869 55.9874C31.4653 55.8975 28.6333 55.8256 25.8194 55.9925C23.9297 56.1029 22.5869 55.5329 21.3699 54.1131C20.0349 52.5572 18.8898 52.5239 16.9847 53.3557C16.5277 53.556 15.5572 53.4096 15.321 53.0733C15.0231 52.6497 15.0103 51.7177 15.2953 51.2838C15.5212 50.9397 16.3942 50.8987 16.9642 50.9397C17.6471 50.9885 18.3249 51.4481 18.9848 51.4044C20.2993 51.3171 21.3366 51.6612 22.0965 52.737C23.1672 54.2518 24.6075 54.6677 26.4253 54.5316C28.5101 54.3776 30.6154 54.5008 32.7105 54.4906C33.0186 54.4906 33.3293 54.4212 33.9121 54.3493C31.5757 52.0258 29.2983 50.0077 27.3265 47.7201C25.7501 45.8921 23.999 45.4248 21.6601 45.3401C18.8102 45.2374 16.5842 45.8587 14.9307 48.2131C14.2786 49.1399 13.38 49.3633 12.2657 49.3556C11.2053 49.3479 10.1449 49.6996 9.07686 49.7844C8.46837 49.8331 7.64934 49.8691 7.28219 49.5276C6.96639 49.2324 6.9022 48.1617 7.18463 47.8588C7.53894 47.4762 8.4581 47.2528 8.95875 47.4377C11.3465 48.3209 13.0308 48.059 14.7895 46.3029C15.0308 46.0615 15.3133 45.8484 15.5084 45.5737C16.4712 44.2283 17.7549 43.7867 19.3853 43.951C20.6151 44.0743 21.868 43.9767 23.2981 43.9767C22.3302 42.7983 21.4341 41.9613 20.8693 40.9394C20.4611 40.2051 20.0657 40.0228 19.3057 40.0305C16.4404 40.069 13.5725 40.0228 10.7072 40.0639C10.1424 40.0716 9.58265 40.4156 9.01781 40.4259C8.40161 40.4362 7.52353 40.4413 7.23341 40.0716C6.94072 39.6993 6.99463 38.6466 7.32584 38.3052C7.64677 37.9714 8.51458 38.0921 9.13334 38.1357C9.47225 38.1588 9.79319 38.5722 10.1244 38.5773C13.5417 38.6107 16.959 38.5979 20.0272 38.5979C20.9669 37.4168 21.6601 36.4052 22.4945 35.5297C24.1736 33.7633 25.9324 32.0739 27.65 30.346C27.9273 30.0661 28.1712 29.7503 28.6179 29.2368C26.1403 29.2368 23.9682 29.2035 21.7987 29.2574C21.1954 29.2728 20.5561 29.4576 20.0092 29.7221C19.2672 30.079 18.5663 30.0173 18.2119 29.3703C17.9603 28.9133 17.9038 27.9865 18.1914 27.6912C18.5534 27.3215 19.3622 27.2599 19.9681 27.2933C20.6947 27.3318 21.4059 27.7323 22.1299 27.758C24.0966 27.8273 26.0787 27.6296 28.0274 27.8247C30.0198 28.0224 31.2291 27.1135 32.387 25.3676V25.3702ZM21.7371 39.2218C22.1222 39.9432 22.3173 40.639 22.7641 41.0883C28.7283 47.1039 34.7157 53.0964 40.7262 59.0658C41.9046 60.234 43.2988 60.2109 44.4824 59.0324C50.4595 53.0887 56.4212 47.1322 62.3623 41.1551C63.5844 39.9252 63.5511 38.5285 62.3264 37.2987C56.4083 31.3576 50.48 25.4293 44.5389 19.5112C43.2603 18.2378 41.9046 18.2583 40.6055 19.5523C34.7003 25.4395 28.7977 31.3345 22.9284 37.2576C22.4252 37.7634 22.1633 38.508 21.7371 39.2243V39.2218ZM11.9268 2.09858C12.7663 3.43367 13.534 4.00622 14.8871 3.97798C19.2852 3.88812 23.6884 3.87271 28.0865 3.98054C29.7168 4.02162 30.3176 2.99463 31.1238 2.09602H11.9268V2.09858Z" fill="white"/>
<path d="M51.6175 18.9492C51.0193 19.3061 50.5443 19.7015 50.4544 19.627C49.8228 19.1032 49.2503 18.4973 48.7265 17.8631C48.6855 17.8144 49.3145 17.1109 49.3299 17.1237C50.0462 17.6475 50.7266 18.2149 51.6175 18.9492Z" fill="white"/>
<path d="M61.6841 28.9341C61.1475 29.3475 60.7007 29.766 60.6494 29.7223C60.0075 29.1703 59.4144 28.5618 58.8521 27.9276C58.8316 27.9045 59.3759 27.2832 59.417 27.3089C60.1205 27.7608 60.788 28.2743 61.6815 28.9341H61.6841Z" fill="white"/>
<path d="M67.9616 39.3011C68.4211 38.6798 68.7421 38.2459 69.0604 37.812C69.3095 38.2742 69.6972 38.7132 69.7716 39.2036C69.8615 39.7838 69.9693 40.667 69.0373 40.6491C68.719 40.6414 68.416 39.9019 67.959 39.3037L67.9616 39.3011Z" fill="white"/>
<path d="M52.7492 20.1324C53.4732 20.9617 54.0586 21.5908 54.5644 22.2789C54.6106 22.3405 54.1433 22.7795 53.9174 23.0414C53.3063 22.4483 52.6696 21.8783 52.1201 21.2339C52.0482 21.1492 52.4308 20.6768 52.7517 20.1299L52.7492 20.1324Z" fill="white"/>
<path d="M65.0823 32.4003C64.4841 32.77 64.027 33.1423 63.9577 33.0807C63.3287 32.5184 62.7664 31.8791 62.1836 31.2629C62.4121 31.0575 62.7818 30.639 62.8434 30.6801C63.5341 31.1473 64.1785 31.6839 65.0823 32.4003Z" fill="white"/>
<path d="M46.0932 13.3672C46.7607 14.2453 47.2896 14.9128 47.7569 15.6189C47.7877 15.6651 47.1792 16.2171 47.1561 16.1991C46.5117 15.6445 45.8878 15.0617 45.3281 14.425C45.2793 14.3711 45.7029 13.9012 46.0957 13.3672H46.0932Z" fill="white"/>
<path d="M57.1156 26.7564C56.4686 25.8732 55.9576 25.1954 55.5006 24.4816C55.4775 24.4482 56.104 23.9142 56.1348 23.9399C56.7664 24.5047 57.3723 25.1029 57.9218 25.7474C57.9628 25.7961 57.5238 26.2506 57.1181 26.7538L57.1156 26.7564Z" fill="white"/>
<path d="M67.3019 41.5835C67.6614 42.1278 68.0542 42.5668 67.9874 42.6516C67.497 43.2909 66.9296 43.8763 66.334 44.4206C66.2903 44.4616 65.8282 44.0431 65.5586 43.8377C66.0798 43.1651 66.601 42.4898 67.3019 41.5861V41.5835Z" fill="white"/>
<path d="M61.6459 49.4532C60.8346 50.1464 60.1876 50.6984 59.5355 51.2479C59.5123 51.2684 59.4328 51.2658 59.4148 51.2453C59.212 51.004 58.814 50.5803 58.8499 50.5393C59.4173 49.8922 60.0284 49.2812 60.6754 48.7163C60.7216 48.6753 61.1427 49.0681 61.6434 49.4532H61.6459Z" fill="white"/>
<path d="M54.9598 56.2851C54.0587 56.9604 53.3757 57.4713 52.6928 57.9822C52.4976 57.705 52.092 57.2351 52.1408 57.1838C52.6928 56.5907 53.291 56.0335 53.938 55.5457C54.015 55.4892 54.4464 55.9052 54.9624 56.2851H54.9598Z" fill="white"/>
<path d="M50.3653 58.5137C50.7967 59.0246 51.2357 59.4739 51.2023 59.5124C50.6375 60.1569 50.0239 60.7602 49.3794 61.3251C49.346 61.3533 48.7119 60.8039 48.735 60.7679C49.1946 60.0619 49.7106 59.3918 50.3653 58.5162V58.5137Z" fill="white"/>
<path d="M66.3154 33.5939C67.0061 34.4951 67.5298 35.1498 67.9894 35.8456C68.0254 35.902 67.4425 36.4515 67.4297 36.4412C66.7878 35.8943 66.1537 35.3321 65.5914 34.7056C65.5349 34.644 65.9277 34.1793 66.3154 33.5939Z" fill="white"/>
<path d="M62.9165 48.2519C62.5442 47.6537 62.1617 47.1889 62.2258 47.1171C62.7933 46.4778 63.4403 45.9103 64.0642 45.3198C64.2644 45.5586 64.6778 45.9437 64.6264 46.0182C64.1617 46.7165 63.62 47.361 62.9165 48.2519Z" fill="white"/>
<path d="M58.346 52.8192C57.4525 53.5509 56.7952 54.1004 56.102 54.5984C56.0789 54.6164 55.4601 53.9232 55.4935 53.8847C56.0275 53.2711 56.5975 52.678 57.2291 52.167C57.319 52.0952 57.7734 52.4751 58.3434 52.8166L58.346 52.8192Z" fill="white"/>
<path d="M46.0444 65.1174C45.6644 64.5371 45.2793 64.0776 45.3332 64.016C45.9032 63.3869 46.5476 62.8221 47.1689 62.2393C47.3743 62.4652 47.7954 62.8349 47.7569 62.8914C47.287 63.582 46.7504 64.2265 46.0444 65.1148V65.1174Z" fill="white"/>
<path d="M17.9973 71.7313C18.0333 69.7569 19.6456 68.1625 21.6149 68.1548C23.6252 68.1471 25.2812 69.8211 25.2633 71.8417C25.2453 73.8752 23.5841 75.5106 21.5687 75.4747C19.5455 75.4387 17.9588 73.7776 17.9947 71.7313H17.9973ZM21.6406 69.7852C20.4107 69.78 19.5096 70.6555 19.5198 71.8391C19.5301 73.0048 20.498 73.9393 21.6662 73.9162C22.8139 73.8931 23.6586 73.0382 23.6817 71.8777C23.7074 70.6196 22.8986 69.7903 21.6406 69.7852Z" fill="white"/>
<path d="M42.4568 52.2387C35.1472 52.1257 29.4679 46.2641 29.5757 38.9366C29.681 31.7887 35.617 26.1608 42.942 26.2686C49.9435 26.3713 55.7024 32.3612 55.5869 39.4244C55.4688 46.5774 49.5584 52.3465 42.4568 52.2387ZM42.5338 50.7778C48.9397 50.7932 54.1516 45.6017 54.1311 39.2215C54.1131 32.9209 48.9961 27.7603 42.7392 27.7295C36.2563 27.6961 31.0649 32.7541 31.0289 39.142C30.993 45.5709 36.1228 50.7624 42.5312 50.7778H42.5338Z" fill="white"/>
<path d="M39.5338 43.6507C42.6867 40.4773 45.6393 37.5042 48.5945 34.531C48.8666 34.2589 49.0977 33.8994 49.4238 33.7377C49.8115 33.5477 50.2813 33.5271 50.7178 33.4321C50.6099 33.8789 50.6484 34.4694 50.3712 34.7492C47.0771 38.1101 43.7291 41.4196 40.4119 44.7598C39.7906 45.3863 39.2874 45.3581 38.6814 44.7316C37.3746 43.376 35.9984 42.0897 34.7198 40.7084C34.4605 40.4285 34.5195 39.856 34.4297 39.4195C34.8713 39.5222 35.4464 39.4862 35.7288 39.7558C36.9946 40.9574 38.1782 42.2489 39.5313 43.6507H39.5338Z" fill="white"/>
</g>
<defs>
<clipPath id="clip0_937_10544">
<rect width="69.8303" height="78" fill="white" transform="translate(0 0.32959)"/>
</clipPath>
</defs>
</svg>
