<svg width="60" height="75" viewBox="0 0 60 75" fill="none" xmlns="http://www.w3.org/2000/svg">
<g clip-path="url(#clip0_937_9621)">
<path d="M0.0351785 30.3653C0.0351785 25.845 0.0653296 21.3223 0.0143047 16.802C0.0027081 15.7304 0.339008 15.1228 1.3224 14.645C10.4767 10.2012 19.6148 5.72261 28.7413 1.22314C29.5206 0.838134 30.1468 0.868285 30.9099 1.24633C40.0016 5.7342 49.1003 10.2082 58.2151 14.645C59.2612 15.1553 59.6763 15.8023 59.6694 16.9759C59.6299 25.4391 59.8178 33.9046 59.5998 42.3631C59.391 50.4691 55.9422 57.1603 49.3554 61.9404C43.3924 66.2683 37.1883 70.2668 31.1256 74.4555C30.1399 75.1373 29.4209 75.1049 28.4398 74.4253C22.5372 70.3387 16.5232 66.4121 10.6762 62.2512C3.86436 57.3992 0.276387 50.6964 0.053733 42.3051C-0.0529554 38.3275 0.0351785 34.3453 0.0351785 30.3653ZM57.1413 31.126C57.1691 31.126 57.197 31.126 57.2225 31.126C57.2225 26.7217 57.2039 22.3173 57.2387 17.9129C57.2457 17.1081 56.9952 16.6906 56.253 16.3288C47.6924 12.1633 39.1574 7.94683 30.5944 3.78598C30.1654 3.57724 29.458 3.56797 29.0312 3.77438C20.4312 7.94683 11.8544 12.168 3.25902 16.3497C2.60962 16.6651 2.37305 17.02 2.37537 17.7436C2.40088 26.1279 2.20374 34.5169 2.4519 42.8942C2.65832 49.9148 5.78939 55.727 11.4601 59.8716C17.1888 64.058 23.168 67.9034 29.0243 71.9228C29.5763 72.3008 29.959 72.3658 30.5504 71.9576C36.3997 67.9335 42.3626 64.0673 48.1169 59.911C53.4884 56.0285 56.536 50.5688 57.0764 43.982C57.4243 39.7237 57.1413 35.4121 57.1413 31.1237V31.126Z" fill="white"/>
<path d="M7.12016 37.9892C7.09465 25.5089 17.3019 15.29 29.8054 15.2785C42.2415 15.2669 52.4442 25.444 52.4697 37.8825C52.4952 50.4114 42.3598 60.6141 29.8541 60.6512C17.3762 60.6883 7.14568 50.4879 7.12016 37.9868V37.9892ZM29.9237 17.672C18.8698 17.5351 9.65981 26.5619 9.52529 37.6668C9.38845 48.9734 18.3665 58.151 29.6755 58.2623C40.7873 58.3713 49.995 49.3051 50.1086 38.1492C50.2223 26.9655 41.2025 17.8135 29.926 17.672H29.9237Z" fill="white"/>
<path d="M24.6192 39.6034C23.0699 39.6034 21.6528 39.5803 20.2357 39.6104C19.2686 39.6313 18.7491 39.2532 18.5774 38.2582C17.9234 34.501 17.1974 30.7553 16.5411 27.0003C16.3462 25.8778 16.78 25.4208 17.928 25.4069C18.698 25.3977 19.4611 25.5484 19.6745 24.4328C19.7208 24.1893 20.4885 23.8576 20.8109 23.9527C21.2029 24.0687 21.7015 24.5581 21.7595 24.9431C21.8987 25.8893 21.8987 26.8797 21.7665 27.826C21.7131 28.2156 21.1542 28.8442 20.8619 28.8233C20.2844 28.7839 19.7301 28.3687 19.1596 28.1066C19.6745 30.9826 20.2265 34.058 20.7901 37.189H30.8675C31.4287 34.0626 31.9877 30.9455 32.5466 27.8306C32.4469 27.7819 32.3449 27.7309 32.2451 27.6822C32.055 27.9095 31.9088 28.2087 31.6676 28.3455C31.2641 28.5751 30.7399 28.9161 30.385 28.8094C30.0256 28.7027 29.6475 28.146 29.5617 27.7309C29.4249 27.0629 29.5478 26.3463 29.5153 25.6505C29.4736 24.8016 29.6197 23.9318 30.5845 23.9411C31.118 23.9458 31.6468 24.6184 32.1802 24.9918C32.1176 25.1286 32.055 25.2655 31.99 25.4023C32.5629 25.4023 33.1358 25.3884 33.7086 25.4046C34.9123 25.4371 35.2834 25.8383 35.0747 27.1116C34.6224 29.8878 34.1029 32.6548 33.6043 35.424C33.428 36.4098 33.2053 37.3885 33.0523 38.3765C32.9131 39.2741 32.3889 39.615 31.5331 39.6081C30.0696 39.5988 28.6061 39.6058 26.8504 39.6058C26.9873 42.1385 26.8898 44.6201 27.3143 47.0113C27.7387 49.4141 30.4477 51.0748 32.9456 50.9263C35.5362 50.7709 37.8927 48.8018 38.0852 46.2668C38.3078 43.3468 38.2545 40.4013 38.2313 37.4697C38.229 37.1357 37.6932 36.7275 37.3198 36.4863C35.6221 35.4032 34.9703 33.1882 35.8725 31.4C36.7678 29.6258 38.9804 28.821 40.8196 29.5956C42.7122 30.3935 43.7141 32.4762 42.9743 34.3641C42.6936 35.0808 42.1834 35.8508 41.5572 36.2497C40.7686 36.753 40.648 37.3166 40.6411 38.133C40.6109 41.0252 40.7222 43.9406 40.3952 46.8026C39.9893 50.3627 36.6356 53.1575 33.1195 53.2688C29.1071 53.3987 25.6212 50.9542 24.9231 47.2062C24.552 45.2208 24.7027 43.1381 24.6262 41.0971C24.61 40.6448 24.6239 40.1925 24.6239 39.6011L24.6192 39.6034ZM39.3167 31.6853C38.4632 31.8036 37.8672 32.2002 37.8393 33.1349C37.8115 34.0626 38.3542 34.6146 39.2216 34.6448C40.0914 34.6749 40.6712 34.1531 40.7083 33.2323C40.7431 32.3022 40.1749 31.8616 39.3167 31.6853Z" fill="white"/>
</g>
<defs>
<clipPath id="clip0_937_9621">
<rect width="59.7084" height="74" fill="white" transform="translate(0 0.949707)"/>
</clipPath>
</defs>
</svg>
