<svg width="22" height="22" viewBox="0 0 22 22" fill="none" xmlns="http://www.w3.org/2000/svg">
<g clip-path="url(#clip0_1134_3053)">
<g clip-path="url(#clip1_1134_3053)">
<g clip-path="url(#clip2_1134_3053)">
<mask id="mask0_1134_3053" style="mask-type:luminance" maskUnits="userSpaceOnUse" x="0" y="0" width="22" height="22">
<path d="M0 0H22V22H0V0Z" fill="white"/>
</mask>
<g mask="url(#mask0_1134_3053)">
<path d="M19.6788 5.97669C19.6682 5.41753 19.6581 4.88928 19.6581 4.37829C19.6581 3.97791 19.3336 3.65337 18.9331 3.65337C15.8329 3.65337 13.4725 2.76232 11.505 0.84931C11.2235 0.575556 10.7756 0.575685 10.4943 0.84931C8.52693 2.76232 6.16691 3.65337 3.06689 3.65337C2.66651 3.65337 2.34192 3.97791 2.34192 4.37829C2.34192 4.8894 2.33191 5.41783 2.32117 5.97712C2.22182 11.1808 2.08574 18.3075 10.7622 21.315C10.8391 21.3417 10.9193 21.355 10.9996 21.355C11.0798 21.355 11.1601 21.3417 11.237 21.315C19.9141 18.3074 19.7782 11.1805 19.6788 5.97669Z" stroke="#00BDE0" stroke-width="2" stroke-miterlimit="10"/>
<path d="M12.2864 10.498C11.7341 10.498 11.2864 10.0502 11.2864 9.49797V7.7793H10.714V9.49797C10.714 10.0502 10.2663 10.498 9.71397 10.498H7.99512V11.0703H9.71397C10.2663 11.0703 10.714 11.518 10.714 12.0703V13.789H11.2864V12.0703C11.2864 11.518 11.7341 11.0703 12.2864 11.0703H14.0048V10.498H12.2864Z" stroke="#031B4E" stroke-width="2" stroke-miterlimit="10" stroke-linejoin="round"/>
</g>
</g>
</g>
</g>
<defs>
<clipPath id="clip0_1134_3053">
<rect width="22" height="22" fill="white"/>
</clipPath>
<clipPath id="clip1_1134_3053">
<rect width="22" height="22" fill="white"/>
</clipPath>
<clipPath id="clip2_1134_3053">
<rect width="22" height="22" fill="white"/>
</clipPath>
</defs>
</svg>
