<svg width="70" height="71" viewBox="0 0 70 71" fill="none" xmlns="http://www.w3.org/2000/svg">
<g clip-path="url(#clip0_937_8243)">
<path d="M59.6015 65.9114C58.0164 66.3269 56.5531 66.7266 55.0809 67.0947C53.6289 67.4582 52.1793 67.9843 50.707 68.0656C49.6164 68.1266 48.3564 67.8263 47.408 67.2776C43.7996 65.1956 40.2657 62.976 36.7499 60.736C36.0364 60.2821 35.5215 59.5211 35.0789 59.0695C34.336 59.7063 33.5344 60.5689 32.577 61.183C29.4157 63.2085 26.1799 65.1166 23.0073 67.1263C21.3702 68.1627 19.6902 68.3885 17.8454 67.8647C15.7183 67.2618 13.5731 66.7153 11.4348 66.1531C11.1548 66.0808 10.8612 66.065 10.7957 66.056C10.6828 67.0021 10.886 68.1447 10.4096 68.6685C9.64863 69.5085 8.4925 70.1295 7.3883 70.4592C6.85992 70.6172 5.77153 70.0821 5.44411 69.5492C3.6354 66.6092 1.95766 63.5834 0.288949 60.5598C-0.298148 59.4963 0.0360456 58.5027 1.04992 57.8276C1.36153 57.6198 1.69121 57.4369 2.01863 57.2518C3.80701 56.2424 4.32411 56.3079 5.81217 57.7643C7.09024 57.0282 8.40669 56.3169 9.67798 55.5289C11.5364 54.3772 13.4264 54.2056 15.4857 54.9869C17.0935 55.5966 18.7622 56.0595 20.4219 56.5156C21.8783 56.9153 22.5873 57.9043 22.8538 59.4647C24.7122 58.3898 26.4644 57.3376 28.2551 56.3531C29.0702 55.906 29.9283 55.4769 30.818 55.2353C32.8706 54.6798 34.1057 55.3437 34.9841 57.4121C35.1106 57.1705 35.2009 57.0034 35.2844 56.834C35.9731 55.4227 37.2964 54.7227 38.8228 55.1563C39.8909 55.4589 40.9386 55.9105 41.9209 56.4366C43.6709 57.3737 45.3644 58.4147 47.1822 59.4714C47.4531 57.4143 48.7335 56.6579 50.5467 56.2921C52.0799 55.9827 53.5635 55.3956 55.0402 54.856C56.666 54.2598 58.2106 54.366 59.7054 55.1947C61.216 56.0301 62.7086 56.8972 64.1989 57.744C65.906 56.2582 68.3583 56.4998 69.5664 58.4101C69.9164 58.9611 69.9909 60.0247 69.6928 60.5914C68.1077 63.6172 66.387 66.5731 64.6664 69.5266C64.0499 70.5834 63.0383 70.8227 61.9409 70.3056C61.636 70.1611 61.347 69.9805 61.0535 69.8156C59.0799 68.6979 58.8767 68.2079 59.5993 65.9114H59.6015ZM9.00282 63.7076C10.1906 63.7934 11.026 63.7437 11.8073 63.9334C14.0654 64.4798 16.3009 65.1234 18.5454 65.7218C19.6451 66.0131 20.6725 65.9272 21.6706 65.286C23.5967 64.0485 25.5635 62.8743 27.5144 61.6731C29.0499 60.7269 30.6057 59.8079 32.1051 58.8076C32.3896 58.6179 32.4551 58.0985 32.6199 57.7327C32.2315 57.6131 31.8048 57.3263 31.466 57.4076C30.7864 57.5747 30.127 57.8908 29.5106 58.2385C27.6138 59.3089 25.7848 60.5102 23.8406 61.4834C22.8719 61.9689 21.6819 62.3731 20.6454 62.2737C18.8728 62.1021 17.1431 61.5037 15.3931 61.0905C14.5667 60.8963 14.2438 60.3543 14.4854 59.5821C14.7202 58.8347 15.3096 58.724 16.0322 58.9363C17.1838 59.2727 18.3422 59.5934 19.5141 59.8372C19.7964 59.896 20.1464 59.6318 20.4648 59.5143C20.2254 59.2434 20.0357 58.8234 19.7377 58.7218C17.8567 58.0872 15.9667 57.4708 14.0496 56.9605C13.397 56.7866 12.5525 56.7053 11.9812 56.9763C10.2267 57.8027 8.5625 58.8166 6.79217 59.7989C7.63443 61.2869 8.40669 62.653 9.00282 63.7076ZM63.2393 59.8147C61.5525 58.8527 60.0712 57.8705 58.4702 57.1569C57.7273 56.825 56.7022 56.825 55.887 57.0169C54.0309 57.455 52.2177 58.0782 50.409 58.6924C50.077 58.8053 49.8512 59.2321 49.5757 59.5166C49.9302 59.6227 50.3164 59.8734 50.6348 59.8056C51.8067 59.5595 52.956 59.2095 54.1144 58.9001C54.7873 58.7195 55.3451 58.8843 55.5573 59.5821C55.7741 60.2934 55.5167 60.8421 54.7557 61.0656C54.0015 61.2892 53.2338 61.4766 52.4886 61.7272C49.718 62.6621 47.1799 62.4318 44.696 60.6976C42.8919 59.4398 40.8619 58.4914 38.8838 57.5092C38.5225 57.3285 37.9128 57.6469 37.4183 57.7327C37.6802 58.1595 37.8406 58.7466 38.2222 58.9882C41.5867 61.1176 45.0009 63.1656 48.3722 65.2837C49.3793 65.916 50.3999 66.0153 51.4973 65.7195C53.5251 65.173 55.5348 64.5589 57.576 64.0779C58.608 63.834 59.6919 63.8182 61.0625 63.6647C61.6338 62.6531 62.406 61.2869 63.2393 59.8147ZM4.37153 60.124C3.86572 60.4063 3.47056 60.6231 3.04153 60.8624C4.39185 63.2447 5.76927 65.6811 7.20088 68.2079C7.65927 67.9527 8.03863 67.7427 8.51959 67.474C7.08798 64.936 5.69476 62.4701 4.37153 60.124ZM62.8418 68.2169C64.287 65.663 65.6644 63.2243 66.9899 60.8805C66.5248 60.596 66.1206 60.3476 65.6915 60.0834C64.3344 62.4905 62.9457 64.9563 61.5299 67.465C61.9996 67.736 62.3496 67.9347 62.8396 68.2169H62.8418Z" fill="white"/>
<path d="M31.4212 12.0453C31.4212 18.3679 26.2616 23.5389 19.9571 23.5343C13.648 23.5321 8.4906 18.3566 8.49512 12.034C8.49738 5.70015 13.6322 0.569824 19.9661 0.569824C26.3067 0.569824 31.4212 5.69563 31.4212 12.0453ZM10.7577 12.0972C10.7938 17.144 14.9487 21.2831 19.9638 21.2695C25.0919 21.256 29.1858 17.0672 29.1564 11.8669C29.1271 6.87434 24.9158 2.78499 19.8464 2.82563C14.8222 2.86628 10.7216 7.05047 10.7577 12.0972Z" fill="white"/>
<path d="M40.0088 12.0431C40.0088 5.72273 45.1617 0.569824 51.4865 0.569824C57.791 0.569824 63.0027 5.75434 63.0049 12.034C63.0094 18.3001 57.7752 23.5298 51.4956 23.5343C45.2001 23.5389 40.0088 18.3476 40.0088 12.0431ZM51.4707 2.82563C46.433 2.83466 42.2894 6.96918 42.2736 12.0047C42.2578 17.0898 46.451 21.2966 51.5091 21.2695C56.5265 21.2447 60.7175 17.074 60.7446 12.0769C60.7717 7.05724 56.522 2.8166 51.4707 2.82563Z" fill="white"/>
<path d="M33.1055 38.4398C32.8707 39.1827 32.751 39.9911 32.3784 40.6573C30.4862 44.0308 28.5736 47.3953 26.5752 50.7079C25.4236 52.616 23.0797 53.3453 20.9436 52.6566C18.9068 51.9995 17.4617 49.8769 17.6468 47.6776C17.701 47.0227 17.8817 46.3205 18.2001 45.7514C20.0765 42.4118 21.9778 39.0834 23.9446 35.7956C25.0691 33.9169 27.352 33.0792 29.3142 33.6685C31.5384 34.3369 32.9723 36.1863 33.1055 38.4353V38.4398ZM28.1491 43.5408C28.9484 42.1453 29.7365 40.8695 30.4207 39.5395C31.071 38.275 30.5855 36.8321 29.382 36.1298C28.1807 35.4298 26.7062 35.7211 25.9113 36.936C25.0939 38.1869 24.3917 39.5147 23.5855 40.9034C25.1301 41.7953 26.6068 42.6489 28.1513 43.5408H28.1491ZM22.4317 42.8656C21.6075 44.3447 20.7855 45.6837 20.1036 47.0905C19.5571 48.2195 20.0562 49.5608 21.1062 50.2247C22.1946 50.9134 23.7188 50.7914 24.4549 49.7505C25.392 48.425 26.1507 46.9708 27.0201 45.5143C25.4507 44.6066 24.0281 43.7869 22.4317 42.8634V42.8656Z" fill="white"/>
<path d="M45.6494 47.2689C45.9475 46.4334 46.1372 45.5369 46.5639 44.7737C48.3049 41.6598 50.1068 38.5798 51.911 35.5021C53.0243 33.6031 55.061 32.5711 56.8968 32.9166C59.2633 33.3615 60.8372 34.8969 61.0788 37.295C61.1668 38.1734 60.9726 39.2166 60.5504 39.9911C58.7033 43.3873 56.7659 46.7382 54.7788 50.0553C53.6452 51.9476 51.342 52.7108 49.2759 52.065C47.142 51.3989 45.7984 49.5586 45.6517 47.2689H45.6494ZM56.3188 42.9244C57.1159 41.5289 57.8836 40.2824 58.552 38.9886C59.2159 37.706 58.7801 36.2563 57.6194 35.5495C56.3752 34.7908 54.8804 35.0798 54.0607 36.3466C53.2523 37.5953 52.5523 38.9163 51.7575 40.2892C53.2839 41.1721 54.7359 42.0098 56.3188 42.9266V42.9244ZM50.6172 42.2492C49.8088 43.6718 49.0207 44.9476 48.3433 46.2776C47.6952 47.5489 48.1897 48.9918 49.4001 49.6805C50.6081 50.3669 52.0826 50.0531 52.8594 48.8427C53.6655 47.585 54.3768 46.2686 55.1784 44.8957C53.661 44.015 52.2068 43.1705 50.6172 42.2469V42.2492Z" fill="white"/>
<path d="M6.9798 35.956C6.97528 31.9411 10.0982 28.7889 14.095 28.7798C18.0895 28.7708 21.2621 31.9231 21.2666 35.9085C21.2711 39.9189 18.155 43.0621 14.1401 43.0937C10.1569 43.1253 6.98431 39.9618 6.97754 35.956H6.9798ZM15.4701 31.3179C13.185 30.6044 10.8411 31.6205 9.77077 33.6369C8.73206 35.5947 9.16109 38.065 10.8185 39.3837C12.3562 36.7147 13.8895 34.0569 15.4679 31.3156L15.4701 31.3179ZM17.4595 32.4198C15.9398 35.0527 14.463 37.6066 12.993 40.165C12.9253 40.2824 12.923 40.4382 12.8914 40.5714C15.1021 41.215 17.2359 40.3411 18.3717 38.3653C19.4962 36.4076 19.1779 34.0931 17.4595 32.4176V32.4198Z" fill="white"/>
<path d="M49.4741 35.4117C49.4515 39.2934 46.1208 42.5676 42.2302 42.5314C38.3237 42.4953 35.0834 39.1963 35.1105 35.283C35.1376 31.3359 38.3531 28.1385 42.3002 28.1385C46.2789 28.1385 49.4966 31.3992 49.4741 35.4117ZM40.925 39.9527C43.1537 40.6866 45.4908 39.7066 46.6131 37.6314C47.6879 35.6443 47.2973 33.2553 45.5925 31.8643C44.0321 34.565 42.4831 37.2521 40.925 39.9527ZM43.6437 30.7059C41.4286 29.945 39.0328 30.995 37.9263 33.0408C36.9621 34.8201 37.3686 37.8369 39.0079 38.7356C40.5366 36.0892 42.0654 33.4405 43.646 30.7059H43.6437Z" fill="white"/>
<path d="M18.5137 12.0408C17.3779 10.9592 16.4002 10.0243 15.4202 9.09853C14.8037 8.51595 14.4628 7.85434 15.1899 7.17015C15.8876 6.51305 16.495 6.94886 17.0279 7.51337C17.9537 8.49563 18.8795 9.47789 19.9837 10.6498C21.0676 9.48692 22.007 8.47531 22.9508 7.46821C23.495 6.88563 24.1363 6.53563 24.7912 7.21531C25.4189 7.86789 25.1186 8.52273 24.5383 9.07821C23.5605 10.013 22.585 10.9479 21.3679 12.1085C22.5241 13.1743 23.6237 14.0798 24.5766 15.123C24.895 15.473 25.0486 16.2408 24.8973 16.6901C24.6512 17.4195 23.8044 17.4376 23.1292 16.7827C22.0815 15.7689 21.0789 14.7053 19.9295 13.5311C18.8908 14.6218 17.9379 15.6311 16.976 16.6337C16.4318 17.2027 15.7995 17.5731 15.1379 16.8776C14.5102 16.216 14.8015 15.5814 15.3931 15.0237C16.3776 14.0956 17.3486 13.1585 18.5183 12.0408H18.5137Z" fill="white"/>
<path d="M49.3613 13.7253C51.4862 11.8014 53.3558 10.1214 55.212 8.42337C55.8171 7.87015 56.4742 7.41853 57.1471 8.17724C57.7862 8.89757 57.3752 9.53886 56.7497 10.1011C54.652 11.9798 52.561 13.8698 50.4836 15.7711C49.7655 16.4282 49.1175 16.4418 48.4355 15.735C47.6271 14.8972 46.8007 14.0776 45.9742 13.2579C45.4436 12.734 45.2833 12.1469 45.8252 11.5801C46.4168 10.9614 47.0558 11.1308 47.591 11.6998C48.1781 12.3276 48.7246 12.9914 49.3636 13.7253H49.3613Z" fill="white"/>
</g>
<defs>
<clipPath id="clip0_937_8243">
<rect width="69.8781" height="70" fill="white" transform="translate(0 0.569824)"/>
</clipPath>
</defs>
</svg>
