<svg width="70" height="71" viewBox="0 0 70 71" fill="none" xmlns="http://www.w3.org/2000/svg">
<path d="M53.1577 44.3429C52.467 43.8822 51.5329 44.0684 51.0721 44.7594C46.2663 51.9633 38.3865 56.095 29.4535 56.095C14.9552 56.095 3.16001 44.2996 3.16001 29.8013C3.16001 15.303 14.9554 3.5078 29.4536 3.5078C38.3865 3.5078 46.2663 7.63956 51.0722 14.8437C51.5332 15.5346 52.4669 15.7208 53.1578 15.2601C53.8488 14.7991 54.0353 13.8653 53.5743 13.1745C48.2008 5.11971 39.4092 0.5 29.4536 0.5C21.6268 0.5 14.2686 3.54786 8.73442 9.08208C3.2002 14.6163 0.152344 21.9746 0.152344 29.8013C0.152344 37.628 3.2002 44.9862 8.73442 50.5205C11.4141 53.2002 14.5222 55.295 17.9033 56.7452L11.8931 67.4919H7.21561C6.38505 67.4919 5.71171 68.1653 5.71171 68.9958C5.71171 69.8264 6.38505 70.4997 7.21561 70.4997H12.7695L12.7737 70.5L12.7778 70.4997H46.1293L46.1334 70.5L46.1376 70.4997H51.6914C52.522 70.4997 53.1953 69.8264 53.1953 68.9958C53.1953 68.1653 52.522 67.4919 51.6914 67.4919H47.014L41.0434 56.8157C46.0928 54.694 50.4221 51.1533 53.574 46.4286C54.0352 45.7376 53.8487 44.8038 53.1577 44.3429ZM43.568 67.4919H15.3393L20.7612 57.7971C23.5399 58.6561 26.4622 59.1028 29.4536 59.1028C32.49 59.1028 35.4172 58.6707 38.1731 57.845L43.568 67.4919Z" fill="#031B4E"/>
<path d="M54.6564 43.1191C54.4315 43.1191 54.1913 43.4671 53.9761 43.36C53.2325 42.9902 52.9294 42.0875 53.2992 41.3438C54.947 38.0309 55.7479 34.2553 55.7479 29.8015C55.7479 25.5223 55.0054 22.2036 53.2651 18.7042C52.8952 17.9604 53.1983 17.0578 53.942 16.688C54.6858 16.3179 55.5885 16.6213 55.9583 17.3649C57.8929 21.2552 58.7557 25.0907 58.7557 29.8015C58.7557 34.7308 57.8518 38.9444 55.9925 42.6833C55.7296 43.2118 55.2093 43.1191 54.6564 43.1191Z" fill="#031B4E"/>
<path d="M29.4542 50.7636C17.8957 50.7636 8.49219 41.36 8.49219 29.8014C8.49219 18.2428 17.8957 8.83936 29.4542 8.83936C41.0128 8.83936 50.4163 18.2428 50.4163 29.8014C50.4163 41.36 41.0127 50.7636 29.4542 50.7636ZM29.4542 11.8472C19.5542 11.8472 11.5 19.9014 11.5 29.8014C11.5 39.7014 19.5542 47.7558 29.4542 47.7558C39.3543 47.7558 47.4085 39.7014 47.4085 29.8014C47.4085 19.9014 39.3543 11.8472 29.4542 11.8472Z" fill="#00BDE0"/>
<path d="M29.4549 42.4246C22.4946 42.4246 16.832 36.762 16.832 29.8016C16.832 22.8413 22.4946 17.1787 29.4549 17.1787C36.4153 17.1787 42.0779 22.8413 42.0779 29.8016C42.0779 36.762 36.4153 42.4246 29.4549 42.4246ZM29.4549 20.1866C24.1531 20.1866 19.8398 24.5 19.8398 29.8018C19.8398 35.1036 24.1531 39.4169 29.4549 39.4169C34.7567 39.4169 39.0701 35.1036 39.0701 29.8018C39.0701 24.5 34.7567 20.1866 29.4549 20.1866Z" fill="#00BDE0"/>
<path d="M53.0764 41.7027L32.4626 29.8012L53.0764 17.8998C53.7957 17.4845 54.042 16.5647 53.6268 15.8455C53.2115 15.1263 52.292 14.8797 51.5725 15.295L28.7029 28.4989C27.7101 29.0336 27.7179 30.587 28.7163 31.1115L51.5725 44.3077C51.8093 44.4444 52.0678 44.5094 52.3229 44.5094C52.8427 44.5094 53.3483 44.2396 53.6268 43.7572C54.042 43.0377 53.7958 42.118 53.0764 41.7027Z" fill="#031B4E"/>
<path d="M62.7848 56.9681C62.5254 56.9681 62.2659 56.9012 62.0328 56.7665L52.4036 51.207C51.9937 50.9703 51.719 50.5544 51.6624 50.0845L50.8312 43.1852C50.7512 42.5215 51.1188 41.8848 51.7335 41.6222L58.1243 38.8923C58.5599 38.7065 59.057 38.7362 59.467 38.9729L69.0963 44.5323C69.5895 44.8172 69.8795 45.3561 69.8455 45.9249C69.8113 46.4935 69.4588 46.994 68.9351 47.2178L63.5816 49.5046L64.2779 55.2844C64.346 55.8498 64.0888 56.4055 63.6134 56.7192C63.3626 56.8848 63.0739 56.9681 62.7848 56.9681ZM54.5587 48.9784L60.9318 52.6579L60.4604 48.7447C60.3804 48.0811 60.7481 47.4444 61.3628 47.1817L64.9876 45.6334L58.6144 41.9539L53.9525 43.9452L54.5587 48.9784Z" fill="#00BDE0"/>
<path d="M53.9523 15.6577L58.6143 17.649L64.9875 13.9695L61.3628 12.4211C60.7482 12.1586 60.3804 11.5218 60.4604 10.8583L60.9318 6.94487L54.5586 10.6245L53.9523 15.6577ZM58.7151 20.8314C58.5145 20.8314 58.3137 20.7913 58.1243 20.7105L51.7335 17.9807C51.1188 17.7182 50.7512 17.0813 50.8312 16.4177L51.6624 9.51819C51.719 9.04815 51.9937 8.63239 52.4036 8.39573L62.0328 2.83634C62.5262 2.55128 63.1381 2.56987 63.6134 2.88378C64.0888 3.19769 64.346 3.75317 64.2779 4.31878L63.5816 10.0983L68.9351 12.3852C69.4588 12.609 69.8113 13.1095 69.8455 13.6781C69.8795 14.2467 69.5895 14.7858 69.0963 15.0706L59.467 20.63C59.2353 20.7636 58.9755 20.8314 58.7151 20.8314Z" fill="#00BDE0"/>
</svg>
