<svg width="79" height="79" viewBox="0 0 79 79" fill="none" xmlns="http://www.w3.org/2000/svg">
<g clip-path="url(#clip0_937_8260)" filter="url(#filter0_d_937_8260)">
<path d="M39.0786 43.6708C37.8184 43.6708 36.7372 43.6662 35.6583 43.6732C35.4328 43.6732 35.2096 43.715 34.9166 43.7452V68.2148H39.0786C39.0786 66.7127 39.0786 65.2502 39.0786 63.7901C39.0786 61.1534 39.0925 58.519 39.0693 55.8823C39.0623 55.0709 39.3041 54.4361 40.176 54.4291C41.0852 54.4222 41.2409 55.1058 41.2363 55.894C41.2177 59.5374 41.2293 63.1809 41.2293 66.8244C41.2293 67.2452 41.2293 67.666 41.2293 68.1869H45.5447C45.5447 67.7149 45.5447 67.2638 45.5447 66.8104C45.5447 56.5404 45.5447 46.268 45.5447 35.9979C45.5447 34.3494 45.7656 34.1332 47.4281 34.1285C49.1347 34.1239 50.839 34.1169 52.5457 34.1309C53.8454 34.1425 54.1849 34.4889 54.1872 35.7957C54.1942 39.7484 54.1895 43.7034 54.1895 47.6561V48.7954C55.6241 48.0444 56.9425 47.3561 58.4143 46.5865C58.4143 46.3284 58.4143 45.9099 58.4143 45.4891C58.4143 39.9088 58.4143 34.3262 58.4143 28.7459C58.4143 27.0904 58.6538 26.8509 60.2744 26.8486C62.0973 26.8463 63.9178 26.8672 65.7407 26.8416C66.6777 26.8277 67.1056 27.2811 67.1079 28.1716C67.1149 32.9009 67.1149 37.6278 67.1079 42.3571C67.1079 43.0942 66.8451 43.6778 65.9709 43.6499C65.1129 43.6243 64.892 43.0616 64.892 42.306C64.899 38.3533 64.8944 34.3983 64.8944 30.4456C64.8944 30.0247 64.8944 29.6062 64.8944 29.1016H60.7324V46.1494C66.9614 46.1936 71.6488 48.728 73.5601 54.9081C75.1784 60.142 73.4043 64.5504 69.1493 68.2868C70.4677 68.2868 71.5651 68.3008 72.6626 68.2822C73.4764 68.2682 74.0786 68.5659 74.0902 69.4308C74.0995 70.2539 73.4857 70.5259 72.7463 70.5469C72.437 70.5562 72.1255 70.5515 71.8162 70.5515C49.9904 70.5515 28.1645 70.5538 6.34093 70.5422C5.4318 70.5422 4.11346 70.877 4.09021 69.4378C4.06464 67.9846 5.37833 68.3473 6.29442 68.2776C6.4037 68.2683 6.51066 68.231 6.74782 68.1776C6.74782 67.1545 6.74782 66.1198 6.74782 65.0828C6.74782 61.9811 6.74317 58.8817 6.74782 55.78C6.75015 54.3873 7.05009 54.099 8.46143 54.0943C10.1681 54.0897 11.8724 54.092 13.579 54.0943C15.2368 54.0943 15.3973 54.2455 15.4019 55.8684C15.4089 59.5514 15.4019 63.232 15.4019 66.915C15.4019 67.3312 15.4019 67.7451 15.4019 68.2217H19.7266C19.7266 67.7893 19.7266 67.3777 19.7266 66.9662C19.7266 61.5394 19.7243 56.1149 19.7266 50.688C19.7266 49.0953 19.8754 48.9512 21.4588 48.9488C23.2422 48.9442 25.0256 48.9395 26.8089 48.9512C28.0668 48.9605 28.3621 49.2627 28.3644 50.5532C28.3714 55.98 28.3668 61.4045 28.3668 66.8313C28.3668 67.2545 28.3668 67.6777 28.3668 68.1938H32.5938C32.5938 67.7614 32.5938 67.315 32.5938 66.8685C32.5938 59.0399 32.5938 51.2112 32.5938 43.3825C32.5938 41.6968 32.7752 41.5178 34.4563 41.5154C36.2396 41.5131 38.023 41.5457 39.8063 41.5038C40.8782 41.4782 41.2456 41.9665 41.2316 42.9803C41.2014 45.1891 41.2084 47.398 41.2293 49.6068C41.2363 50.4137 41.0061 51.0531 40.1086 51.0182C39.3064 50.988 39.0553 50.3881 39.0646 49.6255C39.0856 47.6933 39.0716 45.7611 39.0716 43.6732L39.0786 43.6708ZM52.0341 58.2958C52.0039 63.804 56.3519 68.252 61.7927 68.2822C67.3683 68.3124 71.8441 64.0296 71.879 58.626C71.9162 53.0201 67.5241 48.4792 62.0229 48.4396C56.4309 48.4001 52.0644 52.7086 52.0341 58.2935V58.2958ZM54.9545 68.2404C54.5987 67.973 54.5011 67.9079 54.4127 67.8335C49.3742 63.4576 48.3953 57.6029 51.6947 51.7669C51.9086 51.3879 52.0016 50.8926 52.0039 50.4509C52.0272 46.1145 52.0202 41.7759 52.0132 37.4372C52.0132 37.1093 51.9551 36.7815 51.9295 36.4862H47.8094V68.238H54.9545V68.2404ZM21.9564 51.181V68.1962H26.0254V51.181H21.9564ZM13.1768 56.3125H9.11014V68.1869H13.2465C13.2465 64.383 13.2465 60.6744 13.2442 56.9659C13.2442 56.7775 13.207 56.5915 13.1768 56.3102V56.3125Z" fill="white"/>
<path d="M8.57781 5.40805C9.73804 6.00328 10.7099 6.44505 11.6237 6.9868C12.1934 7.32627 12.5584 7.25652 13.1722 6.96588C14.8952 6.14743 15.6438 5.02905 15.4671 3.03178C15.33 1.46 16.4623 0.604354 18.0689 0.583428C19.3478 0.567152 20.6266 0.560176 21.9031 0.585753C23.3865 0.615979 24.6234 1.62741 24.3584 3.0434C23.905 5.46152 25.6046 6.13581 27.095 7.04261C27.3252 7.18211 27.8437 7.07748 28.1041 6.90077C31.3268 4.71516 32.5358 5.23831 34.2076 8.60276C34.5168 9.22357 34.9284 9.79554 35.2399 10.4164C35.9212 11.7742 35.6724 13.2669 34.2959 13.7854C31.9685 14.6643 31.9848 16.4314 32.122 18.3264C32.1452 18.6449 32.5195 19.0309 32.8334 19.2239C36.1909 21.284 36.3118 21.742 34.2913 25.1483C34.1146 25.4482 33.9379 25.7482 33.7612 26.0481C32.2266 28.6243 31.3198 28.8917 28.7203 27.3176C27.8089 26.7666 27.2043 26.8921 26.2441 27.3176C24.5328 28.0733 24.1049 29.1731 24.2212 30.9099C24.3328 32.5677 23.4307 33.4211 21.7682 33.4885C20.3383 33.5466 18.899 33.542 17.4737 33.4373C16.1693 33.342 15.1207 32.3678 15.3811 31.1425C15.9229 28.5778 14.1744 27.8106 12.4933 26.92C12.2608 26.7968 11.8376 26.8968 11.5609 27.02C10.8913 27.3176 10.2728 27.7269 9.60319 28.0245C8.35925 28.5778 7.21529 28.243 6.48288 27.0874C5.75744 25.9458 5.05758 24.7833 4.41352 23.5951C3.67414 22.2303 3.89967 20.7492 5.26684 20.2144C7.54313 19.3262 7.60358 17.5777 7.50825 15.6804C7.49198 15.3665 7.10368 14.941 6.78514 14.7945C3.66949 13.3762 3.3742 11.8137 5.20639 9.04453C5.65514 8.36792 5.9295 7.55181 6.46893 6.9682C7.02696 6.36135 7.8082 5.9591 8.57548 5.40805H8.57781ZM30.8338 26.2644C31.3919 25.2901 31.8848 24.4205 32.387 23.5602C33.1752 22.2117 33.2171 22.1326 31.836 21.47C30.0758 20.6236 29.2295 19.382 29.5643 17.3987C29.6457 16.9104 29.5992 16.3896 29.548 15.8897C29.4109 14.5644 29.9875 13.6669 31.1222 13.0461C31.7848 12.6833 32.4242 12.2718 33.1287 11.8486C32.3289 10.4838 31.5965 9.23519 30.8431 7.9494C30.4781 8.14471 30.2177 8.23771 30.0131 8.4028C28.2041 9.8653 26.4161 10.0536 24.6304 8.36327C24.4956 8.23539 24.3049 8.15169 24.1259 8.08193C22.5332 7.47043 21.8519 6.31484 22.0077 4.62913C22.0472 4.20596 22.0681 3.76419 21.9798 3.35497C21.931 3.12246 21.6496 2.77136 21.4636 2.76439C20.1615 2.71324 18.8548 2.73649 17.3691 2.73649C17.7341 5.35689 17.104 7.04028 14.7115 8.59578C12.0748 10.3071 10.4309 9.02128 8.42435 7.85872C7.72217 9.07243 7.06648 10.1187 6.51775 11.2185C6.40382 11.4464 6.59681 12.0904 6.79909 12.1718C9.24047 13.1646 10.2031 14.9224 9.73107 17.501C9.68922 17.7242 9.74502 17.9637 9.76362 18.1962C9.8636 19.3634 9.35905 20.2121 8.38017 20.8073C7.66636 21.2421 6.95255 21.6746 6.18526 22.1396C6.9944 23.5812 7.72217 24.8832 8.4755 26.2272C8.91263 25.9923 9.27767 25.8505 9.57993 25.6249C11.2633 24.3601 12.7188 24.4322 14.6301 25.5761C16.6064 26.7596 17.5737 28.0152 17.2807 30.2822C17.2412 30.5961 17.6155 31.2471 17.8318 31.2634C19.1315 31.3564 20.4406 31.3099 21.9472 31.3099C21.5101 28.7057 22.2542 27.113 24.6258 25.6435C27.1718 24.0648 28.8482 24.8832 30.8408 26.2667L30.8338 26.2644Z" fill="white"/>
<path d="M59.2583 13.3881C57.8191 13.5695 56.6356 13.7299 55.4498 13.8671C54.7336 13.9508 54.0617 13.8159 53.957 12.9742C53.8478 12.0837 54.45 11.7745 55.2475 11.6908C57.3261 11.4722 59.4025 11.2374 61.4765 10.9932C62.2833 10.8979 62.7623 11.2211 62.8506 12.0233C63.0785 14.0601 63.3389 16.0992 63.4435 18.143C63.4644 18.5406 62.8367 18.9731 62.5088 19.3892C62.1159 19.0521 61.4858 18.7754 61.3742 18.3615C61.1068 17.3664 61.0835 16.3061 60.9394 15.0878C59.4815 16.7456 58.1701 18.2988 56.7914 19.7892C47.3862 29.9685 36.3419 37.7274 23.2143 42.373C18.3897 44.0797 13.4279 45.2236 8.34287 45.8375C7.51048 45.9374 6.88502 45.7166 6.75946 44.9121C6.62228 44.0308 7.32447 43.7751 8.07083 43.624C11.9654 42.8288 15.9274 42.2545 19.7336 41.1523C30.1129 38.1506 39.2414 32.7889 47.4351 25.7973C51.5715 22.2677 55.3614 18.3964 58.7235 14.1136C58.8607 13.9368 58.9886 13.7532 59.256 13.3881H59.2583Z" fill="white"/>
<path d="M65.8781 58.2932C65.8781 58.3328 65.8874 58.3746 65.8781 58.4095C65.3921 59.8255 65.5502 61.0299 66.829 62.0274C67.0313 62.1855 66.9662 63.0737 66.7198 63.3201C66.4663 63.5736 65.8385 63.4852 65.3782 63.4736C65.2317 63.4713 65.0666 63.2527 64.9527 63.1016C64.297 62.2273 63.5739 61.9437 62.3927 62.1832C60.5605 62.5529 58.7865 61.3043 58.2284 59.6C57.6193 57.7399 58.3563 55.7426 60.1002 54.859C60.7605 54.5242 60.9837 54.1638 60.9302 53.4547C60.8674 52.6083 60.8163 51.7341 60.9697 50.9133C61.0418 50.5204 61.5487 50.0181 61.9463 49.9205C62.6136 49.7554 63.0112 50.2321 63.0344 50.9342C63.0484 51.3202 63.0624 51.7085 63.0391 52.0945C62.9554 53.4477 62.9042 54.6521 64.5039 55.4008C65.5316 55.8821 65.8897 57.1051 65.885 58.3002L65.8781 58.2932ZM63.7087 58.3932C63.732 57.4329 62.9438 56.6424 61.9626 56.6378C61.0162 56.6331 60.2769 57.333 60.2373 58.2653C60.1955 59.2605 60.9279 60.0696 61.8951 60.1068C62.8461 60.1417 63.6855 59.3488 63.7087 58.3932Z" fill="white"/>
<path d="M26.3562 17.1293C26.3399 20.8332 23.4312 23.7489 19.7343 23.7722C16.1094 23.7931 13.0031 20.6798 13.0147 17.0433C13.0286 13.3998 16.0164 10.419 19.6715 10.4074C23.3591 10.3958 26.3702 13.4231 26.3539 17.1293H26.3562ZM24.1776 17.0526C24.2031 14.5856 22.1826 12.4954 19.7482 12.4675C17.3836 12.4419 15.2166 14.6019 15.2142 16.9875C15.2142 19.38 17.2069 21.4099 19.6227 21.4796C22.078 21.5494 24.152 19.5335 24.1752 17.0526H24.1776Z" fill="white"/>
</g>
<defs>
<filter id="filter0_d_937_8260" x="0" y="0.569824" width="78.1533" height="78" filterUnits="userSpaceOnUse" color-interpolation-filters="sRGB">
<feFlood flood-opacity="0" result="BackgroundImageFix"/>
<feColorMatrix in="SourceAlpha" type="matrix" values="0 0 0 0 0 0 0 0 0 0 0 0 0 0 0 0 0 0 127 0" result="hardAlpha"/>
<feOffset dy="4"/>
<feGaussianBlur stdDeviation="2"/>
<feComposite in2="hardAlpha" operator="out"/>
<feColorMatrix type="matrix" values="0 0 0 0 0 0 0 0 0 0 0 0 0 0 0 0 0 0 0.25 0"/>
<feBlend mode="normal" in2="BackgroundImageFix" result="effect1_dropShadow_937_8260"/>
<feBlend mode="normal" in="SourceGraphic" in2="effect1_dropShadow_937_8260" result="shape"/>
</filter>
<clipPath id="clip0_937_8260">
<rect width="70.1535" height="70" fill="white" transform="translate(4 0.569824)"/>
</clipPath>
</defs>
</svg>
