<svg width="70" height="71" viewBox="0 0 70 71" fill="none" xmlns="http://www.w3.org/2000/svg">
<g clip-path="url(#clip0_937_10533)">
<path d="M29.1011 32.7518C27.4269 28.5219 22.9706 23.9257 19.0006 22.3492C18.6053 23.0154 18.2856 23.7792 17.7638 24.3587C17.3664 24.8005 16.6891 25.2846 16.1718 25.2491C15.6544 25.2113 14.9439 24.654 14.7263 24.1478C13.4385 21.128 12.2506 18.0639 11.0715 14.9997C10.5564 13.6631 11.1293 12.7039 12.5126 12.4885C15.5034 12.0244 18.4965 11.5781 21.4918 11.1318C21.856 11.0785 22.2312 11.0586 22.5998 11.063C23.9476 11.083 24.6537 12.2043 24.0742 13.4433C23.75 14.1405 23.3436 14.7977 23.0461 15.3417C25.7195 17.3556 28.3528 19.3406 30.9796 21.319V11.7069C30.2557 11.7069 29.5319 11.8379 28.8857 11.6692C28.2329 11.4982 27.4913 11.1607 27.0894 10.6589C26.5721 10.0105 26.9873 9.27337 27.4802 8.65388C29.4408 6.19591 31.3837 3.72461 33.3421 1.26442C34.339 0.0121204 35.4648 0.0121204 36.4617 1.26442C38.4201 3.72239 40.3629 6.19591 42.3235 8.65388C42.8142 9.27114 43.2295 10.0128 42.7121 10.6589C42.308 11.1629 41.5664 11.4938 40.9136 11.6714C40.2963 11.8401 39.5991 11.7069 38.8397 11.7069V21.3079C41.4198 19.3606 44.0266 17.3911 46.7621 15.3261C46.5378 14.9376 46.0804 14.3803 45.8917 13.743C45.7118 13.128 45.5786 12.2998 45.8584 11.8135C46.1026 11.3872 46.973 11.0608 47.5237 11.1163C49.8729 11.3494 52.2065 11.738 54.5446 12.0733C55.4216 12.1998 56.2964 12.3353 57.1713 12.4685C58.6434 12.6905 59.254 13.6209 58.7278 14.9953C57.5487 18.0617 56.3608 21.1236 55.073 24.1433C54.8576 24.6496 54.1471 25.2091 53.6298 25.2468C53.1124 25.2846 52.4396 24.8005 52.0377 24.3587C51.5293 23.7992 51.2229 23.0531 50.7743 22.2915C46.1648 24.5785 42.8586 28.0379 40.7071 32.5608C41.2666 32.925 41.9172 33.147 42.2103 33.6C42.4967 34.0418 42.4523 34.719 42.4834 35.2986C42.5234 36.0357 42.5034 36.7796 42.4834 37.5189C42.459 38.5448 41.8906 39.1221 40.8936 39.1287C36.8969 39.1554 32.9002 39.1576 28.9035 39.1287C27.9088 39.1221 27.3337 38.547 27.3137 37.5189C27.2959 36.6685 27.3026 35.8159 27.307 34.9655C27.3137 33.4334 27.5779 33.1004 29.1011 32.7473V32.7518ZM29.1233 9.75075C30.0248 9.75075 30.6376 9.75075 31.2505 9.75075C32.8602 9.75519 32.949 9.83734 32.949 11.4516C32.9513 18.1105 32.949 24.7695 32.949 31.4284C32.949 31.8614 32.949 32.2944 32.949 32.7673H36.8458C36.8458 32.2366 36.8458 31.7992 36.8458 31.3596C36.8458 24.7006 36.8458 18.0417 36.8458 11.3827C36.8458 9.84845 36.9502 9.75519 38.5022 9.75075C39.1417 9.74853 39.7812 9.75075 40.6871 9.75075C38.6399 7.17732 36.797 4.85923 34.8897 2.45899C32.9402 4.9214 31.1194 7.22395 29.1211 9.75075H29.1233ZM53.4765 23.0154C54.6556 20.0245 55.7413 17.2712 56.8737 14.4002C53.7874 13.9451 50.8587 13.5121 47.7346 13.0502C48.1676 13.8207 48.4918 14.3958 48.8137 14.9709C49.4887 16.1743 49.3977 16.5007 48.172 17.1202C44.7304 18.8588 41.7396 21.1658 39.2816 24.1478C39.0751 24.3987 38.7842 24.6962 38.7776 24.976C38.7354 27.1675 38.7554 29.3612 38.7554 31.5528C39.1595 31.2397 39.3504 30.8955 39.5369 30.5514C42.0349 25.9529 45.6563 22.5513 50.3747 20.2909C51.2229 19.8846 51.7602 20.0356 52.1976 20.8327C52.5684 21.5077 52.9725 22.1627 53.4743 23.0176L53.4765 23.0154ZM12.9167 14.4091C14.0691 17.3156 15.1637 20.0733 16.325 23.0043C16.8224 22.1605 17.2287 21.5055 17.5973 20.8305C18.0347 20.0334 18.5742 19.889 19.4202 20.2932C24.1408 22.5535 27.76 25.9574 30.2557 30.558C30.4467 30.9088 30.6398 31.2574 30.833 31.6083C31.0573 29.5522 31.0995 27.596 31.0284 25.6465C31.0084 25.1136 30.762 24.4986 30.4222 24.0789C28.0087 21.1103 25.0289 18.8432 21.6206 17.1224C20.3883 16.5007 20.3017 16.1854 20.9789 14.9753C21.3075 14.3891 21.6273 13.8007 22.0403 13.0502C18.8984 13.5188 15.9897 13.9517 12.9145 14.4113L12.9167 14.4091ZM40.4717 34.8367H29.2477C29.221 35.1986 29.1855 35.4873 29.181 35.7737C29.1648 36.7596 29.6658 37.2532 30.6843 37.2547C33.3421 37.2547 35.9976 37.2547 38.6554 37.2547C40.0706 37.2547 40.7167 36.5449 40.5938 35.1254C40.5872 35.0565 40.5383 34.9921 40.4717 34.8367Z" fill="white"/>
<path d="M15.212 70.3184C11.9214 70.3184 8.63078 70.3295 5.34017 70.3184C1.90744 70.3051 0.0645203 68.4955 0.0334348 65.0606C0.00234939 61.5856 -0.0198545 58.1085 0.0267737 54.6336C0.0778426 50.6724 1.17471 49.2114 4.93605 48.0102C6.51475 47.5062 8.11787 47.0754 9.72766 46.678C10.8867 46.3915 11.9702 46.5825 12.9783 47.3152C14.5725 48.472 15.8315 48.4654 17.4457 47.2952C18.3494 46.6402 19.3175 46.3693 20.3655 46.6469C22.4993 47.2108 24.6465 47.7593 26.7292 48.4876C29.0739 49.3069 30.2441 51.0921 30.2574 53.5834C30.2774 57.5734 30.304 61.5657 30.2618 65.5557C30.2307 68.4578 28.3678 70.274 25.4191 70.3073C22.0175 70.3473 18.6159 70.3162 15.2142 70.3184H15.212ZM22.8613 68.3467C22.8613 66.6281 22.8613 64.9717 22.8613 63.3153C22.8613 62.1319 22.8035 60.9417 22.9079 59.7649C22.939 59.4319 23.4519 59.141 23.7428 58.8301C24.0691 59.141 24.4888 59.403 24.6931 59.7827C24.8485 60.0713 24.733 60.5065 24.733 60.8773C24.733 63.3486 24.733 65.8199 24.733 68.269C26.8535 68.6398 28.3057 67.6007 28.3589 65.5224C28.4566 61.7122 28.4078 57.8998 28.3989 54.0874C28.3945 51.8714 27.2865 50.5081 25.1394 49.9486C23.6406 49.5578 22.1596 49.1071 20.6675 48.6985C18.5648 48.1234 17.4146 49.0982 17.63 51.2608C17.9098 54.0563 18.2007 56.8496 18.4516 59.6472C18.4893 60.0647 18.4427 60.5731 18.2317 60.9129C17.5701 61.9809 16.8396 63.0067 16.0846 64.0103C15.4896 64.8008 14.8679 64.803 14.2906 64.0236C13.5201 62.9845 12.7807 61.9209 12.079 60.8352C11.897 60.5532 11.8126 60.1357 11.8437 59.796C12.1323 56.7807 12.4432 53.7654 12.7762 50.7546C12.9117 49.5289 11.6327 48.21 10.4293 48.5187C8.39542 49.0427 6.37931 49.6355 4.38318 50.2839C2.84001 50.7857 2.05843 51.9447 2.05177 53.5634C2.03179 57.6311 2.00292 61.6989 2.05177 65.7644C2.07397 67.5851 3.6993 68.6864 5.57775 68.229C5.57775 67.6962 5.57775 67.1455 5.57775 66.5948C5.57775 64.3745 5.53334 62.1518 5.62438 59.9337C5.63992 59.554 6.23054 59.1965 6.55472 58.8301C6.89222 59.1876 7.31631 59.4985 7.54057 59.9181C7.69378 60.2068 7.57388 60.642 7.57388 61.0128C7.57388 63.4441 7.57388 65.8754 7.57388 68.3467H22.859H22.8613ZM15.4207 61.8521C15.7849 61.015 16.4688 60.1868 16.431 59.3941C16.2956 56.5587 15.9248 53.7321 15.6139 50.9078C15.585 50.6391 15.3408 50.3949 15.1965 50.1395C15.0322 50.4149 14.7591 50.6791 14.7235 50.97C14.4771 52.9861 14.2439 55.0044 14.0774 57.0294C13.9397 58.7058 13.3957 60.511 15.423 61.8521H15.4207Z" fill="white"/>
<path d="M69.9555 59.8027C69.8245 62.123 69.8179 64.4611 69.5226 66.7614C69.2739 68.6909 67.5686 70.112 65.608 70.2474C64.0249 70.3562 62.4306 70.3162 60.8408 70.3162C55.4053 70.3229 49.9698 70.3295 44.5343 70.3118C41.9142 70.3029 39.9337 68.8352 39.5939 66.5949C39.4185 65.4291 39.383 64.2346 39.3919 63.0533C39.4163 59.7627 39.4563 56.4721 39.5673 53.1859C39.6383 51.0854 40.6353 49.4268 42.627 48.7052C44.9384 47.8681 47.3209 47.1798 49.7233 46.6602C50.5027 46.4914 51.5485 46.8711 52.2857 47.313C54.0575 48.3721 55.2033 48.4787 56.873 47.2863C57.8167 46.6136 58.8269 46.3849 59.9105 46.6602C61.8378 47.1509 63.7584 47.6749 65.6546 48.2722C68.4435 49.1515 69.7268 51.1698 69.7601 54.0319C69.7846 55.9547 69.7646 57.8776 69.7646 59.8005C69.8268 59.8005 69.8911 59.8027 69.9533 59.8049L69.9555 59.8027ZM45.0627 68.2668C45.0627 67.8916 45.0627 67.4919 45.0627 67.0922C45.0627 64.6875 45.0294 62.2784 45.1072 59.876C45.1183 59.5185 45.5979 58.9678 45.9553 58.8768C46.6237 58.708 46.9368 59.2076 46.9323 59.876C46.9279 60.431 46.9345 60.9861 46.9345 61.5412C46.9345 63.7883 46.9345 66.0375 46.9345 68.3179H62.2197C62.2197 66.7059 62.2197 65.1916 62.2197 63.675C62.2197 62.4161 62.1442 61.1505 62.2708 59.9048C62.3107 59.5185 62.9014 59.1876 63.2411 58.8301C63.5653 59.1987 64.056 59.5207 64.1736 59.947C64.3357 60.531 64.2158 61.1949 64.2158 61.8232C64.2158 63.997 64.2158 66.1708 64.2158 68.329C66.3319 68.5266 67.7196 67.5363 67.7418 65.7622C67.7907 61.6967 67.7662 57.6289 67.7418 53.5612C67.7329 52.0025 67.018 50.8234 65.5081 50.3305C63.4431 49.6577 61.3582 49.0271 59.251 48.5053C58.1164 48.2256 56.8908 49.5933 57.0195 50.7568C57.3526 53.7677 57.6635 56.7829 57.9521 59.7982C57.9854 60.138 57.8988 60.5554 57.7167 60.8374C57.0151 61.9232 56.2757 62.9889 55.5052 64.0259C54.9257 64.8052 54.3196 64.7897 53.7089 64.0081C53.2538 63.4264 52.9274 62.7314 52.4167 62.2096C51.2443 61.0084 51.2576 59.6228 51.4575 58.093C51.7816 55.6017 51.9815 53.0949 52.208 50.5903C52.3057 49.5045 51.0356 48.2322 49.9942 48.5031C47.7849 49.0738 45.5956 49.7354 43.433 50.4682C42.3539 50.8345 41.6078 51.7049 41.5834 52.8817C41.499 57.2048 41.4035 61.5324 41.4968 65.8555C41.5368 67.6962 43.0777 68.6198 45.0672 68.2646L45.0627 68.2668ZM54.8747 61.9676C55.2543 60.944 55.8894 60.0469 55.8516 59.181C55.7339 56.4543 55.3765 53.7388 55.0789 51.021C55.0456 50.7168 54.7992 50.4349 54.6526 50.1418C54.4883 50.4149 54.2085 50.6769 54.1774 50.9655C53.9132 53.277 53.7978 55.6106 53.4292 57.902C53.1849 59.423 53.3759 60.6686 54.8769 61.9653L54.8747 61.9676Z" fill="white"/>
<path d="M47.5098 37.5167C47.5053 33.3912 49.8501 30.3781 53.3849 29.994C59.5931 29.3212 62.1843 33.853 61.6981 38.598C61.5049 40.4898 60.8676 42.255 59.7019 43.8026C56.8376 47.6017 52.2992 47.5795 49.4748 43.7404C48.1981 42.0041 47.5142 39.8414 47.512 37.5145L47.5098 37.5167ZM59.8285 37.2502C59.7486 36.7862 59.6797 36.0468 59.4866 35.3407C58.9115 33.2469 57.244 32.0012 54.8881 31.8414C52.6633 31.6904 50.8093 32.7739 49.97 34.7146C48.7998 37.4212 49.6391 41.4357 51.7929 43.434C53.6114 45.1215 55.6097 45.126 57.4083 43.4163C59.0891 41.8176 59.7019 39.7748 59.8285 37.2502Z" fill="white"/>
<path d="M22.2944 37.4766C22.2544 40.332 21.3996 42.8566 19.3057 44.866C16.83 47.2396 13.5727 47.2418 11.0681 44.9104C8.36811 42.3969 7.28012 37.7053 8.60347 34.2792C9.838 31.0774 12.8822 29.4521 16.5969 30.0072C19.5855 30.4557 21.9103 32.9914 22.2211 36.1532C22.2655 36.5951 22.2722 37.0391 22.2944 37.4766ZM10.0068 38.0761C10.0933 39.7702 10.7017 41.7819 12.3315 43.365C14.1877 45.1658 16.2594 45.1413 18.1023 43.3295C20.1739 41.2912 20.9577 37.461 19.8453 34.7854C19.2014 33.2356 18.069 32.2853 16.4081 31.9833C12.5824 31.2861 9.99343 33.542 10.0068 38.0783V38.0761Z" fill="white"/>
</g>
<defs>
<clipPath id="clip0_937_10533">
<rect width="69.9556" height="70" fill="white" transform="translate(0 0.32959)"/>
</clipPath>
</defs>
</svg>
