<svg width="71" height="71" viewBox="0 0 71 71" fill="none" xmlns="http://www.w3.org/2000/svg">
<g clip-path="url(#clip0_937_8580)">
<path d="M39.5938 18.5909H37.3093V14.4493H32.7917C32.7917 15.7481 32.752 16.9861 32.8034 18.2195C32.8454 19.2099 32.3806 19.6537 31.4859 19.9784C29.8181 20.5788 28.1619 21.2421 26.5688 22.0177C25.7186 22.4335 25.1369 22.3821 24.5109 21.714C23.6606 20.8077 22.7707 19.9387 21.904 19.0604C20.8739 20.1373 19.8905 21.1674 18.6641 22.4521C19.4513 23.1576 20.3857 24.0125 21.3364 24.8488C22.0722 25.4958 22.0582 26.1219 21.6191 27.0048C20.8459 28.5535 20.2128 30.1817 19.6265 31.8144C19.3088 32.6974 18.9001 33.2043 17.891 33.1623C16.6553 33.1085 15.4172 33.1482 14.1068 33.1482V37.6729C15.3588 37.6729 16.5969 37.7173 17.8279 37.6589C18.8744 37.6098 19.3182 38.1027 19.6476 39.0511C20.2175 40.6885 20.8832 42.3026 21.6448 43.8607C22.0512 44.6923 22.0816 45.2949 21.3925 45.928C20.4558 46.7899 19.5401 47.6799 18.5777 48.5932C19.7643 49.7005 20.8062 50.6745 21.9928 51.7841C22.7964 50.9361 23.6817 50.0205 24.5459 49.0838C25.1766 48.397 25.7746 48.4227 26.6109 48.8292C28.204 49.6047 29.8648 50.2494 31.5303 50.8637C32.3642 51.1721 32.8454 51.5832 32.8104 52.5316C32.766 53.7696 32.7987 55.0123 32.7987 56.3438H37.3163C37.3163 55.1034 37.3537 53.8327 37.3046 52.5643C37.2649 51.5552 37.7858 51.1534 38.6641 50.838C40.2969 50.2517 41.9251 49.6187 43.4738 48.8432C44.3591 48.4017 44.9711 48.411 45.6275 49.1352C46.459 50.0532 47.3327 50.9361 48.1923 51.8401C49.2925 50.6979 50.2806 49.6724 51.4462 48.4648C50.6683 47.7383 49.8181 46.8997 48.9188 46.1172C48.0755 45.3837 48.0148 44.7086 48.5637 43.6855C49.3439 42.2302 49.9419 40.6605 50.4581 39.0884C50.7921 38.0747 51.2803 37.6005 52.3665 37.6589C53.5602 37.7219 54.7608 37.6729 56.0176 37.6729V33.1482H51.869V30.838C53.691 30.838 55.471 30.803 57.2486 30.8544C58.0194 30.8754 58.4142 31.387 58.4119 32.1812C58.4049 34.3209 58.4025 36.4629 58.4119 38.6026C58.4165 39.6094 57.8349 39.9854 56.9332 40.0018C55.8447 40.0205 54.7515 40.0438 53.6653 39.9971C52.9809 39.9691 52.6328 40.17 52.4179 40.8707C52.1143 41.8658 51.7008 42.8422 51.2243 43.7696C50.8926 44.419 50.8622 44.8535 51.4579 45.365C52.2521 46.0494 52.9458 46.8483 53.7027 47.5771C54.4642 48.3106 54.5109 49.0137 53.733 49.7775C52.2895 51.1954 50.8599 52.6273 49.442 54.0709C48.6945 54.8324 47.9914 54.8535 47.2416 54.0779C46.459 53.265 45.6859 52.4381 44.8309 51.707C44.5716 51.4851 44.0063 51.408 43.67 51.5201C42.7543 51.8285 41.918 52.4381 40.9907 52.6297C39.797 52.8773 39.5424 53.501 39.6335 54.5755C39.7106 55.5028 39.6662 56.4419 39.6382 57.3762C39.6102 58.3106 39.136 58.7848 38.1596 58.7731C36.097 58.7497 34.0344 58.7474 31.9718 58.7731C30.9253 58.7871 30.4745 58.2662 30.4604 57.2851C30.4464 56.1569 30.4301 55.0263 30.4628 53.9004C30.4791 53.3071 30.2969 53.0198 29.6919 52.8236C28.6268 52.4778 27.585 52.034 26.5782 51.5365C26.0035 51.2515 25.6321 51.2235 25.1743 51.7397C24.4525 52.5526 23.6349 53.2814 22.8781 54.0639C22.1423 54.8278 21.4415 54.8675 20.68 54.0896C19.2621 52.646 17.8302 51.2164 16.3866 49.7986C15.6228 49.0487 15.6088 48.348 16.3843 47.6005C17.1972 46.8179 18.0241 46.0448 18.7576 45.1898C18.9795 44.9305 19.0519 44.3676 18.9374 44.0289C18.6291 43.1132 18.0218 42.277 17.8302 41.3496C17.5826 40.1489 16.9496 39.906 15.8797 39.9971C14.9921 40.0719 14.0904 40.0205 13.1958 40.0065C12.2264 39.9901 11.6751 39.5696 11.6868 38.5138C11.7125 36.4512 11.7125 34.3886 11.6868 32.326C11.6728 31.2772 12.1984 30.831 13.1771 30.817C14.3053 30.8007 15.4359 30.7866 16.5618 30.8193C17.1551 30.8357 17.4401 30.6512 17.6363 30.0462C17.9821 28.981 18.4259 27.9368 18.9258 26.9324C19.2131 26.3531 19.2318 25.9887 18.7202 25.5309C17.8816 24.7787 17.1201 23.9425 16.3189 23.1482C15.6415 22.4755 15.6134 21.8074 16.2979 21.1254C17.7835 19.6397 19.2715 18.1564 20.7548 16.6685C21.4345 15.9864 22.1026 15.991 22.7777 16.6685C23.6022 17.4954 24.3941 18.3596 25.2747 19.1188C25.5317 19.3407 26.097 19.4108 26.4357 19.2963C27.3514 18.988 28.1876 18.383 29.1173 18.1915C30.3156 17.9415 30.5609 17.3085 30.4675 16.2386C30.3904 15.351 30.4464 14.4493 30.4558 13.5547C30.4675 12.5806 30.8926 12.0364 31.9461 12.048C34.0087 12.0737 36.0713 12.0644 38.1339 12.048C38.886 12.0434 39.5308 12.2746 39.5611 13.0828C39.6289 14.8978 39.5821 16.7175 39.5821 18.5886L39.5938 18.5909Z" fill="white"/>
<path d="M47.8999 35.4605C47.8859 42.5242 42.1162 48.2612 35.0337 48.2519C27.9139 48.2425 22.1956 42.4658 22.2119 35.2993C22.2283 28.2706 28.0494 22.5359 35.1365 22.5663C42.1979 22.5943 47.9139 28.3687 47.8999 35.4605ZM29.2173 35.4254C29.2267 38.6373 31.8919 41.2769 35.0991 41.2465C38.311 41.2161 40.9249 38.5462 40.8922 35.3297C40.8618 32.1738 38.2316 29.574 35.0641 29.5693C31.8475 29.5646 29.208 32.2089 29.215 35.4254H29.2173ZM36.2624 45.7525C41.0136 45.4067 45.4869 40.8541 45.3094 36.6518H43.1557C42.3311 40.4803 39.9812 42.7134 36.2624 43.5427V45.7548V45.7525ZM26.8767 34.2014C26.809 34.101 26.7436 34.0029 26.6759 33.9024C27.5495 32.4752 28.2012 30.8237 29.3575 29.6861C30.5418 28.5205 32.2236 27.8548 33.805 26.8994V25.0657C29.0748 25.4278 24.5759 30.0248 24.8118 34.2014H26.8767ZM45.3934 34.1967C45.1038 29.5203 40.6819 25.1334 36.2858 25.1194V27.2941C40.0863 28.1234 42.3568 30.4359 43.1743 34.1967H45.3911H45.3934ZM24.7394 36.6284C24.9169 41.1741 29.3388 45.5889 33.7934 45.7151V43.517C29.9975 42.641 27.748 40.3612 26.9398 36.6284H24.7371H24.7394Z" fill="white"/>
<path d="M61.5226 14.8369C61.9897 15.2153 62.4499 15.519 62.826 15.9044C63.758 16.8621 63.5711 17.7568 62.3051 18.1913C58.6027 19.462 54.8839 20.686 51.1722 21.9287C50.8054 22.0525 50.4457 22.2768 50.0743 22.2955C49.4646 22.3235 48.6727 22.4309 48.2873 22.1086C47.9837 21.8563 48.007 20.9523 48.1752 20.4314C49.3455 16.7781 50.5905 13.1481 51.8145 9.51106C51.9874 8.99717 52.1346 8.47159 52.3425 7.96937C52.7419 7.00698 53.6015 6.77572 54.3724 7.46248C54.8325 7.8736 55.1899 8.39684 55.6454 8.92942C58.4065 6.78506 61.0063 4.76451 63.6085 2.74629C63.8538 2.55475 64.0967 2.3632 64.3467 2.17633C65.538 1.28401 65.7832 1.29569 66.8134 2.31181C67.1451 2.63884 67.4768 2.9682 67.8061 3.29756C69.2871 4.78553 69.2894 4.87196 67.9673 6.56783C65.8673 9.25879 63.7697 11.9544 61.5249 14.8369H61.5226ZM50.9619 19.5344C54.064 18.4949 57.0002 17.5115 59.9949 16.5094C59.0621 15.3493 59.0403 14.1961 59.9295 13.05C61.9991 10.3894 64.071 7.73111 66.1149 5.10789C65.7389 4.24127 65.3324 4.34872 64.7508 4.80656C62.1019 6.90186 59.4156 8.94811 56.7667 11.0458C55.9491 11.6928 55.253 11.7512 54.5475 10.929C54.4144 10.7725 54.2205 10.6697 53.9496 10.4594C53.0642 13.1154 52.2233 15.6451 51.3824 18.1726C51.2516 18.5627 51.1371 18.9598 50.9573 19.5321L50.9619 19.5344Z" fill="white"/>
<path d="M66.4919 36.5747C65.7911 36.5747 65.0904 36.605 64.3919 36.5677C63.4202 36.5163 62.932 35.9463 63.1516 35.0306C63.8874 31.9799 64.6372 28.9316 65.4711 25.9066C65.5809 25.5048 66.1929 24.9886 66.5783 24.9839C66.9638 24.9792 67.5991 25.4838 67.7089 25.8786C68.5522 28.9409 69.323 32.0243 70.0472 35.1171C70.2527 35.993 69.7365 36.5303 68.8255 36.5677C68.05 36.6004 67.2698 36.5747 66.4919 36.5747ZM67.4052 34.1944C67.1576 33.2343 66.9287 32.3537 66.7021 31.4731C66.6204 31.4801 66.5363 31.4871 66.4545 31.4964C66.242 32.37 66.0317 33.2437 65.8005 34.1944H67.4052Z" fill="white"/>
<path d="M31.623 4.95814V2.91189L31.8169 3.11745C32.4032 2.6199 33.055 2.18308 33.5595 1.61546C34.905 0.104131 37.1708 -0.0523747 38.6424 1.33048C40.0977 2.69698 40.1024 5.04223 38.6564 6.41574C37.1965 7.80327 34.9167 7.66078 33.5735 6.15645C33.09 5.61453 32.4757 5.18939 31.922 4.71053C31.8216 4.79229 31.7235 4.87638 31.623 4.95814ZM37.5632 4.11721C37.5609 3.94202 37.5562 3.76916 37.5539 3.59397C37.0961 3.30198 36.6219 2.76472 36.1851 2.79275C35.7926 2.81611 35.1035 3.51688 35.1503 3.82289C35.2203 4.26905 35.7973 4.8974 36.2248 4.95346C36.6265 5.00719 37.1124 4.42088 37.5609 4.11488L37.5632 4.11721Z" fill="white"/>
<path d="M8.32324 58.7376C8.94693 58.205 9.46783 57.7588 10.0612 57.252C10.5937 57.8219 11.0586 58.3218 11.5748 58.8731C11.0119 59.4407 10.505 59.9523 9.921 60.5409C9.35338 59.9009 8.85583 59.3379 8.32324 58.7353V58.7376Z" fill="white"/>
<path d="M56.183 58.8989C56.788 59.4852 57.2575 59.9407 57.7434 60.4126C57.1828 60.9966 56.6666 61.5338 56.0709 62.1528C55.5523 61.5525 55.0875 61.0129 54.5596 60.4009C55.1319 59.8707 55.6341 59.4058 56.1807 58.8989H56.183Z" fill="white"/>
<path d="M62.3868 54.8882C61.6674 54.421 61.0951 54.0496 60.4434 53.6268C60.8288 52.9774 61.1745 52.3935 61.588 51.6997C62.249 52.0641 62.8727 52.4075 63.6295 52.8209C63.2161 53.5077 62.8353 54.1431 62.3892 54.8882H62.3868Z" fill="white"/>
<path d="M11.5813 14.2878C11.0651 13.6782 10.6002 13.1269 10.084 12.5149C10.5465 12.0828 11.0744 11.5875 11.6934 11.0082C12.2097 11.5969 12.6792 12.1341 13.2188 12.7508C12.6605 13.2764 12.1653 13.7412 11.5813 14.2902V14.2878Z" fill="white"/>
<path d="M7.33698 19.5179C6.93754 20.1953 6.59417 20.7816 6.19706 21.4567C5.52199 21.0853 4.89363 20.7396 4.16016 20.3355C4.57595 19.6441 4.95904 19.0064 5.39351 18.2822C6.08027 18.719 6.67592 19.0998 7.33698 19.5179Z" fill="white"/>
<path d="M15.5898 65.0727C16.0196 64.3999 16.3864 63.8253 16.8325 63.1292C17.4749 63.5076 18.0846 63.865 18.7737 64.2691C18.3929 64.9559 18.0449 65.5866 17.6478 66.3037C16.9493 65.8856 16.307 65.5002 15.5922 65.0727H15.5898Z" fill="white"/>
<path d="M57.7461 57.2428C58.232 56.6354 58.6618 56.0958 59.15 55.4838C59.7713 55.951 60.3413 56.3831 61.0093 56.8854C60.4908 57.5347 60.0189 58.1281 59.5167 58.7588C58.9094 58.2379 58.3815 57.787 57.7461 57.2428Z" fill="white"/>
<path d="M24.3357 4.0498C24.574 4.87204 24.7655 5.53077 24.9828 6.28293C24.3147 6.51652 23.6793 6.74076 22.9108 7.00939C22.6235 6.28994 22.3642 5.63588 22.0605 4.87438C22.8431 4.59173 23.5135 4.3488 24.3357 4.05214V4.0498Z" fill="white"/>
<path d="M8.62623 17.6816C7.94648 17.1653 7.39988 16.7495 6.7832 16.28C7.28776 15.64 7.73392 15.0724 8.25949 14.4043C8.86216 14.9159 9.40642 15.3784 10.0301 15.9063C9.55825 16.5019 9.11443 17.0649 8.62623 17.6816Z" fill="white"/>
<path d="M14.9853 61.8421C14.5204 62.4611 14.107 63.0124 13.6071 63.6758C12.9857 63.1946 12.3924 62.7344 11.708 62.2065C12.2312 61.5991 12.6984 61.0525 13.224 60.4429C13.822 60.9194 14.385 61.3679 14.9829 61.8444L14.9853 61.8421Z" fill="white"/>
<path d="M38.7055 70.0643C38.5817 69.235 38.493 68.63 38.3809 67.8685C39.0816 67.7143 39.7731 67.5625 40.5626 67.3896C40.7401 68.1605 40.9013 68.8636 41.0928 69.6952C40.294 69.819 39.5511 69.9334 38.7055 70.0643Z" fill="white"/>
<path d="M0.882908 43.7529C0.375238 42.1785 0.954542 41.3034 2.62082 41.1274C2.6979 41.4708 2.78433 41.8305 2.85207 42.1926C2.91514 42.5266 2.96186 42.863 3.02493 43.2694C2.27511 43.4376 1.57434 43.5964 0.880572 43.7529H0.882908Z" fill="white"/>
<path d="M4.32189 47.5979C3.56273 47.8805 2.95305 48.1071 2.19389 48.3898C1.91825 47.6516 1.6613 46.9602 1.3623 46.1613C2.15418 45.9207 2.8386 45.7151 3.59776 45.4839C3.83603 46.1753 4.0556 46.813 4.32423 47.5979H4.32189Z" fill="white"/>
<path d="M64.7278 50.6555C63.9546 50.3028 63.3076 50.0085 62.6045 49.6861C62.9058 48.9643 63.1651 48.3406 63.4594 47.6352C64.1812 47.8945 64.8493 48.1351 65.6178 48.4107C65.3165 49.1675 65.0549 49.8309 64.7278 50.6532V50.6555Z" fill="white"/>
<path d="M8.63163 55.4907C8.01028 55.9532 7.46602 56.3573 6.79561 56.8572C6.31208 56.2008 5.86826 55.5982 5.37305 54.9231C6.06915 54.4769 6.6975 54.0728 7.35623 53.6523C7.78136 54.2644 8.15277 54.7993 8.63397 55.493L8.63163 55.4907Z" fill="white"/>
<path d="M29.4065 5.31567C28.6567 5.46517 27.9909 5.59831 27.2107 5.75482C27.0402 5.00967 26.879 4.31123 26.6875 3.48199C27.4724 3.35118 28.2058 3.22737 29.0444 3.08722C29.1659 3.84172 29.271 4.47708 29.4065 5.31567Z" fill="white"/>
<path d="M15.5429 8.06032C15.919 8.63262 16.2203 9.07644 16.5053 9.5296C16.6057 9.68844 16.6735 9.87064 16.7739 10.0785C16.1993 10.4756 15.6387 10.8611 14.987 11.3119C14.5338 10.7162 14.1227 10.1743 13.6064 9.49456C14.2558 9.01337 14.8538 8.56955 15.5429 8.05798V8.06032Z" fill="white"/>
<path d="M3.14426 22.5382C3.82401 22.8512 4.44536 23.1362 5.1765 23.4726C4.88684 24.171 4.62055 24.8181 4.35426 25.4558C1.99967 24.7106 1.78243 25.1661 3.14426 22.5359V22.5382Z" fill="white"/>
<path d="M52.7839 61.8515C53.2441 62.4611 53.6716 63.0264 54.1761 63.6922C53.4753 64.1874 52.8657 64.6172 52.2116 65.0797C51.7725 64.3883 51.3824 63.7762 50.9619 63.1128C51.5739 62.69 52.1322 62.3023 52.7863 61.8491L52.7839 61.8515Z" fill="white"/>
<path d="M1.3312 27.1006C3.71149 27.5818 3.77456 27.6051 3.26066 29.1071C2.70471 30.7306 1.73531 29.0791 0.793945 29.5907C1.01118 28.5815 1.16302 27.8808 1.33354 27.1006H1.3312Z" fill="white"/>
<path d="M36.2528 70.3798H33.959V68.1934H36.1547C36.1851 68.8801 36.2178 69.5599 36.2552 70.3798H36.2528Z" fill="white"/>
<path d="M22.0467 68.3244C21.2478 67.995 20.6148 67.7334 19.8369 67.411C20.1569 66.6986 20.4559 66.0282 20.7853 65.29C21.5001 65.589 22.1191 65.8483 22.8292 66.145C22.5723 66.8598 22.3317 67.5278 22.0467 68.3244Z" fill="white"/>
<path d="M44.9058 66.1519C45.1837 66.897 45.422 67.5347 45.7047 68.2892C44.9595 68.5648 44.2891 68.8148 43.4762 69.1161C43.2356 68.3336 43.0184 67.6235 42.7871 66.8713C43.4879 66.633 44.1046 66.4252 44.9058 66.1542V66.1519Z" fill="white"/>
<path d="M2.33824 36.6635V38.8312C1.62579 38.8732 0.946041 38.9106 0.116795 38.9596C0.0770848 38.1724 0.0420462 37.4623 0 36.6658H2.33824V36.6635Z" fill="white"/>
<path d="M0.303623 31.7674C1.15156 31.8819 1.82663 31.973 2.61617 32.0781C2.55777 32.8442 2.50872 33.517 2.45265 34.2715C1.6491 34.2364 0.971691 34.2061 0.161133 34.1687C0.210187 33.3535 0.252233 32.6434 0.303623 31.7674Z" fill="white"/>
<path d="M65.1719 41.055C65.2186 40.3191 65.2606 39.6814 65.305 39.004H67.6199C67.5708 39.8286 67.5265 40.5434 67.4751 41.3937C66.6622 41.2745 65.9591 41.1717 65.1719 41.0573V41.055Z" fill="white"/>
<path d="M5.17653 49.6908C5.52925 50.3939 5.83526 50.9989 6.18097 51.6857C5.52224 52.0594 4.93126 52.3935 4.1791 52.8186C3.80068 52.0851 3.4503 51.403 3.07422 50.6696C3.80769 50.3285 4.42904 50.0365 5.17653 49.6885V49.6908Z" fill="white"/>
<path d="M19.7897 5.76178C20.1354 6.48591 20.4297 7.10726 20.7801 7.84307C20.1424 8.1771 19.5141 8.50647 18.7946 8.88488C18.4232 8.22849 18.0868 7.63751 17.6523 6.87601C18.3718 6.50226 19.0515 6.1472 19.7874 5.76412L19.7897 5.76178Z" fill="white"/>
<path d="M24.4287 69.1395C24.7199 67.5604 25.3763 66.9103 26.3979 67.189C27.2855 67.4296 27.3065 67.6445 26.5824 69.602C25.9073 69.4572 25.2112 69.3077 24.4287 69.1418V69.1395Z" fill="white"/>
<path d="M66.4332 46.0258C64.8665 45.7517 64.2218 45.1039 64.499 44.0823C64.7443 43.183 64.9335 43.1619 66.9144 43.8791C66.7555 44.5845 66.592 45.3086 66.4308 46.0258H66.4332Z" fill="white"/>
<path d="M29.3899 67.829C30.2214 67.9061 30.8591 67.9668 31.4782 68.0229V70.298C30.6676 70.2537 29.9575 70.214 29.1025 70.1649C29.2006 69.3707 29.2847 68.6676 29.3875 67.8267L29.3899 67.829Z" fill="white"/>
<path d="M50.1381 66.3013C49.3532 66.7008 48.7062 67.0278 47.9937 67.3922C47.662 66.6961 47.3537 66.049 47.001 65.3086C47.6457 64.9722 48.246 64.6592 48.9725 64.2808C49.3486 64.9325 49.7013 65.5445 50.1381 66.3013Z" fill="white"/>
<path d="M35.102 38.9081C33.1982 38.9315 31.5981 37.3851 31.5584 35.4814C31.5164 33.5286 33.1118 31.9098 35.074 31.9121C36.9824 31.9121 38.5545 33.4865 38.5568 35.3926C38.5568 37.3104 37.0104 38.8848 35.102 38.9081ZM36.3891 35.6706C36.3891 35.4954 36.3891 35.3202 36.3891 35.1473C35.9359 34.8483 35.4711 34.3064 35.0319 34.3251C34.6395 34.3438 33.9364 35.0329 33.9808 35.3389C34.0438 35.7874 34.6115 36.4251 35.0389 36.4881C35.4384 36.5489 35.9359 35.9696 36.3891 35.6706Z" fill="white"/>
</g>
<defs>
<clipPath id="clip0_937_8580">
<rect width="70.0911" height="70" fill="white" transform="translate(0 0.379883)"/>
</clipPath>
</defs>
</svg>
