<svg width="50" height="75" viewBox="0 0 50 75" fill="none" xmlns="http://www.w3.org/2000/svg">
<g clip-path="url(#clip0_937_10521)">
<path d="M11.0204 8.85499C11.0204 8.11076 11.0512 7.52307 11.0127 6.93795C10.9536 6.04487 11.3694 5.70611 12.2291 5.71894C13.7561 5.74204 15.283 5.72664 16.8382 5.72664C17.041 2.98581 18.2985 0.968675 20.8494 0.611956C23.5209 0.237272 26.3259 0.242405 28.9949 0.617088C31.5535 0.976374 32.7854 3.01147 32.9958 5.72408C34.3945 5.72408 35.7495 5.71894 37.1045 5.72408C38.7675 5.73178 38.7957 5.76257 38.8085 7.47174C38.8111 7.85413 38.8085 8.23651 38.8085 8.85499C39.3577 8.85499 39.8453 8.85499 40.3329 8.85499C42.9839 8.85499 45.635 8.88579 48.2834 8.8396C49.3587 8.82163 49.8283 9.17065 49.8283 10.3075C49.8104 31.1692 49.8104 52.0309 49.8258 72.8925C49.8258 73.9396 49.41 74.3245 48.3732 74.3245C32.7263 74.3066 17.0795 74.3014 1.43513 74.3297C0.0133855 74.3297 0.00568647 73.511 0.00568647 72.487C0.0159518 52.3953 0.0133855 32.3035 0.0133855 12.2092C0.0133855 11.5676 0.0441814 10.926 0.00568647 10.287C-0.0559053 9.25021 0.38037 8.82676 1.43513 8.8396C4.55322 8.87809 7.6713 8.85243 11.0204 8.85243V8.85499ZM5.85178 14.039V67.7368H43.9771V14.0672H42.1319C42.1319 15.6635 42.1345 17.193 42.1319 18.72C42.1242 21.4711 40.8051 22.8774 38.0848 22.8851C29.3208 22.9082 20.5568 22.9082 11.7903 22.8851C9.05198 22.8774 7.70466 21.4813 7.69696 18.7636C7.69183 17.1956 7.69696 15.6301 7.69696 14.0338H5.85178V14.039ZM38.8727 12.2169C40.7307 12.2169 42.4399 12.2733 44.1439 12.1989C45.3501 12.145 45.812 12.5556 45.812 13.8029C45.7864 31.8493 45.7864 49.8982 45.812 67.9446C45.812 69.1688 45.3758 69.5999 44.1619 69.5974C31.3328 69.5717 18.5012 69.5717 5.67213 69.5974C4.46339 69.5974 3.99376 69.179 4.01429 67.9472C4.07075 64.8266 4.03225 61.7033 4.03225 58.5827C4.03225 43.9136 4.03225 29.2444 4.03225 14.5753C4.03225 13.003 4.83808 12.2169 6.44973 12.2169C7.93307 12.2169 9.4164 12.2169 10.9228 12.2169V10.7181H1.88937V72.4434H47.9267V10.7258H38.8727V12.2143V12.2169ZM36.9941 7.49997C35.6442 7.49997 34.4535 7.49997 33.2601 7.49997C31.3354 7.49741 31.2841 7.44865 31.1532 5.50337C31.0172 3.48624 29.6981 2.19538 27.6809 2.16458C26.0154 2.13892 24.3396 2.25954 22.6817 2.13379C20.4413 1.96184 18.4422 3.58889 18.6577 6.00124C18.7578 7.10989 18.1573 7.5282 17.1 7.50767C15.7039 7.47944 14.3078 7.49997 12.863 7.49997V15.163H36.9967V7.49997H36.9941ZM9.49083 14.0595C9.49083 15.5582 9.49083 17.0005 9.49083 18.4428C9.49339 20.6267 9.98869 21.1169 12.224 21.1169C20.6877 21.1195 29.1514 21.122 37.6152 21.1118C38.1208 21.1118 38.7187 21.1554 39.1114 20.9167C39.6015 20.6165 40.2277 20.0647 40.2636 19.5822C40.3997 17.7653 40.3175 15.9329 40.3175 14.0005C39.7555 14.0261 39.3192 14.0492 38.8701 14.0698C38.8445 14.4265 38.8188 14.6369 38.8137 14.8474C38.7812 16.2999 38.0361 17.027 36.5784 17.0287C28.8409 17.0287 21.1035 17.0287 13.366 17.0287C11.8467 17.0287 11.0614 16.2563 11.0101 14.7113C11.0024 14.5086 10.9459 14.3059 10.9049 14.0621H9.48826L9.49083 14.0595Z" fill="white"/>
<path d="M40.5626 45.728C40.5574 54.3431 33.4744 61.4134 24.8875 61.3723C16.2466 61.3312 9.25854 54.3098 9.26367 45.6741C9.26881 37.0256 16.2697 30.0606 24.9388 30.0811C33.6207 30.1016 40.5651 37.0564 40.5626 45.728ZM38.779 45.7357C38.7841 38.0341 32.7045 31.9212 24.9773 31.8596C17.3117 31.798 11.0627 37.9674 11.0498 45.6074C11.037 53.3474 17.2321 59.599 24.9157 59.599C32.5505 59.599 38.7764 53.3731 38.779 45.7357Z" fill="white"/>
<path d="M27.791 6.47601C27.7705 8.12872 26.495 9.38622 24.8654 9.36056C23.2383 9.33489 22.0193 8.04916 22.0373 6.37592C22.0553 4.74374 23.3692 3.43748 24.9629 3.47084C26.5669 3.50677 27.8115 4.82586 27.791 6.47344V6.47601ZM26.5155 6.43238C25.7687 5.89345 25.3068 5.30576 24.9193 5.35196C24.5087 5.40072 23.8825 6.0423 23.8774 6.43238C23.8722 6.80706 24.5112 7.44864 24.9244 7.49484C25.3119 7.53847 25.7713 6.96104 26.5155 6.43238Z" fill="white"/>
<path d="M28.8376 49.0692C25.7836 51.9281 22.1241 50.8374 20.6048 48.4482C19.432 46.6081 19.5449 44.2907 20.882 42.5661C22.1292 40.9545 24.3619 40.218 26.2764 40.7851C28.4424 41.4267 29.8692 43.2026 30.0232 45.4687C30.0514 45.8947 30.0001 46.3284 30.0566 46.7493C30.1875 47.6885 30.2773 48.6791 31.6118 48.6843C32.8513 48.6894 33.2388 47.8528 33.3492 46.8622C33.7213 43.5388 32.6357 40.7826 29.9077 38.7962C26.6203 36.4018 22.237 36.6405 19.2703 39.2915C16.2318 42.0093 15.4901 46.4131 17.4841 49.9238C19.4756 53.4294 23.5971 55.018 27.5236 53.8375C28.1729 53.6424 29.0916 52.893 29.4843 54.0325C29.8846 55.195 28.7324 55.308 28.0215 55.5261C22.4526 57.2378 16.7091 54.1839 15.0025 48.6406C13.3934 43.4207 16.4474 37.5798 21.6673 35.8911C27.1874 34.105 32.995 37.0537 34.717 42.6534C35.1328 44.0007 35.1738 45.5174 35.1122 46.9443C35.0455 48.4661 34.3244 49.8032 32.7538 50.2908C31.2653 50.7553 29.8718 50.473 28.8376 49.0641V49.0692ZM24.8649 42.3865C23.0171 42.4122 21.5697 43.9058 21.5928 45.7561C21.6185 47.5653 23.1814 49.1026 24.9624 49.0667C26.7614 49.0307 28.2576 47.473 28.2345 45.6586C28.2114 43.8185 26.7101 42.3608 24.8649 42.3891V42.3865Z" fill="white"/>
</g>
<defs>
<clipPath id="clip0_937_10521">
<rect width="49.8303" height="74" fill="white" transform="translate(0 0.32959)"/>
</clipPath>
</defs>
</svg>
