<svg width="70" height="70" viewBox="0 0 70 70" fill="none" xmlns="http://www.w3.org/2000/svg">
<g clip-path="url(#clip0_937_9143)">
<path d="M16.0137 55.22C11.2964 55.2048 7.43717 51.3218 7.43067 46.5828C7.42417 41.8308 11.3852 37.8849 16.1199 37.9261C20.9022 37.9673 24.7159 41.872 24.6812 46.689C24.6465 51.4149 20.7635 55.2373 16.0115 55.22H16.0137ZM16.1047 42.6174C15.6627 42.9294 15.2184 43.1591 14.8869 43.5015C14.46 43.9392 13.8945 44.4354 13.8208 44.9663C13.758 45.4278 14.2 46.3054 14.5879 46.4181C16.0874 46.8558 15.8663 47.8851 15.7082 49.0617C15.3506 48.9339 15.0299 48.7865 14.6919 48.7063C14.382 48.6327 14.0548 48.6283 13.7363 48.5937C13.9226 48.8927 14.0418 49.2914 14.3084 49.4734C14.9129 49.8873 15.5911 50.195 16.1935 50.52C16.5186 50.2968 17.095 50.0216 17.5002 49.5861C17.9075 49.1484 18.3821 48.5547 18.3843 48.0259C18.3864 47.5037 17.9357 46.6391 17.511 46.5178C16.1134 46.1147 16.4492 45.1743 16.4969 44.1559C16.8306 44.2924 17.0798 44.4376 17.3463 44.4939C17.5912 44.5459 17.8555 44.5004 18.1112 44.4961C17.9899 44.2382 17.9357 43.898 17.7364 43.7377C17.1903 43.3 16.5836 42.9381 16.1047 42.6174Z" fill="white"/>
<path d="M50.6273 28.6886C50.4669 28.4329 50.2936 28.1881 50.1506 27.9237C46.677 21.4556 41.2533 18.1207 33.9358 18.5563C26.4687 19.0027 21.4567 23.0872 18.8326 30.0711C18.3667 31.3127 18.0655 32.6172 17.6798 33.8891C17.5823 34.2098 17.4501 34.5197 17.2876 34.9596C16.7762 33.9086 18.1327 29.4665 19.6365 26.7839C21.0753 24.2162 23.0775 22.175 25.5304 20.5606C24.7959 18.3829 25.7926 16.8293 27.1534 15.566C26.4839 13.9083 25.8251 12.3568 25.2401 10.7772C25.0321 10.2138 24.9367 9.58539 24.9086 8.98083C24.7699 6.00353 25.5976 5.12811 28.5056 5.09561C29.615 1.38157 33.2467 0.53649 35.9661 0.805183C38.6076 1.06521 40.5404 2.6232 41.249 5.04794C41.3162 5.07394 41.3812 5.12161 41.4484 5.11944C44.2393 5.09344 45.4809 6.43691 44.8699 9.16718C44.391 11.3189 43.5762 13.3948 42.8503 15.696C42.9933 15.8607 43.4679 16.2095 43.6737 16.6798C44.0681 17.5812 44.6467 18.5931 44.5253 19.475C44.3845 20.4913 44.742 20.864 45.4203 21.3472C47.663 22.9485 49.3575 25.0331 50.5969 27.4882C50.7616 27.8154 50.8483 28.1816 50.9718 28.5304C50.8591 28.5824 50.7443 28.6366 50.6316 28.6886H50.6273ZM27.7602 15.0394C32.6118 12.4435 37.3551 12.4782 42.1244 15.0351C43.3509 12.7772 44.495 10.5778 44.4083 7.97973C44.352 6.29173 43.2187 5.42281 41.5979 5.78684C41.3552 5.84102 41.1147 5.89735 40.7506 5.98186C40.3909 2.47802 37.9055 1.41408 34.9715 1.39674C31.9986 1.37941 29.5088 2.46285 29.0863 5.93636C26.4362 5.42714 25.2964 6.26789 25.4633 8.53878C25.6366 10.892 26.5662 12.9809 27.7602 15.0438V15.0394Z" fill="white"/>
<path d="M49.1619 30.043C58.8522 30.0451 66.7266 37.8957 66.7288 47.56C66.731 57.1962 58.811 65.1053 49.1554 65.1053C39.4824 65.1053 31.6145 57.2352 31.6123 47.5579C31.6101 37.8697 39.4521 30.0408 49.1619 30.043ZM49.1489 30.667C39.7468 30.6757 32.2212 38.1753 32.2125 47.5427C32.2039 56.8776 39.7923 64.492 49.1142 64.505C58.5141 64.518 66.1026 56.9296 66.0939 47.5232C66.0852 38.1536 58.5488 30.6584 49.1489 30.667Z" fill="white"/>
<path d="M49.292 7.31458C50.8392 7.31458 52.3863 7.30591 53.9313 7.32541C54.1242 7.32758 54.3647 7.42292 54.5012 7.55944C56.0614 9.10009 57.6064 10.6537 59.2077 12.2594C57.5934 13.8867 56.031 15.4686 54.4557 17.0395C54.3387 17.1544 54.1459 17.2541 53.9855 17.2562C52.4102 17.2714 50.8349 17.2649 49.2595 17.2649L49.0342 16.9355C50.5402 15.4122 52.0461 13.8867 53.6301 12.2832C52.083 10.7101 50.577 9.1781 49.071 7.64828C49.1447 7.53777 49.2184 7.42726 49.292 7.31891V7.31458Z" fill="white"/>
<path d="M20.6637 12.2614C19.0537 13.8887 17.5369 15.4251 16.0114 16.9549C15.8901 17.0762 15.7211 17.2366 15.5737 17.2366C13.9377 17.2561 12.3017 17.2496 10.6658 17.2496C10.6159 17.1369 10.5682 17.0264 10.5184 16.9137C12.0352 15.3774 13.552 13.8411 15.2899 12.0772C13.7146 10.5214 12.1956 9.02408 10.4902 7.34042C12.3386 7.34042 14.0092 7.33608 15.6799 7.35125C15.7948 7.35125 15.9204 7.50077 16.0201 7.60261C17.5456 9.13026 19.0689 10.6601 20.6616 12.2592L20.6637 12.2614Z" fill="white"/>
<path d="M15.9587 56.5959C15.6402 57.5211 15.3411 58.4529 14.9944 59.3673C14.5632 60.5092 13.9717 61.6035 13.6618 62.7736C13.0919 64.9319 13.9023 66.6524 15.8547 67.7813C17.6879 68.8409 19.7182 69.1768 21.7833 69.1854C30.557 69.2158 39.3307 69.2483 48.1022 69.1573C49.8704 69.1378 51.6602 68.6871 53.3894 68.2385C54.7545 67.8853 55.812 66.9817 56.3234 65.5798C56.3689 65.4519 56.4599 65.3349 56.5509 65.2331C56.5856 65.194 56.6831 65.2114 56.9951 65.1724C56.8217 65.6903 56.7416 66.1496 56.5249 66.5353C55.7535 67.9178 54.4577 68.6762 52.9994 69.0208C51.4349 69.3913 49.814 69.712 48.2149 69.725C39.2982 69.79 30.3793 69.7467 21.4626 69.764C19.5275 69.7683 17.6532 69.556 15.8959 68.6827C13.1721 67.3306 12.1276 64.9882 13.1244 62.1344C13.7745 60.2709 14.6131 58.4745 15.3758 56.6522C15.4083 56.5764 15.5318 56.5417 15.6142 56.4854C15.7268 56.5222 15.8417 56.5612 15.9544 56.598L15.9587 56.5959Z" fill="white"/>
<path d="M69.6215 12.2788C68.0202 13.8866 66.5272 15.3948 65.0191 16.8899C64.8522 17.0568 64.6052 17.2431 64.3907 17.2475C62.8175 17.2778 61.2444 17.2648 59.6712 17.2648C59.5975 17.1564 59.5239 17.0481 59.4502 16.9398C60.9518 15.4121 62.4535 13.8845 64.0353 12.2745C62.4968 10.71 60.9887 9.18016 59.4827 7.64817C59.5369 7.54416 59.591 7.44015 59.6452 7.33614C61.2812 7.33614 62.9172 7.33181 64.5554 7.34481C64.6767 7.34481 64.8176 7.45966 64.9151 7.55716C66.4644 9.10432 68.0072 10.658 69.6215 12.2788ZM60.7005 16.3157L60.876 16.6342C61.6236 16.6342 62.3712 16.6537 63.1166 16.6277C63.6063 16.6104 64.2628 16.7101 64.5532 16.4435C65.9985 15.1152 67.3463 13.6808 68.7851 12.2268C67.3918 10.8487 66.07 9.53119 64.7331 8.2289C64.5922 8.09238 64.3647 7.97537 64.1762 7.97104C63.0797 7.9472 61.9811 7.9602 60.8825 7.9602L60.655 8.30691C62.0786 9.58753 63.5001 10.8703 65.0429 12.2571C63.4698 13.7263 62.0851 15.0221 60.6983 16.3179L60.7005 16.3157Z" fill="white"/>
<path d="M0 17.2367C1.79851 15.5401 3.35217 14.0731 5.04667 12.4739C3.21132 10.7448 1.6555 9.27778 0.0996765 7.8108C0.153849 7.68945 0.208021 7.56594 0.262193 7.44459C0.686901 7.40126 1.11378 7.37742 1.53415 7.30808C4.25792 6.8487 6.4248 7.68295 8.05213 9.96684C8.52668 10.6321 9.20058 11.1586 9.80731 11.7242C10.1995 12.0882 10.2689 12.3786 9.84198 12.7903C8.44217 14.1424 7.07487 15.5292 5.69023 16.8987C5.56455 17.0244 5.41504 17.2194 5.27419 17.2216C3.60569 17.2432 1.93719 17.2367 0 17.2367ZM9.50177 12.1922C8.44867 11.1673 7.33056 10.3179 6.51798 9.23877C5.12467 7.39042 3.31099 8.07732 1.55582 8.09466C2.55042 9.24527 3.55585 10.3265 4.6653 11.2886C5.48871 12.0015 5.55155 12.4934 4.6913 13.2367C3.54068 14.2291 2.50058 15.3537 1.19829 16.6365C2.52225 16.6365 3.49085 16.656 4.45511 16.6257C4.75847 16.617 5.14634 16.565 5.34136 16.3765C6.7065 15.0503 8.03263 13.683 9.50177 12.1944V12.1922Z" fill="white"/>
<path d="M27.0667 56.7498H21.7015V54.6046C21.7968 54.5938 21.8922 54.5829 21.9875 54.5721C22.0547 55.0943 22.1197 55.6144 22.1955 56.2016H26.3451V37.042H22.1869C22.1262 37.5166 22.0655 37.9846 22.007 38.4527C21.8878 38.4527 21.7686 38.4483 21.6495 38.4462C21.6495 37.8524 21.5303 37.2197 21.708 36.6867C21.7816 36.4678 22.4967 36.3941 22.9258 36.379C24.0439 36.3378 25.1663 36.3183 26.2801 36.4006C26.5596 36.4223 27.0342 36.8578 27.0363 37.107C27.0775 43.6012 27.0688 50.0953 27.0688 56.7498H27.0667Z" fill="white"/>
<path d="M57.9117 47.3173C57.7145 43.6661 56.1002 40.9727 52.9084 39.3389C47.5627 36.6021 40.8627 40.4461 40.516 46.4441C40.4727 47.2068 40.2256 47.4408 39.4889 47.4083C38.3036 47.3585 37.1162 47.3953 35.7337 47.3953C35.7077 42.9294 37.4455 39.393 40.7934 36.6476C45.0881 33.1242 51.0644 32.7039 55.8683 35.445C60.6398 38.1666 62.941 43.6098 62.4795 47.3152H57.9095L57.9117 47.3173ZM48.8043 34.2944C45.437 34.3854 42.6937 35.5988 40.2863 37.8199C40.9017 38.8752 41.4911 39.8871 42.1368 40.9965C43.9808 39.0117 46.1716 37.9694 48.8043 37.7982V34.2944ZM58.0331 37.8069C55.5368 35.575 52.8109 34.3355 49.4999 34.3225V37.8069C52.1651 37.9434 54.3537 39.055 56.202 40.9857C56.8499 39.8633 57.422 38.8708 58.0352 37.809L58.0331 37.8069Z" fill="white"/>
<path d="M53.7281 42.4331C53.6458 43.0008 53.6544 43.2349 53.5764 43.4385C52.8418 45.3497 52.0943 47.2544 51.3445 49.1591C50.9393 50.1905 50.1462 50.6868 49.0671 50.6217C47.9967 50.5567 47.2686 49.9609 46.9393 48.9229C46.6099 47.8828 46.8222 46.9489 47.7237 46.3357C49.6089 45.0507 51.546 43.8437 53.7259 42.4331H53.7281Z" fill="white"/>
</g>
<defs>
<clipPath id="clip0_937_9143">
<rect width="69.6219" height="69" fill="white" transform="translate(0 0.759766)"/>
</clipPath>
</defs>
</svg>
