<svg width="71" height="84" viewBox="0 0 71 84" fill="none" xmlns="http://www.w3.org/2000/svg">
<g clip-path="url(#clip0_937_8635)">
<path d="M34.3219 39.4997C34.0582 39.3947 33.4769 39.2548 33.0087 38.948C32.1637 38.3963 31.4209 38.3075 30.5544 38.9292C30.0189 39.314 29.3731 39.6019 28.7326 39.7661C27.0722 40.1967 25.6217 40.7941 25.4441 42.8043C25.4414 42.8446 25.4118 42.8877 25.3849 42.9254C24.0017 44.9275 21.935 43.8538 20.167 44.0422C19.1094 44.1525 18.3532 43.4394 18.1595 42.4141C17.8823 40.9367 17.0292 40.2236 15.6003 39.9894C15.0836 39.906 14.54 39.6988 14.1121 39.4028C12.7343 38.4448 11.3861 38.2241 9.96791 39.2978C9.80376 39.4216 9.54542 39.4889 9.33551 39.4781C7.19613 39.3786 6.35921 37.5056 5.11326 36.2462C4.33286 35.4577 4.64233 34.384 5.2209 33.504C5.79948 32.6267 5.86944 31.8221 5.2209 30.9341C4.88452 30.4739 4.61272 29.9169 4.47548 29.3625C4.03684 27.6079 3.30757 26.4373 1.33234 25.7565C-0.785519 25.0272 0.312429 22.7129 0.115983 21.0768C-0.0104968 20.0165 0.336648 18.9616 1.46958 18.749C3.31295 18.4046 4.00724 17.2097 4.37053 15.5897C4.46741 15.1591 4.63694 14.7178 4.88452 14.3572C5.74835 13.1032 6.00131 11.8734 4.94641 10.6005C4.86568 10.5009 4.81724 10.3583 4.79302 10.2291C4.35169 7.84218 6.53682 7.10215 7.68321 5.74048C8.39365 4.89818 9.49967 4.93585 10.3904 5.54134C11.5018 6.29752 12.4894 6.28945 13.5578 5.50905C13.9453 5.22379 14.4297 5.03004 14.8979 4.90356C16.5798 4.44877 17.7289 3.73564 18.3936 1.81962C19.1471 -0.35744 21.4775 0.622101 23.1675 0.498313C24.2843 0.417582 25.245 0.939645 25.5114 2.09949C25.8451 3.5688 26.6174 4.42455 28.1325 4.63176C28.5631 4.69097 28.9936 4.90087 29.3758 5.12423C30.7966 5.95307 32.0049 6.31636 33.7729 5.42562C35.9957 4.30615 36.9026 6.85188 38.2697 7.96866C39.1954 8.72485 39.2788 9.8228 38.6572 10.7593C37.8499 11.9756 37.9091 13.0305 38.7379 14.1581C38.9693 14.4756 39.1254 14.8739 39.2277 15.2587C39.6852 16.9837 40.3875 18.2054 42.3708 18.8809C44.4752 19.5994 43.5064 21.8975 43.6356 23.5445C43.7271 24.7043 43.2481 25.7457 42.0075 26.0041C40.5624 26.3055 39.7659 27.0697 39.5372 28.5148C39.4699 28.9481 39.295 29.3894 39.0689 29.7662C38.1916 31.2274 37.5081 32.6671 38.859 34.2387C39.0043 34.4082 38.9693 34.758 38.9747 35.0245C38.9936 36.4157 36.0388 39.4566 34.3273 39.4997H34.3219ZM37.1179 9.66941C36.69 9.21193 36.4236 8.91322 36.141 8.62797C34.661 7.13175 34.6367 7.09138 32.753 8.11936C31.9322 8.56608 31.3214 8.46651 30.5221 8.03863C29.1928 7.32281 27.8042 6.62314 26.3564 6.23563C25.0216 5.87772 24.2062 5.30991 24.034 3.91056C23.816 2.13178 22.4328 2.72381 21.3672 2.57849C20.2316 2.42241 19.8575 3.04404 19.7041 3.96169C19.4781 5.33413 18.6842 5.94499 17.3225 6.24639C16.0793 6.52357 14.8199 7.03756 13.7515 7.72916C12.5298 8.52033 11.4695 8.67372 10.3527 7.75338C9.00183 6.64198 8.45554 7.9283 7.63477 8.56339C6.74134 9.25498 6.67407 9.95197 7.33337 10.8319C8.16222 11.9326 8.05457 12.9525 7.30108 14.1446C6.59872 15.2587 6.09011 16.5612 5.79409 17.8475C5.47655 19.2226 4.77957 19.9115 3.44481 20.1806C2.96849 20.2775 2.22307 20.6112 2.17194 20.9288C2.01586 21.8841 1.95935 22.939 2.23384 23.8405C2.35763 24.2441 3.33986 24.4702 3.96956 24.6182C4.91412 24.8388 5.35545 25.3367 5.62187 26.292C6.01745 27.7021 6.46686 29.1661 7.24457 30.3851C8.0761 31.6876 8.14069 32.764 7.23381 33.9238C6.40227 34.9868 7.09118 35.5977 7.81238 36.257C8.51744 36.9001 9.06372 37.8689 10.2451 36.9163C11.3888 35.9986 12.5083 36.1063 13.7892 36.9163C14.9383 37.6429 16.2919 38.138 17.6213 38.4582C18.8107 38.7435 19.3597 39.3597 19.6288 40.4658C19.7606 41.0094 19.9894 41.8786 20.3284 41.9593C21.2596 42.1826 22.2983 42.2015 23.2429 42.0212C23.59 41.9539 23.8564 41.1358 24.0421 40.6165C24.3381 39.7876 24.4188 38.9642 25.5302 38.6116C27.3063 38.0465 28.9829 37.1746 30.7401 36.5422C31.2972 36.3404 32.0641 36.2973 32.5942 36.518C34.7148 37.398 34.696 37.4464 36.3429 35.7672C36.5609 35.5438 36.7627 35.307 36.9941 35.0487C36.7627 34.5885 36.5931 34.1176 36.3133 33.722C35.5383 32.6241 35.6109 31.6418 36.3832 30.5331C36.9349 29.7419 37.4328 28.792 37.5727 27.8555C37.9144 25.5843 39.1604 24.4029 41.3617 24.0907C41.4263 24.0827 41.4774 23.975 41.5958 23.8485C41.5958 23.0601 41.6604 22.2043 41.5662 21.3647C41.5258 21.0176 41.1841 20.4605 40.9177 20.4201C38.8832 20.1241 37.9414 18.9051 37.6803 16.9621C37.6184 16.4885 37.4058 16.0068 37.1583 15.5897C35.9769 13.601 34.9462 11.6285 37.1071 9.66671L37.1179 9.66941Z" fill="white"/>
<path d="M70.1771 62.3816C70.1959 73.9181 60.7692 83.3799 49.2515 83.3826C37.7554 83.3826 28.3178 73.9558 28.2533 62.4032C28.1887 50.9124 37.6639 41.3861 49.16 41.378C60.8069 41.3699 70.1556 50.7159 70.1771 62.3843V62.3816ZM49.2757 81.2539C59.7735 81.2378 68.2422 72.7287 68.1965 62.2471C68.1507 51.8381 59.6443 43.4151 49.2031 43.442C38.6703 43.4689 30.2796 51.9134 30.3065 62.4597C30.3334 72.8875 38.7941 81.2701 49.2757 81.2539Z" fill="white"/>
<path d="M19.6041 65.0538C17.384 65.0538 15.1612 65.0538 12.9411 65.0538C7.2845 65.0511 3.99335 61.7788 3.98259 56.1465C3.97451 52.4221 3.98259 48.7003 3.98259 44.9759C3.98259 44.6611 3.88302 44.2816 4.02295 44.0502C4.26784 43.6465 4.66611 43.3371 4.9998 42.9872C5.35502 43.3559 5.97396 43.6977 6.01971 44.1013C6.15426 45.3419 6.07084 46.6094 6.07353 47.8634C6.07353 50.8693 6.06008 53.8752 6.07891 56.8811C6.10313 60.506 8.52508 62.9171 12.1688 62.9494C14.4992 62.971 16.8323 62.9521 19.1655 62.9494C19.2973 62.9494 19.4265 62.9118 19.8625 62.8472C18.813 61.795 17.8926 60.8666 16.9669 59.9462C16.4341 59.4161 15.8851 58.8214 16.5686 58.1163C17.2575 57.4059 17.8576 57.9387 18.3931 58.4769C19.849 59.9382 21.2914 61.4155 22.7742 62.8472C23.5707 63.6141 23.6945 64.2923 22.8468 65.1103C21.3937 66.5097 20.032 68.0059 18.5304 69.3488C18.1563 69.6851 17.3948 69.5883 16.8108 69.6905C16.9104 69.1066 16.8162 68.3584 17.1472 67.9709C17.9384 67.0371 18.9314 66.2756 19.8409 65.4413C19.7656 65.3122 19.6875 65.1857 19.6122 65.0565L19.6041 65.0538Z" fill="white"/>
<path d="M51.5117 23.8782C52.5988 24.9062 53.6376 25.7727 54.5149 26.7818C54.827 27.1424 55.0046 28.0251 54.7813 28.3588C54.2915 29.0908 53.6161 28.7113 53.0886 28.1839C51.5359 26.6311 49.9939 25.0676 48.4304 23.5257C47.7469 22.8502 47.7657 22.2259 48.4385 21.5585C49.9347 20.0757 51.3798 18.5365 52.9379 17.1237C53.2851 16.8088 54.0089 16.9111 54.5606 16.8223C54.4664 17.4089 54.5687 18.157 54.2431 18.5499C53.46 19.4999 52.475 20.283 51.5709 21.1306C51.6274 21.2517 51.6866 21.3701 51.7431 21.4912C54.2242 21.4912 56.7081 21.4509 59.1892 21.502C62.5154 21.5693 65.0853 23.0278 66.5196 26.0579C67.0552 27.1909 67.3027 28.5525 67.3323 29.8173C67.4319 33.8512 67.37 37.8878 67.37 41.9244C67.37 42.1477 67.4427 42.4464 67.3296 42.581C67.0255 42.9443 66.638 43.2403 66.2828 43.5605C65.9626 43.2053 65.5778 42.8851 65.3463 42.4787C65.2118 42.2419 65.314 41.8652 65.314 41.5503C65.314 37.6052 65.3275 33.6575 65.3087 29.7124C65.2898 26.0741 62.8625 23.6252 59.2592 23.601C56.8399 23.5849 54.418 23.6064 51.9987 23.6172C51.9261 23.6172 51.8561 23.6898 51.5117 23.8755V23.8782Z" fill="white"/>
<path d="M33.853 22.2207C33.8852 28.8918 28.5301 34.3438 21.9128 34.3761C15.3681 34.4084 9.85687 28.9806 9.82727 22.4763C9.79767 15.7002 15.099 10.3316 21.8589 10.2912C28.4251 10.2509 33.8207 15.6168 33.853 22.2207ZM21.7594 32.2717C27.3379 32.2986 31.8212 27.9203 31.8643 22.4063C31.9046 16.9005 27.4267 12.3364 21.9504 12.3041C16.4123 12.2692 11.9613 16.6529 11.8832 22.218C11.8079 27.7723 16.1997 32.2448 21.7594 32.2717Z" fill="white"/>
<path d="M65.9466 62.4004C65.8362 71.8809 58.374 79.1737 48.8853 79.0741C39.8595 78.9799 32.365 71.3293 32.4968 62.2416C32.6421 52.2551 41.0113 45.2664 50.0532 45.6297C58.6969 45.9769 66.0488 53.5091 65.9439 62.4004H65.9466ZM48.1103 47.6803C38.9123 48.3881 34.2648 56.768 34.7089 61.4423C35.6615 61.4423 36.6088 61.3455 37.5156 61.4881C37.9166 61.55 38.2395 62.099 38.6001 62.4273C38.2126 62.7717 37.8655 63.3395 37.4322 63.4149C36.5442 63.571 35.6077 63.4606 34.682 63.4606C34.2083 69.8761 41.9882 77.5214 48.3337 76.8755C48.3337 75.939 48.2368 74.9998 48.3767 74.0983C48.4386 73.6947 48.9714 73.3637 49.2917 73.0004C49.6254 73.3448 50.1905 73.657 50.247 74.0418C50.3869 74.9864 50.2927 75.9659 50.2927 76.932C57.4671 76.8055 63.9875 70.0349 63.7937 63.2346C62.8626 63.2346 61.9208 63.3234 61.0139 63.1942C60.6129 63.1377 60.2765 62.6318 59.9105 62.3304C60.2819 61.9859 60.6129 61.4074 61.03 61.3401C61.9611 61.1894 62.9326 61.2943 63.8852 61.2943C63.3901 53.3208 56.4821 47.7207 50.0425 47.7395C50.0882 48.7002 50.2308 49.6771 50.1286 50.6297C50.0882 51.0038 49.4989 51.585 49.1571 51.585C48.81 51.585 48.2179 51.028 48.1587 50.6485C48.0134 49.7067 48.1103 48.7298 48.1103 47.6884V47.6803Z" fill="white"/>
<path d="M47.8066 60.7347C48.2479 60.07 48.6489 58.8725 49.1387 58.8348C50.7022 58.7191 49.9675 60.2503 50.3873 61.1841C52.3356 61.1841 54.3432 61.1841 56.3507 61.1841C56.7974 61.1841 57.306 61.063 57.6801 61.2352C58.1214 61.4397 58.447 61.8972 58.8211 62.2471C58.4174 62.5673 58.0245 63.1459 57.6074 63.1647C55.5057 63.2616 53.3986 63.2078 51.2915 63.2131C50.9874 63.2131 50.6833 63.2481 50.2097 63.275C50.2097 65.2449 50.2016 67.1582 50.2124 69.0689C50.2178 69.8197 50.2124 70.6539 49.2625 70.6996C48.1753 70.7508 48.1914 69.8251 48.186 69.0554C48.1726 67.1771 48.1807 65.2987 48.1807 63.5065C47.3599 62.7745 45.5515 63.9317 45.643 62.1206C45.7183 60.6109 47.2576 61.507 48.0111 61.028L47.8066 60.732V60.7347Z" fill="white"/>
<path d="M59.779 66.9214C60.5917 67.7045 61.1999 68.2347 61.6923 68.8536C61.7381 68.9128 60.885 69.8977 60.7747 69.8412C60.0777 69.4699 59.4265 68.9666 58.8802 68.3961C58.7994 68.3127 59.3377 67.6319 59.779 66.9241V66.9214Z" fill="white"/>
<path d="M37.7097 54.3865C38.5144 55.1723 39.1064 55.7025 39.5962 56.3133C39.6365 56.3645 38.8131 57.3171 38.692 57.2552C38.0004 56.9054 37.3599 56.4156 36.8163 55.8612C36.7383 55.7832 37.2684 55.105 37.7124 54.3865H37.7097Z" fill="white"/>
<path d="M55.6721 71.6523C56.0865 72.317 56.6113 72.9414 56.8535 73.6652C56.9342 73.9047 56.2937 74.3865 55.9816 74.7578C55.4756 74.1577 54.8702 73.6087 54.523 72.9279C54.4019 72.6911 54.9186 72.126 55.1446 71.7115L55.6721 71.6523Z" fill="white"/>
<path d="M44.5504 51.83C43.7969 52.3279 43.1511 52.8742 43.0623 52.7934C42.5079 52.2956 41.9966 51.7009 41.6602 51.0416C41.5795 50.8855 42.228 50.358 42.5402 50.0028C43.1134 50.5249 43.6866 51.0469 44.5477 51.83H44.5504Z" fill="white"/>
<path d="M39.9025 68.9104C39.2189 69.2656 38.565 69.7258 37.8384 69.9141C37.6097 69.9733 37.1926 69.3033 36.8643 68.9696C37.494 68.4906 38.0806 67.9201 38.783 67.5891C38.9848 67.4949 39.5122 68.0923 39.889 68.3695C39.8944 68.5498 39.8971 68.7301 39.9025 68.9104Z" fill="white"/>
<path d="M44.693 72.9413C43.8911 73.7163 43.3556 74.3003 42.7259 74.7551C42.6532 74.8089 41.7248 73.9558 41.7786 73.8643C42.1688 73.1916 42.6667 72.5565 43.2452 72.0425C43.3421 71.9564 44.0014 72.5027 44.693 72.9413Z" fill="white"/>
<path d="M55.0586 52.8796C54.7922 52.4975 54.2136 51.9512 54.3131 51.7628C54.6711 51.082 55.2604 50.5222 55.7609 49.9141C56.0758 50.2208 56.7082 50.6191 56.649 50.8183C56.4391 51.5475 55.9977 52.2122 55.6452 52.8984L55.0586 52.8796Z" fill="white"/>
<path d="M60.5679 54.1792C61.0523 54.9139 61.6039 55.5409 61.5151 55.6512C61.0523 56.2244 60.4683 56.7384 59.8251 57.0936C59.6798 57.1743 59.1389 56.5312 58.7783 56.2217C59.2923 55.6351 59.8036 55.0484 60.5679 54.1792Z" fill="white"/>
</g>
<defs>
<clipPath id="clip0_937_8635">
<rect width="70.1772" height="83" fill="white" transform="translate(0 0.379883)"/>
</clipPath>
</defs>
</svg>
