<svg width="70" height="71" viewBox="0 0 70 71" fill="none" xmlns="http://www.w3.org/2000/svg">
<g clip-path="url(#clip0_937_9173)">
<path d="M34.9411 70.7576C34.0526 70.7576 33.1641 70.7622 32.2732 70.7553C31.0947 70.746 30.4103 70.115 30.1388 69.0084C29.9556 68.2613 29.7491 67.5073 29.6772 66.7464C29.5797 65.6908 29.0786 65.0273 28.0532 64.8348C27.6518 64.7605 27.1484 64.7582 26.8074 64.9392C25.956 65.3869 25.1788 65.9715 24.3598 66.4819C23.1859 67.2104 22.4134 67.1454 21.4576 66.2082C20.2141 64.9925 18.9822 63.7653 17.7688 62.5194C16.8664 61.5938 16.8061 60.856 17.4997 59.7169C17.922 59.0233 18.3256 58.311 18.8244 57.6777C19.3998 56.9469 19.409 56.302 19.0054 55.4645C18.7223 54.8775 18.4648 54.5527 17.7897 54.4599C16.8385 54.3277 15.9129 54.04 14.971 53.8428C13.92 53.6224 13.3261 52.9914 13.3099 51.9219C13.282 49.9894 13.282 48.0568 13.3192 46.1266C13.3377 45.1639 13.8736 44.5491 14.8202 44.3217C15.718 44.106 16.6181 43.8925 17.5206 43.693C19.2049 43.3218 19.771 41.9438 18.8337 40.4752C18.3558 39.7282 17.8547 38.9928 17.393 38.2342C16.8432 37.3294 16.9197 36.4664 17.6714 35.7031C18.9752 34.383 20.286 33.0723 21.606 31.7684C22.3647 31.0191 23.2161 30.917 24.1278 31.4924C24.847 31.9448 25.5592 32.4064 26.2738 32.8635C27.9256 33.9214 29.2596 33.3437 29.6609 31.3949C29.8094 30.6781 29.9602 29.9612 30.111 29.2467C30.3847 27.9637 31.0529 27.3976 32.3637 27.3884C34.1036 27.3744 35.8413 27.3744 37.5813 27.3884C38.8363 27.4 39.5138 27.9544 39.7875 29.1631C39.9569 29.9148 40.1054 30.6711 40.2608 31.4251C40.6598 33.3669 41.9892 33.9214 43.6688 32.8472C44.3509 32.4111 45.0376 31.9819 45.715 31.5364C46.6592 30.917 47.5339 31.0005 48.3319 31.7893C49.6218 33.0676 50.9001 34.3575 52.1854 35.6405C52.9788 36.4316 53.0855 37.3108 52.5078 38.262C52.1274 38.8884 51.7167 39.4962 51.32 40.1133C50.0301 42.1178 50.5243 43.3079 52.8674 43.8276C53.6191 43.9946 54.3754 44.1431 55.1224 44.3287C56.069 44.5607 56.584 45.1987 56.5979 46.1568C56.6281 48.0893 56.6304 50.0219 56.5979 51.9521C56.5817 52.9682 56.0179 53.5992 55.0227 53.8243C54.2339 54.0006 53.4405 54.1607 52.6517 54.337C50.5892 54.794 50.0487 56.1048 51.2435 57.8888C53.6423 61.4708 53.401 61.2899 50.5707 64.1109C49.8585 64.8208 49.1578 65.54 48.434 66.236C47.5153 67.1199 46.7219 67.2011 45.6222 66.5306C44.9958 66.1479 44.3857 65.7395 43.7709 65.3405C41.9776 64.1782 40.6714 64.7141 40.2399 66.7858C40.1309 67.3148 39.9778 67.8321 39.8641 68.3611C39.4094 70.4467 39.0219 70.7646 36.9108 70.7669C36.2542 70.7669 35.5977 70.7669 34.9388 70.7669L34.9411 70.7576ZM46.9887 32.7915C45.998 33.4249 45.1582 33.9654 44.3161 34.5037C41.9172 36.0395 39.1704 34.8725 38.6368 32.0886C38.2517 30.0811 37.0361 29.0773 34.9899 29.0773C31.8579 29.0773 31.8162 29.0703 31.2965 32.1512C31.0831 33.4226 30.5077 34.151 29.3106 34.7125C27.7818 35.427 26.5243 35.3505 25.2553 34.2926C24.8424 33.9492 24.3157 33.7404 23.9121 33.3901C23.2207 32.7869 22.7335 32.9795 22.1837 33.6058C21.4947 34.3877 20.7152 35.086 19.9844 35.833C18.5391 37.3108 18.5112 36.8793 19.6967 38.5218C20.9309 40.2293 21.7916 41.8974 20.3649 43.8415C19.945 44.4122 19.3186 44.9667 18.669 45.201C17.5276 45.6139 16.2957 45.7763 15.0197 46.0594C15.0197 47.9037 14.9942 49.6762 15.0499 51.444C15.0568 51.7015 15.4118 52.0936 15.6809 52.1724C16.6761 52.4671 17.7039 52.6504 18.7154 52.8916C20.5319 53.3231 21.7568 56.2393 20.7848 57.8401C20.2651 58.6985 19.655 59.5035 19.1771 60.3828C19.0263 60.6588 19.0239 61.2342 19.2118 61.4407C20.402 62.7538 21.664 64.0042 22.9377 65.3103C24.0861 64.5726 25.079 63.8279 26.1717 63.2781C26.7401 62.9904 27.5335 62.8373 28.1321 62.9858C29.8976 63.4265 31.1666 64.3012 31.4496 66.4239C31.7906 68.9828 31.967 68.9712 34.5862 68.9527C35.6974 68.9434 37.1451 69.2752 37.8272 68.7091C38.5116 68.143 38.4489 66.6606 38.6832 65.5702C39.1379 63.4521 42.075 62.1946 43.9124 63.3453C44.9146 63.9741 45.9099 64.612 47.049 65.3335C47.7009 64.619 48.2925 63.9578 48.8957 63.3082C49.6033 62.5473 50.8282 61.8351 50.8955 61.0277C50.9674 60.1554 49.9745 59.1834 49.413 58.2762C48.5245 56.8448 48.8354 54.4738 50.1252 53.3765C50.4013 53.1399 50.7934 53.0007 51.1553 52.9079C52.1622 52.648 53.1899 52.4648 54.1898 52.1887C54.4566 52.1144 54.8603 51.8198 54.8649 51.6157C54.9183 49.7713 54.8951 47.9246 54.8951 46.0617C53.6516 45.774 52.538 45.4539 51.4035 45.2752C50.3526 45.1105 49.8817 44.4725 49.3921 43.6025C48.4688 41.9577 48.6498 40.5518 49.8353 39.1598C50.2064 38.7237 50.5359 38.2202 50.7516 37.6913C50.8769 37.3851 50.8839 36.8399 50.6936 36.6287C49.529 35.3435 48.2925 34.1232 46.991 32.7892L46.9887 32.7915Z" fill="white"/>
<path d="M62.5853 67.2961C62.5853 67.0316 62.5853 66.7648 62.5853 66.5003C62.5853 58.805 62.6132 51.1097 62.5737 43.4145C62.5227 32.8517 54.658 23.5185 44.2623 21.6556C43.0513 21.4398 41.8101 21.3679 40.5782 21.3215C39.6456 21.2844 39.2721 20.897 39.2744 19.9713C39.2907 13.9766 39.2837 7.98411 39.2837 1.98934C39.2837 1.3676 39.3858 0.731929 40.1653 0.764408C40.91 0.796888 40.9982 1.41168 40.9982 2.04502C40.9889 7.42036 40.9935 12.7957 40.9935 18.171C40.9935 18.5909 40.9935 19.0109 40.9935 19.3101C43.223 19.7764 45.4037 19.9992 47.4175 20.6975C56.8643 23.9732 62.4206 30.6361 64.1304 40.4751C64.3671 41.8369 64.3671 43.2497 64.3717 44.6394C64.3949 51.7547 64.381 58.87 64.381 65.9853V67.4353C64.7035 67.2079 64.9192 67.0965 65.0862 66.9342C66.1349 65.9041 67.1324 64.8184 68.2367 63.8533C68.543 63.5841 69.2854 63.4403 69.5916 63.6282C70.1739 63.9832 69.9233 64.5516 69.4872 64.9877C67.7356 66.7346 65.9841 68.4862 64.2371 70.2355C63.7291 70.7435 63.2071 70.7366 62.7152 70.247C60.959 68.5048 59.2121 66.7532 57.4652 64.9993C57.0383 64.5701 56.7785 63.9901 57.3747 63.6352C57.6879 63.4496 58.4419 63.5795 58.7319 63.8509C59.9661 65.004 61.1029 66.2637 62.2745 67.484C62.3789 67.4213 62.4833 67.361 62.59 67.2984L62.5853 67.2961Z" fill="white"/>
<path d="M28.9249 19.4493C28.9249 13.7445 28.9249 8.14185 28.9249 2.53684C28.9249 2.18885 28.8251 1.78053 28.9713 1.5091C29.1429 1.19127 29.5118 0.845592 29.8413 0.792233C30.0501 0.759754 30.4166 1.19823 30.572 1.49982C30.702 1.75037 30.6393 2.10533 30.6416 2.41388C30.644 8.13721 30.6463 13.8605 30.6416 19.5839C30.6416 21.1359 30.514 21.2612 29.0293 21.3099C18.1301 21.6649 9.06374 29.8149 7.57201 40.6143C7.44673 41.5283 7.34929 42.4563 7.34697 43.3773C7.32841 51.0332 7.33305 58.6913 7.33537 66.3472C7.33537 66.6766 7.36553 67.0061 7.37945 67.3355C7.47689 67.4028 7.57665 67.4701 7.67409 67.535C8.79927 66.3333 9.92444 65.1315 11.0519 63.9321C11.5043 63.4519 12.0078 63.0181 12.6156 63.6468C13.1677 64.2221 12.7548 64.7 12.321 65.1315C10.6807 66.7718 9.03126 68.4027 7.40729 70.0591C6.77163 70.7087 6.21484 70.7899 5.54205 70.1009C3.89256 68.4143 2.21291 66.7578 0.542546 65.0944C0.101755 64.6559 -0.283358 64.1804 0.285031 63.6143C0.8511 63.0529 1.33365 63.431 1.7698 63.8741C2.92978 65.0503 4.0944 66.2242 5.54205 67.3239C5.54205 66.9272 5.54205 66.5282 5.54205 66.1314C5.54205 58.8607 5.53973 51.5923 5.54205 44.3215C5.54669 37.9231 7.53489 32.2531 11.8848 27.5088C16.07 22.9455 21.2342 20.2636 27.4378 19.6767C27.7069 19.6511 27.976 19.6163 28.2428 19.5769C28.433 19.5491 28.621 19.5073 28.9249 19.4493Z" fill="white"/>
<path d="M47.5101 49.1239C47.4962 56.0304 41.8495 61.6377 34.9383 61.6122C27.9483 61.5867 22.392 55.9793 22.4082 48.9661C22.4245 42.0828 28.0991 36.4291 34.9778 36.443C41.9144 36.4592 47.5241 42.1338 47.5101 49.1215V49.1239ZM34.9058 59.8699C40.8936 59.8769 45.747 55.0861 45.8119 49.1053C45.8769 43.1871 40.9818 38.2711 35.0126 38.2595C29.0062 38.2479 24.1691 43.0108 24.1088 48.9986C24.0508 54.9052 28.9714 59.8606 34.9058 59.8699Z" fill="white"/>
<path d="M38.9872 46.3053C38.558 46.7577 38.2518 47.3098 37.9989 47.2866C37.6393 47.2541 37.0871 46.8458 37.0199 46.5164C36.7067 44.9412 34.802 44.5259 33.6861 45.2961C32.7233 45.9619 32.7279 46.9479 33.7487 47.5001C34.7625 48.0499 35.8483 48.4698 36.8737 48.9964C37.9641 49.5579 38.7505 50.3536 38.6717 51.7131C38.5928 53.0448 37.8898 54.0052 36.7183 54.4901C35.9318 54.8149 35.8112 55.2835 35.8668 55.9865C35.9202 56.6801 35.8367 57.4596 34.9945 57.4805C34.0526 57.5037 33.983 56.6778 34.048 55.954C34.113 55.2162 33.9181 54.7963 33.1595 54.4808C32.0737 54.0307 31.3429 53.1283 31.2849 51.9103C31.2664 51.5321 31.6909 51.1331 31.9113 50.7434C32.25 51.0171 32.8161 51.2445 32.888 51.5762C33.2615 53.3278 35.2776 53.4693 36.2195 52.8197C37.1707 52.1632 37.1753 51.1702 36.1684 50.6134C35.2265 50.0915 34.2197 49.6924 33.2523 49.2122C32.1317 48.6554 31.213 47.9339 31.2409 46.5141C31.2687 45.078 32.0204 44.1106 33.2801 43.5538C33.8578 43.2986 34.1408 42.997 34.048 42.3544C34.0039 42.0528 33.9529 41.6816 34.0851 41.4427C34.2684 41.1155 34.6605 40.633 34.8971 40.6678C35.2451 40.7188 35.8344 41.206 35.8019 41.4403C35.6209 42.8114 36.3471 43.4216 37.405 44.0828C38.0708 44.498 38.4026 45.4469 38.9825 46.303L38.9872 46.3053Z" fill="white"/>
</g>
<defs>
<clipPath id="clip0_937_9173">
<rect width="69.9281" height="70" fill="white" transform="translate(0 0.759766)"/>
</clipPath>
</defs>
</svg>
