<svg width="70" height="70" viewBox="0 0 70 70" fill="none" xmlns="http://www.w3.org/2000/svg">
<g clip-path="url(#clip0_1203_2294)">
<path d="M33.8634 50.2967V47.1346C32.2281 46.8149 30.5752 46.5982 28.9815 46.1646C21.7974 44.2091 16.664 39.7858 13.5595 33.0282C13.1485 32.1326 12.7287 31.6246 11.57 32.0231C11.5481 32.4698 11.5022 32.9998 11.4978 33.5275C11.4891 35.3516 11.4978 37.1778 11.4935 39.0041C11.4891 40.596 11.218 40.8676 9.66794 40.8741C9.26785 40.8741 8.86558 40.8851 8.46549 40.8741C7.34831 40.8347 6.4257 40.8325 5.64957 42.0522C4.69199 43.5544 2.42264 43.5369 1.09776 42.3325C-0.28615 41.0712 -0.369229 38.9909 0.914112 37.642C2.15373 36.3348 4.44057 36.1224 5.47249 37.5523C6.53501 39.0238 7.80305 38.6252 9.29846 38.6734C9.29846 37.5347 9.29846 36.4574 9.29846 35.3822C9.29846 34.0684 9.28971 32.7545 9.30065 31.4407C9.31376 30.0326 9.62859 29.7326 11.0628 29.7217C11.4235 29.7195 11.7842 29.7217 12.1515 29.7217C11.8717 27.3962 11.6006 25.1451 11.312 22.7451C10.6058 22.7451 9.85159 22.7342 9.09732 22.7473C8.23593 22.7648 7.82054 22.3685 7.83147 21.4948C7.84678 20.3736 7.83584 19.2503 7.83584 18.0656H4.84503C4.84503 19.8284 4.82754 21.567 4.87126 23.3035C4.87563 23.4984 5.20576 23.7239 5.42657 23.8707C6.79955 24.7794 7.38547 26.1611 6.9985 27.6305C6.64214 28.9794 5.37192 29.9757 3.94866 30.0283C2.48823 30.0808 1.13055 29.1283 0.695485 27.7509C0.2473 26.3341 0.79824 24.9612 2.12749 23.9298C2.40296 23.7152 2.61284 23.2466 2.62159 22.8875C2.67187 21.0634 2.63689 19.2371 2.64782 17.4131C2.65438 16.0992 2.93641 15.8211 4.26566 15.8014C5.17734 15.7883 6.08901 15.7773 6.9985 15.8014C7.58661 15.8189 7.84896 15.6328 7.84459 14.9934C7.82054 12.2562 7.84459 9.51679 7.81835 6.7796C7.81617 6.51245 7.60629 6.02851 7.46636 6.01975C7.07502 5.99347 6.64433 6.10734 6.27922 6.27376C6.08464 6.36354 6.00812 6.69201 5.84852 6.88908C4.66794 8.3606 2.46199 8.54016 1.08901 7.28105C-0.323317 5.98471 -0.367042 3.85627 0.995004 2.50957C2.33082 1.18914 4.62859 1.20009 5.72172 2.73511C6.3623 3.63729 7.04441 3.77963 7.99544 3.75992C9.79256 3.72269 10.0309 3.98547 10.0309 5.74822C10.0309 10.2372 10.0309 14.7284 10.0309 19.2174C10.0309 19.6116 10.0309 20.0057 10.0309 20.3802C11.0905 20.6021 11.6975 20.2393 11.852 19.2919C13.3693 9.95037 21.3754 1.90739 30.6911 0.359227C42.9823 -1.68382 54.0033 5.13728 57.5932 17.0123C57.814 17.7415 58.1026 18.4904 58.1179 19.2349C58.1441 20.4546 58.6776 20.7656 59.9281 20.4196C59.9281 20.0977 59.9281 19.7167 59.9281 19.3335C59.9281 14.6605 59.9281 9.98759 59.9281 5.31684C59.9281 4.03583 60.1839 3.77963 61.4476 3.74897C61.8127 3.74021 62.18 3.7205 62.5407 3.75335C63.2119 3.81466 63.6557 3.62854 64.0536 2.99351C64.8232 1.76286 66.371 1.28768 67.7047 1.70374C69.0383 2.11979 69.9937 3.42708 69.9981 4.83947C70.0024 6.25406 69.058 7.55915 67.7222 7.98834C66.3929 8.41535 64.8232 7.95331 64.0667 6.71609C63.577 5.91245 63.002 5.84895 62.1778 6.04603V15.797C63.1966 15.797 64.2001 15.797 65.2036 15.797C67.0903 15.8014 67.2281 15.9415 67.2303 17.8795C67.2303 19.5218 67.1887 21.1663 67.2609 22.8064C67.2784 23.2225 67.5691 23.7415 67.8993 24.0064C69.1345 24.994 69.6264 26.3385 69.1498 27.7706C68.6688 29.2137 67.403 30.0918 65.9054 30.0261C64.4756 29.9626 63.2534 28.9772 62.8883 27.5954C62.5101 26.1677 63.0982 24.775 64.3925 23.9101C64.657 23.7327 64.9937 23.4196 65.0068 23.1568C65.0702 21.7729 65.0418 20.3846 65.0374 18.9963C65.0374 18.7116 65.0046 18.4269 64.985 18.0744H62.1253C62.1253 19.1583 62.1362 20.205 62.1231 21.2539C62.1078 22.4232 61.793 22.7254 60.6212 22.7495C60.0374 22.7605 59.4559 22.7626 58.8721 22.778C58.8066 22.778 58.741 22.8327 58.6885 22.859C58.4196 25.0947 58.1507 27.3261 57.8599 29.7239C58.201 29.7239 58.612 29.7151 59.023 29.7239C60.1817 29.7523 60.5906 30.1509 60.5971 31.318C60.6102 33.7224 60.6015 36.1267 60.6015 38.6844C61.5263 38.6844 62.3877 38.715 63.2425 38.6625C63.4721 38.6493 63.7432 38.4194 63.9006 38.218C65.0396 36.753 66.4148 36.2647 67.8905 36.8406C69.2547 37.3749 70.0855 38.6493 70.0024 40.0902C69.9216 41.4938 68.8765 42.7573 67.5276 43.0814C65.9775 43.4537 64.6308 42.8011 63.7125 41.2332C63.6579 41.1391 63.6098 41.0406 63.5223 40.8785C62.3155 40.8785 61.0803 40.8719 59.8428 40.8785C58.8481 40.8851 58.389 40.4274 58.4043 39.4048C58.4349 37.2873 58.413 35.1698 58.413 33.0523C58.413 32.6976 58.413 32.3406 58.413 32.0363C57.3527 31.675 56.9045 32.0406 56.4957 32.9363C52.9517 40.6705 46.8979 45.1901 38.5923 46.758C38.201 46.8325 37.7921 46.8106 37.3942 46.8587C36.9985 46.9047 36.6072 46.9814 36.1612 47.0536V50.2988C36.629 50.2988 37.0554 50.2923 37.4817 50.2988C39.0623 50.3251 39.9106 51.1288 39.9281 52.7295C39.9587 55.4667 39.939 58.2039 39.939 60.9433C39.939 62.2943 39.9697 63.6454 39.9259 64.9943C39.8319 67.9439 37.7506 70.0264 34.9653 70.0045C32.2368 69.9826 30.2014 67.9001 30.0943 65.0075C30.0746 64.4972 29.9587 63.9323 30.1336 63.4899C30.3151 63.0345 30.7436 62.463 31.1612 62.3666C31.9023 62.1958 32.2368 62.8024 32.2718 63.514C32.3068 64.206 32.2587 64.9089 32.3614 65.5899C32.556 66.9016 33.7497 67.8454 35.068 67.8147C36.3536 67.7863 37.6194 66.86 37.6435 65.5899C37.7265 61.2608 37.6763 56.9272 37.6763 52.5412H32.2827C32.2827 54.0017 32.2849 55.4141 32.2827 56.8265C32.2827 57.2272 32.3855 57.6959 32.215 58.0112C32.0051 58.401 31.5656 58.9046 31.2136 58.9155C30.8616 58.9265 30.197 58.3966 30.1839 58.0834C30.1008 56.0448 30.0615 53.9952 30.2101 51.9631C30.2867 50.9207 31.1568 50.3689 32.2215 50.3054C32.7287 50.2748 33.2403 50.301 33.8721 50.301L33.8634 50.2967ZM56.3164 23.4721C56.3645 11.7744 46.8105 2.14169 35.1227 2.10227C23.3256 2.06286 13.7781 11.5204 13.6841 23.3385C13.5901 35.0888 23.155 44.7807 34.88 44.8157C46.7274 44.8529 56.2683 35.3516 56.3164 23.4699V23.4721ZM4.53239 5.02998C4.53239 4.87232 4.52802 4.71465 4.52583 4.55699C4.08639 4.2986 3.62509 3.81028 3.21407 3.8497C2.84896 3.88474 2.31551 4.47159 2.2543 4.87451C2.15591 5.52487 2.69374 6.00442 3.35836 5.86209C3.78906 5.77012 4.14323 5.31903 4.53239 5.02998ZM66.4607 6.05479L66.9351 6.08325C67.2237 5.66501 67.7462 5.23801 67.7331 4.82852C67.72 4.4694 67.0554 3.81247 66.7711 3.85846C66.3514 3.92415 65.7982 4.45188 65.7064 4.87232C65.6343 5.19421 66.1874 5.65406 66.4629 6.0526L66.4607 6.05479ZM4.52802 40.1603C4.52802 40.0026 4.52802 39.8449 4.5302 39.6873C4.13886 39.4004 3.7825 38.9515 3.34962 38.8617C2.68718 38.726 2.15154 39.2099 2.2543 39.8581C2.3177 40.2588 2.85552 40.8413 3.22063 40.8719C3.63165 40.9092 4.08858 40.4187 4.52802 40.1581V40.1603ZM66.9613 38.6515C66.8017 38.6581 66.6421 38.6647 66.4826 38.6712C66.2005 39.0654 65.7436 39.4333 65.678 39.8603C65.5774 40.5194 66.0715 41.0427 66.7296 40.9004C67.1384 40.8128 67.7112 40.2807 67.7331 39.9172C67.7571 39.5121 67.2434 39.0763 66.9613 38.6515ZM67.2958 26.9188C67.2915 26.7699 67.2871 26.6188 67.2827 26.4699C66.8411 26.2093 66.382 25.7232 65.9644 25.756C65.6124 25.7845 65.0965 26.3801 65.0287 26.7852C64.9172 27.4575 65.4681 27.9086 66.124 27.7619C66.5569 27.6655 66.9089 27.2122 67.298 26.9188H67.2958ZM5.06584 26.9933C5.06365 26.8159 5.05928 26.6363 5.05709 26.459C4.6264 26.2028 4.17166 25.7166 3.77157 25.756C3.40865 25.7911 2.8424 26.4086 2.84678 26.7589C2.85333 27.1137 3.43925 27.7093 3.80218 27.7356C4.20445 27.764 4.6417 27.2626 5.06584 26.9933Z" fill="white"/>
<path d="M44.4377 22.0162C45.2663 22.0162 45.9922 22.0359 46.718 22.0118C47.5947 21.9811 47.9948 22.4366 48.0254 23.2578C48.0516 23.9015 48.0298 24.5475 48.0298 25.2439H50.7057C50.7057 23.4264 50.7057 21.6527 50.7057 19.8768C50.7057 17.6345 50.9025 17.4637 53.2768 17.7242C53.432 18.3418 53.5982 18.9965 53.7622 19.649L53.408 19.5833C53.2374 20.0169 52.9379 20.4439 52.9226 20.8819C52.8658 22.5592 52.9139 24.2388 52.892 25.9161C52.8767 27.1117 52.4919 27.4796 51.3135 27.4949C50.2663 27.5081 49.2191 27.4971 48.1128 27.4971V29.6825C48.9108 29.6825 49.6651 29.7022 50.4193 29.6781C51.2173 29.654 51.8557 29.8927 51.8317 30.7861C51.8076 31.6599 51.1517 31.892 50.3713 31.8832C49.3503 31.8701 48.3293 31.8657 47.3105 31.8832C46.2982 31.9029 45.8479 31.4124 45.8566 30.4161C45.8697 28.7738 45.8588 27.1314 45.8566 25.4891C45.8566 25.0972 45.8566 24.7074 45.8566 24.2191C44.8837 24.2191 44.0507 24.195 43.2221 24.2366C43.0101 24.2475 42.7477 24.4161 42.6144 24.5935C40.5724 27.2957 39.4683 30.3044 39.6454 33.5474C40.1417 33.9569 40.6773 34.2044 40.896 34.6182C41.2676 35.3233 40.7058 36.035 39.7897 36.0416C36.6196 36.0678 33.4473 36.0875 30.2794 36.0109C29.8553 36 29.1885 35.4854 29.0792 35.0846C28.8452 34.2153 29.5733 33.9241 30.345 33.7971C30.5177 30.2628 29.3109 27.2234 27.1115 24.5431C26.9432 24.3373 26.5518 24.2475 26.2545 24.23C25.5024 24.1862 24.746 24.2147 23.8715 24.2147C23.8715 26.3015 23.8758 28.2614 23.8715 30.2234C23.8671 31.5854 23.5741 31.8701 22.1924 31.8788C21.2086 31.8854 20.2248 31.8832 19.241 31.8788C18.4932 31.8745 17.9336 31.592 17.9357 30.7511C17.9357 29.8927 18.502 29.6628 19.2606 29.6803C20.0171 29.7 20.7757 29.6847 21.6043 29.6847V27.4993C20.9375 27.4993 20.2598 27.4993 19.582 27.4993C17.5488 27.4993 17.4416 27.3898 17.4395 25.3096C17.4395 23.5271 17.4395 21.7424 17.4395 19.9315C17.035 19.8658 16.7202 19.8155 16.2764 19.7432C16.3966 19.1804 16.4272 18.5936 16.648 18.0943C17.0591 17.1659 17.9511 17.6476 18.5654 17.7111C18.9414 17.7505 19.5099 18.425 19.5427 18.8476C19.6629 20.4067 19.5973 21.9811 19.5995 23.5512C19.5995 24.0899 19.5995 24.6264 19.5995 25.2329H21.6699C21.6699 24.7402 21.6699 24.2804 21.6699 23.8205C21.6765 22.2811 21.9279 22.0227 23.4233 22.0184C24.0267 22.0162 24.6301 22.0184 25.2685 22.0184C23.2003 15.0615 24.4202 10.3404 29.0136 7.24406C32.9991 4.55723 38.0538 4.80029 41.8033 7.85719C45.9288 11.2185 46.8426 15.9681 44.4312 22.0205L44.4377 22.0162ZM37.4635 33.8036C37.2493 29.4679 38.8277 25.868 41.3004 22.5724C41.8863 21.7906 42.3804 20.9279 42.8374 20.0585C43.6769 18.4644 43.9218 16.7914 43.5916 14.9849C42.7346 10.2966 38.303 6.90684 33.8933 7.65135C28.9086 8.49222 25.5943 13.0973 26.3748 17.9695C26.7005 19.9972 27.7106 21.633 28.8911 23.2205C30.2882 25.0972 31.589 27.0439 32.0809 29.3738C32.3848 30.819 32.5029 32.3058 32.7084 33.8058H37.4657L37.4635 33.8036Z" fill="white"/>
<path d="M35.0524 40.4297C34.2522 40.4297 33.4498 40.445 32.6497 40.4253C31.9872 40.4078 31.5237 40.1187 31.5019 39.3873C31.4778 38.6034 31.9391 38.2618 32.6606 38.2531C34.226 38.2355 35.7913 38.2377 37.3567 38.2531C38.0191 38.2596 38.4826 38.5596 38.5045 39.2888C38.5285 40.0727 38.0651 40.4056 37.3436 40.4253C36.5806 40.445 35.8154 40.4297 35.0502 40.4297H35.0524Z" fill="white"/>
<path d="M33.7629 11.341C33.6339 11.4921 33.3891 11.8184 33.1114 12.1096C32.3528 12.9023 31.5176 13.6315 30.8311 14.4811C30.372 15.0505 29.9523 15.506 29.2242 15.1315C28.4896 14.7549 28.5356 14.1264 28.8548 13.452C29.5675 11.9542 30.6606 10.8352 32.156 10.1367C33.013 9.73594 33.7564 10.1936 33.7629 11.341Z" fill="white"/>
</g>
<defs>
<clipPath id="clip0_1203_2294">
<rect width="70" height="70" fill="white"/>
</clipPath>
</defs>
</svg>
