<svg width="70" height="66" viewBox="0 0 70 66" fill="none" xmlns="http://www.w3.org/2000/svg">
<g clip-path="url(#clip0_937_9632)">
<path d="M50.3515 5.77353C52.2251 5.24221 53.9193 4.70624 55.6437 4.2961C56.3265 4.1353 57.1188 4.09336 57.7876 4.27279C61.4113 5.25153 65.0047 6.33514 68.6213 7.33951C69.5302 7.59119 69.9823 7.98268 69.945 9.02201C69.8168 12.4313 69.9566 15.8592 69.6677 19.2545C69.127 25.621 63.3455 32.2088 57.1678 33.7678C56.8252 33.8541 56.3871 33.8354 56.0702 33.6933C54.1803 32.845 52.3113 31.9455 50.3608 31.0297C50.3608 33.2225 50.3422 35.5296 50.3865 37.8366C50.3911 38.1092 50.7034 38.4285 50.9504 38.6359C52.6749 40.0807 54.4203 41.4999 56.1587 42.933C57.1841 43.7789 57.254 44.3475 56.436 45.3776C55.9303 46.0161 55.3804 46.6196 54.8817 47.2651C54.3737 47.9223 53.8563 48.3068 52.9102 48.0947C52.1436 47.9223 51.8033 48.5678 51.9828 49.2552C52.09 49.6677 52.4255 50.0802 52.7634 50.3621C55.7439 52.8463 58.7361 55.3188 61.7632 57.7493C62.1873 58.0895 62.7885 58.2876 63.3385 58.3831C65.2237 58.7047 66.5846 60.1612 66.6476 62.0231C66.7058 63.7732 65.3472 65.5466 63.6973 65.8682C61.6769 66.262 59.9385 65.2809 59.1975 63.4423C58.9505 62.8294 58.538 62.2072 58.0393 61.7808C55.5924 59.6951 53.0897 57.6724 50.3585 55.4236C50.3585 57.0782 50.2839 58.488 50.3725 59.8862C50.6102 63.652 49.2656 64.2812 45.9961 64.2672C31.8627 64.1973 17.7315 64.2369 3.59804 64.2369C0.897178 64.2369 0.0233033 63.3794 0.0233033 60.7228C0.0163123 44.3336 0.020973 27.949 0 11.5644C0 10.6975 0.214391 10.0194 0.778332 9.35525C2.91059 6.83849 4.96827 4.25648 7.12616 1.76302C7.49668 1.33657 8.21909 0.987022 8.77837 0.984692C21.5929 0.942746 34.405 0.945076 47.2172 0.959058C49.452 0.961389 50.3445 1.92149 50.3492 4.19356C50.3492 4.65497 50.3492 5.1187 50.3492 5.77586L50.3515 5.77353ZM46.7838 54.4752C48.0142 55.5681 47.8045 56.3558 47.0658 57.1644C46.4925 57.7959 45.9565 58.4647 45.4345 59.1382C44.7937 59.9678 44.0783 60.1239 43.2463 59.4434C39.9722 56.7636 36.7004 54.0814 33.4356 51.3921C32.7039 50.7886 32.655 50.1058 33.2702 49.3741C33.8434 48.689 34.4353 48.0178 34.9643 47.3001C35.6331 46.3912 36.3765 45.9764 37.4485 46.8084C39.329 44.52 41.163 42.2852 42.9783 40.076C41.8831 38.7524 41.8854 38.5077 42.8945 37.289C43.4141 36.6621 43.9221 36.0236 44.4465 35.4014C45.2434 34.4576 45.7048 34.4087 46.6999 35.1707C47.3291 35.6507 47.9396 36.1541 48.7273 36.7809C48.7273 34.2129 48.7483 31.8919 48.704 29.5709C48.697 29.2423 48.4127 28.8788 48.1727 28.6038C45.7747 25.84 44.1086 22.6894 43.7707 19.0401C43.498 16.0736 43.5772 13.0698 43.5842 10.0823C43.5889 7.59818 43.0762 7.85452 45.7538 7.12512C46.2012 7.00394 46.637 6.77091 47.0867 6.73829C48.5665 6.63575 48.8415 5.80149 48.7576 4.48019C48.6457 2.71613 48.5642 2.53902 46.8211 2.53902C34.7057 2.53902 22.5879 2.53902 10.4725 2.53902C10.0577 2.53902 9.64292 2.57398 9.12093 2.59961C9.12093 4.56175 9.12559 6.4167 9.12093 8.27398C9.11394 10.4505 8.19578 11.3617 5.99595 11.3733C4.57445 11.3803 3.15061 11.3733 1.71513 11.3733C1.6825 11.7299 1.64755 11.9186 1.64755 12.1074C1.64522 28.457 1.64755 44.8066 1.63356 61.1562C1.63356 62.2026 2.05302 62.622 3.09468 62.6127C6.35715 62.5824 9.61962 62.6011 12.8821 62.6011C24.1842 62.6011 35.484 62.6011 46.7861 62.6011C48.662 62.6011 48.7343 62.5242 48.7366 60.6063C48.7366 58.7816 48.7576 56.9547 48.7203 55.13C48.7133 54.7548 48.5315 54.1023 48.3498 54.072C47.9559 54.0068 47.5085 54.2631 46.7884 54.4752H46.7838ZM45.1922 13.9064C45.1922 13.9064 45.1992 13.9064 45.2038 13.9064C45.2038 14.955 45.1875 16.0014 45.2062 17.05C45.3273 23.6379 49.727 29.7899 55.9303 31.9828C56.3964 32.1482 57.0303 32.1762 57.4777 31.9968C63.3338 29.6641 67.053 25.4136 68.0108 19.1776C68.4955 16.0247 68.2345 12.7552 68.2601 9.53935C68.2601 9.28301 67.9059 8.86821 67.6379 8.78898C64.2333 7.75664 60.8194 6.75926 57.3961 5.7945C56.972 5.67565 56.4547 5.6943 56.0282 5.81547C52.7168 6.75227 49.4287 7.76829 46.1057 8.66547C45.3157 8.87986 45.1549 9.23174 45.1782 9.94949C45.2225 11.2685 45.1922 12.5874 45.1922 13.9064ZM38.6579 47.871C41.0279 49.8192 43.3535 51.73 45.7491 53.6992C47.667 51.3665 49.5009 49.1341 51.3932 46.8363C48.9696 44.8486 46.6486 42.947 44.2927 41.0152C42.3608 43.3665 40.5408 45.5803 38.6602 47.8733L38.6579 47.871ZM48.9487 52.3662C49.5033 52.7647 50.0183 53.0956 50.4913 53.4825C53.1945 55.687 55.8791 57.9147 58.5893 60.1123C59.5657 60.9022 60.4209 61.7202 60.8054 62.9972C61.127 64.0622 62.1733 64.5446 63.2057 64.3208C64.2753 64.0901 65.0513 63.1324 65.0233 62.0767C64.9953 61.0304 64.245 60.3313 63.194 59.9841C62.1593 59.6415 61.0734 59.2244 60.2345 58.5579C56.9347 55.9456 53.7235 53.2238 50.4471 50.5159C49.9554 51.1242 49.4474 51.751 48.951 52.3686L48.9487 52.3662ZM45.9658 55.9573C42.722 53.2914 39.5924 50.7187 36.3998 48.0971C35.7776 48.8591 35.2253 49.5372 34.6148 50.2852C37.84 52.9372 40.9743 55.5168 44.1645 58.1408C44.775 57.4021 45.3343 56.7216 45.9635 55.9596L45.9658 55.9573ZM43.8988 38.6009C47.1613 41.2785 50.2839 43.8442 53.4555 46.4495C54.108 45.6572 54.6603 44.9837 55.2499 44.266C52.0177 41.6141 48.8648 39.0251 45.6815 36.4128C45.05 37.1888 44.521 37.8413 43.9012 38.6009H43.8988ZM2.55405 9.75607C4.08275 9.75607 5.27588 9.81666 6.45969 9.71878C6.81856 9.68849 7.41745 9.2434 7.43376 8.96142C7.52698 7.33718 7.48037 5.70595 7.48037 3.78575C5.76525 5.86441 4.2715 7.67508 2.55638 9.75607H2.55405Z" fill="white"/>
<path d="M18.04 17.5926C18.7811 17.7767 19.2285 17.8886 19.6759 18.0004C19.5361 18.4315 19.5314 19.0281 19.2355 19.2588C18.2684 20.0162 18.0423 20.946 18.1076 22.1065C18.1915 23.6142 18.0983 25.1313 18.1379 26.6436C18.1612 27.5711 17.8046 28.0046 16.8539 27.9999C14.0598 27.9813 11.2681 27.9929 8.47399 27.9929C7.61177 27.9929 7.22493 27.6061 7.23658 26.7066C7.26688 23.9521 7.26455 21.1976 7.23891 18.4432C7.22959 17.4878 7.64905 17.1359 8.57653 17.1452C11.331 17.1732 14.0854 17.1289 16.8399 17.1802C17.3409 17.1895 17.8349 17.5134 18.04 17.588V17.5926ZM13.1859 23.0642C14.2299 21.5752 16.0849 20.8481 16.6371 18.865H8.9587V26.3221H16.4321V22.2789C16.3179 22.1974 16.2014 22.1158 16.0872 22.0342C15.4021 22.8242 14.7216 23.6142 14.0342 24.3995C13.5355 24.9658 12.9948 25.0031 12.4053 24.5254C11.6199 23.8938 10.7764 23.3229 10.0609 22.6215C9.77898 22.3442 9.77898 21.7802 9.64848 21.3468C10.0959 21.3515 10.6365 21.1977 10.9744 21.3934C11.7341 21.8338 12.3936 22.449 13.1859 23.0666V23.0642Z" fill="white"/>
<path d="M18.3406 46.3678C18.7857 46.4797 19.2308 46.5915 19.6759 46.7057C19.5384 47.1392 19.5337 47.7404 19.2378 47.9711C18.2707 48.7308 18.0423 49.6583 18.1076 50.8234C18.1914 52.3335 18.0982 53.8529 18.1378 55.3652C18.1635 56.3743 17.7231 56.7448 16.7396 56.7332C14.0225 56.7005 11.303 56.7122 8.58348 56.7285C7.67698 56.7332 7.2249 56.3953 7.23655 55.4235C7.26684 52.6667 7.26684 49.9076 7.23655 47.1508C7.22723 46.1884 7.67232 45.8249 8.57882 45.8295C11.3356 45.8388 14.0947 45.8039 16.8515 45.8598C17.3525 45.8691 17.8466 46.2327 18.3429 46.4331C18.3429 46.4098 18.3429 46.3888 18.3429 46.3655L18.3406 46.3678ZM16.4717 51.0541C16.3365 50.9563 16.2037 50.8584 16.0685 50.7605C15.4114 51.5202 14.7542 52.2799 14.0994 53.0419C13.5284 53.706 12.9459 53.6897 12.291 53.1351C11.5523 52.5106 10.7204 51.9816 10.0376 51.3035C9.76263 51.0285 9.77428 50.4646 9.65776 50.0311C10.1052 50.0474 10.6388 49.9099 10.9791 50.108C11.7364 50.5484 12.3982 51.1543 13.1975 51.7695C14.2112 50.2432 16.1571 49.5953 16.6185 47.5446H8.94934V55.0227H16.4693V51.0541H16.4717Z" fill="white"/>
<path d="M12.6195 42.3223C11.2236 42.3223 9.82541 42.3037 8.42954 42.3293C7.58829 42.3457 7.23641 41.9705 7.24107 41.1409C7.25506 38.3491 7.26205 35.5551 7.23641 32.7633C7.22942 31.8452 7.6582 31.5376 8.52043 31.5445C11.3122 31.5632 14.1062 31.5609 16.898 31.5469C17.7672 31.5422 18.4127 32.5163 19.3681 32.0852C19.4544 32.4767 19.7247 33.1362 19.6012 33.2201C17.5458 34.6113 18.2006 36.7086 18.1307 38.6078C18.0981 39.498 18.1261 40.3928 18.1191 41.283C18.1144 41.9938 17.7765 42.3387 17.0378 42.327C15.565 42.306 14.0899 42.32 12.6172 42.32L12.6195 42.3223ZM8.92824 40.6096H16.5298V36.4569C16.1779 36.7226 16.0264 36.8274 15.882 36.9439C14.9382 37.7083 13.9944 39.0762 13.0529 39.0739C12.0555 39.0739 11.0628 37.7689 10.0678 37.0325C10.0375 37.0092 9.98621 36.9905 9.97922 36.9602C9.87202 36.5221 9.76949 36.084 9.66462 35.6459C10.1097 35.6692 10.641 35.5457 10.9789 35.7461C11.734 36.1959 12.3934 36.8064 13.1974 37.4333C14.2297 35.9349 16.087 35.2358 16.609 33.2317H8.92824V40.6096Z" fill="white"/>
<path d="M31.8251 20.8785C28.9588 20.8785 26.0902 20.8808 23.2238 20.8785C22.611 20.8785 21.8676 20.988 21.8932 20.0419C21.9165 19.196 22.597 19.2636 23.1819 19.2636C28.9169 19.2636 34.6518 19.2449 40.3868 19.2962C40.8318 19.3008 41.6032 19.7436 41.6475 20.0629C41.7547 20.8202 41.0486 20.8831 40.4287 20.8831C37.5624 20.8762 34.6937 20.8808 31.8274 20.8808L31.8251 20.8785Z" fill="white"/>
<path d="M31.8563 33.6608C34.6899 33.6608 37.526 33.6585 40.3597 33.6608C40.9376 33.6608 41.667 33.5676 41.6856 34.3925C41.7066 35.2827 40.9492 35.2431 40.3247 35.2431C34.6177 35.2478 28.9084 35.2454 23.2014 35.2454C23.0849 35.2454 22.9288 35.2897 22.8588 35.2338C22.5209 34.9565 22.2064 34.6535 21.8848 34.3576C22.218 34.1245 22.5489 33.6958 22.8868 33.6911C25.8766 33.6375 28.8664 33.6608 31.8563 33.6608Z" fill="white"/>
<path d="M32.6244 24.3136C35.7634 24.3136 38.9047 24.309 42.0436 24.3183C42.6029 24.3183 43.3253 24.1831 43.3416 25.0617C43.358 25.9192 42.6658 25.8703 42.0856 25.8703C35.7681 25.875 29.4482 25.875 23.1307 25.8703C22.5457 25.8703 21.8746 25.9099 21.8909 25.043C21.9072 24.2367 22.5527 24.316 23.0887 24.3136C26.2673 24.3066 29.4459 24.309 32.6244 24.309V24.3136Z" fill="white"/>
<path d="M30.7353 38.624C33.2194 38.624 35.7036 38.6217 38.1854 38.624C38.7773 38.624 39.4438 38.6007 39.4274 39.4536C39.4111 40.3135 38.7307 40.2343 38.1481 40.2343C33.1425 40.2343 28.1346 40.2343 23.1291 40.2343C22.5279 40.2343 21.8707 40.2692 21.887 39.4163C21.9033 38.5681 22.5791 38.624 23.1664 38.6217C25.6878 38.617 28.2115 38.6217 30.733 38.6217L30.7353 38.624Z" fill="white"/>
<path d="M27.2224 53.0277C28.6578 53.0277 30.0957 52.9764 31.5265 53.0627C31.8993 53.086 32.2489 53.5381 32.6078 53.7944C32.2512 54.0717 31.8993 54.5844 31.5358 54.5914C28.6672 54.6589 25.7939 54.6566 22.9252 54.5914C22.571 54.5844 22.2261 54.0764 21.8789 53.7991C22.2238 53.5404 22.557 53.0813 22.9182 53.0603C24.3491 52.9741 25.7869 53.0254 27.2224 53.0254V53.0277Z" fill="white"/>
<path d="M26.7155 49.5694C25.4362 49.5694 24.1522 49.6184 22.8775 49.5368C22.5326 49.5135 22.2157 49.0941 21.8848 48.854C22.2064 48.5604 22.5233 48.0221 22.8542 48.0128C25.3733 47.9429 27.897 47.9405 30.4184 48.0128C30.768 48.0221 31.1036 48.5464 31.4438 48.8331C31.0709 49.0777 30.7121 49.5042 30.3229 49.5345C29.1274 49.6277 27.9203 49.5671 26.7179 49.5671L26.7155 49.5694Z" fill="white"/>
<path d="M55.8255 20.8577C57.1584 19.3104 58.4448 17.812 59.7358 16.3183C59.9898 16.0246 60.2088 15.6588 60.5304 15.4793C60.838 15.3092 61.2598 15.3372 61.6303 15.2789C61.656 15.6844 61.868 16.2414 61.6793 16.4721C60.0317 18.4785 58.3376 20.4499 56.5875 22.3655C56.3708 22.6032 55.6064 22.6521 55.3175 22.4587C54.164 21.678 53.064 20.8088 52.027 19.8767C51.7591 19.6367 51.8033 19.0517 51.7031 18.6253C52.1459 18.6463 52.6889 18.5111 53.0104 18.7185C53.9799 19.3477 54.8607 20.1097 55.8255 20.8577Z" fill="white"/>
</g>
<defs>
<clipPath id="clip0_937_9632">
<rect width="69.945" height="65" fill="white" transform="translate(0 0.949707)"/>
</clipPath>
</defs>
</svg>
