<svg width="71" height="84" viewBox="0 0 71 84" fill="none" xmlns="http://www.w3.org/2000/svg">
<g clip-path="url(#clip0_937_9184)">
<path d="M17.8265 65.2112C16.026 63.5274 15.1101 61.6386 15.821 59.2387C16.4878 56.9815 18.4259 55.4456 20.792 55.3885C22.9299 55.3367 25.0703 55.3782 27.273 55.2562C22.424 51.8056 19.7724 47.2497 19.9929 41.2953C20.146 37.196 21.8324 33.7091 24.829 30.8785C31.0065 25.0409 40.6216 25.4482 46.5448 31.7399C51.8168 37.3387 52.8598 48.5832 43.0034 55.3704C45.3825 55.3704 47.4685 55.3392 49.557 55.3782C52.3487 55.43 54.5332 57.3188 54.9146 60.0534C55.2 62.1056 54.3309 63.7505 52.7223 65.1723C54.0585 66.3424 54.938 67.7486 54.9561 69.5336C54.9769 71.329 54.1934 72.7793 52.769 74.0169C53.0622 74.3412 53.3553 74.6318 53.6122 74.9535C55.0314 76.7255 55.4128 78.6818 54.4398 80.7651C53.5006 82.7759 51.8609 83.9174 49.6297 83.9252C40.0742 83.959 30.5161 83.959 20.9607 83.9252C18.6775 83.9174 17.0119 82.7655 16.0727 80.6873C15.1231 78.5832 15.5434 76.6425 16.9859 74.8938C17.2039 74.6318 17.4763 74.4139 17.7954 74.1025C16.467 72.8572 15.5512 71.4276 15.5849 69.5907C15.6186 67.8083 16.41 66.3606 17.8265 65.2112ZM35.2874 64.2124C39.9107 64.2124 44.5341 64.2176 49.1601 64.2124C51.464 64.2098 52.865 62.9463 52.9091 60.8499C52.9558 58.6394 51.617 57.2903 49.2353 57.2851C39.9445 57.2643 30.6536 57.2669 21.3628 57.2851C18.9396 57.2903 17.6086 58.572 17.619 60.7773C17.6294 62.9514 19.0174 64.215 21.4173 64.2176C26.0407 64.2227 30.664 64.2176 35.29 64.2176L35.2874 64.2124ZM35.2433 73.0492C39.9133 73.0492 44.5808 73.0544 49.2509 73.0492C51.5107 73.0466 52.852 71.8324 52.9091 69.762C52.9688 67.58 51.6845 66.166 49.4117 66.1556C39.986 66.1193 30.5602 66.1193 21.1371 66.1556C18.8332 66.1634 17.5801 67.5281 17.619 69.7334C17.6553 71.822 18.9759 73.044 21.2357 73.0492C25.9058 73.0569 30.5732 73.0492 35.2433 73.0492ZM35.2718 75.0988C30.5628 75.0988 25.8539 75.0936 21.1449 75.0988C18.9188 75.1014 17.6242 76.3545 17.619 78.482C17.6138 80.6069 18.8877 81.9145 21.1163 81.9197C30.5758 81.9404 40.0379 81.9404 49.4974 81.9171C51.6456 81.9119 52.9558 80.4875 52.9065 78.3808C52.8598 76.3571 51.5314 75.104 49.3962 75.1014C44.6872 75.0936 39.9782 75.1014 35.2692 75.1014L35.2718 75.0988ZM35.2822 51.0039C40.3207 50.9987 44.3655 46.9746 44.3473 41.9855C44.3291 37.0041 40.2792 32.9956 35.2459 32.9748C30.2515 32.9541 26.1989 37.0092 26.1989 42.0218C26.1989 47.0317 30.2256 51.0116 35.2822 51.0065V51.0039ZM22.1048 40.9373C23.4747 41.1275 24.3067 40.6234 24.6007 39.4247C25.5581 35.5122 28.0177 32.9515 31.7381 31.5582C32.5269 31.2625 33.3727 31.1198 34.1562 30.9148V28.8107C27.1096 29.1869 22.0529 35.6134 22.1074 40.9373H22.1048ZM36.3356 30.9148C36.7714 31.0342 37.1373 31.1483 37.5109 31.2365C41.9967 32.3132 44.8273 35.0815 45.974 39.5518C46.4125 41.2642 46.4047 41.2668 48.361 40.9243C48.4596 34.4459 41.9241 28.7458 36.3356 28.8963V30.9148ZM22.1567 43.057C21.5522 48.604 28.6274 55.6687 34.1821 55.072C34.2003 54.8774 34.2314 54.6699 34.2366 54.4623C34.2444 54.0368 34.2392 53.6087 34.2392 53.1106C28.5391 52.091 25.2001 48.7415 24.2219 43.057H22.1593H22.1567ZM46.3191 43.0622C45.1594 48.7674 43.3251 50.6095 36.3797 53.1677V55.1524C41.784 55.2277 48.3506 49.8441 48.3869 43.0596H46.3191V43.0622Z" fill="white"/>
<path d="M34.2396 4.29557C32.4209 6.12208 30.8772 7.67618 29.3283 9.22508C28.8042 9.75176 28.2464 10.4185 27.4966 9.61944C26.835 8.91374 27.4006 8.37669 27.9091 7.87076C30.0184 5.76405 32.1407 3.66511 34.2189 1.52985C34.9505 0.777455 35.5265 0.748916 36.2737 1.51688C38.383 3.68587 40.5364 5.81075 42.6795 7.9486C43.162 8.43117 43.6472 8.94747 43.0479 9.60647C42.3785 10.3407 41.8103 9.84516 41.3018 9.32108C39.7451 7.71509 38.191 6.10392 36.6369 4.49534C36.5176 4.54464 36.3956 4.59393 36.2763 4.64323C36.2763 5.08689 36.2763 5.53054 36.2763 5.97679C36.2763 10.7766 36.2789 15.5738 36.2711 20.3736C36.2711 20.7991 36.3204 21.2894 36.1362 21.6345C35.9649 21.9536 35.4979 22.3168 35.1814 22.2961C34.8623 22.2753 34.4653 21.8628 34.3019 21.5255C34.1462 21.2064 34.2422 20.7627 34.2422 20.3762C34.2422 15.1535 34.2422 9.93078 34.2422 4.30076L34.2396 4.29557Z" fill="white"/>
<path d="M3.73301 8.96827C7.4042 12.6187 11.0754 16.2691 14.7492 19.9196C14.9334 20.1012 15.2162 20.2568 15.2784 20.4748C15.4237 20.9833 15.4627 21.523 15.5457 22.0522C15.0216 21.9848 14.3237 22.1119 14.002 21.8187C12.4375 20.3969 10.9664 18.8714 9.47979 17.3666C7.1214 14.9771 4.77599 12.5772 2.4254 10.1799C2.30345 10.2318 2.18151 10.2863 2.05957 10.3382C2.05957 12.3385 2.09849 14.3388 2.04141 16.3366C2.01806 17.1876 2.49545 18.5445 1.00103 18.5108C-0.355887 18.4796 0.0618245 17.1902 0.0488521 16.3651C0.00474592 13.6435 0.0514466 10.9219 0.0229073 8.2003C0.0125294 7.13656 0.362784 6.60729 1.52252 6.62545C4.50357 6.67475 7.48463 6.6488 10.4657 6.6488C11.1792 6.6488 11.9886 6.62805 12.012 7.58281C12.0379 8.6232 11.1766 8.62061 10.4216 8.6232C8.23184 8.62839 6.04469 8.6232 3.85495 8.6232C3.81344 8.73736 3.77193 8.85411 3.73042 8.96827H3.73301Z" fill="white"/>
<path d="M66.652 8.62565C64.5038 8.62565 62.3556 8.63602 60.2047 8.61786C59.7818 8.61527 59.2941 8.60748 58.9594 8.39993C58.7077 8.24685 58.4431 7.61899 58.5495 7.4711C58.8115 7.11566 59.2811 6.69795 59.6781 6.68757C62.3556 6.62011 65.0357 6.65125 67.7132 6.65125C69.5172 6.65125 70.4183 7.5645 70.4166 9.39102C70.4166 11.8973 70.427 14.4036 70.4088 16.9098C70.4036 17.6129 70.5697 18.5417 69.4644 18.5469C68.3981 18.5547 68.463 17.6934 68.463 16.9461C68.463 14.7642 68.463 12.5848 68.463 10.4029C68.3125 10.3043 68.162 10.2057 68.0115 10.1097C67.5627 10.6701 67.1631 11.2798 66.6598 11.7857C63.4323 15.034 60.1814 18.2589 56.9357 21.4891C56.6918 21.733 56.4635 22.0858 56.1677 22.161C55.8071 22.2544 55.2441 22.2441 55.0288 22.0235C54.816 21.8056 54.8264 21.2426 54.925 20.8846C55.008 20.5888 55.3582 20.3631 55.6021 20.1218C59.3486 16.4247 63.095 12.7301 66.844 9.03298C66.7792 8.89807 66.7143 8.76056 66.6494 8.62565H66.652Z" fill="white"/>
<path d="M31.3288 44.6943C31.5311 44.4946 31.8554 43.9238 32.1927 43.9134C32.5482 43.903 33.0619 44.357 33.2565 44.7384C33.9518 46.0902 34.8832 46.5338 36.0222 45.7788C36.4139 45.5194 36.772 44.9149 36.7824 44.4582C36.7901 44.0742 36.3517 43.545 35.9703 43.3167C35.4306 42.9949 34.7639 42.8782 34.1438 42.6992C32.6961 42.2789 31.8373 41.3241 31.7465 39.8323C31.6609 38.452 32.2031 37.3338 33.4277 36.5528C33.7961 36.3168 33.9674 35.7953 34.2813 35.4502C34.5511 35.1544 34.8858 34.7367 35.2075 34.7211C35.524 34.7056 35.8847 35.1025 36.183 35.3672C36.5592 35.7019 36.9147 36.0703 37.239 36.4543C37.885 37.217 38.5881 37.9539 39.0811 38.81C39.2212 39.0565 38.7127 39.674 38.5025 40.1229C38.0822 39.8634 37.4751 39.7051 37.2753 39.3289C36.5904 38.0395 35.4696 37.6088 34.3436 38.3586C33.3888 38.9968 33.4407 40.2733 34.4914 40.7429C35.1556 41.0413 35.8873 41.1762 36.58 41.4123C37.8876 41.8586 38.6997 42.764 38.7931 44.1547C38.8865 45.5297 38.4013 46.6635 37.1923 47.473C36.7953 47.7402 36.5826 48.2747 36.2531 48.6587C35.9469 49.0167 35.5993 49.341 35.2698 49.6809C34.9325 49.3514 34.5848 49.0297 34.2631 48.6872C33.9544 48.3551 33.7364 47.8803 33.3654 47.6754C32.2783 47.0735 31.5078 46.2925 31.3262 44.6995L31.3288 44.6943Z" fill="white"/>
</g>
<defs>
<clipPath id="clip0_937_9184">
<rect width="70.4194" height="83" fill="white" transform="translate(0 0.951172)"/>
</clipPath>
</defs>
</svg>
