<svg width="71" height="65" viewBox="0 0 71 65" fill="none" xmlns="http://www.w3.org/2000/svg">
<g clip-path="url(#clip0_937_8626)">
<path d="M33.8147 6.29135C33.2267 7.29479 32.6183 8.28688 32.0553 9.30394C31.6398 10.0531 31.1108 10.5844 30.2504 10.0804C29.4445 9.60815 29.6397 8.91119 30.0484 8.21423C31.3855 5.93265 32.6887 3.63291 34.0213 1.34906C34.7636 0.0800062 35.6808 0.0550338 36.4096 1.29458C37.7467 3.57616 39.0476 5.87817 40.3779 8.16202C40.8002 8.88849 41.0385 9.62405 40.1509 10.1076C39.2632 10.5912 38.7706 9.96231 38.3688 9.24946C37.7989 8.23694 37.2064 7.23577 36.4436 5.9213C36.3937 6.5774 36.3483 6.88842 36.3483 7.19944C36.3437 10.2257 36.3732 13.2541 36.3278 16.2804C36.3165 17.0976 36.5617 17.554 37.2927 17.9717C43.0023 21.2249 48.6665 24.5599 54.3875 27.7904C55.5884 28.4692 56.0811 29.2229 56.0652 30.635C55.9903 37.2164 56.0448 43.8023 56.013 50.3837C56.0084 51.1579 56.2377 51.5938 56.9188 51.9752C59.8428 53.612 62.7328 55.3078 65.8249 56.8244C65.2414 55.8028 64.658 54.7812 64.0768 53.7596C63.6818 53.0626 63.3662 52.3248 64.2448 51.7867C65.1484 51.2328 65.6228 51.8775 66.0269 52.579C67.3459 54.8697 68.6786 57.1535 69.9862 59.451C70.7036 60.711 70.2473 61.4874 68.7762 61.4965C66.1268 61.5146 63.4798 61.4897 60.8304 61.5078C60.0131 61.5146 59.298 61.2717 59.2798 60.4C59.2617 59.4556 59.9949 59.1967 60.8622 59.2194C62.0518 59.249 63.2414 59.2263 64.5036 58.9675C64.0019 58.6746 63.5025 58.3795 63.0007 58.0889C60.5807 56.6904 58.147 55.3147 55.7474 53.8821C55.1185 53.5076 54.6554 53.4917 54.0084 53.8708C48.2692 57.2262 42.4938 60.5157 36.7637 63.887C35.6876 64.5204 34.8522 64.5568 33.7511 63.9097C27.8939 60.4613 21.9936 57.0809 16.0865 53.7164C15.7073 53.5007 15.0285 53.4167 14.6767 53.612C11.8026 55.2011 8.97158 56.872 6.12925 58.5225C6.01347 58.5906 5.92039 58.6973 5.57305 58.9947C7.07367 58.9947 8.29732 59.0083 9.52097 58.9902C10.3337 58.9765 11.0398 59.199 11.0352 60.1116C11.0284 61.0038 10.3133 61.2672 9.51643 61.2695C6.83075 61.274 4.1428 61.2944 1.45712 61.2604C0.092716 61.2422 -0.37041 60.4068 0.299307 59.2285C1.64101 56.8629 3.00769 54.511 4.37664 52.1613C4.74668 51.5279 5.23024 51.0466 6.03163 51.5075C6.80805 51.9547 6.71043 52.604 6.34719 53.2624C5.73423 54.3725 5.09857 55.4713 4.61955 56.7336C5.68202 56.1319 6.74675 55.5371 7.80241 54.9287C9.73437 53.8163 11.6391 52.6562 13.5983 51.5983C14.3089 51.2146 14.5019 50.7583 14.4973 49.9932C14.4701 43.4096 14.5041 36.8259 14.4587 30.2445C14.4519 29.1616 14.7879 28.535 15.7369 27.9947C21.5827 24.6734 27.3877 21.2817 33.2244 17.949C33.8714 17.5789 34.1053 17.1726 34.0962 16.4325C34.0576 13.0748 34.078 9.71485 34.078 6.35719C33.9895 6.33675 33.8987 6.31632 33.8101 6.29589L33.8147 6.29135ZM36.262 54.6518C36.2847 54.3089 36.321 54.0501 36.3165 53.7891C36.3051 52.9082 36.7001 52.4746 37.5742 52.1908C38.9953 51.7277 40.3756 51.1125 41.7219 50.4541C42.4393 50.1022 42.9864 50.0591 43.5494 50.6448C43.781 50.8854 44.0421 51.0966 44.2782 51.3077C44.8207 50.7856 45.3157 50.3043 45.806 49.8321C44.4212 48.277 44.4757 48.3042 45.411 46.463C45.9536 45.3983 46.369 44.2473 46.6755 43.0918C46.9003 42.2472 47.3316 41.8681 48.1466 41.8136C48.4735 41.7909 48.8027 41.7682 49.1365 41.7455V39.6887C48.6347 39.6524 48.1671 39.7341 47.8243 39.5638C47.4043 39.355 46.948 39.0008 46.7573 38.5922C46.0785 37.1347 45.4473 35.6454 44.9252 34.1243C44.7617 33.6476 44.9297 33.0074 45.0886 32.4875C45.1863 32.172 45.5563 31.9404 45.8582 31.6135C45.3588 31.0754 44.9002 30.5851 44.4439 30.0924C44.176 30.2809 44.0239 30.3421 43.9376 30.4557C43.1226 31.5363 42.3076 31.3933 41.2111 30.744C40.0964 30.0833 38.8069 29.6861 37.5537 29.3069C36.7365 29.0572 36.3256 28.6486 36.3142 27.8063C36.3097 27.4839 36.2643 27.1638 36.237 26.8324H34.162C34.1371 27.2478 34.2279 27.6769 34.069 27.972C33.8101 28.4488 33.4719 29.0095 33.0201 29.2297C31.6103 29.9153 30.1097 30.4125 28.6862 31.0754C27.962 31.4114 27.4058 31.4001 26.8519 30.8257C26.6271 30.5919 26.3638 30.3944 26.0528 30.1242C25.5397 30.6623 25.0834 31.1435 24.6089 31.6407C24.7996 31.8655 24.9018 32.0312 25.0448 32.147C25.9483 32.878 25.9234 33.5772 25.3195 34.5897C24.6362 35.7339 24.2003 37.0507 23.803 38.3356C23.5396 39.1847 23.1492 39.6546 22.2388 39.6365C21.9505 39.6297 21.6599 39.6909 21.3625 39.7205V41.7546C23.4193 41.918 23.383 41.9271 23.9505 43.8069C24.232 44.7377 24.5635 45.6866 25.0607 46.5153C26.2639 48.5244 25.9824 48.2928 24.7542 49.6777C24.7133 49.7254 24.7247 49.8184 24.6997 49.9501C25.122 50.4223 25.5647 50.9218 25.9937 51.4008C27.7169 50.0001 27.6987 50.0387 29.6216 51.0171C30.5546 51.4916 31.5513 51.932 32.5706 52.1295C33.7443 52.3565 34.2052 52.9173 34.1121 54.057C34.0985 54.234 34.1711 54.4179 34.2142 54.654H36.2552L36.262 54.6518ZM36.3937 61.3444C36.7251 61.1945 36.9317 61.1219 37.1201 61.0129C42.4529 57.939 47.7789 54.8493 53.1275 51.7981C53.6973 51.4734 53.77 51.0739 53.7677 50.5154C53.7564 44.4993 53.7609 38.4832 53.7586 32.4694C53.7586 32.1833 53.7269 31.8973 53.7042 31.5295C53.4703 31.6021 53.3228 31.6226 53.2047 31.6907C51.443 32.7055 49.6858 33.7271 47.9105 34.7555C48.0785 35.2186 48.2624 35.5932 48.3464 35.9882C48.5575 36.9962 49.0093 37.541 50.1762 37.448C50.5213 37.4207 51.2024 38.0564 51.241 38.4401C51.3885 39.8544 51.3431 41.2892 51.3454 42.7172C51.3454 43.7933 50.7415 44.1497 49.7244 44.1111C49.3884 44.0997 48.8504 44.2813 48.7324 44.5288C48.2057 45.648 47.797 46.824 47.3293 48.0204C47.4565 48.1634 47.604 48.3337 47.7584 48.4972C48.7936 49.5937 48.8391 49.8616 47.8606 50.9649C47.0842 51.8389 46.2237 52.6381 45.386 53.4531C44.5937 54.2227 43.8309 54.2386 43.0364 53.3918C42.8071 53.1466 42.2917 52.9014 42.0329 52.9968C40.8774 53.4167 39.7672 53.9593 38.6503 54.4542C38.5519 55.8285 37.7997 56.7169 36.3937 57.1195V61.3444ZM16.8493 31.4636C16.8016 31.7701 16.763 31.9086 16.763 32.0471C16.7585 38.2834 16.7448 44.5197 16.7948 50.7538C16.7971 51.1465 17.2193 51.6823 17.5939 51.9002C22.736 54.9128 27.9053 57.8823 33.07 60.8586C33.3493 61.0197 33.6512 61.1446 34.0099 61.3171V57.4986C33.1291 56.8107 31.9917 56.3294 31.9871 55.8391C31.9758 54.3816 31.1948 54.0047 30.062 53.7346C29.667 53.6415 29.2833 53.4326 28.9405 53.2079C28.3162 52.797 27.8213 52.7493 27.3105 53.4213C26.6771 54.2499 25.9029 54.2318 25.1765 53.5212C24.2071 52.5745 23.1946 51.6551 22.3523 50.6017C22.0708 50.2498 22.0163 49.2214 22.2683 49.0261C23.3921 48.1521 22.9812 47.3371 22.4613 46.4086C22.2252 45.9863 22.0572 45.5095 21.9482 45.0373C21.7757 44.2904 21.3988 43.9726 20.6042 44.0748C19.5281 44.2132 19.0854 43.573 19.0582 42.5968C19.0264 41.4254 19.0128 40.254 19.0491 39.0825C19.0923 37.7658 19.4555 37.3776 20.7541 37.373C21.4465 37.373 21.7847 37.1369 21.93 36.4808C22.0208 36.0813 22.257 35.7112 22.3341 35.3094C22.3795 35.0688 22.3319 34.651 22.1775 34.558C20.4499 33.5159 18.6904 32.5216 16.8493 31.4591V31.4636ZM52.2262 29.198C46.6165 25.9651 41.1975 22.8254 35.7466 19.7379C35.4311 19.5586 34.8022 19.6653 34.4458 19.865C31.4832 21.5269 28.5523 23.2431 25.6101 24.9435C23.2014 26.3352 20.7927 27.7268 18.2386 29.2025C19.5304 29.9789 20.686 30.6713 21.8551 31.3751C22.4159 30.7258 22.904 30.1015 23.4579 29.5408C24.0414 28.9505 24.6271 28.3262 25.3286 27.9085C25.7531 27.6565 26.6975 27.5271 26.8859 27.7632C27.794 28.8892 28.6454 28.5123 29.6125 27.9584C30.0302 27.7178 30.5115 27.543 30.9837 27.4499C31.6784 27.3137 31.9122 26.9459 31.8441 26.2671C31.7374 25.1819 32.2959 24.6348 33.347 24.5848C34.2528 24.5417 35.1609 24.5099 36.0667 24.5258C38.3642 24.5667 38.4959 24.7029 38.6185 26.9255C38.623 26.9958 38.6684 27.0662 38.6798 27.0935C39.6787 27.5112 40.6799 27.8608 41.6084 28.3443C42.2145 28.6599 42.6209 28.6781 43.0659 28.1241C43.7923 27.2183 44.571 27.3069 45.3928 28.0469C46.5348 29.0776 47.7085 30.072 48.9594 31.1617C49.7903 30.6623 50.9163 29.9857 52.224 29.2002L52.2262 29.198Z" fill="white"/>
<path d="M35.2817 32.2652C39.8858 32.2925 43.7156 36.1677 43.6907 40.7763C43.668 45.3985 39.8154 49.2533 35.2227 49.2488C30.5937 49.2442 26.7162 45.3145 26.7502 40.6605C26.7843 36.0724 30.68 32.238 35.2795 32.2629L35.2817 32.2652ZM41.4136 40.74C41.4091 37.3437 38.5736 34.5218 35.1887 34.5445C31.865 34.565 29.0522 37.3755 29.025 40.7014C28.9977 44.0568 31.856 46.9604 35.2068 46.9763C38.5645 46.9922 41.4182 44.1249 41.4136 40.74Z" fill="white"/>
<path d="M34.4912 41.0285C35.2994 40.1477 36.0849 39.2873 36.8749 38.4314C37.422 37.8388 38.0827 37.5256 38.7433 38.1476C39.4267 38.7901 39.0816 39.4416 38.514 40.0069C37.4697 41.0467 36.4254 42.0842 35.3902 43.1307C34.7046 43.8254 34.0235 43.8504 33.3288 43.1557C32.7681 42.595 32.1914 42.0479 31.6625 41.4599C31.1857 40.9309 31.1426 40.2566 31.7442 39.8957C32.1143 39.6732 32.7817 39.739 33.2244 39.9093C33.6467 40.0705 33.9554 40.5359 34.4889 41.0285H34.4912Z" fill="white"/>
</g>
<defs>
<clipPath id="clip0_937_8626">
<rect width="70.3203" height="64" fill="white" transform="translate(0 0.379883)"/>
</clipPath>
</defs>
</svg>
