<svg width="70" height="65" viewBox="0 0 70 65" fill="none" xmlns="http://www.w3.org/2000/svg">
<g clip-path="url(#clip0_937_7690)">
<path d="M40.2161 40.4775C41.1791 40.5243 42.1153 40.4775 43.0136 40.6313C46.7516 41.2822 48.9651 43.8389 50.1153 47.1446C51.29 50.5149 51.9631 54.0635 52.8168 57.543C53.2136 59.159 53.5123 60.7996 53.86 62.429C54.1699 63.8824 53.9425 64.19 52.5092 64.19C40.6998 64.19 28.8926 64.1922 17.0832 64.19C15.7057 64.19 15.5184 63.9537 15.8082 62.6096C16.7333 58.3053 17.5937 53.9832 18.6168 49.7013C19.2431 47.0777 20.4245 44.677 22.4128 42.7667C23.9197 41.3201 25.7252 40.56 27.8272 40.5332C28.3376 40.5266 28.8503 40.5332 29.3942 40.5332C29.5814 39.4967 29.5636 38.6988 28.8079 37.9097C27.0069 36.0261 26.4295 33.6099 26.113 31.1067C26.064 30.7188 25.9369 30.3131 25.7452 29.9743C23.534 26.0936 23.9575 22.1303 26.9957 18.818C29.2961 16.3081 32.1448 14.7723 35.5463 14.5628C38.7895 14.3622 41.48 15.8333 42.7862 19.3173C42.9378 19.723 43.1027 20.1688 43.3947 20.4653C44.9461 22.0456 45.2114 23.9626 44.9528 26.0356C44.9305 26.2184 44.8793 26.3989 44.8347 26.5795C44.1615 29.2187 43.5797 31.8868 42.775 34.4859C42.4117 35.6561 41.7475 36.813 40.9517 37.7447C40.2429 38.5762 39.9954 39.3496 40.2183 40.4798L40.2161 40.4775ZM26.9043 42.0891C26.0395 42.4413 25.4042 42.6285 24.8402 42.9428C22.8519 44.0484 21.6126 45.854 20.9484 47.9203C20.0456 50.7288 19.4059 53.6266 18.7149 56.4998C18.2356 58.4948 17.8634 60.5143 17.4354 62.5539H24.0891C24.0891 62.0122 24.0891 61.5374 24.0891 61.0626C24.0891 57.5697 24.0645 54.0791 24.127 50.5884C24.1336 50.2162 24.6374 49.8528 24.9093 49.485C25.159 49.835 25.4555 50.1627 25.6405 50.5461C25.743 50.7556 25.6605 51.0565 25.6605 51.3173C25.6605 54.6609 25.6605 58.0044 25.6605 61.348C25.6605 61.7425 25.6605 62.137 25.6605 62.5338H34.0595C34.0595 60.7796 34.0907 59.1122 34.0328 57.4494C34.0216 57.1016 33.7385 56.7027 33.4711 56.4374C32.2852 55.2605 31.1038 54.0702 29.8333 52.9891C29.0085 52.2892 28.7812 51.567 29.0888 50.5527C29.3563 49.6723 29.8979 48.56 29.5836 47.9024C29.2515 47.2092 28.0701 46.8838 27.2209 46.487C26.5633 46.1794 26.3671 45.7559 26.4897 45.0716C26.6435 44.2045 26.7372 43.3262 26.9066 42.0958L26.9043 42.0891ZM52.2284 62.5539C51.4616 58.9584 50.7104 55.4923 49.9837 52.0195C49.48 49.6076 48.7199 47.3006 47.2888 45.261C46.3972 43.9905 45.2894 42.9696 43.7893 42.4591C43.5062 42.3633 43.1896 42.3655 42.8107 42.3098C42.9601 43.2371 43.0648 44.0061 43.2119 44.764C43.3836 45.6444 43.183 46.2507 42.249 46.5851C41.4621 46.8659 40.7288 47.2961 39.9509 47.6706C40.2273 48.8409 40.5616 49.9063 40.6998 50.9963C40.7622 51.4956 40.5951 52.1956 40.2607 52.5455C38.9812 53.8852 37.5859 55.1134 36.2484 56.3995C36.0188 56.6202 35.709 56.9144 35.7023 57.1797C35.6533 58.9785 35.6778 60.7773 35.6778 62.5539H43.9364C43.9364 62.0947 43.9364 61.6957 43.9364 61.2989C43.9364 57.7726 43.9096 54.2463 43.972 50.7222C43.9787 50.3031 44.4379 49.5853 44.7633 49.5408C45.4967 49.4405 45.5413 50.1359 45.5413 50.7177C45.5413 53.9832 45.5413 57.2488 45.5413 60.5143C45.5413 61.1719 45.5413 61.8317 45.5413 62.5516H52.2306L52.2284 62.5539ZM29.4387 23.7063C29.0375 25.5408 28.8547 27.2192 28.2886 28.7573C27.3368 31.3407 27.9341 33.6411 29.2448 35.8211C31.3981 39.4076 35.8026 40.1655 38.9812 37.4616C41.6583 35.1836 42.1576 32.0674 41.821 28.7662C41.6605 27.1969 41.4733 25.6032 40.3744 24.1565C36.6407 26.4837 32.9829 25.0459 29.4365 23.7085L29.4387 23.7063ZM26.6569 28.0685C26.7684 28.0796 26.8798 28.0886 26.9913 28.0997C27.1986 26.8559 27.4794 25.6188 27.5931 24.3683C27.7558 22.5918 28.6809 21.8673 30.4151 22.3622C31.3022 22.6163 32.1626 22.9662 33.0342 23.2761C35.2431 24.0652 37.3919 23.976 39.4805 22.8637C40.7266 22.1994 41.1657 22.2752 41.899 23.5146C42.4162 24.3906 42.7617 25.3691 43.2275 26.3967C43.6956 24.6425 43.5218 23.12 42.3983 21.7224C41.9503 21.1652 41.5446 20.5344 41.2861 19.8723C40.4212 17.6589 38.9188 16.3683 36.4914 16.19C32.2183 15.8779 27.2275 19.3485 26.1888 23.5034C25.8032 25.0459 25.8589 26.6263 26.6591 28.0707L26.6569 28.0685ZM33.792 54.5004C33.8834 54.4669 33.9726 54.4335 34.064 54.4001C34.064 53.7091 33.9882 53.0091 34.0774 52.3293C34.4139 49.7302 33.7296 47.4678 32.0579 45.4505C31.4493 44.7149 30.9567 43.8701 30.4931 43.032C30.0562 42.2407 29.5234 41.864 28.5449 42.2652C28.4022 43.168 28.2551 44.1064 28.1013 45.0894C28.9684 45.5062 29.7753 45.952 30.6246 46.2908C31.4047 46.6007 31.5942 47.1111 31.4092 47.8668C31.164 48.8698 30.9233 49.8751 30.7227 50.8893C30.6736 51.1345 30.7004 51.5023 30.8519 51.6583C31.806 52.6302 32.8068 53.5597 33.792 54.5026V54.5004ZM35.6689 54.4224C38.3839 52.9088 39.8149 50.9718 38.3526 47.9002C37.9893 47.1356 38.3326 46.6319 39.135 46.2529C41.6338 45.0738 41.6182 45.0404 41.2013 42.3432C41.1924 42.2808 41.1166 42.2295 41.0698 42.1738C40.2183 42.1084 39.5697 42.4235 39.1239 43.1189C38.1231 44.677 37.1133 46.2307 36.1258 47.7977C35.9341 48.103 35.6979 48.4552 35.6912 48.7896C35.6488 50.6664 35.6711 52.5455 35.6711 54.4224H35.6689ZM34.8152 46.9038C36.0523 44.9824 37.2002 43.2638 38.2679 41.494C38.5243 41.0704 38.5087 40.482 38.6692 39.7219C36.0545 40.9612 33.6605 40.9501 31.0035 39.7486C31.5719 42.7043 33.6115 44.492 34.8152 46.9038Z" fill="white"/>
<path d="M21.9561 9.48053C21.9561 12.1175 21.9628 14.7544 21.9561 17.3914C21.9516 18.7176 21.78 18.887 20.4938 18.8982C19.5666 18.9071 18.6371 18.8893 17.7075 18.9027C16.8984 18.9138 16.4704 18.6062 16.4727 17.7257C16.4883 12.2668 16.486 6.80792 16.4727 1.34901C16.4727 0.548792 16.8026 0.189917 17.605 0.20775C18.6437 0.23004 19.6869 0.247872 20.7234 0.201063C21.6529 0.158711 21.9739 0.573311 21.965 1.46047C21.9383 4.13308 21.9561 6.80792 21.9561 9.48276V9.48053ZM20.2865 17.2443V1.84386H18.1221V17.242H20.2865V17.2443Z" fill="white"/>
<path d="M53.1693 9.67667C53.1693 12.2757 53.1403 14.877 53.1826 17.4761C53.2005 18.5393 52.7769 18.9628 51.7271 18.9071C50.7641 18.8558 49.7967 18.8937 48.8316 18.8959C48.0625 18.8959 47.6814 18.5594 47.6836 17.748C47.697 12.2891 47.6992 6.82796 47.6836 1.36906C47.6814 0.495278 48.0692 0.174297 48.9051 0.201046C49.8703 0.232252 50.8399 0.254543 51.8006 0.194359C52.8104 0.131946 53.2005 0.524256 53.1849 1.54292C53.1447 4.25343 53.1715 6.96616 53.1715 9.67667H53.1693ZM49.3398 1.8327V17.2353H51.4886V1.83493H49.3398V1.8327Z" fill="white"/>
<path d="M14.4624 11.4557C14.4624 13.4573 14.4379 15.4612 14.4736 17.4629C14.4914 18.5105 14.0545 18.9541 13.0069 18.9073C12.0083 18.8627 11.0052 18.9006 10.0044 18.8939C9.28662 18.8873 8.92552 18.5462 8.92775 17.795C8.93889 13.5309 8.94112 9.26452 8.92775 5.00038C8.92552 4.23136 9.27325 3.93713 10.0088 3.95051C11.0832 3.97057 12.1621 3.9884 13.2342 3.94605C14.1704 3.90815 14.478 4.36065 14.4714 5.22774C14.4513 7.3052 14.4647 9.38043 14.4647 11.4579L14.4624 11.4557ZM10.5505 17.2578C10.9004 17.2824 11.1167 17.3069 11.3351 17.3113C12.3159 17.3306 12.807 16.8633 12.8085 15.9093C12.8085 13.2077 12.8085 10.5061 12.8085 7.8045C12.8085 7.07784 12.8085 6.35117 12.8085 5.59776H10.5505V17.2578Z" fill="white"/>
<path d="M60.6699 11.4844C60.6699 13.5262 60.6387 15.568 60.6833 17.6076C60.7056 18.5906 60.2865 18.9405 59.3526 18.9049C58.3517 18.867 57.3487 18.8937 56.3456 18.896C55.6212 18.896 55.2556 18.5728 55.2578 17.8171C55.2667 13.5106 55.2667 9.20636 55.2601 4.89986C55.2601 4.25344 55.5365 3.94361 56.1962 3.95252C57.3464 3.9659 58.4988 3.97704 59.6468 3.94807C60.4292 3.92801 60.6855 4.28465 60.6766 5.02692C60.6521 7.18017 60.6677 9.33118 60.6677 11.4844H60.6699ZM59.0204 17.2532V5.61984H56.9251V17.2532H59.0204Z" fill="white"/>
<path d="M6.89227 12.8642C6.89227 14.42 6.86552 15.9781 6.90341 17.5318C6.92793 18.5371 6.49104 18.945 5.50135 18.9049C4.54064 18.8647 3.57547 18.8826 2.61253 18.9004C1.79893 18.9138 1.36204 18.5839 1.36427 17.7257C1.37318 14.4646 1.37318 11.2035 1.36427 7.94469C1.36204 7.13556 1.75212 6.82126 2.53228 6.83909C3.60667 6.86361 4.68107 6.86361 5.75546 6.83909C6.55791 6.82126 6.90342 7.18905 6.89673 7.9759C6.88558 9.60532 6.89227 11.237 6.8945 12.8664L6.89227 12.8642ZM2.96026 8.50418C2.96026 11.0698 3.00261 13.5775 2.93796 16.0807C2.91345 17.0347 3.15195 17.3646 4.15948 17.3512C5.1135 17.3378 5.3587 17.0191 5.31411 16.1275C5.24947 14.799 5.29628 13.466 5.29628 12.1353C5.29628 10.9271 5.29628 9.719 5.29628 8.50418H2.95803H2.96026Z" fill="white"/>
<path d="M68.2416 12.804C68.2416 14.4 68.2082 15.9982 68.255 17.5919C68.284 18.5683 67.8627 18.9361 66.9287 18.9026C65.9636 18.8692 64.9984 18.8781 64.0332 18.9004C63.2107 18.9204 62.7983 18.6039 62.8028 17.7279C62.8229 14.4602 62.8206 11.1946 62.8028 7.92686C62.7983 7.19128 63.0614 6.81903 63.8393 6.83686C64.9159 6.86138 65.9925 6.86807 67.0692 6.8324C67.9207 6.80565 68.2773 7.14224 68.2528 8.01379C68.2104 9.60978 68.2416 11.2058 68.2416 12.804ZM66.5765 17.2554V8.52201H64.4679V17.3111C64.9204 17.3111 65.2837 17.3178 65.647 17.3111C65.9368 17.3044 66.2244 17.2777 66.5765 17.2576V17.2554Z" fill="white"/>
<path d="M60.3911 53.903C60.7255 53.903 61.0598 53.8919 61.392 53.903C62.4619 53.9409 63.3647 53.9766 64.02 52.7127C64.6776 51.4444 66.3627 51.1635 67.6689 51.6985C68.9305 52.2156 69.8066 53.5709 69.7063 54.8593C69.5926 56.326 68.5628 57.5408 67.1518 57.8707C65.8745 58.1694 64.3343 57.5965 63.7436 56.3527C63.3513 55.5258 62.8319 55.4567 62.0896 55.4745C60.7545 55.5102 59.4148 55.5414 58.0863 55.4477C57.6918 55.4188 57.3262 54.9663 56.9473 54.7077C57.3173 54.4402 57.6583 54.0033 58.0618 53.9387C58.8197 53.8139 59.6132 53.903 60.3934 53.903H60.3911ZM66.4764 56.3594C67.3368 56.355 68.0768 55.5815 68.0746 54.6899C68.0724 53.7849 67.3435 53.0493 66.4563 53.0538C65.5736 53.0582 64.8581 53.8005 64.867 54.7055C64.8737 55.5904 65.6249 56.3616 66.4764 56.3572V56.3594Z" fill="white"/>
<path d="M52.6475 31.1958C51.9431 31.1958 51.2365 31.1824 50.5321 31.2002C49.9281 31.2158 49.3196 31.1445 49.3508 30.3933C49.382 29.6622 50.0016 29.6221 50.5968 29.6265C51.932 29.6399 53.2694 29.602 54.6024 29.6421C55.2889 29.6622 55.7057 29.5262 56.0624 28.8263C56.7534 27.4755 58.2736 26.9249 59.6489 27.3351C61.1802 27.792 62.0719 28.9846 62.0384 30.536C62.0072 31.9893 61.0131 33.2175 59.5709 33.5875C58.2023 33.9375 56.6843 33.3089 56.0133 31.9536C55.6879 31.2983 55.3045 31.1333 54.6469 31.1846C53.9827 31.2359 53.3118 31.1958 52.6453 31.1958H52.6475ZM60.4402 30.4535C60.458 29.5463 59.7581 28.7906 58.8732 28.7661C57.9883 28.7416 57.2661 29.4616 57.2527 30.3822C57.2393 31.325 57.9058 32.0495 58.7996 32.0695C59.6779 32.0896 60.4224 31.3563 60.4402 30.4535Z" fill="white"/>
<path d="M57.8059 45.8518C58.2495 45.8518 58.6976 45.8228 59.1389 45.8563C60.1063 45.9321 60.8129 45.8006 61.3479 44.7485C61.9787 43.5069 63.6572 43.0923 64.9567 43.5515C66.303 44.0262 67.1545 45.2701 67.1233 46.7145C67.0921 48.0987 66.1715 49.3202 64.8787 49.6969C63.4499 50.1115 61.9319 49.63 61.2253 48.3305C60.8218 47.586 60.3738 47.3965 59.5936 47.4322C58.2629 47.4946 56.921 47.5169 55.597 47.4099C55.1824 47.3765 54.8057 46.8705 54.4111 46.5807C54.8012 46.3378 55.169 45.9521 55.5858 45.8853C56.308 45.7694 57.0637 45.8541 57.8037 45.8518H57.8059ZM65.534 46.6253C65.5496 45.7181 64.8542 44.9937 63.9514 44.9803C63.0353 44.9647 62.322 45.6512 62.3019 46.5629C62.2841 47.459 62.9974 48.2057 63.889 48.2213C64.7917 48.2369 65.5184 47.5325 65.534 46.6275V46.6253Z" fill="white"/>
<path d="M11.7383 47.4476C11.2925 47.4476 10.8422 47.4855 10.4031 47.4409C9.45356 47.3429 8.79822 47.5234 8.27663 48.5131C7.63021 49.7413 5.99856 50.1292 4.64553 49.6678C3.40842 49.2465 2.46777 47.9001 2.4856 46.5783C2.50343 45.2097 3.5065 43.879 4.81048 43.4933C6.17019 43.0921 7.79962 43.6427 8.45272 44.9533C8.85395 45.7558 9.33765 45.8851 10.1044 45.8606C11.4775 45.816 12.8551 45.7981 14.2237 45.8873C14.5647 45.9096 14.8768 46.3755 15.2045 46.6385C14.8679 46.906 14.5558 47.354 14.1858 47.4075C13.3856 47.5257 12.5564 47.4432 11.7405 47.4454L11.7383 47.4476ZM5.70655 48.2211C6.6004 48.23 7.35158 47.5056 7.36496 46.6207C7.3761 45.738 6.64275 44.9912 5.75113 44.9801C4.84838 44.9667 4.10165 45.6845 4.09051 46.5716C4.07936 47.4432 4.83054 48.2122 5.70655 48.2211Z" fill="white"/>
<path d="M14.3483 39.2939C14.0139 39.2939 13.6796 39.314 13.3474 39.2939C12.2574 39.2226 11.3614 39.2538 10.7417 40.5043C10.1488 41.6968 8.38561 42.0222 7.07717 41.514C5.79102 41.0147 4.98188 39.7575 5.05098 38.3711C5.12454 36.92 6.04067 35.7921 7.46502 35.402C8.81359 35.032 10.3249 35.5647 10.9824 36.842C11.3569 37.5686 11.7893 37.747 12.5294 37.7202C13.898 37.6712 15.2756 37.6489 16.6397 37.7447C17.0432 37.7737 17.4177 38.2329 17.8055 38.4937C17.431 38.7612 17.0811 39.1936 16.6732 39.2605C15.9153 39.3853 15.1217 39.2961 14.3438 39.2984L14.3483 39.2939ZM9.84563 38.5405C9.85677 37.5998 9.20367 36.9022 8.29199 36.8865C7.37363 36.8687 6.69155 37.5463 6.6804 38.4848C6.67148 39.4499 7.29116 40.0986 8.23627 40.112C9.2059 40.1253 9.83225 39.5146 9.84563 38.5427V38.5405Z" fill="white"/>
<path d="M55.3717 37.7044C55.7797 37.7044 56.1898 37.6888 56.5977 37.7067C57.5361 37.7513 58.2962 37.7379 58.8357 36.6323C59.442 35.3863 61.1093 34.9984 62.4467 35.4598C63.7351 35.9056 64.7069 37.3099 64.6445 38.6362C64.5821 39.9625 63.5724 41.2531 62.3196 41.6075C60.8819 42.0154 59.3506 41.5161 58.6729 40.1787C58.2673 39.3762 57.7702 39.2603 57.0123 39.2826C55.6771 39.3227 54.3397 39.2937 53.0023 39.2915C52.445 39.2915 51.8187 39.1957 51.9636 38.5069C52.0327 38.1792 52.6345 37.8048 53.0402 37.7401C53.8003 37.6175 54.5938 37.7044 55.374 37.7044H55.3717ZM61.3901 40.1096C62.2996 40.1073 63.0352 39.3896 63.0329 38.5091C63.0307 37.651 62.2439 36.8819 61.3768 36.8842C60.4629 36.8864 59.7629 37.5975 59.7629 38.518C59.7629 39.4319 60.4606 40.114 61.3901 40.1118V40.1096Z" fill="white"/>
<path d="M16.8693 31.1958C16.4971 31.1958 16.1248 31.2158 15.7548 31.1913C14.7428 31.1289 13.927 31.1512 13.3608 32.337C12.7791 33.5541 11.134 33.9308 9.84565 33.4939C8.40347 33.0035 7.52077 31.753 7.58318 30.2863C7.6456 28.8218 8.60185 27.685 10.1109 27.2816C11.3792 26.9428 12.9217 27.5045 13.5236 28.7461C13.9092 29.5418 14.3929 29.6711 15.1552 29.6421C16.4904 29.5931 17.8323 29.5708 19.163 29.6644C19.5553 29.6912 20.175 30.0924 20.2419 30.4156C20.3845 31.0977 19.7782 31.2047 19.2076 31.1958C18.4274 31.1846 17.6473 31.1935 16.8693 31.1935V31.1958ZM10.7729 32.0695C11.6445 32.0985 12.418 31.3763 12.4559 30.4958C12.496 29.5753 11.718 28.7594 10.8041 28.7639C9.94596 28.7683 9.17694 29.5396 9.17025 30.4022C9.16357 31.2671 9.90807 32.0428 10.7729 32.0695Z" fill="white"/>
<path d="M9.23965 55.4859C8.83174 55.4859 8.41937 55.5238 8.01814 55.4792C6.99948 55.3633 6.27504 55.5438 5.72447 56.616C5.10926 57.813 3.48875 58.2031 2.20928 57.764C0.76264 57.2669 -0.0375829 56.1033 0.000310615 54.5452C0.0359751 53.1409 1.0056 51.9328 2.38983 51.5695C3.70942 51.224 5.22516 51.7233 5.84484 52.9426C6.28173 53.8007 6.83007 53.9612 7.67933 53.9211C8.97217 53.8609 10.2762 53.8453 11.5645 53.9434C11.9568 53.9724 12.3157 54.4338 12.6924 54.6968C12.3179 54.9598 11.9702 55.3878 11.5645 55.4524C10.8067 55.575 10.0154 55.4881 9.23742 55.4881L9.23965 55.4859ZM4.85515 54.7035C4.8596 53.8765 4.0683 53.0741 3.22572 53.054C2.3564 53.0339 1.5963 53.7606 1.56955 54.6411C1.5428 55.5617 2.32519 56.3797 3.21903 56.3619C4.04155 56.3463 4.85292 55.526 4.85737 54.7035H4.85515Z" fill="white"/>
<path d="M37.8492 10.1158C37.5349 6.37326 39.0818 4.79511 42.8489 5.09826C43.3281 5.13615 43.8408 5.0091 44.2844 5.13615C44.6366 5.23869 44.9085 5.61539 45.2161 5.8695C44.9152 6.13476 44.6388 6.58056 44.3067 6.62737C43.5064 6.74105 42.6817 6.66527 41.8659 6.6675C40.047 6.67418 39.4385 7.29385 39.4318 9.14841C39.4273 9.96424 39.4318 10.7801 39.4318 11.5959C39.4318 12.2379 39.4764 12.9913 38.5959 13.0046C37.7154 13.018 37.8692 12.2468 37.8514 11.6739C37.8358 11.1545 37.8492 10.6352 37.8492 10.118V10.1158Z" fill="white"/>
<path d="M31.8816 10.2276C31.8816 10.7826 31.9841 11.3644 31.8504 11.886C31.7434 12.3073 31.3511 12.655 31.0858 13.034C30.8206 12.6662 30.3703 12.3207 30.3235 11.9284C30.2098 10.9788 30.299 10.0069 30.2834 9.044C30.2566 7.37668 29.5545 6.67899 27.9162 6.66785C27.0647 6.66116 26.2043 6.73472 25.3661 6.62549C25.0541 6.58537 24.7977 6.13065 24.5146 5.86317C24.8067 5.60906 25.0808 5.16325 25.3907 5.13873C26.494 5.0518 27.613 5.05848 28.7208 5.1209C30.426 5.21897 31.7679 6.70797 31.8749 8.55807C31.9061 9.11087 31.8794 9.66812 31.8794 10.2254C31.8794 10.2254 31.8816 10.2254 31.8838 10.2254L31.8816 10.2276Z" fill="white"/>
</g>
<defs>
<clipPath id="clip0_937_7690">
<rect width="69.7152" height="64" fill="white" transform="translate(0 0.189941)"/>
</clipPath>
</defs>
</svg>
