<svg width="640" height="325" viewBox="0 0 640 325" fill="none" xmlns="http://www.w3.org/2000/svg">
<g clip-path="url(#clip0_1221_3012)">
<mask id="mask0_1221_3012" style="mask-type:alpha" maskUnits="userSpaceOnUse" x="0" y="0" width="640" height="325">
<g clip-path="url(#clip1_1221_3012)">
<g clip-path="url(#clip2_1221_3012)">
<mask id="mask1_1221_3012" style="mask-type:luminance" maskUnits="userSpaceOnUse" x="-360" y="-187" width="1000" height="512">
<path d="M640 -186.84H-360V324.16H640V-186.84Z" fill="white"/>
</mask>
<g mask="url(#mask1_1221_3012)">
<path fill-rule="evenodd" clip-rule="evenodd" d="M640 -151.84C640 -171.17 624.33 -186.84 605 -186.84H-325C-344.33 -186.84 -360 -171.17 -360 -151.84V289.16C-360 308.49 -344.33 324.16 -325 324.16H544C561.673 324.16 576 309.833 576 292.16C576 274.487 590.327 260.16 608 260.16C625.673 260.16 640 245.833 640 228.16V-151.84Z" fill="white"/>
<mask id="mask2_1221_3012" style="mask-type:luminance" maskUnits="userSpaceOnUse" x="-360" y="-187" width="1000" height="512">
<path fill-rule="evenodd" clip-rule="evenodd" d="M640 -151.84C640 -171.17 624.33 -186.84 605 -186.84H-325C-344.33 -186.84 -360 -171.17 -360 -151.84V289.16C-360 308.49 -344.33 324.16 -325 324.16H544C561.673 324.16 576 309.833 576 292.16C576 274.487 590.327 260.16 608 260.16C625.673 260.16 640 245.833 640 228.16V-151.84Z" fill="white"/>
</mask>
<g mask="url(#mask2_1221_3012)">
<path d="M-325 -185.84H605V-187.84H-325V-185.84ZM-359 289.16V-151.84H-361V289.16H-359ZM544 323.16H-325V325.16H544V323.16ZM639 -151.84V228.16H641V-151.84H639ZM608 261.16C626.225 261.16 641 246.385 641 228.16H639C639 245.281 625.121 259.16 608 259.16V261.16ZM577 292.16C577 275.039 590.879 261.16 608 261.16V259.16C589.775 259.16 575 273.935 575 292.16H577ZM544 325.16C562.225 325.16 577 310.385 577 292.16H575C575 309.281 561.121 323.16 544 323.16V325.16ZM-361 289.16C-361 309.042 -344.882 325.16 -325 325.16V323.16C-343.778 323.16 -359 307.938 -359 289.16H-361ZM605 -185.84C623.778 -185.84 639 -170.618 639 -151.84H641C641 -171.722 624.882 -187.84 605 -187.84V-185.84ZM-325 -187.84C-344.882 -187.84 -361 -171.722 -361 -151.84H-359C-359 -170.618 -343.778 -185.84 -325 -185.84V-187.84Z" fill="white" fill-opacity="0.3"/>
</g>
</g>
</g>
</g>
</mask>
<g mask="url(#mask0_1221_3012)">
<path d="M0 25C0 11.1929 11.1929 0 25 0H615C628.807 0 640 11.1929 640 25V324.15H25C11.1929 324.15 0 312.957 0 299.15V25Z" fill="white"/>
</g>
<rect x="585" y="269.15" width="55" height="55" rx="27.5" fill="#00BDE0"/>
<g clip-path="url(#clip3_1221_3012)">
<path d="M603.319 308.297C599.284 308.297 596.001 305.015 596.001 300.979C596.001 297.086 599.056 293.893 602.894 293.673C602.961 292.955 602.911 291.002 601.039 288.285C600.898 288.08 600.924 287.804 601.099 287.628C601.865 286.862 602.339 286.38 602.67 286.042C603.103 285.601 603.301 285.4 603.591 285.137C603.689 285.048 603.813 285.003 603.937 285.003C604.058 285.003 604.178 285.045 604.276 285.129C607.537 287.967 611.16 293.831 610.636 301.016C610.329 305.235 607.252 308.297 603.319 308.297ZM603.942 286.223C603.802 286.361 603.642 286.525 603.406 286.765C603.119 287.057 602.725 287.458 602.128 288.057C604.399 291.558 603.97 294.05 603.782 294.408C603.693 294.578 603.51 294.692 603.319 294.692C599.853 294.692 597.032 297.512 597.032 300.979C597.032 304.446 599.853 307.266 603.319 307.266C606.696 307.266 609.34 304.606 609.608 300.942C610.197 292.86 605.394 287.613 603.942 286.223Z" fill="white"/>
<path d="M628.948 301.016C628.64 305.235 625.563 308.297 621.631 308.297C617.596 308.297 614.312 305.015 614.312 300.979C614.312 297.086 617.368 293.893 621.207 293.673C621.273 292.956 621.223 291.004 619.351 288.285C619.209 288.08 619.235 287.804 619.411 287.628C620.174 286.865 620.646 286.384 620.977 286.047C621.413 285.603 621.612 285.4 621.903 285.136C622.001 285.048 622.125 285.003 622.249 285.003C622.37 285.003 622.491 285.045 622.588 285.13C625.849 287.968 629.472 293.831 628.948 301.016ZM622.254 286.223C622.113 286.362 621.951 286.527 621.713 286.769C621.426 287.061 621.034 287.461 620.439 288.057C622.71 291.558 622.282 294.05 622.095 294.408C622.006 294.577 621.822 294.692 621.631 294.692C618.164 294.692 615.344 297.512 615.344 300.979C615.344 304.446 618.164 307.266 621.631 307.266C625.007 307.266 627.652 304.606 627.92 300.941C628.509 292.861 623.706 287.613 622.254 286.223Z" fill="white"/>
</g>
</g>
<defs>
<clipPath id="clip0_1221_3012">
<rect width="640" height="324.16" rx="30" fill="white"/>
</clipPath>
<clipPath id="clip1_1221_3012">
<rect width="640" height="324.15" fill="white"/>
</clipPath>
<clipPath id="clip2_1221_3012">
<rect width="1000" height="511" fill="white" transform="translate(-360 -186.84)"/>
</clipPath>
<clipPath id="clip3_1221_3012">
<rect width="33" height="23.365" fill="white" transform="translate(596 284.968)"/>
</clipPath>
</defs>
</svg>
