<svg width="70" height="71" viewBox="0 0 70 71" fill="none" xmlns="http://www.w3.org/2000/svg">
<path d="M18.3343 70.4998C17.4906 70.4998 16.8066 69.8158 16.8066 68.9721V64.6665C16.8066 64.2612 16.9675 63.8728 17.2541 63.5862L20.9732 59.8671V53.9526C20.9732 53.1089 21.6573 52.4248 22.501 52.4248C23.3448 52.4248 24.0288 53.1089 24.0288 53.9526V60.4999C24.0288 60.905 23.8678 61.2936 23.5813 61.5801L19.8621 65.2993V68.9721C19.8621 69.8158 19.1781 70.4998 18.3343 70.4998Z" fill="#031B4E"/>
<path d="M47.5004 18.5297C46.6567 18.5297 45.9727 17.8457 45.9727 17.0019V10.5C45.9727 10.0949 46.1336 9.70625 46.4202 9.41972L50.1393 5.70056V2.02778C50.1393 1.18403 50.8234 0.5 51.6671 0.5C52.5109 0.5 53.1949 1.18403 53.1949 2.02778V6.33333C53.1949 6.73847 53.0339 7.12708 52.7474 7.41361L49.0282 11.1328V17.0019C49.0282 17.8457 48.3442 18.5297 47.5004 18.5297Z" fill="#031B4E"/>
<path d="M35.0004 21.4727C27.2656 21.4727 20.9727 27.7654 20.9727 35.5004C20.9727 43.2354 27.2656 49.5282 35.0004 49.5282C42.7353 49.5282 49.0282 43.2354 49.0282 35.5004C49.0282 27.7654 42.7354 21.4727 35.0004 21.4727ZM36.5282 46.3639V39.6671H33.4727V46.3639C28.6431 45.6878 24.8129 41.8577 24.137 37.0282H30.8338V33.9727H24.137C24.8131 29.1431 28.6432 25.3129 33.4727 24.637V31.3338H36.5282V24.637C41.3578 25.3131 45.1879 29.1432 45.8639 33.9727H39.1671V37.0282H45.8639C45.1879 41.8578 41.3578 45.6879 36.5282 46.3639Z" fill="#031B4E"/>
<path d="M35.0004 70.5C34.1567 70.5 33.4727 69.8159 33.4727 68.9722V56.9887C33.4727 56.145 34.1567 55.4609 35.0004 55.4609C35.8442 55.4609 36.5282 56.145 36.5282 56.9887V68.9722C36.5282 69.8159 35.8442 70.5 35.0004 70.5Z" fill="#031B4E"/>
<path d="M35.0004 15.6892C34.1567 15.6892 33.4727 15.0051 33.4727 14.1614V2.02778C33.4727 1.18403 34.1567 0.5 35.0004 0.5C35.8442 0.5 36.5282 1.18403 36.5282 2.02778V14.1614C36.5282 15.0051 35.8442 15.6892 35.0004 15.6892Z" fill="#031B4E"/>
<path d="M22.501 18.5297C21.6573 18.5297 20.9732 17.8457 20.9732 17.0019V11.1328L17.2541 7.41361C16.9675 7.12708 16.8066 6.73847 16.8066 6.33333V2.02778C16.8066 1.18403 17.4906 0.5 18.3343 0.5C19.1781 0.5 19.8621 1.18403 19.8621 2.02778V5.70056L23.5813 9.41972C23.8678 9.70625 24.0288 10.0949 24.0288 10.5V17.0019C24.0288 17.8457 23.3448 18.5297 22.501 18.5297Z" fill="#031B4E"/>
<path d="M51.6671 70.5006C50.8234 70.5006 50.1393 69.8166 50.1393 68.9728V65.3L46.4202 61.5809C46.1336 61.2943 45.9727 60.9059 45.9727 60.5006V54.0922C45.9727 53.2485 46.6567 52.5645 47.5004 52.5645C48.3442 52.5645 49.0282 53.2485 49.0282 54.0922V59.8678L52.7474 63.587C53.0338 63.8735 53.1949 64.2621 53.1949 64.6672V68.9728C53.1949 69.8166 52.5109 70.5006 51.6671 70.5006Z" fill="#031B4E"/>
<path d="M10 8.97266C9.15625 8.97266 8.47222 9.65669 8.47222 10.5004V17.306H1.52778C0.684028 17.306 0 17.99 0 18.8338C0 19.6775 0.684028 20.3616 1.52778 20.3616H8.47222V25.8941C8.47222 26.7378 9.15625 27.4218 10 27.4218C10.8437 27.4218 11.5278 26.7378 11.5278 25.8941V18.8338V10.5004C11.5278 9.65669 10.8437 8.97266 10 8.97266Z" fill="#031B4E"/>
<path d="M68.4727 17.306H61.5282V10.5004C61.5282 9.65669 60.8442 8.97266 60.0004 8.97266C59.1567 8.97266 58.4727 9.65669 58.4727 10.5004V18.8338V25.5521C58.4727 26.3959 59.1567 27.0799 60.0004 27.0799C60.8442 27.0799 61.5282 26.3959 61.5282 25.5521V20.3616H68.4727C69.3164 20.3616 70.0004 19.6775 70.0004 18.8338C70.0004 17.99 69.3164 17.306 68.4727 17.306Z" fill="#031B4E"/>
<path d="M10 44.0449C9.15625 44.0449 8.47222 44.7289 8.47222 45.5727V50.6389H1.52778C0.684028 50.6389 0 51.323 0 52.1667C0 53.0105 0.684028 53.6945 1.52778 53.6945H8.47222V60.5001C8.47222 61.3438 9.15625 62.0278 10 62.0278C10.8437 62.0278 11.5278 61.3438 11.5278 60.5001V52.1667V45.5727C11.5278 44.7289 10.8437 44.0449 10 44.0449Z" fill="#031B4E"/>
<path d="M68.4727 50.6384H61.5282V45.5346C61.5282 44.6909 60.8442 44.0068 60.0004 44.0068C59.1567 44.0068 58.4727 44.6909 58.4727 45.5346V52.1661V60.4995C58.4727 61.3432 59.1567 62.0272 60.0004 62.0272C60.8442 62.0272 61.5282 61.3432 61.5282 60.4995V53.6939H68.4727C69.3164 53.6939 70.0004 53.0099 70.0004 52.1661C70.0004 51.3224 69.3164 50.6384 68.4727 50.6384Z" fill="#031B4E"/>
<path d="M35 57.8609C30.5667 57.8609 25.9685 56.7136 21.3333 54.4508C17.6765 52.6658 13.9864 50.1844 10.3651 47.0757C4.23181 41.8102 0.447784 36.6136 0.289729 36.395C-0.0984659 35.858 -0.0963826 35.1322 0.294867 34.5976C0.571256 34.2198 7.17848 25.2736 16.9715 19.0215C23.0865 15.118 29.1521 13.1387 35 13.1387C39.4333 13.1387 44.0315 14.2861 48.6667 16.5487C52.3235 18.3337 56.0136 20.8151 59.6349 23.9239C65.7682 29.1894 69.5522 34.3859 69.7103 34.6045C70.0951 35.1368 70.0967 35.8555 69.7142 36.3894C62.6189 46.2944 49.2699 57.8609 35 57.8609ZM3.45598 35.5045C4.79251 37.1965 7.99487 41.0219 12.407 44.8015C17.7347 49.3652 25.9792 54.8054 35 54.8054C47.6864 54.8054 59.7495 44.6197 66.5636 35.52C65.2392 33.8409 62.0272 29.9964 57.5931 26.1982C52.2654 21.6344 44.0208 16.1943 35 16.1943C29.744 16.1943 24.2317 18.012 18.6157 21.597C11.0553 26.4233 5.36598 33.1094 3.45598 35.5045Z" fill="#00BDE0"/>
<path d="M35.001 41.1946C31.8611 41.1946 29.3066 38.64 29.3066 35.5001C29.3066 32.3602 31.8611 29.8057 35.001 29.8057C38.1409 29.8057 40.6955 32.3602 40.6955 35.5001C40.6955 38.64 38.141 41.1946 35.001 41.1946ZM35.001 32.8612C33.5459 32.8612 32.3621 34.045 32.3621 35.5001C32.3621 36.9552 33.5459 38.139 35.001 38.139C36.4561 38.139 37.6399 36.9552 37.6399 35.5001C37.6399 34.045 36.4561 32.8612 35.001 32.8612Z" fill="#00BDE0"/>
</svg>
