<svg width="35" height="35" viewBox="0 0 35 35" fill="none" xmlns="http://www.w3.org/2000/svg">
<path d="M31.3072 9.50914C31.2903 8.61958 31.2742 7.77917 31.2742 6.96625C31.2742 6.32926 30.758 5.81295 30.1208 5.81295C25.1887 5.81295 21.4335 4.39538 18.3034 1.35195C17.8556 0.916434 17.143 0.916639 16.6955 1.35195C13.5656 4.39538 9.81099 5.81295 4.87914 5.81295C4.24217 5.81295 3.72578 6.32926 3.72578 6.96625C3.72578 7.77938 3.70985 8.62006 3.69277 9.50982C3.53471 17.7883 3.31822 29.1264 17.1217 33.9109C17.244 33.9533 17.3716 33.9747 17.4994 33.9747C17.627 33.9747 17.7547 33.9533 17.877 33.9109C31.6815 29.126 31.4653 17.7878 31.3072 9.50914Z" stroke="#00BDE0" stroke-width="2" stroke-miterlimit="10"/>
<path d="M19.5467 16.7022C18.668 16.7022 17.9558 15.9899 17.9558 15.1112V12.377H17.0452V15.1112C17.0452 15.9899 16.3329 16.7022 15.4543 16.7022H12.7197V17.6127H15.4543C16.3329 17.6127 17.0452 18.3251 17.0452 19.2036V21.9379H17.9558V19.2036C17.9558 18.3251 18.668 17.6127 19.5467 17.6127H22.2805V16.7022H19.5467Z" stroke="white" stroke-width="2" stroke-miterlimit="10" stroke-linejoin="round"/>
</svg>
