<svg width="64" height="65" viewBox="0 0 64 65" fill="none" xmlns="http://www.w3.org/2000/svg">
<path d="M59.8125 9.5L64 13.9375V50.3125L59.75 54.5625H40.25V57.25H47.75L50.9375 61.375V64.5H43.25V62.625H49.0625V62L46.8125 59.125H17.1875L14.9375 62V62.625H41.375V64.5H13.0625V61.375L16.25 57.25H23.75V54.5625H4.25L0 50.3125V13.9375L4.1875 9.5H8.375V11.375H5L3.125 13.375H22.6875C22.7292 13.0417 22.8021 12.7083 22.9062 12.375C23.0104 12.0417 23.1042 11.7083 23.1875 11.375H10.25V9.5H23.9375C25.2292 6.83333 27.1458 4.66667 29.6875 3C32.2292 1.33333 35.0833 0.5 38.25 0.5C41.375 0.5 44.2188 1.33333 46.7812 3C49.3438 4.66667 51.2708 6.83333 52.5625 9.5H59.8125ZM59 11.375H53.3125C53.3958 11.7083 53.4792 12.0417 53.5625 12.375C53.6458 12.7083 53.7292 13.0417 53.8125 13.375H60.875L59 11.375ZM32.0625 3.8125C30.6875 4.52083 29.4583 5.41667 28.375 6.5C27.2917 7.58333 26.4167 8.79167 25.75 10.125L27.125 10.75L26.375 12.4375L25 11.875C24.75 12.5833 24.5625 13.3125 24.4375 14.0625C24.3125 14.8125 24.25 15.5833 24.25 16.375C24.25 17.125 24.3125 17.875 24.4375 18.625C24.5625 19.375 24.75 20.1042 25 20.8125L26.375 20.25L27.125 22L25.75 22.5625C26.4167 23.9375 27.2917 25.1667 28.375 26.25C29.4583 27.3333 30.6875 28.2083 32.0625 28.875L32.625 27.5L34.375 28.1875L33.75 29.5625C34.4583 29.8125 35.1875 30 35.9375 30.125C36.6875 30.25 37.4583 30.3125 38.25 30.3125C39.0417 30.3125 39.8125 30.25 40.5625 30.125C41.3125 30 42.0208 29.8125 42.6875 29.5625L42.125 28.1875L43.875 27.5L44.4375 28.875C45.8125 28.2083 47.0417 27.3333 48.125 26.25C49.2083 25.1667 50.0833 23.9375 50.75 22.5625L49.375 22L50.125 20.25L51.5 20.8125C51.75 20.1042 51.9375 19.375 52.0625 18.625C52.1875 17.875 52.25 17.125 52.25 16.375C52.25 15.5833 52.1875 14.8125 52.0625 14.0625C51.9375 13.3125 51.75 12.5833 51.5 11.875L50.125 12.4375L49.375 10.75L50.75 10.125C50.0833 8.79167 49.2083 7.58333 48.125 6.5C47.0417 5.41667 45.8125 4.52083 44.4375 3.8125L43.875 5.1875L42.125 4.5L42.6875 3.125C42.0208 2.875 41.3125 2.6875 40.5625 2.5625C39.8125 2.4375 39.0417 2.375 38.25 2.375C37.4583 2.375 36.6875 2.4375 35.9375 2.5625C35.1875 2.6875 34.4583 2.875 33.75 3.125L34.375 4.5L32.625 5.1875L32.0625 3.8125ZM38.25 32.1875C36.625 32.1875 35.0625 31.9583 33.5625 31.5C32.0625 31.0417 30.6875 30.375 29.4375 29.5H21.75V34.125H54.75V29.5H47.0625C45.8125 30.375 44.4375 31.0417 42.9375 31.5C41.4375 31.9583 39.875 32.1875 38.25 32.1875ZM27.125 27.625C25.6667 26.2083 24.5104 24.5312 23.6562 22.5938C22.8021 20.6562 22.375 18.5833 22.375 16.375C22.375 16.1667 22.3854 15.9688 22.4062 15.7812C22.4271 15.5938 22.4375 15.4167 22.4375 15.25H1.875V48.9375H62.125V15.25H54.0625C54.0625 15.4167 54.0729 15.5938 54.0938 15.7812C54.1146 15.9688 54.125 16.1667 54.125 16.375C54.125 18.5833 53.6979 20.6562 52.8438 22.5938C51.9896 24.5312 50.8333 26.2083 49.375 27.625H56.625V36H19.875V27.625H27.125ZM38.375 57.25V54.5625H25.625V57.25H38.375ZM59 52.6875L60.8125 50.8125H3.1875L5 52.6875H59ZM38.25 21.1875C38.7917 21.1875 39.25 21 39.625 20.625C40 20.25 40.1875 19.7917 40.1875 19.25C40.1875 18.7083 40 18.25 39.625 17.875C39.25 17.5 38.7917 17.3125 38.25 17.3125C37.2083 17.3125 36.3125 16.9375 35.5625 16.1875C34.8125 15.4375 34.4375 14.5208 34.4375 13.4375C34.4375 12.5625 34.7083 11.7812 35.25 11.0938C35.7917 10.4062 36.4792 9.95833 37.3125 9.75V7.0625H39.1875V9.75C40.0208 9.95833 40.7083 10.4062 41.25 11.0938C41.7917 11.7812 42.0625 12.5625 42.0625 13.4375H40.1875C40.1875 12.9375 40 12.4896 39.625 12.0938C39.25 11.6979 38.7917 11.5 38.25 11.5C37.7083 11.5 37.25 11.6979 36.875 12.0938C36.5 12.4896 36.3125 12.9375 36.3125 13.4375C36.3125 13.9792 36.5 14.4479 36.875 14.8438C37.25 15.2396 37.7083 15.4375 38.25 15.4375C39.2917 15.4375 40.1875 15.8021 40.9375 16.5312C41.6875 17.2604 42.0625 18.1667 42.0625 19.25C42.0625 20.125 41.7917 20.9062 41.25 21.5938C40.7083 22.2812 40.0208 22.7292 39.1875 22.9375V25.625H37.3125V22.9375C36.4792 22.7292 35.7917 22.2812 35.25 21.5938C34.7083 20.9062 34.4375 20.125 34.4375 19.25H36.3125C36.3125 19.7917 36.5 20.25 36.875 20.625C37.25 21 37.7083 21.1875 38.25 21.1875ZM13.9375 41.5625V27.625H15.8125V43.4375H6.4375V36.3125H8.3125V41.5625H10.1875V32.875H12.0625V41.5625H13.9375ZM19.875 37.875H52.875V39.75H19.875V37.875ZM54.75 37.875H56.625V39.75H54.75V37.875ZM54.75 41.5625H56.625V43.4375H54.75V41.5625ZM19.875 41.5625H52.875V43.4375H19.875V41.5625ZM14.0625 17.125H15.9375V19H14.0625V17.125ZM17.8125 17.125H19.6875V19H17.8125V17.125ZM12.1875 17.125V19H5.625V25.5625H3.75V17.125H12.1875ZM29.75 15.4375H31.625V17.3125H29.75V15.4375ZM44.875 15.4375H46.75V17.3125H44.875V15.4375Z" fill="#00BCE0"/>
</svg>
