<svg width="64" height="59" viewBox="0 0 64 59" fill="none" xmlns="http://www.w3.org/2000/svg">
<path d="M58 4.5C58.2917 4.5 58.5312 4.59375 58.7188 4.78125C58.9062 4.96875 59 5.20833 59 5.5V30.5C59 30.7917 58.9062 31.0312 58.7188 31.2188C58.5312 31.4062 58.2917 31.5 58 31.5H41C40.7083 31.5 40.4688 31.4062 40.2812 31.2188C40.0938 31.0312 40 30.7917 40 30.5V5.5C40 5.20833 40.0938 4.96875 40.2812 4.78125C40.4688 4.59375 40.7083 4.5 41 4.5H58ZM57 29.5V11.5H42V29.5H57ZM57 9.5V6.5H42V9.5H57ZM44 15.5V13.5H46V15.5H44ZM48 15.5V13.5H55V15.5H48ZM44 19.5V17.5H46V19.5H44ZM48 19.5V17.5H55V19.5H48ZM44 23.5V21.5H46V23.5H44ZM48 23.5V21.5H55V23.5H48ZM44 27.5V25.5H46V27.5H44ZM48 27.5V25.5H55V27.5H48ZM37 14.5C37.2917 14.5 37.5312 14.5938 37.7188 14.7812C37.9062 14.9688 38 15.2083 38 15.5V21.5C38 21.7917 37.9062 22.0312 37.7188 22.2188C37.5312 22.4062 37.2917 22.5 37 22.5H29V25.5H30C30.2917 25.5 30.5312 25.5938 30.7188 25.7812C30.9062 25.9688 31 26.2083 31 26.5V30.5C31 30.7917 30.9062 31.0312 30.7188 31.2188C30.5312 31.4062 30.2917 31.5 30 31.5H26C25.7083 31.5 25.4688 31.4062 25.2812 31.2188C25.0938 31.0312 25 30.7917 25 30.5V29.5H11V30.5C11 30.7917 10.9062 31.0312 10.7188 31.2188C10.5312 31.4062 10.2917 31.5 10 31.5H6C5.70833 31.5 5.46875 31.4062 5.28125 31.2188C5.09375 31.0312 5 30.7917 5 30.5V26.5C5 26.2083 5.09375 25.9688 5.28125 25.7812C5.46875 25.5938 5.70833 25.5 6 25.5H7V10.5H6C5.70833 10.5 5.46875 10.4062 5.28125 10.2188C5.09375 10.0312 5 9.79167 5 9.5V5.5C5 5.20833 5.09375 4.96875 5.28125 4.78125C5.46875 4.59375 5.70833 4.5 6 4.5H10C10.2917 4.5 10.5312 4.59375 10.7188 4.78125C10.9062 4.96875 11 5.20833 11 5.5V6.5H25V5.5C25 5.20833 25.0938 4.96875 25.2812 4.78125C25.4688 4.59375 25.7083 4.5 26 4.5H30C30.2917 4.5 30.5312 4.59375 30.7188 4.78125C30.9062 4.96875 31 5.20833 31 5.5V9.5C31 9.79167 30.9062 10.0312 30.7188 10.2188C30.5312 10.4062 30.2917 10.5 30 10.5H29V14.5H37ZM27 6.5V8.5H29V6.5H27ZM7 6.5V8.5H9V6.5H7ZM9 29.5V27.5H7V29.5H9ZM25 26.5C25 26.2083 25.0938 25.9688 25.2812 25.7812C25.4688 25.5938 25.7083 25.5 26 25.5H27V22.5H15C14.7083 22.5 14.4688 22.4062 14.2812 22.2188C14.0938 22.0312 14 21.7917 14 21.5V15.5C14 15.2083 14.0938 14.9688 14.2812 14.7812C14.4688 14.5938 14.7083 14.5 15 14.5H27V10.5H26C25.7083 10.5 25.4688 10.4062 25.2812 10.2188C25.0938 10.0312 25 9.79167 25 9.5V8.5H11V9.5C11 9.79167 10.9062 10.0312 10.7188 10.2188C10.5312 10.4062 10.2917 10.5 10 10.5H9V25.5H10C10.2917 25.5 10.5312 25.5938 10.7188 25.7812C10.9062 25.9688 11 26.2083 11 26.5V27.5H25V26.5ZM29 29.5V27.5H27V29.5H29ZM36 20.5V16.5H35V17.5H33V16.5H31V18.5H29V16.5H27V17.5H25V16.5H23V18.5H21V16.5H19V17.5H17V16.5H16V20.5H36ZM62 0.5C62.5417 0.5 63.0104 0.697918 63.4062 1.09375C63.8021 1.48958 64 1.95833 64 2.5V41.5C64 42.0417 63.8021 42.5104 63.4062 42.9062C63.0104 43.3021 62.5417 43.5 62 43.5H38.1875L39.8125 52.5H43C43.125 52.5 43.25 52.5208 43.375 52.5625C43.5 52.6042 43.6042 52.6875 43.6875 52.8125L45.6875 54.8125C45.8125 54.8958 45.8958 55 45.9375 55.125C45.9792 55.25 46 55.375 46 55.5V57.5C46 57.7917 45.9062 58.0312 45.7188 58.2188C45.5312 58.4062 45.2917 58.5 45 58.5H19C18.7083 58.5 18.4688 58.4062 18.2812 58.2188C18.0938 58.0312 18 57.7917 18 57.5V55.5C18 55.375 18.0208 55.25 18.0625 55.125C18.1042 55 18.1875 54.8958 18.3125 54.8125L20.3125 52.8125C20.3958 52.6875 20.5 52.6042 20.625 52.5625C20.75 52.5208 20.875 52.5 21 52.5H24.1875L25.8125 43.5H2C1.45833 43.5 0.989583 43.3021 0.59375 42.9062C0.197917 42.5104 0 42.0417 0 41.5V2.5C0 1.95833 0.197917 1.48958 0.59375 1.09375C0.989583 0.697918 1.45833 0.5 2 0.5H62ZM39 54.5H21.4375L20 55.9375V56.5H44V55.9375L42.5625 54.5H39ZM34 49.5H30V47.5H31V43.5H27.8125L26.1875 52.5H37.8125L36.1875 43.5H33V47.5H34V49.5ZM62 41.5V35.5H2V41.5H62ZM62 33.5V2.5H2V33.5H62ZM29 39.5V37.5H35V39.5H29Z" fill="#00BCE0"/>
</svg>
