<svg width="716" height="450" viewBox="0 0 716 450" fill="none" xmlns="http://www.w3.org/2000/svg">
<path d="M635.286 354.7H80.1185C76.046 354.7 72.7441 351.398 72.7441 347.326V24.3817C72.7441 20.3092 76.046 17.0073 80.1185 17.0073H635.286C639.359 17.0073 642.66 20.3092 642.66 24.3817V347.324C642.66 351.398 639.359 354.7 635.286 354.7Z" stroke="#EBF7FF" stroke-miterlimit="10"/>
<path d="M207.016 346.038H256.701C258.887 346.038 260.659 344.265 260.659 342.08V208.596C260.659 206.411 258.887 204.638 256.701 204.638H207.016C204.83 204.638 203.058 206.411 203.058 208.596V342.081C203.058 344.267 204.83 346.038 207.016 346.038Z" fill="#FAB511"/>
<path d="M615.601 50.163L594.563 78.5235L580.521 46.1257L615.601 50.163Z" fill="#EE5622"/>
<path d="M568.797 95.2196C562.836 95.2196 558.003 90.387 558.003 84.4257C558.003 78.4644 562.836 73.6318 568.797 73.6318C574.758 73.6318 579.591 78.4644 579.591 84.4257C579.591 90.387 574.758 95.2196 568.797 95.2196Z" fill="#FAB511"/>
<path d="M554.001 51.2294C554.001 53.2166 555.612 54.827 557.599 54.827C559.586 54.827 561.196 53.2166 561.196 51.2294C561.196 49.2423 559.586 47.6318 557.599 47.6318C555.613 47.6318 554.001 49.2423 554.001 51.2294Z" fill="#FAB511"/>
<path d="M499.551 92.3084C493.59 92.3084 488.757 87.4759 488.757 81.5146C488.757 75.5533 493.59 70.7207 499.551 70.7207C505.512 70.7207 510.345 75.5533 510.345 81.5146C510.345 87.4759 505.512 92.3084 499.551 92.3084Z" fill="#FAB511"/>
<path d="M495.952 81.5146C495.952 83.5017 497.563 85.1122 499.55 85.1122C501.537 85.1122 503.147 83.5017 503.147 81.5146C503.147 79.5274 501.537 77.917 499.55 77.917C497.563 77.9159 495.952 79.5274 495.952 81.5146Z" fill="#FAB511"/>
<path d="M410.322 179.739C404.361 179.739 399.528 174.907 399.528 168.945C399.528 162.984 404.361 158.151 410.322 158.151C416.284 158.151 421.116 162.984 421.116 168.945C421.116 174.907 416.284 179.739 410.322 179.739Z" fill="#FAB511"/>
<path d="M406.724 168.945C406.724 170.932 408.334 172.543 410.321 172.543C412.309 172.543 413.919 170.932 413.919 168.945C413.919 166.958 412.309 165.348 410.321 165.348C408.334 165.347 406.724 166.958 406.724 168.945Z" fill="#FAB511"/>
<path d="M321.094 119.65C315.133 119.65 310.3 114.817 310.3 108.856C310.3 102.895 315.133 98.062 321.094 98.062C327.055 98.062 331.888 102.895 331.888 108.856C331.888 114.817 327.055 119.65 321.094 119.65Z" fill="#FAB511"/>
<path d="M317.495 108.856C317.495 110.843 319.106 112.453 321.093 112.453C323.08 112.453 324.69 110.843 324.69 108.856C324.69 106.869 323.08 105.258 321.093 105.258C319.107 105.257 317.495 106.869 317.495 108.856Z" fill="#FAB511"/>
<path d="M231.863 172.543C225.902 172.543 221.069 167.71 221.069 161.749C221.069 155.788 225.902 150.955 231.863 150.955C237.825 150.955 242.657 155.788 242.657 161.749C242.657 167.71 237.825 172.543 231.863 172.543Z" fill="#FAB511"/>
<path d="M231.862 165.347C229.875 165.347 228.265 163.736 228.265 161.749C228.265 159.762 229.875 158.151 231.862 158.151C233.849 158.151 235.46 159.762 235.46 161.749C235.46 163.736 233.849 165.347 231.862 165.347Z" fill="#FAB511"/>
<path d="M713.969 321.507H594.179C593.057 321.507 592.148 320.598 592.148 319.476V242.783C592.148 241.661 593.057 240.752 594.179 240.752H713.969C715.091 240.752 715.999 241.661 715.999 242.783V319.476C715.999 320.598 715.091 321.507 713.969 321.507Z" fill="#7FC4E2"/>
<path d="M711.999 249.952H596.15C595.646 249.952 595.238 249.543 595.238 249.04V244.696C595.238 244.192 595.646 243.784 596.15 243.784H711.999C712.503 243.784 712.912 244.193 712.912 244.696V249.04C712.912 249.543 712.503 249.952 711.999 249.952Z" fill="#E1EFF9"/>
<path d="M709.276 248.493C710.187 248.493 710.926 247.755 710.926 246.844C710.926 245.933 710.187 245.194 709.276 245.194C708.365 245.194 707.627 245.933 707.627 246.844C707.627 247.755 708.365 248.493 709.276 248.493Z" fill="white"/>
<path d="M703.216 246.844C703.216 247.755 702.477 248.493 701.565 248.493C700.654 248.493 699.916 247.755 699.916 246.844C699.916 245.933 700.654 245.194 701.565 245.194C702.476 245.194 703.216 245.933 703.216 246.844Z" fill="white"/>
<path d="M693.854 248.493C694.765 248.493 695.504 247.755 695.504 246.844C695.504 245.933 694.765 245.194 693.854 245.194C692.944 245.194 692.205 245.933 692.205 246.844C692.205 247.755 692.944 248.493 693.854 248.493Z" fill="white"/>
<path d="M633.736 254.561V288.291C633.736 289.599 632.669 290.666 631.349 290.666H597.619C596.299 290.666 595.232 289.599 595.232 288.291V254.561C595.232 253.241 596.3 252.174 597.619 252.174H631.349C632.669 252.174 633.736 253.241 633.736 254.561Z" fill="#E1EFF9"/>
<path d="M682.434 255.634H637.789C636.834 255.634 636.059 254.859 636.059 253.904C636.059 252.948 636.834 252.173 637.789 252.173H682.434C683.39 252.173 684.165 252.948 684.165 253.904C684.165 254.86 683.39 255.634 682.434 255.634Z" fill="#E1EFF9"/>
<path d="M711.182 255.634H690.076C689.121 255.634 688.346 254.859 688.346 253.904C688.346 252.948 689.121 252.173 690.076 252.173H711.182C712.138 252.173 712.913 252.948 712.913 253.904C712.913 254.86 712.138 255.634 711.182 255.634Z" fill="#E1EFF9"/>
<path d="M711.182 262.64H637.789C636.834 262.64 636.059 261.865 636.059 260.91C636.059 259.955 636.834 259.18 637.789 259.18H711.182C712.137 259.18 712.912 259.955 712.912 260.91C712.912 261.866 712.137 262.64 711.182 262.64Z" fill="#E1EFF9"/>
<path d="M711.182 269.648H637.789C636.834 269.648 636.059 268.873 636.059 267.917C636.059 266.962 636.834 266.187 637.789 266.187H711.182C712.137 266.187 712.912 266.962 712.912 267.917C712.912 268.873 712.137 269.648 711.182 269.648Z" fill="#E1EFF9"/>
<path d="M667.132 276.654H637.789C636.834 276.654 636.059 275.879 636.059 274.924C636.059 273.968 636.834 273.193 637.789 273.193H667.132C668.087 273.193 668.862 273.968 668.862 274.924C668.863 275.879 668.088 276.654 667.132 276.654Z" fill="#E1EFF9"/>
<path d="M711.182 276.591H673.941C672.986 276.591 672.211 275.816 672.211 274.861C672.211 273.906 672.986 273.131 673.941 273.131H711.182C712.137 273.131 712.912 273.906 712.912 274.861C712.912 275.816 712.137 276.591 711.182 276.591Z" fill="#E1EFF9"/>
<path d="M711.182 283.66H637.789C636.834 283.66 636.059 282.885 636.059 281.929C636.059 280.974 636.834 280.199 637.789 280.199H711.182C712.137 280.199 712.912 280.974 712.912 281.929C712.912 282.885 712.137 283.66 711.182 283.66Z" fill="#E1EFF9"/>
<path d="M683.104 290.667H637.789C636.834 290.667 636.059 289.892 636.059 288.936C636.059 287.981 636.834 287.206 637.789 287.206H683.104C684.059 287.206 684.834 287.981 684.834 288.936C684.834 289.892 684.06 290.667 683.104 290.667Z" fill="#E1EFF9"/>
<path d="M710.248 318.715H597.902C596.431 318.715 595.238 317.523 595.238 316.051V296.417C595.238 294.946 596.431 293.753 597.902 293.753H710.248C711.719 293.753 712.912 294.946 712.912 296.417V316.051C712.912 317.523 711.719 318.715 710.248 318.715Z" fill="#E1EFF9"/>
<path d="M603.127 314.949C604.432 314.949 605.489 313.892 605.489 312.588C605.489 311.283 604.432 310.226 603.127 310.226C601.823 310.226 600.766 311.283 600.766 312.588C600.766 313.892 601.823 314.949 603.127 314.949Z" fill="white"/>
<path d="M630.246 300.134C631.551 300.134 632.608 299.077 632.608 297.772C632.608 296.468 631.551 295.411 630.246 295.411C628.942 295.411 627.885 296.468 627.885 297.772C627.885 299.077 628.942 300.134 630.246 300.134Z" fill="white"/>
<path d="M652.459 314.949C653.764 314.949 654.821 313.892 654.821 312.588C654.821 311.283 653.764 310.226 652.459 310.226C651.155 310.226 650.098 311.283 650.098 312.588C650.098 313.892 651.155 314.949 652.459 314.949Z" fill="white"/>
<path d="M673.463 306.234C674.768 306.234 675.825 305.177 675.825 303.872C675.825 302.568 674.768 301.511 673.463 301.511C672.159 301.511 671.102 302.568 671.102 303.872C671.102 305.177 672.159 306.234 673.463 306.234Z" fill="white"/>
<path d="M701.678 312.588C702.982 312.588 704.04 311.53 704.04 310.226C704.04 308.922 702.982 307.864 701.678 307.864C700.374 307.864 699.316 308.922 699.316 310.226C699.316 311.53 700.374 312.588 701.678 312.588Z" fill="white"/>
<path d="M603.127 312.588L630.247 297.772L652.46 312.588L673.465 303.873L701.678 310.226" stroke="white" stroke-miterlimit="10"/>
<path d="M620.682 278.876C619.575 279.954 617.98 280.624 615.897 280.882V282.596C615.897 283.36 615.278 283.979 614.514 283.979C613.749 283.979 613.13 283.36 613.13 282.596V280.964C611.765 280.891 610.465 280.651 609.23 280.246C608.727 280.081 608.263 279.899 607.84 279.703C606.91 279.273 606.5 278.181 606.921 277.247C607.334 276.332 608.418 275.872 609.327 276.3C609.614 276.434 609.913 276.56 610.226 276.676C611.165 277.027 612.135 277.249 613.13 277.34V272.721C611.821 272.408 610.715 272.058 609.811 271.67C608.907 271.283 608.152 270.717 607.543 269.969C606.934 269.223 606.631 268.231 606.631 266.996C606.631 265.466 607.188 264.152 608.304 263.054C609.419 261.959 611.028 261.29 613.13 261.049V259.362C613.13 258.598 613.749 257.978 614.514 257.978C615.278 257.978 615.897 258.598 615.897 259.362V260.994C617.41 261.117 618.745 261.408 619.905 261.867C620.837 262.236 621.245 263.338 620.868 264.267C620.483 265.214 619.411 265.65 618.456 265.282C617.613 264.957 616.76 264.745 615.897 264.645V269.348C617.187 269.642 618.281 269.98 619.174 270.358C620.069 270.735 620.821 271.299 621.429 272.045C622.038 272.79 622.341 273.773 622.341 274.99C622.341 276.501 621.788 277.798 620.682 278.876ZM611.609 267.908C611.96 268.204 612.468 268.452 613.13 268.654V264.726C612.429 264.893 611.913 265.156 611.582 265.515C611.25 265.875 611.084 266.295 611.084 266.774C611.083 267.236 611.259 267.614 611.609 267.908ZM617.39 276.51C617.723 276.178 617.889 275.782 617.888 275.321C617.888 274.861 617.717 274.481 617.375 274.186C617.034 273.89 616.542 273.632 615.896 273.411V277.229C616.56 277.083 617.058 276.842 617.39 276.51Z" fill="white"/>
<path d="M200.511 20.1437C200.511 21.6526 199.287 22.8767 197.778 22.8767C196.269 22.8767 195.045 21.6526 195.045 20.1437C195.045 18.6347 196.269 17.4106 197.778 17.4106C199.287 17.4106 200.511 18.6347 200.511 20.1437Z" fill="#FAB511"/>
<path d="M199.844 29.2536H195.289L196.551 20.8096H199.003L199.844 29.2536Z" fill="#FAB511"/>
<path d="M223.937 32.1122C222.87 33.1797 221.14 33.1797 220.072 32.1122C219.005 31.0447 219.005 29.3144 220.072 28.2469C221.14 27.1794 222.87 27.1794 223.937 28.2469C225.004 29.3144 225.004 31.0447 223.937 32.1122Z" fill="#FAB511"/>
<path d="M217.026 38.0831L213.805 34.8622L220.667 29.7837L222.402 31.5172L217.026 38.0831Z" fill="#FAB511"/>
<path d="M232.042 57.1408C230.533 57.1408 229.309 55.9179 229.309 54.4078C229.309 52.8988 230.533 51.6748 232.042 51.6748C233.551 51.6748 234.775 52.8977 234.775 54.4078C234.775 55.9168 233.551 57.1408 232.042 57.1408Z" fill="#FAB511"/>
<path d="M222.932 56.4748V51.9209L231.376 53.1816V55.634L222.932 56.4748Z" fill="#FAB511"/>
<path d="M220.074 80.5692C219.007 79.5017 219.007 77.7715 220.074 76.704C221.142 75.6364 222.872 75.6364 223.939 76.704C225.007 77.7715 225.007 79.5017 223.939 80.5692C222.872 81.6368 221.142 81.6368 220.074 80.5692Z" fill="#FAB511"/>
<path d="M214.104 73.6564L217.324 70.4355L222.404 77.2983L220.669 79.0329L214.104 73.6564Z" fill="#FAB511"/>
<path d="M195.045 88.672C195.045 87.163 196.269 85.939 197.778 85.939C199.287 85.939 200.511 87.163 200.511 88.672C200.511 90.181 199.287 91.405 197.778 91.405C196.269 91.405 195.045 90.182 195.045 88.672Z" fill="#FAB511"/>
<path d="M195.711 79.563H200.266L199.004 88.0059H196.552L195.711 79.563Z" fill="#FAB511"/>
<path d="M171.618 76.7035C172.686 75.636 174.416 75.636 175.483 76.7035C176.551 77.771 176.551 79.5012 175.483 80.5688C174.416 81.6363 172.686 81.6363 171.618 80.5688C170.552 79.5012 170.552 77.771 171.618 76.7035Z" fill="#FAB511"/>
<path d="M178.531 70.7334L181.752 73.9532L174.889 79.0328L173.154 77.2982L178.531 70.7334Z" fill="#FAB511"/>
<path d="M163.514 51.6748C165.023 51.6748 166.247 52.8977 166.247 54.4078C166.247 55.9168 165.024 57.1408 163.514 57.1408C162.005 57.1408 160.781 55.9179 160.781 54.4078C160.781 52.8988 162.005 51.6748 163.514 51.6748Z" fill="#FAB511"/>
<path d="M172.623 52.3413V56.8963L164.18 55.6345V53.1822L172.623 52.3413Z" fill="#FAB511"/>
<path d="M175.482 28.2466C176.55 29.3141 176.55 31.0444 175.482 32.1119C174.415 33.1794 172.685 33.1794 171.617 32.1119C170.55 31.0444 170.55 29.3141 171.617 28.2466C172.685 27.1802 174.415 27.1802 175.482 28.2466Z" fill="#FAB511"/>
<path d="M181.452 35.159L178.232 38.3799L173.152 31.5172L174.887 29.7837L181.452 35.159Z" fill="#FAB511"/>
<path d="M236.263 65.1747C234.503 64.0931 232.441 64.2701 230.932 65.3204L225.461 62.0347C224.132 61.236 223.36 59.7259 223.585 58.191C223.767 56.9562 223.862 55.6933 223.862 54.4078C223.862 52.9949 223.747 51.6089 223.53 50.2586C223.271 48.6503 224.001 47.0464 225.436 46.2778L230.811 43.398C232.316 44.5195 234.418 44.7527 236.219 43.6679C237.911 42.65 238.838 40.6262 238.473 38.6865C237.881 35.5401 234.632 33.8984 231.844 35.0533C230.26 35.7096 229.219 37.1095 228.937 38.68L222.684 40.2398C221.16 40.6197 219.587 40.0088 218.643 38.7534C217.05 36.6357 215.141 34.7705 212.987 33.2227C211.668 32.275 211.144 30.5587 211.614 29.0033L213.348 23.2632C215.35 22.9696 217.111 21.4595 217.46 19.1431C217.722 17.4064 216.96 15.6049 215.533 14.5827C212.878 12.6798 209.347 13.8099 208.178 16.6325C207.522 18.216 207.777 19.943 208.688 21.2523L205.402 26.7215C204.603 28.0502 203.092 28.822 201.558 28.5975C200.323 28.4162 199.06 28.3212 197.775 28.3212C196.362 28.3212 194.976 28.4356 193.626 28.6536C192.017 28.9127 190.414 28.183 189.645 26.7474L186.765 21.3732C187.887 19.8674 188.12 17.7669 187.035 15.9654C186.017 14.274 183.994 13.3458 182.054 13.7106C178.907 14.3021 177.266 17.5521 178.42 20.3402C179.077 21.9236 180.477 22.9653 182.047 23.247L183.607 29.4999C183.987 31.024 183.376 32.5966 182.121 33.5411C180.003 35.1343 178.138 37.0426 176.59 39.196C175.642 40.515 173.926 41.0385 172.372 40.569L166.631 38.8344C166.338 36.8332 164.828 35.0717 162.511 34.723C160.776 34.4607 158.973 35.2228 157.951 36.6497C156.048 39.305 157.178 42.8357 160.001 44.0047C161.584 44.6609 163.311 44.4062 164.62 43.4952L170.091 46.7808C171.42 47.5796 172.192 49.0897 171.967 50.6245C171.785 51.8594 171.69 53.1222 171.69 54.4078C171.69 55.8207 171.805 57.2056 172.022 58.557C172.281 60.1652 171.551 61.7692 170.116 62.5377L164.741 65.4175C163.236 64.296 161.134 64.0629 159.333 65.1477C157.641 66.1655 156.714 68.1894 157.079 70.1291C157.671 73.2755 160.92 74.9172 163.708 73.7623C165.292 73.106 166.334 71.706 166.615 70.1355L172.868 68.5758C174.392 68.1959 175.965 68.8068 176.909 70.0621C178.502 72.1799 180.411 74.0451 182.564 75.5929C183.883 76.5406 184.407 78.2568 183.937 79.8122L182.203 85.5524C180.201 85.846 178.441 87.3561 178.091 89.6713C177.829 91.407 178.591 93.2096 180.018 94.2328C182.673 96.1358 186.204 95.0068 187.373 92.1831C188.029 90.5996 187.774 88.8737 186.863 87.5633L190.149 82.0941C190.948 80.7653 192.458 79.9925 193.993 80.2181C195.228 80.3994 196.49 80.4944 197.776 80.4944C199.189 80.4944 200.574 80.38 201.925 80.163C203.533 79.904 205.136 80.6336 205.906 82.0692L208.786 87.4435C207.664 88.9492 207.431 91.0508 208.516 92.8512C209.534 94.5426 211.557 95.4709 213.497 95.105C216.644 94.5124 218.285 91.2635 217.131 88.4754C216.474 86.8919 215.074 85.8503 213.504 85.5686L211.944 79.3157C211.564 77.7916 212.175 76.219 213.43 75.2745C215.548 73.6813 217.413 71.773 218.961 69.6196C219.909 68.3006 221.625 67.7771 223.179 68.2466L228.92 69.9812C229.158 71.6132 230.207 73.0855 231.843 73.7623C234.63 74.9172 237.877 73.2765 238.471 70.1323C238.836 68.2099 237.93 66.2001 236.263 65.1747Z" fill="#FAB511"/>
<path d="M209.515 52.3405C213.017 52.3405 215.857 49.5014 215.857 45.9991C215.857 42.4969 213.017 39.6577 209.515 39.6577C206.013 39.6577 203.174 42.4969 203.174 45.9991C203.174 49.5014 206.013 52.3405 209.515 52.3405Z" fill="#D7F3FF"/>
<path d="M198.587 71.4513C202.09 71.4513 204.929 68.6122 204.929 65.11C204.929 61.6077 202.09 58.7686 198.587 58.7686C195.085 58.7686 192.246 61.6077 192.246 65.11C192.246 68.6122 195.085 71.4513 198.587 71.4513Z" fill="#D7F3FF"/>
<path d="M185.23 53.3716C185.23 55.4581 183.538 57.1495 181.452 57.1495C179.365 57.1495 177.674 55.4581 177.674 53.3716C177.674 51.2851 179.365 49.5938 181.452 49.5938C183.538 49.5948 185.23 51.2851 185.23 53.3716Z" fill="#D7F3FF"/>
<path d="M215.183 60.9262C215.183 63.0126 213.491 64.704 211.405 64.704C209.318 64.704 207.627 63.0126 207.627 60.9262C207.627 58.8397 209.318 57.1494 211.405 57.1494C213.491 57.1494 215.183 58.8408 215.183 60.9262Z" fill="#D7F3FF"/>
<path d="M193.091 47.9131C195.563 47.9131 197.568 45.9085 197.568 43.4358C197.568 40.963 195.563 38.9585 193.091 38.9585C190.618 38.9585 188.613 40.963 188.613 43.4358C188.613 45.9085 190.618 47.9131 193.091 47.9131Z" fill="#D7F3FF"/>
<path d="M200.054 53.3712C200.054 54.5132 199.128 55.4383 197.987 55.4383C196.845 55.4383 195.92 54.5132 195.92 53.3712C195.92 52.2292 196.845 51.3042 197.987 51.3042C199.128 51.3042 200.054 52.2303 200.054 53.3712Z" fill="#D7F3FF"/>
<path d="M189.995 70.4357C189.995 71.5777 189.07 72.5027 187.928 72.5027C186.786 72.5027 185.861 71.5777 185.861 70.4357C185.861 69.2937 186.786 68.3687 187.928 68.3687C189.07 68.3687 189.995 69.2948 189.995 70.4357Z" fill="#D7F3FF"/>
<path d="M203.978 36.8903C203.978 38.0323 203.053 38.9573 201.911 38.9573C200.769 38.9573 199.844 38.0323 199.844 36.8903C199.844 35.7483 200.769 34.8232 201.911 34.8232C203.053 34.8232 203.978 35.7494 203.978 36.8903Z" fill="#D7F3FF"/>
<path d="M182.667 45.5027C183.808 45.5027 184.734 44.5773 184.734 43.4357C184.734 42.2941 183.808 41.3687 182.667 41.3687C181.525 41.3687 180.6 42.2941 180.6 43.4357C180.6 44.5773 181.525 45.5027 182.667 45.5027Z" fill="#D7F3FF"/>
<path d="M22.3494 244.713C22.3494 245.488 21.7212 246.116 20.9462 246.116C20.1712 246.116 19.543 245.488 19.543 244.713C19.543 243.938 20.1712 243.309 20.9462 243.309C21.7212 243.309 22.3494 243.937 22.3494 244.713Z" fill="#FAB511"/>
<path d="M22.007 249.392H19.668L20.3156 245.054H21.5752L22.007 249.392Z" fill="#FAB511"/>
<path d="M34.3845 250.86C33.8362 251.408 32.9479 251.408 32.3995 250.86C31.8512 250.311 31.8512 249.423 32.3995 248.875C32.9479 248.326 33.8362 248.326 34.3845 248.875C34.9318 249.423 34.9318 250.311 34.3845 250.86Z" fill="#FAB511"/>
<path d="M30.8333 253.926L29.1797 252.272L32.705 249.664L33.5955 250.554L30.8333 253.926Z" fill="#FAB511"/>
<path d="M38.5449 263.716C37.7699 263.716 37.1406 263.087 37.1406 262.312C37.1406 261.537 37.7688 260.909 38.5449 260.909C39.3199 260.909 39.9481 261.537 39.9481 262.312C39.9481 263.087 39.3199 263.716 38.5449 263.716Z" fill="#FAB511"/>
<path d="M33.8652 263.374V261.035L38.2022 261.682V262.942L33.8652 263.374Z" fill="#FAB511"/>
<path d="M32.3995 275.749C31.8512 275.201 31.8512 274.313 32.3995 273.764C32.9479 273.216 33.8362 273.216 34.3845 273.764C34.9328 274.313 34.9328 275.201 34.3845 275.749C33.8373 276.298 32.9479 276.298 32.3995 275.749Z" fill="#FAB511"/>
<path d="M29.332 272.198L30.9867 270.544L33.5956 274.069L32.7051 274.96L29.332 272.198Z" fill="#FAB511"/>
<path d="M19.543 279.912C19.543 279.137 20.1712 278.508 20.9462 278.508C21.7212 278.508 22.3494 279.136 22.3494 279.912C22.3494 280.688 21.7212 281.316 20.9462 281.316C20.1712 281.315 19.543 280.687 19.543 279.912Z" fill="#FAB511"/>
<path d="M19.8848 275.232H22.2238L21.5762 279.569H20.3165L19.8848 275.232Z" fill="#FAB511"/>
<path d="M7.5089 273.763C8.05723 273.215 8.94557 273.215 9.4939 273.763C10.0422 274.312 10.0422 275.2 9.4939 275.748C8.94557 276.297 8.05723 276.297 7.5089 275.748C6.96057 275.201 6.96057 274.312 7.5089 273.763Z" fill="#FAB511"/>
<path d="M11.0579 270.697L12.7126 272.351L9.18737 274.96L8.29688 274.069L11.0579 270.697Z" fill="#FAB511"/>
<path d="M3.34656 260.908C4.12156 260.908 4.75084 261.536 4.75084 262.311C4.75084 263.086 4.12264 263.715 3.34656 263.715C2.57156 263.715 1.94336 263.086 1.94336 262.311C1.94228 261.538 2.57156 260.908 3.34656 260.908Z" fill="#FAB511"/>
<path d="M8.02643 261.25V263.589L3.68945 262.941V261.682L8.02643 261.25Z" fill="#FAB511"/>
<path d="M9.4939 248.875C10.0422 249.423 10.0422 250.311 9.4939 250.86C8.94557 251.408 8.05723 251.408 7.5089 250.86C6.96057 250.311 6.96057 249.423 7.5089 248.875C8.05723 248.326 8.94557 248.326 9.4939 248.875Z" fill="#FAB511"/>
<path d="M12.5594 252.425L10.9058 254.079L8.29688 250.554L9.18737 249.664L12.5594 252.425Z" fill="#FAB511"/>
<path d="M40.7141 267.842C39.8107 267.286 38.7507 267.377 37.9757 267.916L35.1661 266.228C34.4839 265.818 34.0867 265.042 34.2022 264.254C34.295 263.619 34.3436 262.97 34.3436 262.311C34.3436 261.585 34.2853 260.873 34.173 260.179C34.0403 259.353 34.4148 258.53 35.152 258.135L37.9131 256.655C38.687 257.231 39.7664 257.351 40.6914 256.793C41.5603 256.269 42.0364 255.231 41.8485 254.235C41.5442 252.619 39.8754 251.776 38.4431 252.369C37.6292 252.705 37.0949 253.425 36.9503 254.232L33.738 255.032C32.9544 255.228 32.147 254.914 31.6624 254.269C30.8442 253.181 29.8641 252.223 28.7577 251.428C28.0799 250.942 27.8111 250.06 28.0529 249.261L28.9434 246.312C29.971 246.162 30.8755 245.386 31.0557 244.196C31.1907 243.305 30.7989 242.379 30.066 241.854C28.7016 240.876 26.8893 241.457 26.2881 242.908C25.9513 243.722 26.0819 244.608 26.5504 245.28L24.8622 248.09C24.4521 248.772 23.676 249.169 22.888 249.054C22.2534 248.961 21.6046 248.912 20.9451 248.912C20.2198 248.912 19.5074 248.971 18.8133 249.083C17.9876 249.216 17.164 248.841 16.7679 248.104L15.2881 245.344C15.8645 244.57 15.9832 243.492 15.4273 242.567C14.9049 241.698 13.8654 241.222 12.8692 241.408C11.2533 241.713 10.4092 243.382 11.0029 244.814C11.3397 245.628 12.0596 246.162 12.8659 246.307L13.6668 249.519C13.8622 250.301 13.5481 251.109 12.9026 251.595C11.8146 252.413 10.8561 253.393 10.0617 254.499C9.57488 255.177 8.69302 255.446 7.89427 255.204L4.94539 254.314C4.79427 253.286 4.01927 252.381 2.82979 252.201C1.93822 252.066 1.01318 252.458 0.487519 253.191C-0.490405 254.555 0.090307 256.369 1.53992 256.969C2.3527 257.306 3.23996 257.175 3.91241 256.707L6.72206 258.395C7.40423 258.805 7.80145 259.581 7.68595 260.369C7.59312 261.004 7.54455 261.652 7.54455 262.312C7.54455 263.037 7.60284 263.75 7.7151 264.444C7.84786 265.269 7.47331 266.093 6.73609 266.488L3.9761 267.968C3.20218 267.391 2.12279 267.273 1.19776 267.83C0.32885 268.353 -0.147158 269.392 0.0406554 270.388C0.345042 272.004 2.01377 272.847 3.44612 272.254C4.2589 271.917 4.79427 271.197 4.93891 270.391L8.15117 269.59C8.93372 269.395 9.7411 269.709 10.2268 270.354C11.045 271.442 12.0251 272.4 13.1315 273.195C13.8093 273.682 14.0781 274.564 13.8363 275.363L12.9458 278.312C11.9182 278.462 11.0137 279.238 10.8334 280.427C10.6985 281.319 11.0903 282.245 11.8232 282.769C13.1876 283.747 15.001 283.167 15.6011 281.717C15.9379 280.903 15.8073 280.017 15.3388 279.345L17.027 276.535C17.4371 275.853 18.2132 275.456 19.0012 275.571C19.6358 275.664 20.2845 275.713 20.9441 275.713C21.6694 275.713 22.3818 275.655 23.0758 275.543C23.9016 275.41 24.7251 275.785 25.1202 276.522L26.6 279.282C26.0237 280.056 25.9049 281.134 26.4608 282.06C26.9843 282.929 28.0227 283.405 29.0189 283.218C30.6348 282.914 31.4778 281.245 30.8852 279.813C30.5484 278.999 29.8285 278.465 29.0222 278.32L28.2213 275.108C28.0259 274.325 28.34 273.518 28.9844 273.032C30.0724 272.214 31.0309 271.234 31.8254 270.128C32.3122 269.45 33.194 269.181 33.9917 269.423L36.9406 270.313C37.0636 271.152 37.6022 271.908 38.442 272.255C39.8733 272.848 41.542 272.006 41.8464 270.391C42.0353 269.4 41.5711 268.368 40.7141 267.842Z" fill="#FAB511"/>
<path d="M26.9744 261.25C28.7735 261.25 30.232 259.792 30.232 257.992C30.232 256.193 28.7735 254.735 26.9744 254.735C25.1753 254.735 23.7168 256.193 23.7168 257.992C23.7168 259.792 25.1753 261.25 26.9744 261.25Z" fill="#D7F3FF"/>
<path d="M24.6187 267.808C24.6187 269.608 23.1604 271.066 21.3611 271.066C19.5618 271.066 18.1035 269.608 18.1035 267.808C18.1035 266.009 19.5618 264.551 21.3611 264.551C23.1604 264.551 24.6187 266.01 24.6187 267.808Z" fill="#D7F3FF"/>
<path d="M12.5599 263.721C13.6317 263.721 14.5006 262.852 14.5006 261.78C14.5006 260.708 13.6317 259.839 12.5599 259.839C11.488 259.839 10.6191 260.708 10.6191 261.78C10.6191 262.852 11.488 263.721 12.5599 263.721Z" fill="#D7F3FF"/>
<path d="M27.9446 267.601C29.0165 267.601 29.8854 266.732 29.8854 265.66C29.8854 264.589 29.0165 263.72 27.9446 263.72C26.8728 263.72 26.0039 264.589 26.0039 265.66C26.0039 266.732 26.8728 267.601 27.9446 267.601Z" fill="#D7F3FF"/>
<path d="M20.8367 256.676C20.8367 257.946 19.8069 258.975 18.5365 258.975C17.2661 258.975 16.2363 257.945 16.2363 256.676C16.2363 255.406 17.2661 254.375 18.5365 254.375C19.8069 254.377 20.8367 255.406 20.8367 256.676Z" fill="#D7F3FF"/>
<path d="M21.0543 262.842C21.6409 262.842 22.1164 262.366 22.1164 261.78C22.1164 261.193 21.6409 260.718 21.0543 260.718C20.4677 260.718 19.9922 261.193 19.9922 261.78C19.9922 262.366 20.4677 262.842 21.0543 262.842Z" fill="#D7F3FF"/>
<path d="M15.8863 271.607C16.4729 271.607 16.9485 271.131 16.9485 270.545C16.9485 269.958 16.4729 269.482 15.8863 269.482C15.2997 269.482 14.8242 269.958 14.8242 270.545C14.8242 271.131 15.2997 271.607 15.8863 271.607Z" fill="#D7F3FF"/>
<path d="M24.132 253.315C24.132 253.901 23.6571 254.377 23.0699 254.377C22.4838 254.377 22.0078 253.902 22.0078 253.315C22.0078 252.728 22.4838 252.252 23.0699 252.252C23.656 252.252 24.132 252.728 24.132 253.315Z" fill="#D7F3FF"/>
<path d="M13.1832 257.738C13.7698 257.738 14.2453 257.262 14.2453 256.675C14.2453 256.089 13.7698 255.613 13.1832 255.613C12.5966 255.613 12.1211 256.089 12.1211 256.675C12.1211 257.262 12.5966 257.738 13.1832 257.738Z" fill="#D7F3FF"/>
<path d="M409.873 34.7082C409.873 35.1895 409.482 35.5796 409.001 35.5796C408.52 35.5796 408.13 35.1895 408.13 34.7082C408.13 34.227 408.52 33.8369 409.001 33.8369C409.482 33.8369 409.873 34.227 409.873 34.7082Z" fill="#FAB511"/>
<path d="M409.661 37.6124H408.209L408.611 34.9204H409.393L409.661 37.6124Z" fill="#FAB511"/>
<path d="M417.343 38.5233C417.003 38.8636 416.451 38.8636 416.111 38.5233C415.77 38.1829 415.77 37.6312 416.111 37.2909C416.451 36.9506 417.003 36.9506 417.343 37.2909C417.683 37.6312 417.683 38.1829 417.343 38.5233Z" fill="#FAB511"/>
<path d="M415.139 40.4266L414.112 39.4L416.3 37.7808L416.853 38.3337L415.139 40.4266Z" fill="#FAB511"/>
<path d="M419.926 46.5024C420.407 46.5024 420.797 46.1123 420.797 45.6311C420.797 45.1499 420.407 44.7598 419.926 44.7598C419.445 44.7598 419.055 45.1499 419.055 45.6311C419.055 46.1123 419.445 46.5024 419.926 46.5024Z" fill="#FAB511"/>
<path d="M417.022 46.2905V44.8384L419.714 45.2404V46.0226L417.022 46.2905Z" fill="#FAB511"/>
<path d="M416.11 53.972C415.769 53.6317 415.769 53.08 416.11 52.7396C416.45 52.3993 417.002 52.3993 417.342 52.7396C417.682 53.08 417.682 53.6317 417.342 53.972C417.002 54.3123 416.45 54.3123 416.11 53.972Z" fill="#FAB511"/>
<path d="M414.206 51.7683L415.233 50.7417L416.852 52.9294L416.299 53.4823L414.206 51.7683Z" fill="#FAB511"/>
<path d="M408.13 56.5549C408.13 56.0737 408.52 55.6836 409.001 55.6836C409.482 55.6836 409.873 56.0737 409.873 56.5549C409.873 57.0362 409.482 57.4263 409.001 57.4263C408.52 57.4263 408.13 57.0362 408.13 56.5549Z" fill="#FAB511"/>
<path d="M408.343 53.6509H409.795L409.393 56.3429H408.611L408.343 53.6509Z" fill="#FAB511"/>
<path d="M400.661 52.7396C401.001 52.3993 401.553 52.3993 401.892 52.7396C402.233 53.08 402.233 53.6317 401.892 53.972C401.552 54.3123 401 54.3123 400.661 53.972C400.32 53.6313 400.32 53.0796 400.661 52.7396Z" fill="#FAB511"/>
<path d="M402.864 50.8364L403.891 51.863L401.703 53.4823L401.15 52.9294L402.864 50.8364Z" fill="#FAB511"/>
<path d="M398.079 46.5024C398.561 46.5024 398.951 46.1123 398.951 45.6311C398.951 45.1499 398.561 44.7598 398.079 44.7598C397.598 44.7598 397.208 45.1499 397.208 45.6311C397.208 46.1123 397.598 46.5024 398.079 46.5024Z" fill="#FAB511"/>
<path d="M400.983 44.9727V46.4247L398.291 46.0227V45.2405L400.983 44.9727Z" fill="#FAB511"/>
<path d="M401.894 37.2914C402.235 37.6317 402.235 38.1834 401.894 38.5237C401.554 38.8641 401.002 38.8641 400.662 38.5237C400.322 38.1834 400.322 37.6317 400.662 37.2914C401.002 36.951 401.554 36.951 401.894 37.2914Z" fill="#FAB511"/>
<path d="M403.798 39.4948L402.771 40.5213L401.151 38.3337L401.704 37.7808L403.798 39.4948Z" fill="#FAB511"/>
<path d="M421.27 49.0641C420.709 48.7194 420.052 48.776 419.571 49.1107L417.827 48.0631C417.403 47.8087 417.157 47.3271 417.228 46.8379C417.286 46.4442 417.316 46.0414 417.316 45.6318C417.316 45.1816 417.28 44.7397 417.211 44.309C417.128 43.7964 417.361 43.2853 417.818 43.0397L419.532 42.1214C420.012 42.4788 420.682 42.5532 421.256 42.2073C421.795 41.8825 422.091 41.2377 421.975 40.6191C421.786 39.616 420.75 39.093 419.861 39.4608C419.356 39.6698 419.024 40.1164 418.934 40.6171L416.941 41.1143C416.455 41.2357 415.954 41.0407 415.653 40.6402C415.145 39.9651 414.536 39.3704 413.85 38.8773C413.429 38.5751 413.262 38.0278 413.412 37.5322L413.965 35.702C414.603 35.6085 415.164 35.1268 415.276 34.3888C415.359 33.8352 415.116 33.2608 414.661 32.9348C413.815 32.3281 412.689 32.6884 412.317 33.5884C412.108 34.0931 412.188 34.6436 412.479 35.0611L411.431 36.805C411.176 37.2289 410.695 37.4749 410.206 37.4029C409.812 37.3452 409.41 37.3149 409 37.3149C408.55 37.3149 408.108 37.3511 407.677 37.4208C407.165 37.5032 406.653 37.2707 406.408 36.813L405.49 35.0998C405.847 34.6197 405.921 33.9498 405.576 33.3758C405.251 32.8364 404.606 32.5407 403.987 32.6569C402.984 32.8456 402.461 33.8813 402.829 34.7706C403.038 35.2753 403.485 35.6073 403.985 35.6972L404.482 37.6907C404.604 38.1767 404.409 38.6778 404.008 38.9792C403.333 39.4871 402.739 40.0957 402.245 40.7819C401.943 41.2027 401.396 41.3694 400.9 41.2198L399.07 40.6669C398.976 40.0288 398.495 39.4676 397.757 39.3561C397.203 39.2725 396.629 39.5153 396.303 39.9703C395.696 40.817 396.056 41.9422 396.956 42.3152C397.461 42.5242 398.011 42.4434 398.429 42.1528L400.173 43.2005C400.597 43.4552 400.843 43.9369 400.771 44.4257C400.713 44.8193 400.683 45.2222 400.683 45.6318C400.683 46.0824 400.719 46.5238 400.789 46.9545C400.871 47.4672 400.639 47.9783 400.182 48.2239L398.468 49.1422C397.988 48.7847 397.318 48.7103 396.744 49.0562C396.204 49.381 395.909 50.0258 396.025 50.6444C396.214 51.6475 397.25 52.1709 398.139 51.8027C398.643 51.5938 398.975 51.1471 399.065 50.6464L401.059 50.1492C401.545 50.0278 402.046 50.2229 402.347 50.6233C402.855 51.2984 403.463 51.8931 404.15 52.3867C404.571 52.6888 404.738 53.2357 404.588 53.7317L404.035 55.5619C403.397 55.6555 402.836 56.1367 402.724 56.8751C402.641 57.4288 402.884 58.0032 403.338 58.3292C404.185 58.9362 405.311 58.576 405.683 57.6756C405.892 57.1708 405.812 56.6203 405.521 56.2028L406.569 54.4589C406.823 54.035 407.305 53.789 407.794 53.8607C408.188 53.9184 408.59 53.9486 409 53.9486C409.45 53.9486 409.892 53.9124 410.323 53.8427C410.835 53.7599 411.346 53.9928 411.592 54.4506L412.51 56.1642C412.153 56.6442 412.078 57.3141 412.424 57.8881C412.748 58.4275 413.394 58.7232 414.012 58.6066C415.015 58.4179 415.539 57.3822 415.171 56.493C414.962 55.9882 414.515 55.6563 414.014 55.5663L413.517 53.5729C413.396 53.0868 413.591 52.5857 413.991 52.2848C414.666 51.7769 415.261 51.1682 415.754 50.482C416.057 50.0613 416.603 49.8945 417.099 50.0441L418.93 50.597C419.006 51.1173 419.34 51.5866 419.862 51.8027C420.75 52.1709 421.786 51.6479 421.975 50.6456C422.09 50.0318 421.802 49.3909 421.27 49.0641Z" fill="#FAB511"/>
<path d="M414.766 42.9509C414.766 44.0674 413.861 44.9726 412.744 44.9726C411.628 44.9726 410.723 44.0674 410.723 42.9509C410.723 41.8344 411.628 40.9292 412.744 40.9292C413.861 40.9292 414.766 41.8344 414.766 42.9509Z" fill="#D7F3FF"/>
<path d="M411.282 49.0437C411.282 50.1602 410.377 51.0654 409.26 51.0654C408.143 51.0654 407.238 50.1602 407.238 49.0437C407.238 47.9271 408.143 47.022 409.26 47.022C410.377 47.022 411.282 47.9271 411.282 49.0437Z" fill="#D7F3FF"/>
<path d="M403.798 46.5059C404.463 46.5059 405.002 45.9668 405.002 45.3018C405.002 44.6367 404.463 44.0977 403.798 44.0977C403.133 44.0977 402.594 44.6367 402.594 45.3018C402.594 45.9668 403.133 46.5059 403.798 46.5059Z" fill="#D7F3FF"/>
<path d="M414.551 47.7095C414.551 48.3746 414.012 48.9136 413.347 48.9136C412.682 48.9136 412.143 48.3746 412.143 47.7095C412.143 47.0443 412.682 46.5054 413.347 46.5054C414.012 46.5054 414.551 47.0443 414.551 47.7095Z" fill="#D7F3FF"/>
<path d="M408.935 42.1335C408.935 42.922 408.296 43.5609 407.507 43.5609C406.719 43.5609 406.08 42.922 406.08 42.1335C406.08 41.3453 406.719 40.7061 407.507 40.7061C408.296 40.7061 408.935 41.3453 408.935 42.1335Z" fill="#D7F3FF"/>
<path d="M409.728 45.3017C409.728 45.6656 409.433 45.9609 409.068 45.9609C408.705 45.9609 408.409 45.666 408.409 45.3017C408.409 44.9375 408.704 44.6426 409.068 44.6426C409.433 44.6426 409.728 44.9375 409.728 45.3017Z" fill="#D7F3FF"/>
<path d="M406.52 50.7417C406.52 51.1055 406.226 51.4009 405.861 51.4009C405.498 51.4009 405.202 51.1059 405.202 50.7417C405.202 50.3775 405.497 50.0825 405.861 50.0825C406.226 50.0825 406.52 50.3775 406.52 50.7417Z" fill="#D7F3FF"/>
<path d="M410.979 40.0474C410.979 40.4112 410.685 40.7065 410.32 40.7065C409.956 40.7065 409.661 40.4116 409.661 40.0474C409.661 39.6835 409.956 39.3882 410.32 39.3882C410.685 39.3882 410.979 39.6831 410.979 40.0474Z" fill="#D7F3FF"/>
<path d="M404.844 42.1333C404.844 42.4971 404.549 42.7925 404.185 42.7925C403.821 42.7925 403.525 42.4975 403.525 42.1333C403.525 41.7695 403.82 41.4741 404.185 41.4741C404.548 41.4745 404.844 41.7695 404.844 42.1333Z" fill="#D7F3FF"/>
<path d="M661.421 121.083C661.421 122.592 660.197 123.816 658.688 123.816C657.179 123.816 655.955 122.592 655.955 121.083C655.955 119.574 657.178 118.35 658.688 118.35C660.198 118.35 661.421 119.573 661.421 121.083Z" fill="#FAB511"/>
<path d="M660.754 130.192H656.199L657.461 121.748H659.913L660.754 130.192Z" fill="#FAB511"/>
<path d="M684.848 133.051C683.78 134.119 682.05 134.119 680.982 133.051C679.915 131.984 679.915 130.253 680.982 129.186C682.05 128.118 683.78 128.118 684.848 129.186C685.914 130.253 685.914 131.984 684.848 133.051Z" fill="#FAB511"/>
<path d="M677.936 139.021L674.715 135.8L681.578 130.722L683.312 132.456L677.936 139.021Z" fill="#FAB511"/>
<path d="M692.95 158.08C691.441 158.08 690.217 156.856 690.217 155.347C690.217 153.838 691.441 152.614 692.95 152.614C694.459 152.614 695.683 153.837 695.683 155.347C695.683 156.857 694.459 158.08 692.95 158.08Z" fill="#FAB511"/>
<path d="M683.842 157.414V152.859L692.285 154.121V156.574L683.842 157.414Z" fill="#FAB511"/>
<path d="M680.982 181.507C679.915 180.44 679.915 178.709 680.982 177.642C682.05 176.574 683.78 176.574 684.848 177.642C685.915 178.709 685.915 180.44 684.848 181.507C683.78 182.575 682.05 182.575 680.982 181.507Z" fill="#FAB511"/>
<path d="M675.014 174.596L678.233 171.375L683.313 178.238L681.579 179.971L675.014 174.596Z" fill="#FAB511"/>
<path d="M655.955 189.611C655.955 188.102 657.178 186.878 658.688 186.878C660.198 186.878 661.421 188.101 661.421 189.611C661.421 191.12 660.197 192.344 658.688 192.344C657.179 192.344 655.955 191.12 655.955 189.611Z" fill="#FAB511"/>
<path d="M656.621 180.501H661.176L659.914 188.945H657.462L656.621 180.501Z" fill="#FAB511"/>
<path d="M632.528 177.642C633.596 176.575 635.326 176.575 636.394 177.642C637.461 178.71 637.461 180.44 636.394 181.508C635.326 182.575 633.596 182.575 632.528 181.508C631.462 180.44 631.462 178.709 632.528 177.642Z" fill="#FAB511"/>
<path d="M639.441 171.671L642.662 174.892L635.799 179.971L634.064 178.237L639.441 171.671Z" fill="#FAB511"/>
<path d="M624.424 152.614C625.933 152.614 627.157 153.837 627.157 155.347C627.157 156.857 625.933 158.08 624.424 158.08C622.915 158.08 621.691 156.856 621.691 155.347C621.691 153.838 622.915 152.614 624.424 152.614Z" fill="#FAB511"/>
<path d="M633.534 153.279V157.834L625.09 156.574V154.121L633.534 153.279Z" fill="#FAB511"/>
<path d="M636.392 129.186C637.46 130.253 637.46 131.984 636.392 133.051C635.325 134.119 633.595 134.119 632.527 133.051C631.46 131.984 631.46 130.253 632.527 129.186C633.595 128.118 635.325 128.118 636.392 129.186Z" fill="#FAB511"/>
<path d="M642.362 136.098L639.142 139.318L634.062 132.456L635.797 130.722L642.362 136.098Z" fill="#FAB511"/>
<path d="M697.174 166.114C695.414 165.032 693.352 165.209 691.843 166.259L686.373 162.974C685.045 162.175 684.272 160.665 684.497 159.13C684.679 157.895 684.774 156.632 684.774 155.347C684.774 153.934 684.659 152.549 684.442 151.198C684.183 149.589 684.913 147.986 686.349 147.217L691.723 144.337C693.23 145.458 695.33 145.692 697.132 144.607C698.823 143.589 699.75 141.565 699.385 139.625C698.793 136.479 695.544 134.837 692.756 135.992C691.172 136.649 690.131 138.048 689.849 139.619L683.596 141.179C682.072 141.559 680.499 140.948 679.555 139.692C677.962 137.575 676.053 135.709 673.9 134.162C672.581 133.214 672.057 131.498 672.527 129.943L674.262 124.203C676.263 123.91 678.024 122.4 678.373 120.083C678.635 118.346 677.873 116.545 676.446 115.522C673.791 113.619 670.26 114.749 669.091 117.571C668.435 119.155 668.69 120.882 669.601 122.191L666.315 127.662C665.516 128.99 664.005 129.763 662.471 129.538C661.237 129.356 659.974 129.261 658.688 129.261C657.275 129.261 655.889 129.376 654.539 129.593C652.931 129.852 651.327 129.122 650.558 127.686L647.678 122.312C648.8 120.806 649.033 118.706 647.948 116.904C646.93 115.213 644.908 114.285 642.967 114.65C639.82 115.241 638.179 118.491 639.334 121.279C639.99 122.863 641.39 123.904 642.96 124.186L644.52 130.439C644.9 131.963 644.289 133.536 643.034 134.48C640.916 136.073 639.051 137.982 637.503 140.135C636.555 141.454 634.839 141.977 633.284 141.508L627.543 139.773C627.25 137.772 625.74 136.011 623.424 135.662C621.688 135.4 619.885 136.162 618.863 137.589C616.96 140.244 618.09 143.775 620.913 144.944C622.496 145.6 624.222 145.345 625.533 144.434L631.003 147.72C632.333 148.519 633.103 150.029 632.879 151.564C632.698 152.798 632.603 154.061 632.603 155.347C632.603 156.76 632.717 158.146 632.934 159.496C633.193 161.104 632.463 162.707 631.028 163.477L625.653 166.356C624.148 165.235 622.046 165.002 620.245 166.087C618.553 167.106 617.626 169.128 617.991 171.068C618.584 174.214 621.832 175.856 624.621 174.7C626.204 174.044 627.246 172.644 627.527 171.073L633.78 169.514C635.304 169.134 636.877 169.745 637.821 171C639.415 173.118 641.323 174.983 643.476 176.531C644.795 177.479 645.319 179.195 644.849 180.749L643.115 186.489C641.114 186.782 639.353 188.293 639.003 190.608C638.741 192.344 639.503 194.146 640.93 195.169C643.585 197.072 647.116 195.942 648.285 193.119C648.941 191.535 648.687 189.808 647.776 188.499L651.061 183.029C651.86 181.7 653.37 180.927 654.905 181.153C656.14 181.334 657.403 181.429 658.688 181.429C660.101 181.429 661.487 181.315 662.837 181.097C664.446 180.838 666.05 181.567 666.818 183.003L669.698 188.377C668.576 189.883 668.343 191.984 669.428 193.785C670.446 195.476 672.469 196.403 674.409 196.039C677.556 195.447 679.198 192.197 678.043 189.409C677.386 187.825 675.986 186.784 674.416 186.502L672.856 180.249C672.476 178.725 673.087 177.153 674.343 176.208C676.46 174.615 678.325 172.707 679.873 170.553C680.821 169.234 682.537 168.711 684.093 169.18L689.833 170.915C690.071 172.547 691.12 174.019 692.756 174.696C695.543 175.851 698.791 174.21 699.384 171.066C699.747 169.148 698.841 167.139 697.174 166.114Z" fill="#FAB511"/>
<path d="M670.425 153.278C673.928 153.278 676.767 150.439 676.767 146.937C676.767 143.435 673.928 140.596 670.425 140.596C666.923 140.596 664.084 143.435 664.084 146.937C664.084 150.439 666.923 153.278 670.425 153.278Z" fill="#FAB511"/>
<path d="M659.498 172.39C663 172.39 665.839 169.551 665.839 166.049C665.839 162.547 663 159.708 659.498 159.708C655.995 159.708 653.156 162.547 653.156 166.049C653.156 169.551 655.995 172.39 659.498 172.39Z" fill="#FAB511"/>
<path d="M646.14 154.311C646.14 156.397 644.448 158.087 642.362 158.087C640.275 158.087 638.584 156.396 638.584 154.311C638.584 152.224 640.275 150.533 642.362 150.533C644.448 150.533 646.14 152.224 646.14 154.311Z" fill="#FAB511"/>
<path d="M676.093 161.865C676.093 163.952 674.401 165.642 672.315 165.642C670.229 165.642 668.537 163.951 668.537 161.865C668.537 159.779 670.229 158.087 672.315 158.087C674.401 158.087 676.093 159.779 676.093 161.865Z" fill="#FAB511"/>
<path d="M658.478 144.374C658.478 146.847 656.474 148.851 654.001 148.851C651.528 148.851 649.523 146.847 649.523 144.374C649.523 141.901 651.528 139.896 654.001 139.896C656.474 139.896 658.478 141.901 658.478 144.374Z" fill="#FAB511"/>
<path d="M660.964 154.311C660.964 155.453 660.039 156.378 658.897 156.378C657.755 156.378 656.83 155.453 656.83 154.311C656.83 153.169 657.755 152.244 658.897 152.244C660.039 152.244 660.964 153.169 660.964 154.311Z" fill="#FAB511"/>
<path d="M650.905 171.375C650.905 172.517 649.98 173.442 648.838 173.442C647.696 173.442 646.771 172.517 646.771 171.375C646.771 170.233 647.696 169.308 648.838 169.308C649.98 169.308 650.905 170.233 650.905 171.375Z" fill="#FAB511"/>
<path d="M664.888 137.829C664.888 138.971 663.963 139.896 662.821 139.896C661.679 139.896 660.754 138.971 660.754 137.829C660.754 136.687 661.679 135.762 662.821 135.762C663.963 135.762 664.888 136.687 664.888 137.829Z" fill="#FAB511"/>
<path d="M645.644 144.374C645.644 145.516 644.719 146.441 643.577 146.441C642.435 146.441 641.51 145.516 641.51 144.374C641.51 143.232 642.435 142.307 643.577 142.307C644.719 142.307 645.644 143.232 645.644 144.374Z" fill="#FAB511"/>
<path d="M51.2556 92.9403C51.2556 94.31 50.146 95.4197 48.7762 95.4197C47.4065 95.4197 46.2969 94.3089 46.2969 92.9403C46.2969 91.5705 47.4076 90.4609 48.7762 90.4609C50.1449 90.4599 51.2556 91.5705 51.2556 92.9403Z" fill="#FAB511"/>
<path d="M50.6525 101.205H46.5195L47.6648 93.5435H49.8894L50.6525 101.205Z" fill="#FAB511"/>
<path d="M72.5124 103.799C71.5442 104.767 69.9737 104.767 69.0055 103.799C68.0372 102.83 68.0372 101.26 69.0055 100.292C69.9737 99.3234 71.5442 99.3234 72.5124 100.292C73.4806 101.26 73.4806 102.83 72.5124 103.799Z" fill="#FAB511"/>
<path d="M66.2413 109.216L63.3184 106.293L69.5453 101.685L71.1191 103.259L66.2413 109.216Z" fill="#FAB511"/>
<path d="M79.8641 126.509C78.4944 126.509 77.3848 125.398 77.3848 124.029C77.3848 122.659 78.4944 121.55 79.8641 121.55C81.2339 121.55 82.3435 122.66 82.3435 124.029C82.3445 125.398 81.2339 126.509 79.8641 126.509Z" fill="#FAB511"/>
<path d="M71.5996 125.904V121.771L79.2611 122.916V125.141L71.5996 125.904Z" fill="#FAB511"/>
<path d="M69.0055 147.764C68.0372 146.796 68.0372 145.226 69.0055 144.257C69.9737 143.289 71.5442 143.289 72.5124 144.257C73.4806 145.226 73.4806 146.796 72.5124 147.764C71.5442 148.733 69.9737 148.733 69.0055 147.764Z" fill="#FAB511"/>
<path d="M63.5898 141.493L66.5117 138.57L71.1207 144.797L69.547 146.371L63.5898 141.493Z" fill="#FAB511"/>
<path d="M46.2969 155.116C46.2969 153.746 47.4076 152.637 48.7762 152.637C50.146 152.637 51.2556 153.747 51.2556 155.116C51.2556 156.486 50.146 157.595 48.7762 157.595C47.4076 157.597 46.2969 156.486 46.2969 155.116Z" fill="#FAB511"/>
<path d="M46.9023 146.852H51.0342L49.8901 154.513H47.6655L46.9023 146.852Z" fill="#FAB511"/>
<path d="M25.0406 144.257C26.0088 143.289 27.5793 143.289 28.5475 144.257C29.5157 145.226 29.5157 146.796 28.5475 147.764C27.5793 148.733 26.0088 148.733 25.0406 147.764C24.0724 146.796 24.0724 145.226 25.0406 144.257Z" fill="#FAB511"/>
<path d="M31.3094 138.84L34.2324 141.763L28.0054 146.371L26.4316 144.797L31.3094 138.84Z" fill="#FAB511"/>
<path d="M17.6883 126.507C19.0576 126.507 20.1677 125.397 20.1677 124.027C20.1677 122.658 19.0576 121.548 17.6883 121.548C16.319 121.548 15.209 122.658 15.209 124.027C15.209 125.397 16.319 126.507 17.6883 126.507Z" fill="#FAB511"/>
<path d="M25.9545 122.152V126.285L18.293 125.14V122.915L25.9545 122.152Z" fill="#FAB511"/>
<path d="M28.5475 100.292C29.5157 101.26 29.5157 102.83 28.5475 103.799C27.5793 104.767 26.0088 104.767 25.0406 103.799C24.0724 102.83 24.0724 101.26 25.0406 100.292C26.0088 99.3234 27.5793 99.3234 28.5475 100.292Z" fill="#FAB511"/>
<path d="M33.9625 106.563L31.0395 109.486L26.4316 103.259L28.0054 101.685L33.9625 106.563Z" fill="#FAB511"/>
<path d="M83.698 133.797C82.1016 132.816 80.2299 132.977 78.8612 133.93L73.8982 130.949C72.6926 130.224 71.992 128.853 72.196 127.461C72.3601 126.341 72.4464 125.194 72.4464 124.029C72.4464 122.746 72.3428 121.49 72.1453 120.264C71.91 118.804 72.5727 117.349 73.8745 116.652L78.7512 114.039C80.1177 115.057 82.0238 115.268 83.658 114.284C85.1929 113.36 86.0338 111.524 85.7024 109.764C85.1649 106.91 82.2171 105.421 79.687 106.468C78.2503 107.063 77.3058 108.334 77.05 109.759L71.3768 111.174C69.993 111.52 68.5671 110.965 67.7101 109.825C66.2648 107.904 64.5324 106.211 62.5787 104.807C61.3817 103.947 60.9067 102.39 61.3331 100.979L62.9068 95.7713C64.7234 95.5058 66.3209 94.135 66.6372 92.0334C66.8747 90.4586 66.1838 88.8233 64.8886 87.895C62.4794 86.168 59.2758 87.1934 58.2158 89.7548C57.6211 91.1915 57.851 92.7577 58.6778 93.9461L55.6965 98.9091C54.9723 100.115 53.6014 100.815 52.209 100.611C51.0886 100.447 49.9423 100.361 48.7766 100.361C47.4943 100.361 46.2379 100.464 45.0117 100.662C43.5523 100.897 42.0973 100.236 41.4 98.9328L38.7869 94.0562C39.8036 92.6897 40.0152 90.7835 39.0319 89.1493C38.1079 87.6144 36.273 86.7725 34.5125 87.1038C31.6575 87.6414 30.168 90.5892 31.216 93.1193C31.8108 94.5559 33.0823 95.5004 34.5071 95.7562L35.9222 101.429C36.2676 102.813 35.7128 104.239 34.5729 105.096C32.6516 106.541 30.9591 108.273 29.5549 110.228C28.6946 111.425 27.1381 111.899 25.7274 111.473L20.5193 109.899C20.2538 108.083 18.883 106.485 16.7814 106.169C15.2066 105.932 13.5713 106.622 12.643 107.918C10.916 110.327 11.9414 113.53 14.5028 114.591C15.9395 115.186 17.5057 114.956 18.6941 114.13L23.6571 117.111C24.8628 117.835 25.5633 119.206 25.3593 120.598C25.1952 121.719 25.1089 122.865 25.1089 124.031C25.1089 125.313 25.2125 126.569 25.41 127.796C25.6453 129.255 24.9826 130.71 23.6808 131.407L18.8042 134.02C17.4377 133.003 15.5315 132.792 13.8973 133.775C12.3624 134.699 11.5215 136.534 11.8529 138.295C12.3905 141.15 15.3383 142.639 17.8683 141.591C19.305 140.997 20.2495 139.725 20.5053 138.3L26.1785 136.885C27.5623 136.54 28.9882 137.095 29.8452 138.234C31.2905 140.156 33.0219 141.848 34.9766 143.252C36.1737 144.113 36.6486 145.669 36.2222 147.08L34.6485 152.288C32.833 152.554 31.2355 153.924 30.9181 156.026C30.6807 157.601 31.3715 159.236 32.6657 160.164C35.0748 161.891 38.2785 160.866 39.3395 158.305C39.9342 156.868 39.7043 155.302 38.8775 154.113L41.8588 149.15C42.5831 147.945 43.9539 147.244 45.3463 147.448C46.4667 147.612 47.613 147.698 48.7787 147.698C50.061 147.698 51.3175 147.595 52.5436 147.397C54.003 147.162 55.458 147.825 56.1553 149.126L58.7685 154.003C57.7506 155.37 57.5401 157.276 58.5234 158.91C59.4474 160.445 61.2824 161.286 63.0428 160.955C65.8978 160.418 67.3874 157.47 66.3393 154.94C65.7445 153.503 64.473 152.559 63.0482 152.303L61.6332 146.63C61.2878 145.247 61.8426 143.82 62.9824 142.963C64.9037 141.518 66.5962 139.785 68.0005 137.832C68.8607 136.635 70.4172 136.16 71.828 136.586L77.036 138.16C77.253 139.641 78.2039 140.976 79.6881 141.591C82.2171 142.639 85.1638 141.151 85.7024 138.298C86.0327 136.551 85.2113 134.727 83.698 133.797Z" fill="#FAB511"/>
<path d="M59.428 122.153C62.606 122.153 65.1823 119.577 65.1823 116.399C65.1823 113.221 62.606 110.645 59.428 110.645C56.2501 110.645 53.6738 113.221 53.6738 116.399C53.6738 119.577 56.2501 122.153 59.428 122.153Z" fill="#FAB511"/>
<path d="M49.512 139.493C52.69 139.493 55.2662 136.917 55.2662 133.739C55.2662 130.561 52.69 127.985 49.512 127.985C46.3341 127.985 43.7578 130.561 43.7578 133.739C43.7578 136.917 46.3341 139.493 49.512 139.493Z" fill="#FAB511"/>
<path d="M33.9661 126.516C35.8588 126.516 37.3932 124.981 37.3932 123.089C37.3932 121.196 35.8588 119.662 33.9661 119.662C32.0734 119.662 30.5391 121.196 30.5391 123.089C30.5391 124.981 32.0734 126.516 33.9661 126.516Z" fill="#FAB511"/>
<path d="M64.5689 129.943C64.5689 131.836 63.0341 133.37 61.1419 133.37C59.2497 133.37 57.7148 131.835 57.7148 129.943C57.7148 128.05 59.2497 126.516 61.1419 126.516C63.0341 126.516 64.5689 128.05 64.5689 129.943Z" fill="#FAB511"/>
<path d="M44.5246 118.135C46.7679 118.135 48.5864 116.316 48.5864 114.073C48.5864 111.83 46.7679 110.011 44.5246 110.011C42.2814 110.011 40.4629 111.83 40.4629 114.073C40.4629 116.316 42.2814 118.135 44.5246 118.135Z" fill="#FAB511"/>
<path d="M50.8437 123.089C50.8437 124.125 50.004 124.965 48.9678 124.965C47.9316 124.965 47.0918 124.125 47.0918 123.089C47.0918 122.053 47.9316 121.213 48.9678 121.213C50.004 121.213 50.8437 122.053 50.8437 123.089Z" fill="#FAB511"/>
<path d="M39.8428 140.446C40.8788 140.446 41.7187 139.606 41.7187 138.57C41.7187 137.534 40.8788 136.694 39.8428 136.694C38.8067 136.694 37.9668 137.534 37.9668 138.57C37.9668 139.606 38.8067 140.446 39.8428 140.446Z" fill="#FAB511"/>
<path d="M54.4043 108.135C54.4043 109.171 53.5645 110.011 52.5283 110.011C51.4921 110.011 50.6523 109.171 50.6523 108.135C50.6523 107.099 51.4921 106.259 52.5283 106.259C53.5645 106.259 54.4043 107.099 54.4043 108.135Z" fill="#FAB511"/>
<path d="M36.9434 114.073C36.9434 115.109 36.1036 115.949 35.0674 115.949C34.0312 115.949 33.1914 115.109 33.1914 114.073C33.1914 113.037 34.0312 112.197 35.0674 112.197C36.1036 112.197 36.9434 113.037 36.9434 114.073Z" fill="#FAB511"/>
<path d="M582.154 391.389H589.272" stroke="#7196AF" stroke-width="2.4725" stroke-miterlimit="10" stroke-linecap="round"/>
<path d="M585.713 387.83V394.946" stroke="#7196AF" stroke-width="2.4725" stroke-miterlimit="10" stroke-linecap="round"/>
<path d="M42.7363 321.506H49.8538" stroke="#7196AF" stroke-width="2.4725" stroke-miterlimit="10" stroke-linecap="round"/>
<path d="M46.2949 317.948V325.065" stroke="#7196AF" stroke-width="2.4725" stroke-miterlimit="10" stroke-linecap="round"/>
<path d="M76.5848 8.68523C78.707 8.68523 80.4274 6.96483 80.4274 4.84261C80.4274 2.7204 78.707 1 76.5848 1C74.4626 1 72.7422 2.7204 72.7422 4.84261C72.7422 6.96483 74.4626 8.68523 76.5848 8.68523Z" stroke="white" stroke-width="1.2362" stroke-miterlimit="10" stroke-linecap="round"/>
<path d="M96.1481 4.84261C96.1481 6.96469 94.4276 8.68523 92.3055 8.68523C90.1834 8.68523 88.4629 6.96469 88.4629 4.84261C88.4629 2.72054 90.1834 1 92.3055 1C94.4276 1 96.1481 2.72054 96.1481 4.84261Z" stroke="white" stroke-width="1.2362" stroke-miterlimit="10" stroke-linecap="round"/>
<path d="M326.229 202.791C328.352 202.791 330.072 201.071 330.072 198.949C330.072 196.826 328.352 195.106 326.229 195.106C324.107 195.106 322.387 196.826 322.387 198.949C322.387 201.071 324.107 202.791 326.229 202.791Z" stroke="white" stroke-width="1.2362" stroke-miterlimit="10" stroke-linecap="round"/>
<path d="M345.793 198.949C345.793 201.071 344.072 202.791 341.95 202.791C339.828 202.791 338.107 201.071 338.107 198.949C338.107 196.826 339.828 195.106 341.95 195.106C344.072 195.105 345.793 196.825 345.793 198.949Z" stroke="white" stroke-width="1.2362" stroke-miterlimit="10" stroke-linecap="round"/>
<path d="M579.489 164.867C581.611 164.867 583.332 163.146 583.332 161.024C583.332 158.902 581.611 157.182 579.489 157.182C577.367 157.182 575.646 158.902 575.646 161.024C575.646 163.146 577.367 164.867 579.489 164.867Z" stroke="white" stroke-width="1.2362" stroke-miterlimit="10" stroke-linecap="round"/>
<path d="M599.052 161.024C599.052 163.146 597.332 164.867 595.21 164.867C593.088 164.867 591.367 163.146 591.367 161.024C591.367 158.902 593.088 157.182 595.21 157.182C597.332 157.182 599.052 158.902 599.052 161.024Z" stroke="white" stroke-width="1.2362" stroke-miterlimit="10" stroke-linecap="round"/>
<path d="M90.7391 119.861C92.8613 119.861 94.5817 118.141 94.5817 116.018C94.5817 113.896 92.8613 112.176 90.7391 112.176C88.6169 112.176 86.8965 113.896 86.8965 116.018C86.8965 118.141 88.6169 119.861 90.7391 119.861Z" stroke="white" stroke-width="1.2362" stroke-miterlimit="10" stroke-linecap="round"/>
<path d="M653.802 395.232C655.924 395.232 657.644 393.512 657.644 391.389C657.644 389.267 655.924 387.547 653.802 387.547C651.679 387.547 649.959 389.267 649.959 391.389C649.959 393.512 651.679 395.232 653.802 395.232Z" stroke="white" stroke-width="1.2362" stroke-miterlimit="10" stroke-linecap="round"/>
<path d="M147.156 407.754C147.156 409.876 145.435 411.596 143.313 411.596C141.191 411.596 139.471 409.876 139.471 407.754C139.471 405.632 141.191 403.911 143.313 403.911C145.435 403.911 147.156 405.632 147.156 407.754Z" fill="white"/>
<path d="M615.947 77.7772C615.947 79.8993 614.226 81.6198 612.104 81.6198C609.982 81.6198 608.262 79.8993 608.262 77.7772C608.262 75.6551 609.982 73.9346 612.104 73.9346C614.226 73.9346 615.947 75.6551 615.947 77.7772Z" fill="white"/>
<path d="M415.701 4.84261C415.701 6.96469 413.98 8.68523 411.858 8.68523C409.736 8.68523 408.016 6.96469 408.016 4.84261C408.016 2.72054 409.736 1 411.858 1C413.98 1 415.701 2.72054 415.701 4.84261Z" fill="white"/>
<path d="M90.7391 257.653C92.8613 257.653 94.5817 255.932 94.5817 253.81C94.5817 251.688 92.8613 249.967 90.7391 249.967C88.6169 249.967 86.8965 251.688 86.8965 253.81C86.8965 255.932 88.6169 257.653 90.7391 257.653Z" fill="white"/>
<path d="M693.972 213.339C693.972 215.461 692.252 217.182 690.13 217.182C688.008 217.182 686.287 215.461 686.287 213.339C686.287 211.217 688.008 209.497 690.13 209.497C692.252 209.497 693.972 211.216 693.972 213.339Z" fill="white"/>
<path d="M65.3738 60.3254L54.0586 49.0101L65.3738 37.6938" stroke="white" stroke-width="3.7087" stroke-miterlimit="10" stroke-linecap="round" stroke-linejoin="round"/>
<path d="M54.0586 49.0098H91.4291" stroke="white" stroke-width="3.7087" stroke-miterlimit="10" stroke-linecap="round" stroke-linejoin="round"/>
<path d="M590 140.476L601.316 129.159L590 117.844" stroke="white" stroke-width="3.7087" stroke-miterlimit="10" stroke-linecap="round" stroke-linejoin="round"/>
<path d="M601.316 129.16H563.945" stroke="white" stroke-width="3.7087" stroke-miterlimit="10" stroke-linecap="round" stroke-linejoin="round"/>
<path d="M361.457 99.333H368.575" stroke="#7196AF" stroke-width="2.4725" stroke-miterlimit="10" stroke-linecap="round"/>
<path d="M365.016 95.7744V102.891" stroke="#7196AF" stroke-width="2.4725" stroke-miterlimit="10" stroke-linecap="round"/>
<path d="M203.998 45.4512H211.114" stroke="white" stroke-width="2.4725" stroke-miterlimit="10" stroke-linecap="round"/>
<path d="M207.557 41.8936V49.0099" stroke="white" stroke-width="2.4725" stroke-miterlimit="10" stroke-linecap="round"/>
<path d="M38.3301 176.841H45.4465" stroke="white" stroke-width="2.4725" stroke-miterlimit="10" stroke-linecap="round"/>
<path d="M41.8887 173.284V180.4" stroke="white" stroke-width="2.4725" stroke-miterlimit="10" stroke-linecap="round"/>
<path d="M461.119 57.3267H468.236" stroke="white" stroke-width="2.4725" stroke-miterlimit="10" stroke-linecap="round"/>
<path d="M464.678 53.769V60.8854" stroke="white" stroke-width="2.4725" stroke-miterlimit="10" stroke-linecap="round"/>
<path d="M657.771 105.445H664.888" stroke="#7196AF" stroke-width="2.4725" stroke-miterlimit="10" stroke-linecap="round"/>
<path d="M661.33 101.887V109.003" stroke="#7196AF" stroke-width="2.4725" stroke-miterlimit="10" stroke-linecap="round"/>
<path d="M610.926 213.338H618.042" stroke="#7196AF" stroke-width="2.4725" stroke-miterlimit="10" stroke-linecap="round"/>
<path d="M614.484 209.78V216.896" stroke="#7196AF" stroke-width="2.4725" stroke-miterlimit="10" stroke-linecap="round"/>
<path d="M558.277 46.3995H545.491C544.667 46.3995 544 45.7325 544 44.9089V32.1225C544 31.2989 544.667 30.6318 545.491 30.6318H558.277C559.101 30.6318 559.768 31.2989 559.768 32.1225V44.9089C559.768 45.7325 559.101 46.3995 558.277 46.3995Z" fill="white"/>
<path d="M502.277 44.3995H489.491C488.667 44.3995 488 43.7325 488 42.9089V30.1225C488 29.2989 488.667 28.6318 489.491 28.6318H502.277C503.101 28.6318 503.768 29.2989 503.768 30.1225V42.9089C503.768 43.7325 503.101 44.3995 502.277 44.3995Z" fill="white"/>
<path d="M552.277 54.3995H539.491C538.667 54.3995 538 53.7325 538 52.9089V40.1225C538 39.2989 538.667 38.6318 539.491 38.6318H552.277C553.101 38.6318 553.768 39.2989 553.768 40.1225V52.9089C553.767 53.7325 553.1 54.3995 552.277 54.3995Z" fill="white"/>
<path d="M695.613 61.0817V38.6822C695.613 37.9483 695.018 37.3535 694.284 37.3535H671.684C670.95 37.3535 670.355 37.9483 670.355 38.6822V61.0817C670.355 61.8157 669.761 62.4104 669.027 62.4104H664.142C663.05 62.4104 662.424 63.6549 663.075 64.5314L681.917 89.9099C682.448 90.6256 683.519 90.6256 684.051 89.9099L702.892 64.5314C703.543 63.6549 702.917 62.4104 701.825 62.4104H696.942C696.209 62.4104 695.613 61.8157 695.613 61.0817Z" fill="#C5E6FF"/>
<path d="M345.487 155.346C347.673 155.346 349.445 157.118 349.445 159.304V342.079C349.445 344.265 347.673 346.038 345.487 346.038H295.802C293.616 346.038 291.845 344.266 291.844 342.079V159.304C291.844 157.118 293.616 155.346 295.802 155.346H345.487ZM523.946 144.822C526.132 144.822 527.904 146.595 527.904 148.78V342.08C527.904 344.266 526.132 346.038 523.946 346.038H474.261C472.075 346.038 470.303 344.267 470.303 342.08V148.78C470.303 146.595 472.075 144.822 474.261 144.822H523.946ZM613.175 97.4189C615.36 97.419 617.133 99.1913 617.133 101.377V342.08C617.133 344.266 615.36 346.038 613.175 346.038H563.489C561.304 346.038 559.532 344.267 559.531 342.08V101.377C559.531 99.1912 561.304 97.419 563.489 97.4189H613.175ZM167.028 274.53C169.214 274.53 170.986 276.303 170.986 278.488V342.079C170.986 344.265 169.214 346.037 167.028 346.037H117.343C115.157 346.037 113.385 344.266 113.385 342.079V278.488C113.385 276.303 115.157 274.53 117.343 274.53H167.028ZM434.716 214.115C436.901 214.115 438.674 215.888 438.674 218.073V342.079C438.674 344.265 436.901 346.037 434.716 346.037H385.031C382.846 346.037 381.073 344.266 381.073 342.079V218.073C381.073 215.888 382.846 214.115 385.031 214.115H434.716ZM589.344 66.8281L502.75 85.2451L410.425 175.555L320.474 114.076L144.683 219.337L139.691 211.003L320.819 102.547L409.327 163.038L497.972 76.3291L587.323 57.3271L589.344 66.8281ZM330.473 36.6318C331.207 36.6319 331.801 37.227 331.801 37.9609V60.3604C331.801 61.0941 332.396 61.6884 333.13 61.6885H338.015C339.107 61.6888 339.732 62.9322 339.082 63.8096L320.24 89.1885C319.709 89.904 318.638 89.9037 318.106 89.1885L299.265 63.8096C298.614 62.9331 299.24 61.6885 300.332 61.6885H305.215C305.949 61.6885 306.544 61.0942 306.544 60.3604V37.9609C306.544 37.227 307.138 36.632 307.872 36.6318H330.473Z" fill="url(#paint0_linear_1273_4776)"/>
<path d="M55.1351 220.467V205.741C55.1351 205.385 54.847 205.097 54.4908 205.097H43.5339C43.1777 205.097 42.8895 205.385 42.8895 205.741V220.467C42.8895 220.823 42.6013 221.112 42.2451 221.112H39.878C39.348 221.112 39.0447 221.715 39.361 222.14L48.4958 234.443C48.7538 234.79 49.273 234.79 49.531 234.443L58.6658 222.14C58.981 221.715 58.6777 221.112 58.1488 221.112H55.7817C55.4233 221.112 55.1351 220.823 55.1351 220.467Z" fill="#C5E6FF"/>
<path d="M396.301 289.559C396.301 289.559 389.933 296.917 386.414 299.299C386.414 299.299 343.806 391.653 299.824 385.696L302.345 347.671C302.345 347.671 331.968 327.081 366.357 295.772C367.749 294.507 368.895 292.967 369.591 291.218C369.912 290.403 370.132 289.541 370.096 288.771C369.977 286.269 366.879 282.97 366.999 279.608C367.118 276.254 370.242 269.978 370.481 267.238C370.728 264.499 374.118 265.744 374.659 268.969C375.19 272.186 373.808 277.253 375.594 278.087C377.38 278.92 383.208 273.991 383.208 273.991C383.208 273.991 386.25 267.375 386.314 266.477C386.369 265.579 386.525 260.027 387.35 258.322C387.625 257.763 389.081 256.114 390.217 257.488C391.142 258.606 391.528 263.462 391.638 265.726C391.665 266.23 391.675 266.606 391.675 266.779C391.675 267.732 388.99 275.952 388.99 275.952L391.419 280.469L396.301 289.559Z" fill="#FF8B66"/>
<path d="M388.989 275.951L391.418 280.468L390.336 282.787L390.318 282.75L387.102 274.934L391.417 266.688L391.637 265.726C391.664 266.23 391.674 266.606 391.674 266.78C391.675 267.733 388.989 275.951 388.989 275.951Z" fill="#DD6747"/>
<path d="M398.527 263.912C398.408 264.416 397.876 266.331 397.372 268.127C396.868 269.941 396.382 271.645 396.382 271.645L390.363 283.227L390.344 283.191L385.891 275.777L392.149 267.192L393.578 262.005C393.578 262.005 393.102 257.121 393.578 255.628C394.054 254.135 396.556 252.769 397.28 256.104C397.996 259.44 398.766 262.903 398.527 263.912Z" fill="#FF8B66"/>
<path d="M397.375 268.127C396.871 269.941 396.385 271.646 396.385 271.646L390.366 283.228L390.347 283.191L389.623 279.37L392.922 275.53C394.708 273.469 396.102 270.674 397.375 268.127Z" fill="#DD6747"/>
<path d="M403.137 268.227C403.101 269.327 403.009 270.179 402.825 270.573C402.385 271.526 399.197 277.738 399.197 277.738L392.663 285.838L391.005 287.899L388.092 279.708L392.476 275.692C394.757 273.604 396.642 271.119 398.037 268.359L398.355 267.732C398.355 267.732 398.849 262.848 399.61 261.474C400.37 260.108 403.092 259.257 403.137 262.674C403.165 264.663 403.202 266.688 403.137 268.227Z" fill="#FF8B66"/>
<path d="M403.136 268.227C403.1 269.327 403.008 270.179 402.825 270.573C402.384 271.526 399.196 277.738 399.196 277.738L392.662 285.837L393.074 282.722L396.73 279.13C396.73 279.13 399.653 275.721 401.266 271.002C401.863 269.254 402.532 268.484 403.136 268.227Z" fill="#DD6747"/>
<path d="M391.328 294.932L400.997 284.661L405.05 276.614L405.945 269.875C406.051 269.079 405.549 268.264 404.754 268.148C403.994 268.038 403.023 268.543 402.184 271.006C400.574 275.724 397.22 278.756 397.22 278.756L391.624 283.08L391.328 294.932Z" fill="#FF8B66"/>
<path d="M303.261 390.039C303.004 390.735 302.72 391.377 302.418 391.954C302.418 391.954 299.229 391.615 293.649 389.884C284.476 387.052 268.863 380.474 250.345 365.492L249.704 362.944L229.041 280.322C229.041 280.322 235.254 279.075 240.037 277.362C244.82 275.639 248.522 277.372 250.804 279.176C266.454 291.556 279.594 315.901 299.688 338.571C301.502 340.632 303.381 342.676 305.323 344.692C305.323 344.692 308.217 376.873 303.261 390.039Z" fill="white"/>
<path d="M318.453 379.437C317.765 401.053 298.688 401.685 293.648 389.884C293.099 388.601 292.713 387.171 292.54 385.605C291.55 376.754 293.465 363.568 295.289 353.865C296.663 346.561 297.992 341.238 297.992 341.238C297.992 341.238 298.468 339.882 299.686 338.572C301.134 337.014 303.626 335.52 307.612 336.455C314.228 338.013 318.196 357.319 318.488 374.105V374.114C318.516 375.928 318.508 377.706 318.453 379.437Z" fill="white"/>
<path opacity="0.5" d="M318.49 374.114C318.337 375.021 318.723 382.947 311.508 389.133C310.236 390.222 305.381 391.572 301.582 389.361C297.841 387.185 296.355 381.795 295.838 379.2C293.524 367.569 295.875 350.851 295.875 350.851C289.861 365.424 288.6 381 288.6 381C284.506 378.692 278.347 373.028 272.871 367.57L261.816 332.979V355.979C261.221 355.325 260.882 354.946 260.882 354.946L249.703 362.946L250.344 365.493C268.862 380.475 284.477 387.054 293.648 389.885C298.688 401.687 317.765 401.054 318.452 379.439C318.509 377.706 318.517 375.928 318.49 374.114Z" fill="#CCDCFF"/>
<path d="M268.331 427.699H142.395C142.395 427.699 144.236 413.102 146.124 393.768C147.782 376.817 149.477 356.209 150.009 338.616C150.458 323.644 142.559 310.852 144.51 304.32C151.364 281.357 186.532 277.536 186.532 277.536L236.249 280.211C236.249 280.211 246.219 280.322 256.161 297.292C262.393 307.93 268.331 427.699 268.331 427.699Z" fill="white"/>
<path opacity="0.5" d="M177.837 344.976C177.837 344.976 165.394 395.949 161.976 427.699H142.395C142.395 427.699 144.236 413.102 146.124 393.768L177.837 344.976Z" fill="#CCDCFF"/>
<path d="M218.792 297.88C195.208 298.962 182.484 277.535 182.484 277.535C190.819 275.821 191.122 271.3 191.122 271.3C196.948 258.962 191.697 245.486 191.697 245.486L212.672 256.583L223.228 262.162C223.228 262.162 223.776 267.961 224.777 273.171C225.058 274.665 225.38 276.111 225.736 277.359C227.34 282.952 230.519 281.817 230.53 281.925C231.388 290.475 227.374 297.487 218.792 297.88Z" fill="#FF8B66"/>
<path d="M224.777 273.172C208.744 270.176 207.559 259.078 207.559 259.078L212.672 256.583L223.228 262.162C223.228 262.162 223.776 267.961 224.777 273.172Z" fill="#DD6747"/>
<path d="M234.078 207.897C240.733 219.394 251.448 252.801 239.79 262.848C229.051 272.102 209.63 263.648 194.093 252.224C178.556 240.8 182.897 216.352 195.235 207.898C207.573 199.443 225.41 192.925 234.078 207.897Z" fill="#FF8B66"/>
<path d="M237.608 181.622C233.36 167.941 224.3 177.808 210.485 185.378C204.214 188.989 175.328 190.108 169.861 200.929C165.371 209.815 172.367 216.707 175.051 218.914C174.416 218.878 173.795 218.78 173.196 218.601C169.521 217.502 166.678 214.011 165.103 210.721C164.88 210.253 164.223 210.662 164.419 211.121C166.503 216.008 170.205 219.105 174.609 219.982C170.617 221.433 166.428 221.286 162.713 217.767C162.302 217.377 161.729 217.963 162.096 218.384C165.442 222.213 170.448 223.019 174.937 221.637C172.873 224.565 169.742 226.405 170.889 231.775C175.23 252.111 198.422 259.079 198.422 259.079L200.249 252.682C200.249 252.682 192.394 247.164 191.797 239.318C191.577 236.425 192.71 233.526 194.988 231.731C199.522 228.158 203.987 232.074 206.537 233.485L208.517 230.798L206.514 218.079C207.701 217.508 209.028 216.934 210.53 216.353C237.879 205.784 239.878 188.933 237.608 181.622Z" fill="#5E1212"/>
<path d="M182.694 334.539C182.694 334.539 170.828 360.103 162.123 378.788C160.3 382.709 158.614 386.32 157.211 389.334C155.819 392.321 154.691 394.713 153.976 396.234C149.092 406.615 135.22 422.183 114.888 412.727C96.4063 404.132 108.29 379.035 108.29 379.035L146.591 299.298L182.694 334.539Z" fill="white"/>
<path d="M181.492 278.375C181.492 278.375 160.141 270.362 150.224 278.32C139.475 286.946 126.875 335.071 126.875 335.071C126.875 335.071 172.309 305.138 172.69 304.604C173.071 304.07 181.492 278.375 181.492 278.375Z" fill="white"/>
<path opacity="0.5" d="M162.124 378.788C160.301 382.709 158.615 386.32 157.213 389.334C155.508 388.84 154.179 388.216 154.179 388.216C154.179 388.216 154.62 366.436 152.777 361.405C152.777 361.405 158.386 369.496 162.124 378.788Z" fill="#CCDCFF"/>
<path d="M111.298 364.163C111.298 364.163 99.3855 378.375 100.531 394.519C101.676 410.664 109.374 416.582 119.085 418.787C130.769 421.44 146.331 418.223 155.126 403.014C165.893 384.398 156.425 348.586 135.35 355.916" fill="white"/>
<path d="M181.49 278.374C181.49 278.374 208.797 289.702 221.954 284.897C221.954 284.897 227.126 283.981 225.735 277.36C225.735 277.36 229.728 284.266 230.186 285.272C230.643 286.278 231.887 291.715 230.759 295.441C229.631 299.167 228.926 301.511 228.468 301.969C228.011 302.426 224.276 302.433 220.222 302.433C216.168 302.433 215.755 301.33 211.632 299.302C207.509 297.273 203.5 296.586 198.918 293.265C194.336 289.943 187.465 285.935 186.319 284.102C185.172 282.27 181.49 278.374 181.49 278.374Z" fill="white"/>
<path d="M214.543 297.92L219.191 304.935L228.354 304.376C228.354 304.376 230.874 298.993 230.759 295.442C230.644 291.892 221.954 284.898 221.954 284.898L214.543 297.92Z" fill="#15127B"/>
<path d="M192.379 268.109C192.379 268.109 187.066 272.154 181.49 278.374C181.49 278.374 190.348 298.402 216.167 302.434L221.954 284.897C221.954 284.897 203.476 283.082 192.379 268.109Z" fill="#93B0FC"/>
<path d="M224.777 273.172C224.777 273.172 226.674 280.361 221.955 284.898L230.466 300.721C230.466 300.721 234.119 293.8 232.287 282.729C232.287 282.729 230.5 274.83 224.777 273.172Z" fill="#93B0FC"/>
<path opacity="0.5" d="M138.785 358.437C138.785 358.437 146.574 366.684 147.719 380.199C148.865 393.714 141.076 405.397 131.684 407.687C122.292 409.978 107.787 404.938 108.282 383.062" fill="#CCDCFF"/>
<path d="M116.409 291.776L114.429 295.744L105.413 291.776C105.413 291.776 95.4708 287.744 94.5004 286.946C91.2569 284.289 88.9664 279.332 88.4623 276.73C88.2238 275.493 89.7727 266.459 90.1214 264.699C90.1667 264.497 90.2498 264.324 90.3686 264.158C91.3216 262.921 95.6834 257.296 97.4785 256.151C98.5136 255.491 100.475 257.387 99.2649 259.962C97.6706 263.389 96.2965 265.853 96.2965 265.853L96.2782 266.045L95.609 274.659L95.6003 274.787L102.363 282.768C102.363 282.768 111.983 279.635 115.191 281.009C118.398 282.384 116.409 291.776 116.409 291.776Z" fill="#FF8B66"/>
<path d="M96.2796 266.047L95.6104 274.66L95.0513 275.888C95.0513 275.888 93.769 273.908 94.0798 272.113C94.3832 270.317 96.2796 266.047 96.2796 266.047Z" fill="#DD6747"/>
<path d="M107.906 255.931C107.851 256.398 107.741 256.966 107.586 257.589C106.798 260.906 104.938 265.89 104.938 265.89L102.189 273.047L105.185 280.395L105.973 282.328L100.458 284.289C100.458 284.289 94.7486 277.005 94.5015 274.063C94.2359 270.994 98.7715 262.527 98.7715 262.527C98.7715 262.527 102.968 254.354 105.671 252.374C106.513 251.752 108.254 253.008 107.906 255.931Z" fill="#FF8B66"/>
<path d="M102.188 273.047L105.184 280.395L102.866 277.554C102.27 275.566 101.08 272.488 101.757 270.526L103.398 265.78C103.609 265.166 103.865 264.571 104.159 263.984C104.81 262.682 106.166 259.98 107.586 257.589C106.798 260.906 104.938 265.89 104.938 265.89L102.188 273.047Z" fill="#DD6747"/>
<path d="M114.22 256.761C114.147 257.449 113.661 259.129 113.432 259.871C112.663 262.308 111.352 264.691 111.352 264.691L109.346 272.534L113.03 281.551L113.13 281.808L105.039 284.749L102.578 276.593C101.98 274.61 102.022 272.489 102.698 270.531L104.337 265.784C104.55 265.169 104.804 264.571 105.096 263.99C106.317 261.568 109.972 254.244 111.985 253.216C112.919 252.729 114.569 253.837 114.22 256.761Z" fill="#FF8B66"/>
<path d="M109.345 272.533L113.029 281.55C111.407 280.496 108.283 277.884 108.283 272.533C108.283 271.323 109.869 264.25 110.749 262.93C111.234 262.197 112.297 260.997 113.433 259.87C112.663 262.307 111.353 264.69 111.353 264.69L109.345 272.533Z" fill="#DD6747"/>
<path d="M105.418 291.776C105.418 291.776 109.084 296.052 110.304 312.851C111.526 329.649 99.3086 391.652 114.886 400.204C130.463 408.756 143.329 397.455 142.395 370.883C141.46 344.31 121.607 286.945 121.607 286.945L105.418 291.776Z" fill="#FF8B66"/>
<path d="M123.338 293.262C123.338 293.262 123.075 290.598 123.338 288.077C123.6 285.557 122.631 280.029 119.431 278.575C116.232 277.121 116.135 274.794 115.424 273.113C114.712 271.433 115.488 266.894 116.07 265.55C116.652 264.206 117.651 262.076 118.169 261.042C118.686 260.008 118.605 258.359 117.749 257.653C117.052 257.08 112.806 261.156 111.626 262.93C110.751 264.248 108.834 271.664 108.834 272.877C108.834 278.604 113.226 287.22 113.226 287.382C113.226 287.544 116.62 293.262 116.62 293.262" fill="#FF8B66"/>
<path d="M219.19 304.934L213.463 401.273L214.542 429.456H242.784L243.028 427.204C244.842 410.461 244.261 393.545 241.303 376.967L228.353 304.377" fill="#15127B"/>
<path d="M182.691 331.177H213.463V354.904C213.463 356.543 212.763 358.104 211.541 359.194L202.442 367.314C200.335 369.194 197.175 369.267 194.984 367.483L184.81 359.205C183.469 358.112 182.689 356.475 182.689 354.745V331.177H182.691Z" fill="#CCDCFF"/>
<path d="M233.468 254.936C236.086 255.011 241.967 250.223 243.5 246.132C245.035 242.041 238.397 249.613 233.624 250.661C224.001 249.632 230.239 254.842 233.468 254.936Z" fill="white"/>
<path d="M201.069 234.675C201.617 238.716 200.196 241.993 197.745 245.109C197.325 245.643 197.966 246.316 198.499 245.864C201.734 243.111 202.804 238.437 202.092 234.393C201.971 233.712 200.98 234.015 201.069 234.675Z" fill="#DD6747"/>
<path d="M198.422 237.264C199.73 238.758 199.82 240.242 199.872 242.117C199.89 242.78 200.732 242.82 200.962 242.265C201.773 240.3 200.683 237.811 199.197 236.49C198.667 236.018 197.957 236.733 198.422 237.264Z" fill="#DD6747"/>
<path d="M231.154 239.534C233 240.335 235.419 239.484 235.82 237.378C235.899 236.959 235.333 236.806 235.185 237.203C234.618 238.719 232.959 239.621 231.365 239.036C231.078 238.931 230.872 239.411 231.154 239.534Z" fill="#DD6747"/>
<path d="M216.559 227.03C219.349 228.223 222.891 226.046 222.322 222.818C222.257 222.452 221.66 222.538 221.675 222.906C221.78 225.502 219.272 227.491 216.768 226.534C216.483 226.425 216.275 226.909 216.559 227.03Z" fill="#5E1212"/>
<path d="M230.023 218.955C232.813 220.148 236.355 217.971 235.786 214.742C235.721 214.376 235.124 214.461 235.139 214.83C235.244 217.427 232.736 219.415 230.233 218.457C229.949 218.348 229.74 218.834 230.023 218.955Z" fill="#5E1212"/>
<path d="M224.296 229.076C224.935 230.347 224.836 231.688 224.077 232.069C223.318 232.451 222.184 231.729 221.545 230.457C220.906 229.186 221.003 227.845 221.763 227.464C222.523 227.082 223.657 227.804 224.296 229.076Z" fill="#5E1212"/>
<path d="M237.854 221.615C238.493 222.886 238.396 224.227 237.636 224.608C236.876 224.989 235.743 224.268 235.104 222.996C234.465 221.725 234.562 220.384 235.322 220.003C236.082 219.621 237.216 220.342 237.854 221.615Z" fill="#5E1212"/>
<path d="M227.162 228.084C229.787 233.183 228.814 238.914 224.989 240.883C221.165 242.852 215.936 240.313 213.311 235.214C210.686 230.115 211.658 224.384 215.484 222.415C219.309 220.447 224.537 222.984 227.162 228.084Z" stroke="white" stroke-width="0.6367" stroke-miterlimit="10"/>
<path d="M241.888 219.884C244.513 224.983 243.902 230.526 240.522 232.266C237.144 234.005 232.277 231.281 229.653 226.182C227.029 221.083 227.639 215.539 231.018 213.8C234.396 212.059 239.262 214.784 241.888 219.884Z" stroke="white" stroke-width="0.6367" stroke-miterlimit="10"/>
<path d="M226.762 227.361C226.762 227.361 227.581 225.573 229.545 225.97" stroke="white" stroke-width="0.6367" stroke-miterlimit="10"/>
<path d="M162.95 168.15C162.95 156.503 148.82 147.062 131.39 147.062C113.96 147.062 99.8301 156.503 99.8301 168.15C99.8301 179.796 113.96 189.237 131.39 189.237C134.399 189.237 137.306 188.953 140.063 188.426C140.772 188.29 141.502 188.446 142.081 188.878L154.108 197.855C154.763 198.344 155.66 197.705 155.411 196.926L152.041 186.371C151.689 185.267 152.131 184.069 153.109 183.45C159.17 179.607 162.95 174.174 162.95 168.15Z" fill="#15127B"/>
<path d="M120.276 168.184C120.276 169.806 118.962 171.119 117.341 171.119C115.72 171.119 114.406 169.805 114.406 168.184C114.406 166.563 115.721 165.25 117.341 165.25C118.961 165.25 120.276 166.563 120.276 168.184Z" fill="#FAB511"/>
<path d="M134.327 168.184C134.327 169.806 133.013 171.119 131.392 171.119C129.771 171.119 128.457 169.805 128.457 168.184C128.457 166.563 129.772 165.25 131.392 165.25C133.012 165.25 134.327 166.563 134.327 168.184Z" fill="#FAB511"/>
<path d="M148.378 168.184C148.378 169.806 147.064 171.119 145.443 171.119C143.821 171.119 142.508 169.805 142.508 168.184C142.508 166.563 143.821 165.25 145.443 165.25C147.063 165.25 148.378 166.563 148.378 168.184Z" fill="#FAB511"/>
<path d="M523.947 194.327C523.947 194.327 524.702 173.642 544.198 174.846C557.974 175.695 566.825 188.917 561.399 201.763C555.089 216.705 537.51 212.907 537.51 212.907" fill="#BA4349"/>
<path d="M548 206.745C554.205 210.57 554.732 220.228 553.413 226.52C551.982 233.342 549.262 241.623 542.719 245.109C542.119 245.429 542.648 246.314 543.249 246.016C550.689 242.331 553.721 232.615 555.023 225.002C556.1 218.702 554.712 209.376 548.523 205.851C547.941 205.52 547.433 206.395 548 206.745Z" fill="#BA4349"/>
<path d="M482.687 390.183C476.766 401.75 462.067 430.764 447.51 412.62C436.948 399.456 422.422 375.174 422.422 375.174L446.3 376.372C450.099 380.411 455.69 386.776 455.69 386.776L461.829 356.861L479.283 378.025C479.283 378.025 492.669 370.698 482.687 390.183Z" fill="#FFA58D"/>
<path d="M575.673 358.064C572.752 368.651 569.444 378.519 566.398 385.832C556.129 410.464 563.306 429.459 563.306 429.459H471.467C471.467 429.459 473.712 412.689 474.509 407.106C476.03 396.458 477.24 378.584 477.24 378.584L450.361 369.838C450.361 369.838 463.287 306.714 468.615 297.839C473.943 288.975 497.137 285.038 497.137 285.038L553.803 281.558C560.454 280.987 574.281 282.562 581.846 294.826C587.424 303.873 582.598 332.998 575.673 358.064Z" fill="#4C56D8"/>
<path d="M566.397 385.832C556.129 410.464 563.306 429.459 563.306 429.459H540.109C538.534 422.351 540.239 416.823 535.735 412.24C527.236 403.593 512.766 386.586 512.766 386.586L541.755 381.612L549.901 343.074L558.172 332.475L567.869 340.347C567.869 340.347 572.843 350.067 575.672 358.064C572.751 368.651 569.443 378.52 566.397 385.832Z" fill="#3446C1"/>
<path d="M485.357 349.444C485.357 349.444 482.463 346.512 481.094 344.168C479.276 341.059 478.598 337.002 481.022 336.146C483.447 335.29 483.732 340.461 489.436 344.311C492.323 346.259 497.174 356.289 497.174 356.289L497.708 360.07" fill="#FFA58D"/>
<path d="M553.803 281.557C540.865 308.231 519.953 309.177 519.953 309.177C494.854 311.847 497.136 285.037 497.136 285.037L504.129 283.462C508.773 282.413 512.218 278.533 512.8 273.799C512.845 273.445 512.88 273.103 512.915 272.75C513.439 267.787 513.326 262.654 513.154 259.356C513.04 257.189 512.904 255.82 512.904 255.82L510.827 238.262C510.827 238.262 549.24 211.257 541.266 235.695C537.329 247.776 536.394 258.82 536.452 266.898C536.497 274.416 542.259 280.667 549.766 281.249L553.803 281.557Z" fill="#FFA58D"/>
<path d="M512.914 272.75C513.439 267.787 513.325 262.654 513.154 259.356L526.798 255.82C526.798 255.82 526.086 268.567 512.914 272.75Z" fill="#F48B76"/>
<path d="M482.039 213.95C481.48 227.98 487.92 264.499 503.772 268.149C518.372 271.512 532.368 254.037 541.268 235.7C550.168 217.362 534.063 196.639 518.361 194.813C502.658 192.986 482.768 195.679 482.039 213.95Z" fill="#FFA58D"/>
<path d="M502.316 375.822L465.174 312.531C463.837 310.255 461.396 308.857 458.757 308.857L384.036 308.869C383.216 308.869 382.553 309.296 382.163 309.897L382.158 309.892L382.123 309.951C382.104 309.983 382.086 310.014 382.068 310.046L380.049 313.505L383.526 314.718C383.526 314.718 383.528 314.706 383.531 314.691L419.421 375.845C420.757 378.121 423.198 379.519 425.837 379.519L498.825 379.508C498.779 379.778 498.753 379.98 498.753 379.98L500.379 381.608L502.281 378.353L502.274 378.352C502.728 377.624 502.814 376.669 502.316 375.822Z" fill="#93B0FC"/>
<path d="M498.19 382.971L423.822 382.982C421.183 382.982 418.741 381.585 417.405 379.308L380.084 315.714C379.205 314.217 380.285 312.331 382.02 312.331L456.741 312.319C459.38 312.319 461.821 313.717 463.158 315.994L500.301 379.284C501.258 380.915 500.081 382.971 498.19 382.971Z" fill="#F3FBFF"/>
<path opacity="0.5" d="M459.68 357.668C459.68 357.668 465.665 363.365 467.783 364.561C470.328 365.999 480.738 367.604 487.06 369.03C492.398 370.234 499.063 374.329 499.063 374.329L495.807 367.27L487.748 363.847L468.471 361.186L459.68 357.668Z" fill="#CCDCFF"/>
<path d="M556.094 340.34L543.988 385.52C543.988 385.52 558.014 393.209 570.856 392.865L584.303 348.819" fill="#FFA58D"/>
<path d="M548.475 323.373L543.529 346.176C543.529 346.176 563.141 355.284 587.814 356.861C587.814 356.861 596.391 295.682 571.947 285.785C571.947 285.785 558.55 283.456 548.475 323.373Z" fill="#4C56D8"/>
<path d="M550.867 382.803C535.379 374.768 497.174 356.289 497.174 356.289L488.619 365.191C488.619 365.191 533.444 407.814 554.011 414.053C565.397 417.507 573.557 384.019 573.557 384.019" fill="#FFA58D"/>
<path d="M493.502 369.206C489.716 366.652 477.657 366.837 470.803 363.38C473.114 359.108 477.657 352.069 484.337 347.593C485.677 347.943 486.774 348.273 487.492 348.534C491.104 349.835 491.327 352.088 493.347 355.001C495.376 357.914 497.182 358.273 497.182 358.273C497.182 358.273 498.008 372.235 493.502 369.206Z" fill="#FFA58D"/>
<path d="M482.347 351.927L473.93 350.228C473.93 350.228 468.512 347.719 465.357 345.455C462.202 343.189 462.778 341.592 465.357 341.895C466.981 342.086 475.946 345.809 475.946 345.809C475.946 345.809 481.469 346.999 483.172 346.737C484.866 346.477 484.337 345.142 484.337 345.142L487.05 346.658L487.749 349.024" fill="#FFA58D"/>
<path d="M477.886 354.7L467.709 353.441C467.709 353.441 460.093 349.894 458.468 349.702C455.889 349.398 455.313 350.996 458.468 353.261C461.623 355.527 464.71 357.271 467.042 358.034C469.082 358.703 475.459 359.733 475.459 359.733" fill="#FFA58D"/>
<path d="M476.964 359.431L469.025 359.037C469.025 359.037 461.881 356.429 460.468 356.263C458.226 356 457.725 357.388 460.468 359.357C463.21 361.325 465.893 362.842 467.919 363.506C469.692 364.086 477.239 365.512 477.239 365.512" fill="#FFA58D"/>
<path d="M480.465 350.632L470.028 348.933L463.522 345.718C463.522 345.718 458.984 342.563 457.073 343.139C455.38 343.65 457.589 346.567 459.835 348.449C462.08 350.33 467.48 353.091 467.48 353.091L478.645 355.792" fill="#FFA58D"/>
<path d="M490.481 211.068C490.481 211.068 493.428 227.658 512.766 230.938C525.997 233.182 539.222 242.929 539.222 242.929C539.222 242.929 545.325 233.564 547.145 221.526C549.616 205.173 543.811 184.068 515.771 182.927C492.523 181.982 476.792 197.568 477.933 214.866C478.641 225.601 484.059 234.22 484.059 234.22C484.059 234.22 479.928 218.578 490.481 211.068Z" fill="#BA4349"/>
<path d="M530.533 241.674C530.533 241.674 534.357 242.204 535.356 248.621C536.354 255.038 535.356 262.311 535.356 262.311L539.206 259.744C539.206 259.744 541.541 254.116 545.053 243.962C553.799 236.547 555.823 220.963 548.476 209.356C540.35 196.522 531.506 228.228 531.506 228.228L530.533 241.674Z" fill="#BA4349"/>
<path d="M511.11 345.232C511.11 345.232 514.015 362.897 530.532 365.511C530.532 365.511 506.833 367.594 511.11 345.232Z" fill="#3446C1"/>
<path d="M521.996 234.884C521.996 234.884 521.525 225.419 529.366 227.16C537.708 229.013 535.257 246.482 527.581 244.391" fill="#FFA58D"/>
<path d="M489.477 210.307C489.5 226.556 504.291 234.601 519.074 232.139C519.865 232.007 519.69 230.65 518.883 230.729C510.692 231.529 502.027 230.903 496.234 224.322C492.884 220.517 490.897 215.368 490.724 210.307C490.697 209.507 489.475 209.501 489.477 210.307Z" fill="#BA4349"/>
<path d="M492.034 241.893C492.428 243.434 492.081 244.855 491.26 245.064C490.439 245.274 489.454 244.194 489.061 242.652C488.667 241.11 489.014 239.69 489.835 239.481C490.656 239.271 491.641 240.351 492.034 241.893Z" fill="#903133"/>
<path d="M506.82 239.051C507.108 240.616 506.667 242.008 505.833 242.163C505 242.316 504.091 241.172 503.803 239.607C503.515 238.042 503.956 236.649 504.79 236.495C505.622 236.341 506.531 237.486 506.82 239.051Z" fill="#903133"/>
<path d="M497.963 245.564C498.022 247.268 497.559 249.145 498.208 250.781C498.903 252.53 500.738 252.697 502.377 252.331C502.727 252.254 502.658 251.645 502.291 251.694C500.452 251.933 498.948 251.676 498.644 249.618C498.448 248.279 498.631 246.911 498.568 245.565C498.551 245.176 497.95 245.173 497.963 245.564Z" fill="#F48B76"/>
<path d="M492.057 237.649C491.421 236.847 490.379 236.156 489.327 236.148C488.037 236.139 487.429 237.274 487.36 238.43C487.339 238.771 487.895 238.852 487.962 238.512C488.159 237.515 488.545 236.624 489.717 236.863C490.461 237.014 491.174 237.473 491.655 238.053C491.89 238.338 492.282 237.932 492.057 237.649Z" fill="#903133"/>
<path d="M507.106 234.911C506.519 234.06 505.554 233.287 504.491 233.191C503.169 233.071 502.487 234.171 502.333 235.35C502.287 235.697 502.848 235.757 502.935 235.431C503.193 234.468 503.613 233.626 504.75 233.913C505.469 234.095 506.182 234.601 506.612 235.199C506.825 235.492 507.316 235.216 507.106 234.911Z" fill="#903133"/>
<path d="M501.783 258.632C504.158 258.188 506.564 257.579 508.773 256.434C509.222 256.202 513.749 250.888 508.445 255.523C506.149 256.258 504.113 256.916 501.783 257.517C498.843 257.295 497.374 258.632 501.783 258.632Z" fill="#903133"/>
<path d="M527.715 232.691C525.889 235.054 526.793 238.886 529.521 240.115C529.899 240.286 530.389 239.799 530.006 239.485C529.048 238.698 528.178 238.088 527.86 236.818C527.545 235.567 527.459 234.191 528.268 233.117C528.506 232.801 527.959 232.375 527.715 232.691Z" fill="#F48B76"/>
<path d="M530.151 234.028C528.473 234.275 527.133 236.156 527.308 237.843C527.354 238.284 528 238.44 528.127 237.954C528.461 236.672 528.886 235.168 530.388 234.882C530.956 234.776 530.704 233.947 530.151 234.028Z" fill="#F48B76"/>
<path d="M515.301 242.278C515.713 243.603 514.5 245.159 512.591 245.754C510.681 246.348 508.799 245.757 508.385 244.431C507.972 243.107 509.186 241.551 511.096 240.956C513.006 240.361 514.889 240.954 515.301 242.278Z" fill="#FF8A73"/>
<path d="M493.68 248.368C493.962 249.274 493.133 250.338 491.828 250.744C490.523 251.151 489.236 250.746 488.953 249.841C488.672 248.935 489.501 247.871 490.806 247.465C492.112 247.058 493.398 247.463 493.68 248.368Z" fill="#FF8A73"/>
<path d="M30.1949 427.39H700.319C701.46 427.39 702.385 428.315 702.385 429.456C702.385 430.597 701.46 431.522 700.319 431.522H30.1949C29.0539 431.522 28.1289 430.597 28.1289 429.456C28.1289 428.315 29.0539 427.39 30.1949 427.39Z" fill="white"/>
<path d="M261.881 449.129H213.128C212.805 449.129 212.543 448.867 212.543 448.544V445.482C212.543 445.159 212.805 444.897 213.128 444.897H261.881C262.203 444.897 262.466 445.158 262.466 445.482V448.544C262.465 448.867 262.203 449.129 261.881 449.129Z" fill="#3D2EAA"/>
<path d="M360.97 449.129H259.308C258.912 449.129 258.634 448.74 258.762 448.365L284.674 372.824C284.754 372.591 284.973 372.435 285.22 372.435H386.883C387.279 372.435 387.558 372.824 387.429 373.199L361.518 448.74C361.437 448.972 361.216 449.129 360.97 449.129Z" fill="#3D2EAA"/>
<path d="M364.128 449.129H262.465C262.068 449.129 261.79 448.74 261.918 448.365L287.83 372.824C287.91 372.591 288.13 372.435 288.376 372.435H390.039C390.436 372.435 390.714 372.824 390.586 373.199L364.674 448.74C364.594 448.972 364.375 449.129 364.128 449.129Z" fill="#4C56D8"/>
<path d="M328.454 418.674C334.887 418.674 340.102 415.14 340.102 410.781C340.102 406.422 334.887 402.889 328.454 402.889C322.021 402.889 316.807 406.422 316.807 410.781C316.807 415.14 322.021 418.674 328.454 418.674Z" fill="#3446C1"/>
<path d="M94.4891 374.734C94.4891 374.734 87.8217 377.402 85.2668 381.734C82.7108 386.068 88.5168 392.845 80.2671 395.762C74.6823 397.736 72.2667 406.29 72.2667 406.29H60.157C60.157 406.29 56.8206 391.846 63.0433 387.734C69.266 383.623 68.2049 381.32 73.155 377.067C82.4334 369.096 94.4891 374.734 94.4891 374.734Z" fill="#40CCC8"/>
<path d="M89.3504 374.683C89.3504 374.683 88.7254 374.712 87.6536 374.913C86.5872 375.119 85.062 375.491 83.3771 376.283C82.5449 376.691 81.6533 377.17 80.8233 377.829C79.9846 378.49 79.1988 379.246 78.495 380.191C77.8085 381.1 77.2267 382.151 76.7723 383.267C76.3093 384.383 75.9714 385.577 75.5699 386.77C75.1716 387.962 74.6761 389.154 74.0145 390.237C73.315 391.355 72.3868 392.194 71.5189 392.991C69.752 394.556 68.0833 395.93 66.8646 397.286C65.6287 398.624 64.8634 399.908 64.4997 400.852C64.313 401.324 64.2072 401.705 64.1446 401.966C64.0884 402.229 64.0582 402.369 64.0582 402.369L62.75 402.112C62.75 402.112 62.7899 401.948 62.8655 401.641C62.9475 401.337 63.0857 400.893 63.3188 400.357C63.7722 399.278 64.6832 397.875 66.0335 396.504C67.3655 395.113 69.1205 393.761 70.8983 392.28C71.7715 391.53 72.6771 390.744 73.3118 389.79C73.967 388.798 74.4786 387.69 74.9125 386.534C75.3497 385.379 75.735 384.18 76.2542 383.045C76.768 381.906 77.4027 380.847 78.1604 379.915C78.8879 379.008 79.7644 378.207 80.6333 377.576C81.5076 376.931 82.4315 376.475 83.2886 376.091C85.0221 375.348 86.5667 375.027 87.6428 374.856C88.7244 374.691 89.3504 374.683 89.3504 374.683Z" fill="#68EAE4"/>
<path d="M66.7767 404.935C66.7767 404.935 69.1103 387.101 63.4436 379.768C57.7768 372.434 54.7772 368.768 54.1101 361.601C53.443 354.433 48.4433 349.434 40.1094 348.1C40.1094 348.1 42.6092 355.586 41.9433 360.26C41.2762 364.934 39.1099 372.434 41.11 376.518C43.1101 380.601 46.6105 387.934 47.7773 391.935C48.9442 395.935 49.2777 404.935 49.2777 404.935" fill="#31BAB0"/>
<path d="M41.8887 349.877C41.8887 349.877 42.5212 350.47 43.4559 351.66C44.3842 352.846 45.6428 354.632 46.6596 357.028C47.1647 358.223 47.6321 359.564 47.8944 361.035C48.1707 362.5 48.2873 364.09 48.1491 365.716C48.0358 367.34 47.7778 368.996 47.835 370.671C47.9063 372.331 48.1739 374.059 48.9813 375.52C49.7736 377.014 50.7979 378.401 51.7931 379.773C52.7948 381.143 53.7943 382.494 54.6848 383.866C55.5753 385.237 56.3665 386.627 56.9429 388.046C57.5441 389.463 57.7913 390.932 58.0039 392.193C58.4432 394.777 58.6224 396.954 58.6796 398.49C58.7088 399.257 58.7098 399.864 58.7023 400.28C58.6861 400.708 58.6775 400.936 58.6775 400.936L57.3487 400.822C57.3487 400.822 57.3617 400.619 57.3854 400.238C57.4027 399.847 57.4178 399.266 57.4092 398.523C57.393 397.04 57.2732 394.903 56.9116 392.369C56.7259 391.077 56.5424 389.749 56.0146 388.408C55.5084 387.061 54.783 385.698 53.9465 384.334C53.11 382.968 52.1547 381.603 51.1876 380.204C50.2259 378.802 49.2253 377.375 48.4384 375.795C47.6127 374.188 47.3914 372.395 47.3612 370.678C47.3482 368.948 47.6537 367.287 47.807 365.688C47.9861 364.089 47.9138 362.532 47.6634 361.077C47.4313 359.62 46.9931 358.285 46.5138 357.089C45.5489 354.692 44.3259 352.887 43.4214 351.685C42.5093 350.481 41.8887 349.877 41.8887 349.877Z" fill="#68EAE4"/>
<path d="M53.6807 398.795C53.6807 398.795 51.5144 385.184 43.6802 380.628C39.4145 378.147 37.1823 379.628 33.0148 378.128C28.8462 376.628 18.8467 373.962 14.3457 382.462C14.3457 382.462 23.5129 381.628 26.179 383.962C28.8451 386.296 29.0124 392.962 30.679 394.629C32.3456 396.295 38.8456 396.184 40.346 402.573" fill="#40CCC8"/>
<path d="M48.3491 399.166C48.348 399.145 48.3469 399.05 48.3081 398.774C48.266 398.504 48.1807 398.101 48.0123 397.6C47.6744 396.607 46.9577 395.204 45.5923 393.923C44.9145 393.287 44.1092 392.653 43.1572 392.13C42.2095 391.582 41.1301 391.03 40.0788 390.379C39.021 389.738 37.9459 389.019 36.9464 388.152C35.9394 387.284 35.1093 386.201 34.3581 385.141C32.8933 383.036 30.8425 381.354 28.5952 380.472C26.3501 379.573 24.0175 379.478 22.0941 379.701C20.1566 379.93 18.5893 380.423 17.5175 380.805C16.9799 380.997 16.5622 381.163 16.2816 381.283C15.9988 381.4 15.8477 381.462 15.8477 381.462C15.8477 381.462 15.9966 381.395 16.2762 381.269C16.5536 381.14 16.9659 380.961 17.498 380.751C18.5602 380.334 20.1155 379.788 22.0682 379.495C24.0067 379.208 26.3911 379.222 28.7452 380.079C31.0983 380.914 33.3024 382.61 34.8902 384.744C35.6814 385.786 36.4877 386.766 37.4591 387.551C38.4284 388.339 39.4851 389.001 40.5397 389.595C41.591 390.2 42.6391 390.692 43.6527 391.235C44.6867 391.762 45.5869 392.421 46.3565 393.098C47.9065 394.462 48.7862 396.028 49.2137 397.17C49.4285 397.746 49.5461 398.221 49.6087 398.554C49.6681 398.882 49.6832 399.114 49.681 399.092L48.3491 399.166Z" fill="#68EAE4"/>
<path d="M33.0542 401.648L40.0141 446.302C40.2677 447.929 41.6677 449.129 43.3202 449.129H67.3744C69.028 449.129 70.4279 447.929 70.6805 446.302L77.6404 401.648C77.947 399.621 76.3872 397.794 74.3342 397.794H36.3614C34.3073 397.794 32.7476 399.622 33.0542 401.648Z" fill="#F5FAFF"/>
<path d="M39.5087 401.648L46.4686 446.302C46.7222 447.929 48.1222 449.129 49.7618 449.129H67.3752C69.0288 449.129 70.4288 447.929 70.6814 446.302L77.6412 401.648C77.9478 399.621 76.3881 397.794 74.3351 397.794H42.8019C40.7489 397.794 39.1881 399.622 39.5087 401.648Z" fill="white"/>
<path d="M652.565 410.569V447.901C652.565 448.578 652.015 449.13 651.337 449.13H619.822C619.145 449.13 618.594 448.579 618.594 447.901V410.569C618.594 409.892 619.144 409.34 619.822 409.34H651.337C652.014 409.34 652.565 409.891 652.565 410.569Z" fill="white"/>
<path d="M652.565 445.526V447.901C652.565 448.578 652.015 449.13 651.337 449.13H619.822C619.145 449.13 618.594 448.579 618.594 447.901V410.569C618.594 409.892 619.144 409.34 619.822 409.34H621.658C622.29 415.687 626.387 440.385 652.565 445.526Z" fill="#F5FAFF"/>
<path d="M619.639 418.774H612.169C611.462 418.774 610.889 419.347 610.889 420.054V438.797C610.889 439.504 611.462 440.077 612.169 440.077H619.998" stroke="#F5FAFF" stroke-width="3.1897" stroke-miterlimit="10"/>
<path opacity="0.4" d="M627.816 382.203C624.782 381.956 617.99 384.032 617.846 389.196C617.698 394.517 624.421 395.556 627.099 396.512C629.777 397.468 625.7 398.712 625.413 401.103C625.126 403.493 627.091 404.952 632.928 404.379C638.766 403.804 637.905 410.691 637.905 410.691H639.436C639.436 410.691 641.492 407.308 640.154 404.725C638.815 402.143 635.372 401.27 636.807 399.166C638.241 397.062 644.219 396.436 642.593 391.778C641.393 388.338 628.857 389.913 628.821 387.354C628.792 385.365 632.228 382.562 627.816 382.203Z" fill="white"/>
<defs>
<linearGradient id="paint0_linear_1273_4776" x1="429" y1="57.6318" x2="283" y2="325.632" gradientUnits="userSpaceOnUse">
<stop stop-color="#EE5622"/>
<stop offset="1" stop-color="#FAB511"/>
</linearGradient>
</defs>
</svg>
