<svg width="80" height="75" viewBox="0 0 80 75" fill="none" xmlns="http://www.w3.org/2000/svg">
<path d="M78.5039 67.6037C76.2649 67.6016 74.0237 67.5807 71.7868 67.6183C71.1727 67.6287 70.8866 67.47 70.6798 66.858C69.9321 64.6399 67.8372 63.2509 65.4352 63.2927C63.0625 63.3324 61.0741 64.761 60.3661 66.9896C60.2241 67.4345 60.0653 67.6183 59.5724 67.6162C55.0421 67.5974 50.5098 67.5995 45.9795 67.6162C45.5367 67.6162 45.3466 67.47 45.2129 67.0564C44.6553 65.3333 43.5023 64.1574 41.7876 63.5851C41.3134 63.4264 41.2194 63.1841 41.2236 62.7413C41.2445 60.945 41.2591 59.1467 41.2194 57.3505C41.2069 56.7991 41.4137 56.5192 41.8607 56.2519C45.6954 53.946 49.5218 51.6255 53.342 49.2967C57.1767 46.9595 60.9906 44.5889 64.84 42.2767C65.5021 41.8799 65.807 41.435 65.8049 40.6685C65.784 34.0287 65.7819 27.3868 65.7736 20.747C65.7799 14.4706 65.7861 8.19419 65.7924 1.91781C65.7924 0.370119 65.4227 0.000426437 63.8583 0.000426437C47.972 0.000426437 32.0858 0.000426437 16.1975 0.000426437C15.9385 0.000426437 15.6753 -0.00583963 15.4184 0.0296674C14.5725 0.144543 14.23 0.514235 14.23 1.37267C14.23 7.72633 14.2383 14.0821 14.2467 20.4357C14.2383 27.1549 14.2425 33.8741 14.2091 40.5954C14.2049 41.4329 14.5224 41.9237 15.2262 42.3477C22.9333 47.0012 30.6237 51.684 38.3288 56.3458C38.7319 56.5881 38.9115 56.8409 38.9031 57.3254C38.876 59.1488 38.8781 60.9722 38.9052 62.7956C38.9115 63.2426 38.7632 63.4264 38.3455 63.5621C36.6056 64.124 35.3754 65.2497 34.8177 67.0147C34.659 67.5159 34.4105 67.6204 33.928 67.6204C29.3956 67.6037 24.8653 67.6037 20.333 67.6204C19.8797 67.6204 19.6667 67.5138 19.5205 67.0376C19.1759 65.9077 18.5514 64.9364 17.5467 64.2597C14.4973 62.2108 10.4286 63.5621 9.26315 67.0376C9.10441 67.5138 8.8851 67.6225 8.43187 67.6183C6.16569 67.6016 3.8995 67.6308 1.63541 67.5974C0.967044 67.5869 0.423995 67.7332 0 68.2532V69.191C0.411463 69.7696 0.97331 69.945 1.67718 69.9346C3.864 69.9033 6.0529 69.9471 8.23971 69.9074C8.85586 69.897 9.13574 70.0641 9.34461 70.674C10.1174 72.9255 12.1142 74.2644 14.4973 74.2288C16.9076 74.1933 18.8459 72.8294 19.5832 70.5716C19.7544 70.0495 19.9925 69.9074 20.5168 69.9095C24.9948 69.9304 29.475 69.9283 33.953 69.9095C34.4418 69.9074 34.6778 70.0286 34.8428 70.5173C35.6302 72.8503 37.5309 74.1912 39.9809 74.1996C42.4831 74.208 44.3649 72.89 45.1816 70.5027C45.3341 70.0578 45.5346 69.9095 46.0025 69.9116C50.5077 69.9283 55.0129 69.9304 59.5181 69.9116C60.0319 69.9095 60.2178 70.0933 60.3765 70.5674C61.1368 72.8462 63.0563 74.1933 65.4666 74.2038C67.9437 74.2163 69.9133 72.9005 70.6756 70.6238C70.8782 70.0223 71.1706 69.9033 71.7388 69.9095C73.9778 69.9388 76.2168 69.9262 78.4579 69.92C79.4709 69.9179 79.9785 69.5294 79.9994 68.767C80.0202 67.9942 79.5294 67.612 78.5039 67.6099V67.6037ZM14.5245 71.9856C12.6551 72.0128 11.2453 70.6238 11.2453 68.7545C11.2453 66.9457 12.6551 65.5484 14.4701 65.5589C16.2413 65.5693 17.6324 66.9269 17.6282 68.6459C17.624 70.5361 16.2998 71.9606 14.5245 71.9856ZM30.2373 48.8643C26.0225 46.2932 21.8472 43.6511 17.5843 41.1614C16.6444 40.6121 16.4773 40.0502 16.4815 39.102C16.5128 32.8778 16.494 26.6536 16.492 20.4295C16.5066 20.1183 16.5316 19.8071 16.5316 19.4959C16.5337 14.08 16.5421 8.66205 16.5212 3.24619C16.5191 2.64674 16.6131 2.37731 17.3128 2.37731C32.3907 2.39611 47.4687 2.39611 62.5466 2.37731C63.2421 2.37731 63.3466 2.63839 63.3445 3.24409C63.3257 8.73932 63.332 14.2346 63.334 19.7298C63.334 20.0681 63.3591 20.4044 63.3716 20.7428C63.3612 27.0714 63.3424 33.4 63.3528 39.7286C63.3528 40.2674 63.1774 40.5745 62.7367 40.8439C56.7423 44.5011 50.7562 48.1688 44.7681 51.8323C43.3499 52.6991 41.9296 53.5596 40.5218 54.441C40.1835 54.654 39.912 54.7313 39.5297 54.4995C36.4364 52.6113 33.3265 50.7525 30.2332 48.8664L30.2373 48.8643ZM39.8785 71.9919C38.0343 71.9209 36.7936 70.5131 36.8521 68.5519C36.9064 66.6742 38.1805 65.515 40.1396 65.5589C41.8669 65.5965 43.2329 67.0147 43.1974 68.7336C43.1577 70.6593 41.7291 72.0629 39.8785 71.9919ZM65.5417 71.9919C63.7058 71.994 62.3837 70.651 62.367 68.7691C62.3503 66.8956 63.662 65.561 65.525 65.5568C67.4111 65.5526 68.7457 66.8538 68.7583 68.7065C68.7708 70.5821 67.3923 71.9898 65.5438 71.9919H65.5417Z" fill="url(#paint0_linear_752_3969)"/>
<path d="M49.7964 45.5433C51.3692 45.5391 52.3717 44.4843 52.3717 42.9179C52.3759 37.0843 52.3717 31.2528 52.3592 25.4192C52.3571 24.0177 51.6511 23.1593 50.2747 22.9358C49.7922 22.8585 49.6836 22.6601 49.6941 22.2256C49.7171 21.2628 49.7317 20.2978 49.5061 19.3517C48.466 14.5039 44.015 11.2394 39.0566 11.6905C35.4474 12.0184 31.9677 14.7775 30.9631 18.1068C30.4472 19.383 30.324 20.7218 30.3678 22.0794C30.3845 22.5974 30.2885 22.8585 29.6828 22.9483C28.3878 23.1384 27.663 24.024 27.6589 25.3189C27.6442 31.2298 27.638 37.1407 27.6463 43.0515C27.6463 44.4739 28.676 45.537 30.1088 45.5412C36.6714 45.5621 43.2318 45.5642 49.7943 45.5412L49.7964 45.5433ZM44.1988 15.2558C45.6922 16.3127 46.6426 17.7601 47.1814 19.4937C47.6576 19.3287 48.1422 19.3099 48.6289 19.3203C48.1422 19.3078 47.6576 19.3287 47.1814 19.4937C47.4007 20.4127 47.3778 21.3505 47.3882 22.2862C47.3924 22.6977 47.3005 22.8961 46.8305 22.8961C42.2522 22.8836 37.676 22.8877 33.0977 22.8877C32.7886 22.8877 32.5275 22.8606 32.5212 22.4449C32.5045 21.008 32.5839 19.5898 33.2126 18.2614C35.4913 13.5578 40.9176 12.9353 44.1988 15.2558ZM29.8728 42.3894C29.8958 36.9234 29.8937 31.4595 29.8561 25.9936C29.8519 25.25 30.09 25.0829 30.7897 25.0892C33.835 25.1247 36.8802 25.1038 39.9234 25.1038V25.0954C43.0209 25.0954 46.1183 25.1121 49.2137 25.0829C49.9071 25.0766 50.164 25.2396 50.1578 25.9915C50.1222 31.4575 50.1181 36.9214 50.141 42.3873C50.1431 43.085 49.9364 43.2562 49.2575 43.2541C43.0898 43.2291 36.922 43.2291 30.7542 43.2541C30.0754 43.2562 29.8686 43.087 29.8707 42.3894H29.8728Z" fill="url(#paint1_linear_752_3969)"/>
<path d="M41.1421 38.0599C41.2925 37.4939 41.2716 36.9237 41.2424 36.3556C41.2194 35.942 41.3385 35.7123 41.7228 35.5013C42.8653 34.8768 43.425 33.8722 43.4501 33.0263C43.4668 30.7726 42.341 29.3628 40.6471 29.0578C38.9783 28.7571 37.3053 29.697 36.7664 31.2384C36.1565 32.9845 36.7831 34.6993 38.4081 35.5535C38.8112 35.7645 38.9303 36.0005 38.8676 36.4015C38.7882 36.9216 38.8342 37.4375 38.9052 37.9555C38.9887 38.5591 39.2686 38.9831 39.9328 39.0249C40.6242 39.0708 40.9751 38.6949 41.1421 38.0599ZM38.8091 32.385C38.8133 31.7209 39.3292 31.2258 40.0143 31.2217C40.691 31.2196 41.1985 31.7167 41.2069 32.3934C41.2152 33.0451 40.6806 33.6132 40.0498 33.6215C39.3835 33.6299 38.8029 33.0513 38.807 32.385H38.8091Z" fill="url(#paint2_linear_752_3969)"/>
<defs>
<linearGradient id="paint0_linear_752_3969" x1="56.2447" y1="1.84909" x2="18.5488" y2="71.8558" gradientUnits="userSpaceOnUse">
<stop stop-color="#DC0017"/>
<stop offset="1" stop-color="#200094"/>
</linearGradient>
<linearGradient id="paint1_linear_752_3969" x1="45.0297" y1="12.4936" x2="24.931" y2="37.7532" gradientUnits="userSpaceOnUse">
<stop stop-color="#DC0017"/>
<stop offset="1" stop-color="#200094"/>
</linearGradient>
<linearGradient id="paint2_linear_752_3969" x1="41.3975" y1="29.2517" x2="35.3879" y2="36.3916" gradientUnits="userSpaceOnUse">
<stop stop-color="#DC0017"/>
<stop offset="1" stop-color="#200094"/>
</linearGradient>
</defs>
</svg>
