<svg width="636" height="457" viewBox="0 0 636 457" fill="none" xmlns="http://www.w3.org/2000/svg">
<path d="M109.376 96.8755C120.867 96.8755 130.182 87.5605 130.182 76.0698C130.182 64.5792 120.867 55.2642 109.376 55.2642C97.8853 55.2642 88.5703 64.5792 88.5703 76.0698C88.5703 87.5605 97.8853 96.8755 109.376 96.8755Z" fill="url(#paint0_linear_752_3733)"/>
<path d="M502.695 108.046C505.102 108.046 507.053 106.095 507.053 103.688C507.053 101.281 505.102 99.3291 502.695 99.3291C500.287 99.3291 498.336 101.281 498.336 103.688C498.336 106.095 500.287 108.046 502.695 108.046Z" fill="url(#paint1_linear_752_3733)"/>
<path d="M309.217 39.1387C313.964 39.1387 317.812 35.291 317.812 30.5445C317.812 25.798 313.964 21.9502 309.217 21.9502C304.471 21.9502 300.623 25.798 300.623 30.5445C300.623 35.291 304.471 39.1387 309.217 39.1387Z" fill="url(#paint2_linear_752_3733)"/>
<path d="M437.743 126.865C440.151 126.865 442.102 124.913 442.102 122.506C442.102 120.099 440.151 118.147 437.743 118.147C435.336 118.147 433.385 120.099 433.385 122.506C433.385 124.913 435.336 126.865 437.743 126.865Z" fill="white"/>
<path d="M605.89 396.298C612.625 396.298 618.086 390.838 618.086 384.102C618.086 377.366 612.625 371.906 605.89 371.906C599.154 371.906 593.693 377.366 593.693 384.102C593.693 390.838 599.154 396.298 605.89 396.298Z" fill="url(#paint3_linear_752_3733)"/>
<path d="M575.278 254.731C581.625 245.716 579.462 233.263 570.447 226.916C561.433 220.569 548.98 222.732 542.633 231.747C536.286 240.761 538.449 253.214 547.463 259.561C556.478 265.908 568.931 263.745 575.278 254.731Z" fill="white"/>
<path d="M54.5394 428.841C54.5394 437.817 47.2627 445.094 38.2873 445.094C29.3119 445.094 22.0352 437.817 22.0352 428.841C22.0352 419.866 29.3119 412.589 38.2873 412.589C47.2627 412.589 54.5394 419.866 54.5394 428.841Z" fill="white"/>
<path d="M70.1121 201.306C84.7448 201.306 96.607 189.444 96.607 174.811C96.607 160.178 84.7448 148.316 70.1121 148.316C55.4794 148.316 43.6172 160.178 43.6172 174.811C43.6172 189.444 55.4794 201.306 70.1121 201.306Z" fill="url(#paint4_linear_752_3733)"/>
<path d="M241.336 92.4277C264.179 87.0662 278.35 64.2023 272.988 41.3599C267.627 18.5175 244.763 4.34646 221.92 9.70803C199.078 15.0696 184.907 37.9335 190.269 60.7759C195.63 83.6183 218.494 97.7893 241.336 92.4277Z" fill="white"/>
<path d="M50.1836 234.256H155.806" stroke="white" stroke-miterlimit="10" stroke-linecap="round"/>
<path d="M529.377 346.454H635" stroke="white" stroke-miterlimit="10" stroke-linecap="round"/>
<path d="M352.281 91.8828H457.904" stroke="white" stroke-miterlimit="10" stroke-linecap="round"/>
<path d="M63.4653 386.422H59.429V382.386C59.429 381.797 58.951 381.319 58.3619 381.319C57.7728 381.319 57.2948 381.797 57.2948 382.386V386.422H53.2585C52.6694 386.422 52.1914 386.9 52.1914 387.489C52.1914 388.078 52.6694 388.556 53.2585 388.556H57.2948V392.593C57.2948 393.182 57.7728 393.66 58.3619 393.66C58.951 393.66 59.429 393.182 59.429 392.593V388.556H63.4653C64.0544 388.556 64.5324 388.078 64.5324 387.489C64.5324 386.899 64.0544 386.422 63.4653 386.422Z" fill="white"/>
<path d="M533.504 126.867H527.36V120.723C527.36 119.825 526.632 119.098 525.735 119.098C524.838 119.098 524.111 119.825 524.111 120.723V126.867H517.966C517.069 126.867 516.342 127.594 516.342 128.492C516.342 129.389 517.069 130.116 517.966 130.116H524.111V136.261C524.111 137.158 524.838 137.885 525.735 137.885C526.632 137.885 527.36 137.158 527.36 136.261V130.116H533.504C534.401 130.116 535.129 129.389 535.129 128.492C535.129 127.594 534.401 126.867 533.504 126.867Z" fill="url(#paint5_linear_752_3733)"/>
<path d="M506.67 418.791H502.634V414.755C502.634 414.166 502.156 413.688 501.567 413.688C500.978 413.688 500.5 414.166 500.5 414.755V418.791H496.464C495.875 418.791 495.396 419.269 495.396 419.858C495.396 420.448 495.875 420.926 496.464 420.926H500.5V424.962C500.5 425.551 500.978 426.029 501.567 426.029C502.156 426.029 502.634 425.551 502.634 424.962V420.926H506.67C507.259 420.926 507.737 420.448 507.737 419.858C507.737 419.269 507.259 418.791 506.67 418.791Z" fill="white"/>
<path d="M129.071 347.036V336.114C129.071 335.046 128.205 334.179 127.136 334.179H124.325C123.502 334.179 122.773 333.62 122.589 332.818C121.616 328.577 119.959 324.596 117.723 321.01C117.277 320.293 117.362 319.371 117.958 318.774L119.936 316.797C120.691 316.041 120.691 314.816 119.936 314.061L112.214 306.338C111.458 305.582 110.233 305.582 109.477 306.338L107.503 308.312C106.907 308.908 105.983 308.992 105.268 308.546C101.681 306.309 97.7003 304.65 93.4571 303.675C92.6546 303.491 92.096 302.763 92.096 301.94V299.137C92.096 298.069 91.2304 297.202 90.1612 297.202H79.2389C78.1708 297.202 77.3041 298.069 77.3041 299.137V301.94C77.3041 302.763 76.7444 303.491 75.943 303.675C71.6987 304.65 67.7168 306.308 64.1301 308.545C63.4147 308.991 62.4914 308.906 61.8947 308.309L59.9228 306.336C59.1671 305.581 57.9422 305.581 57.1865 306.336L49.4644 314.06C48.7088 314.815 48.7088 316.04 49.4644 316.796L51.4396 318.77C52.0363 319.367 52.1201 320.289 51.6748 321.005C49.4394 324.593 47.7821 328.574 46.8087 332.816C46.6247 333.619 45.8963 334.177 45.0731 334.177H42.265C41.1968 334.177 40.3301 335.043 40.3301 336.112V347.034C40.3301 348.102 41.1957 348.969 42.265 348.969H45.0742C45.8974 348.969 46.6247 349.528 46.8098 350.33C47.7843 354.572 49.4426 358.553 51.678 362.139C52.1245 362.854 52.0395 363.778 51.4429 364.374L49.4655 366.352C48.7098 367.107 48.7098 368.332 49.4655 369.087L57.1876 376.81C57.9433 377.566 59.1682 377.566 59.9239 376.81L61.9034 374.83C62.5001 374.234 63.4223 374.15 64.1388 374.595C67.7244 376.828 71.7041 378.483 75.9452 379.457C76.7477 379.641 77.3062 380.369 77.3062 381.193V384.009C77.3062 385.078 78.173 385.944 79.2411 385.944H90.1633C91.2315 385.944 92.0982 385.079 92.0982 384.009V381.191C92.0982 380.368 92.6579 379.64 93.4604 379.456C97.7014 378.483 101.68 376.826 105.266 374.594C105.981 374.148 106.904 374.233 107.501 374.829L109.482 376.81C110.237 377.566 111.462 377.566 112.218 376.81L119.94 369.087C120.696 368.331 120.696 367.106 119.94 366.35L117.962 364.372C117.365 363.775 117.28 362.852 117.726 362.137C119.961 358.551 121.618 354.571 122.592 350.33C122.776 349.528 123.505 348.969 124.328 348.969H127.141C128.204 348.971 129.071 348.105 129.071 347.036ZM84.6973 367.176C70.5587 367.176 59.1138 355.708 59.1138 341.568C59.1138 327.451 70.5597 315.983 84.6973 315.983C98.836 315.983 110.282 327.451 110.282 341.568C110.282 355.708 98.836 367.176 84.6973 367.176Z" fill="white"/>
<path d="M474.708 158.577V147.654C474.708 146.586 473.842 145.719 472.773 145.719H469.962C469.138 145.719 468.41 145.16 468.226 144.357C467.253 140.116 465.595 136.136 463.36 132.549C462.913 131.832 462.998 130.91 463.595 130.313L465.572 128.336C466.328 127.58 466.328 126.355 465.572 125.601L457.85 117.878C457.095 117.122 455.87 117.122 455.114 117.878L453.14 119.852C452.543 120.448 451.62 120.532 450.905 120.086C447.318 117.849 443.337 116.19 439.094 115.215C438.291 115.031 437.733 114.303 437.733 113.48V110.677C437.733 109.609 436.867 108.742 435.798 108.742H424.876C423.808 108.742 422.941 109.608 422.941 110.677V113.48C422.941 114.303 422.381 115.031 421.58 115.215C417.335 116.19 413.353 117.848 409.767 120.085C409.051 120.531 408.128 120.446 407.531 119.851L405.56 117.878C404.804 117.122 403.579 117.122 402.823 117.878L395.101 125.601C394.345 126.356 394.345 127.581 395.101 128.336L397.076 130.31C397.673 130.907 397.757 131.829 397.312 132.545C395.076 136.133 393.419 140.114 392.445 144.356C392.261 145.159 391.533 145.717 390.71 145.717H387.902C386.834 145.717 385.967 146.583 385.967 147.652V158.574C385.967 159.643 386.832 160.509 387.902 160.509H390.711C391.534 160.509 392.261 161.068 392.447 161.87C393.421 166.112 395.079 170.093 397.315 173.679C397.761 174.394 397.676 175.318 397.08 175.914L395.102 177.892C394.347 178.647 394.347 179.872 395.102 180.627L402.824 188.35C403.58 189.106 404.805 189.106 405.561 188.35L407.54 186.37C408.137 185.774 409.059 185.69 409.776 186.135C413.361 188.368 417.341 190.024 421.582 190.997C422.384 191.181 422.944 191.909 422.944 192.733V195.549C422.944 196.618 423.811 197.484 424.879 197.484H435.801C436.869 197.484 437.736 196.619 437.736 195.549V192.731C437.736 191.908 438.296 191.18 439.098 190.996C443.339 190.024 447.318 188.367 450.903 186.134C451.619 185.688 452.542 185.773 453.139 186.369L455.119 188.35C455.875 189.106 457.1 189.106 457.856 188.35L465.578 180.627C466.334 179.871 466.334 178.646 465.578 177.892L463.599 175.913C463.003 175.316 462.918 174.393 463.364 173.678C465.599 170.092 467.256 166.112 468.23 161.871C468.414 161.069 469.143 160.51 469.966 160.51H472.778C473.842 160.51 474.708 159.645 474.708 158.577ZM430.334 178.716C416.195 178.716 404.751 167.248 404.751 153.108C404.751 138.991 416.196 127.523 430.334 127.523C444.473 127.523 455.919 138.991 455.919 153.108C455.92 167.247 444.474 178.716 430.334 178.716Z" fill="url(#paint6_linear_752_3733)"/>
<path d="M50.4463 310.304V304.096C50.4463 303.488 49.9541 302.996 49.3465 302.996H47.7481C47.2799 302.996 46.8662 302.678 46.7616 302.222C46.2085 299.811 45.2666 297.549 43.996 295.509C43.7422 295.102 43.7902 294.577 44.1299 294.239L45.2536 293.115C45.6826 292.686 45.6826 291.989 45.2536 291.56L40.8633 287.17C40.4343 286.741 39.7375 286.741 39.3085 287.17L38.1859 288.292C37.8461 288.631 37.3213 288.679 36.9152 288.425C34.8769 287.153 32.6131 286.21 30.2013 285.656C29.7451 285.552 29.4272 285.138 29.4272 284.67V283.077C29.4272 282.469 28.935 281.977 28.3274 281.977H22.1188C21.5113 281.977 21.0191 282.469 21.0191 283.077V284.67C21.0191 285.138 20.7012 285.552 20.2449 285.656C17.832 286.21 15.5683 287.153 13.53 288.425C13.1228 288.679 12.598 288.631 12.2593 288.292L11.1378 287.171C10.7088 286.741 10.0119 286.741 9.58294 287.171L5.19271 291.561C4.76371 291.99 4.76371 292.687 5.19271 293.116L6.31531 294.239C6.65394 294.577 6.70185 295.102 6.44924 295.509C5.17856 297.549 4.23561 299.812 3.68248 302.223C3.57795 302.679 3.16419 302.997 2.69598 302.997H1.09973C0.492157 302.997 0 303.489 0 304.097V310.306C0 310.913 0.492157 311.405 1.09973 311.405H2.69708C3.16528 311.405 3.57904 311.723 3.68357 312.179C4.23779 314.591 5.18073 316.854 6.45142 318.892C6.70512 319.299 6.65721 319.824 6.31749 320.163L5.1938 321.287C4.7648 321.716 4.7648 322.412 5.1938 322.841L9.58403 327.232C10.013 327.662 10.7099 327.662 11.1389 327.232L12.2637 326.107C12.6023 325.768 13.1271 325.72 13.5344 325.973C15.5727 327.243 17.8353 328.183 20.246 328.736C20.7022 328.841 21.0202 329.255 21.0202 329.723V331.325C21.0202 331.932 21.5124 332.424 22.1199 332.424H28.3285C28.9361 332.424 29.4283 331.932 29.4283 331.325V329.723C29.4283 329.255 29.7462 328.841 30.2024 328.736C32.6131 328.183 34.8758 327.242 36.913 325.973C37.3202 325.719 37.8451 325.767 38.1837 326.107L39.3096 327.233C39.7386 327.662 40.4354 327.662 40.8644 327.233L45.2547 322.843C45.6847 322.414 45.6837 321.717 45.2547 321.288L44.1299 320.163C43.7912 319.824 43.7422 319.299 43.996 318.892C45.2666 316.854 46.2085 314.591 46.7627 312.181C46.8672 311.724 47.281 311.406 47.7492 311.406H49.3487C49.9541 311.404 50.4463 310.911 50.4463 310.304ZM25.221 320.099C18.0966 320.099 12.3301 314.32 12.3301 307.196C12.3301 300.082 18.0966 294.304 25.221 294.304C32.3453 294.304 38.1129 300.082 38.1129 307.196C38.1118 314.32 32.3453 320.099 25.221 320.099Z" fill="white"/>
<path d="M473.304 401.448H145.132C132.662 401.448 122.555 391.339 122.555 378.871V167.269C122.555 154.799 132.664 144.691 145.132 144.691H473.304C485.773 144.691 495.881 154.8 495.881 167.269V378.871C495.881 391.34 485.773 401.448 473.304 401.448Z" fill="url(#paint7_linear_752_3733)"/>
<path d="M486.728 168.254V358.743C486.728 362.24 483.893 365.075 480.396 365.075H138.05C134.553 365.075 131.719 362.24 131.719 358.743V168.254C131.719 159.892 138.497 153.114 146.858 153.114H471.589C479.949 153.114 486.728 159.892 486.728 168.254Z" fill="white"/>
<path d="M344.832 456.231H273.6L281.08 412.819L283.04 401.451H335.392L337.352 412.819L344.832 456.231Z" fill="url(#paint8_linear_752_3733)"/>
<path d="M337.354 412.819H281.082L283.042 401.451H335.394L337.354 412.819Z" fill="url(#paint9_linear_752_3733)"/>
<path d="M368.437 446.899H250.002V456.233H368.437V446.899Z" fill="url(#paint10_linear_752_3733)"/>
<path d="M419.688 302.375H198.746V308.958H419.688V302.375Z" fill="#8FABD8"/>
<path d="M205.541 192.409H115.529C112.131 192.409 109.375 189.654 109.375 186.255V130.35C109.375 126.952 112.13 124.196 115.529 124.196H205.541C208.94 124.196 211.695 126.951 211.695 130.35V186.255C211.695 189.654 208.939 192.409 205.541 192.409Z" fill="white"/>
<path d="M205.541 123.651H115.531C111.837 123.651 108.832 126.657 108.832 130.35V186.255C108.832 189.948 111.837 192.953 115.531 192.953H205.541C209.235 192.953 212.24 189.948 212.24 186.255V130.35C212.24 126.657 209.236 123.651 205.541 123.651ZM211.151 130.35V140.705H195.186V124.74H205.541C208.635 124.74 211.151 127.257 211.151 130.35ZM159.993 158.847V174.812H144.028V158.847H159.993ZM144.028 157.758V141.794H159.993V157.758H144.028ZM161.081 158.847H177.046V174.812H161.081V158.847ZM161.081 157.758V141.794H177.046V157.758H161.081ZM178.134 141.794H194.099V157.758H178.134V141.794ZM178.134 140.705V124.74H194.099V140.705H178.134ZM177.045 140.705H161.08V124.74H177.045V140.705ZM159.993 140.705H144.028V124.74H159.993V140.705ZM142.939 140.705H126.974V124.74H142.939V140.705ZM142.939 141.794V157.758H126.974V141.794H142.939ZM125.886 157.758H109.921V141.794H125.886V157.758ZM125.886 158.847V174.812H109.921V158.847H125.886ZM126.974 158.847H142.939V174.812H126.974V158.847ZM142.939 175.9V191.864H126.974V175.9H142.939ZM144.028 175.9H159.993V191.864H144.028V175.9ZM161.081 175.9H177.046V191.864H161.081V175.9ZM178.134 175.9H194.099V191.864H178.134V175.9ZM178.134 174.811V158.846H194.099V174.811H178.134ZM195.187 158.847H211.152V174.812H195.187V158.847ZM195.187 157.758V141.794H211.152V157.758H195.187ZM115.531 124.74H125.886V140.705H109.921V130.35C109.921 127.257 112.437 124.74 115.531 124.74ZM109.921 186.255V175.9H125.886V191.864H115.531C112.437 191.864 109.921 189.348 109.921 186.255ZM205.541 191.864H195.186V175.9H211.151V186.255C211.151 189.348 208.635 191.864 205.541 191.864Z" fill="url(#paint11_linear_752_3733)"/>
<path d="M231.611 110.273L219.245 113.116C218.594 113.266 218.348 114.064 218.804 114.554L220.633 116.519L175.367 158.814L156.554 141.2C155.736 140.434 154.456 140.456 153.664 141.248L112.688 182.225C112.341 182.572 112.341 183.134 112.688 183.481L116.9 187.693C117.247 188.04 117.809 188.04 118.156 187.693L155.263 150.587L173.944 168.075C174.742 168.822 175.983 168.823 176.782 168.076L225.904 122.18L227.451 123.841C227.906 124.33 228.72 124.142 228.916 123.503L232.637 111.372C232.833 110.734 232.263 110.124 231.611 110.273Z" fill="url(#paint12_linear_752_3733)"/>
<path d="M344.832 391.961C365.388 391.961 382.051 375.297 382.051 354.742C382.051 334.186 365.388 317.523 344.832 317.523C324.277 317.523 307.613 334.186 307.613 354.742C307.613 375.297 324.277 391.961 344.832 391.961Z" fill="url(#paint13_linear_752_3733)"/>
<path d="M357.608 383.265C373.35 376.216 380.397 357.74 373.348 341.997C366.299 326.255 347.822 319.208 332.08 326.257C316.338 333.306 309.291 351.783 316.34 367.525C323.389 383.267 341.865 390.314 357.608 383.265Z" fill="white"/>
<path d="M348.377 333.96C348.377 335.916 346.791 337.501 344.836 337.501C342.88 337.501 341.295 335.916 341.295 333.96C341.295 332.005 342.88 330.419 344.836 330.419C346.791 330.419 348.377 332.005 348.377 333.96Z" fill="url(#paint14_linear_752_3733)"/>
<path d="M351.02 340.628C350.643 340.233 350.068 339.875 349.418 339.561C346.538 338.17 343.133 338.17 340.253 339.561C339.603 339.876 339.028 340.233 338.651 340.628C337.144 342.21 336.994 345.902 336.994 345.902H344.836H352.678C352.678 345.902 352.525 342.21 351.02 340.628Z" fill="url(#paint15_linear_752_3733)"/>
<path d="M329.785 360.388C329.785 361.999 328.48 363.305 326.868 363.305C325.257 363.305 323.951 362 323.951 360.388C323.951 358.778 325.257 357.471 326.868 357.471C328.48 357.471 329.785 358.778 329.785 360.388Z" fill="url(#paint16_linear_752_3733)"/>
<path d="M331.963 365.88C331.653 365.554 331.179 365.259 330.643 365C328.271 363.853 325.466 363.853 323.093 365C322.558 365.259 322.084 365.554 321.774 365.88C320.532 367.183 320.408 370.224 320.408 370.224H326.868H333.328C333.328 370.224 333.204 367.183 331.963 365.88Z" fill="url(#paint17_linear_752_3733)"/>
<path d="M347.752 360.388C347.752 361.999 346.447 363.305 344.835 363.305C343.224 363.305 341.918 362 341.918 360.388C341.918 358.778 343.224 357.471 344.835 357.471C346.447 357.471 347.752 358.778 347.752 360.388Z" fill="url(#paint18_linear_752_3733)"/>
<path d="M349.93 365.88C349.62 365.554 349.146 365.259 348.61 365C346.238 363.853 343.433 363.853 341.06 365C340.524 365.259 340.051 365.554 339.74 365.88C338.499 367.183 338.375 370.224 338.375 370.224H344.835H351.295C351.295 370.224 351.171 367.183 349.93 365.88Z" fill="url(#paint19_linear_752_3733)"/>
<path d="M365.717 360.388C365.717 361.999 364.411 363.305 362.8 363.305C361.188 363.305 359.883 362 359.883 360.388C359.883 358.778 361.188 357.471 362.8 357.471C364.411 357.471 365.717 358.778 365.717 360.388Z" fill="url(#paint20_linear_752_3733)"/>
<path d="M367.895 365.88C367.584 365.554 367.111 365.259 366.575 365C364.202 363.853 361.398 363.853 359.025 365C358.489 365.259 358.016 365.554 357.705 365.88C356.464 367.183 356.34 370.224 356.34 370.224H362.8H369.26C369.26 370.224 369.136 367.183 367.895 365.88Z" fill="url(#paint21_linear_752_3733)"/>
<path d="M360.115 350.484H345.377V347.581C345.377 347.281 345.133 347.037 344.833 347.037C344.532 347.037 344.288 347.281 344.288 347.581V350.484H329.552C327.77 350.484 326.322 351.932 326.322 353.713V355.656C326.322 355.956 326.566 356.2 326.867 356.2C327.167 356.2 327.411 355.956 327.411 355.656V353.713C327.411 352.533 328.371 351.573 329.552 351.573H344.288V355.656C344.288 355.956 344.532 356.2 344.833 356.2C345.133 356.2 345.377 355.956 345.377 355.656V351.573H360.115C361.295 351.573 362.255 352.533 362.255 353.713V355.656C362.255 355.956 362.499 356.2 362.8 356.2C363.1 356.2 363.344 355.956 363.344 355.656V353.713C363.344 351.932 361.896 350.484 360.115 350.484Z" fill="url(#paint22_linear_752_3733)"/>
<path d="M578.112 442.979L574.438 435.323L583.148 432.329L585.192 438.766C585.192 438.766 586.007 440.971 584.509 442.299C583.012 443.626 578.112 442.979 578.112 442.979Z" fill="#FFA49A"/>
<path d="M578.112 442.979C578.112 442.979 584.41 442.857 585.192 438.766C585.192 438.766 588.159 440.341 589.517 443.57C589.517 443.57 587.707 447.116 586.867 450.031C586.026 452.947 581.871 455.689 577.799 455.747H571.722C571.722 455.747 568.532 455.072 574.953 450.978C577.781 449.177 578.112 442.979 578.112 442.979Z" fill="#283770"/>
<path d="M528.904 264.776L550.01 290.067C550.01 290.067 564.505 281.229 540.826 257.924C539.315 256.437 537.367 254.655 535.679 252.653C535.236 252.128 534.875 251.552 534.565 250.953H529.91C529.716 253.02 526.713 258.66 528.904 264.776Z" fill="#182670"/>
<path d="M528.398 442.571L529.029 448.136C529.029 448.136 532.142 449.989 534.592 449.615C537.042 449.24 537.319 448.136 537.319 448.136L537.551 441.517L528.398 442.571Z" fill="#FFA49A"/>
<path d="M537.321 448.136C537.321 448.136 535.912 449.032 532.405 448.763C531.846 448.72 529.846 448.377 529.03 448.136C529.03 448.136 515.196 453.358 515.127 454.635C515.058 455.913 516.819 455.74 516.819 455.74L537.736 455.748C537.736 455.748 540.328 452.412 537.321 448.136Z" fill="#283770"/>
<path d="M584.116 433.69C580.817 436.292 574.959 437.839 574.959 437.839C568.829 425.415 551.244 389.668 549.088 383.712C546.964 379.291 542.751 372.225 538.33 360.988C538.199 363.285 538.058 365.801 537.873 368.403C537.873 368.414 537.873 368.414 537.873 368.425C537.35 375.742 536.533 383.799 535.238 390.093C536.501 393.196 538.384 399.881 538.471 407.22C538.58 415.648 538.003 425.241 537.894 433.549C537.862 435.824 537.796 440.877 537.894 442.608C534.062 443.261 529.739 443.283 527.964 443.152C526.091 430.097 521.529 398.313 520.386 388.884C518.393 379.498 515.747 357.874 513.929 341.105C513.156 334.028 513.308 327.691 512.971 323.989L535.074 313.993C536.958 316.541 538.461 318.893 539.669 321.082L546.932 320.112C546.932 320.112 547.912 321.778 549.981 324.686C551.821 327.244 553.596 330.054 555.076 335.28C555.555 336.968 557.842 347.214 558.408 350.11C560.771 362.327 562.459 374.892 563.885 379.596C564.887 380.38 568.088 383.277 570.418 389.603C572.476 395.243 576.864 411.641 580.653 423.825C581.84 427.625 583.136 431.164 584.116 433.69Z" fill="url(#paint23_linear_752_3733)"/>
<path opacity="0.5" d="M538.328 360.988C538.197 363.285 538.056 365.801 537.871 368.403C536.564 362.872 529.617 345.494 529.617 345.494C530.575 345.766 532.818 345.897 532.818 345.897C533.635 348.553 538.328 360.988 538.328 360.988Z" fill="url(#paint24_linear_752_3733)"/>
<path d="M512.492 238.17C512.492 238.17 509.697 242.762 512.972 247.499C512.972 247.499 514.551 249.993 515.591 254.371C511.382 264.75 514.179 273.685 514.179 273.685C514.179 273.685 520.846 267.999 523.309 266.849C525.772 265.701 523.802 251.688 523.802 251.688C523.802 251.688 522.106 243.862 521.831 243.095C521.558 242.328 516.632 236.473 516.632 236.473L512.492 238.17Z" fill="#182670"/>
<path d="M503.302 277.568C503.302 277.568 499.176 269.078 498.842 267.917C498.842 267.917 498.585 266.006 497.869 265.016C497.154 264.027 495.175 263.45 494.57 263.01C493.966 262.57 493.094 261.962 492.192 261.209C491.764 260.852 491.312 261.456 491.532 262.473C491.752 263.49 492.921 264.467 492.921 264.467C492.921 264.467 491.766 264.246 490.117 263.421C488.467 262.597 487.665 261.133 486.62 260.94C485.575 260.747 485.688 261.372 486.162 262.013C486.566 262.559 487.546 263.649 488.21 264.333L487.148 263.807C487.148 263.807 485.499 262.157 484.729 261.8C483.959 261.443 483.382 261.69 483.465 262.103C483.548 262.515 485.334 264.715 485.692 265.155C485.829 265.324 486.386 265.688 487.041 266.086C487.475 266.645 487.895 267.165 488.05 267.354C488.407 267.794 492.996 270.175 493.38 270.395C493.658 270.553 497.251 280.331 497.251 280.331L503.302 277.568Z" fill="#FFA49A"/>
<path d="M514.744 265.027C512.566 266.41 509.986 270.123 507.732 276.406C507.732 276.417 507.732 276.438 507.721 276.449C506.011 281.12 504.639 285.313 503.572 288.808L507.753 303.747C508.113 303.747 508.505 303.671 508.897 303.496C509.713 303.137 510.595 302.364 511.521 300.948C512.893 298.869 514.363 296.038 515.648 293.381C517.618 289.309 519.143 285.639 519.143 285.639L514.744 265.027Z" fill="url(#paint25_linear_752_3733)"/>
<path d="M502.094 274.945C502.094 274.945 499.342 276.145 498.134 276.689C495.499 277.887 495.291 278.052 495.291 278.052C497.631 284.692 502.231 301.579 507.755 303.747L509.325 288.314C506.728 283.399 502.094 274.945 502.094 274.945Z" fill="url(#paint26_linear_752_3733)"/>
<path opacity="0.5" d="M515.747 289.69L515.649 293.381C514.364 296.038 512.894 298.869 511.522 300.949C510.597 302.364 509.715 303.137 508.898 303.496V303.486C508.8 301.014 506.627 288.696 506.649 286.453C506.681 284.21 509.946 279.25 509.946 279.25L515.747 289.69Z" fill="url(#paint27_linear_752_3733)"/>
<path d="M513.359 266.279C513.359 266.279 513.686 270.273 511.379 275.989C509.145 281.524 506.792 284.313 507.982 288.873C509.233 293.667 511.41 302.922 512.285 310.922C513.102 318.386 512.659 324.782 512.659 324.782C512.659 324.782 519.147 330.794 548.769 321.357C548.769 321.357 542.285 313.17 542.487 301.803C542.688 290.436 546.343 286.474 546.343 281.849C546.343 279.072 547.185 274.036 544.686 270C543.022 267.313 540.53 265.979 535.136 263.762C531.672 263.448 522.837 262.551 517.624 263.308C516.353 263.784 513.88 265.531 513.359 266.279Z" fill="url(#paint28_linear_752_3733)"/>
<path opacity="0.5" d="M537.477 281.957L539.291 299.399L542.464 297.856L537.477 281.957Z" fill="url(#paint29_linear_752_3733)"/>
<path d="M535.133 263.765C534.023 266.639 525.345 270.374 520.641 269.34C516.536 268.447 516.645 264.178 517.625 263.307C518.637 262.752 519.835 262.12 520.423 261.696C520.532 261.358 520.619 260.847 520.695 260.226C520.869 258.669 520.957 256.448 520.989 254.705C521.022 253.148 521.022 251.962 521.022 251.962L524.365 246.321C524.365 246.321 530.865 243.022 530.277 246.321C529.526 250.59 530.016 261.162 530.462 261.5C531.834 262.534 535.133 263.765 535.133 263.765Z" fill="#FFA49A"/>
<path d="M527.455 253.421C527.455 253.421 525.724 258.473 520.693 260.226C520.868 258.669 520.955 256.448 520.987 254.706L527.455 253.421Z" fill="#FF8189"/>
<path d="M529.085 251.366C528.761 251.868 528.393 252.347 527.992 252.817C527.992 252.817 527.992 252.817 527.992 252.828C525.035 256.275 520.518 258.683 518.264 258.149C514.995 257.357 513.423 254.312 512.742 250.698C511.493 244.16 513.2 235.806 513.2 235.806C515.82 226.871 532.04 232.56 532.643 238.996C533.256 245.443 529.085 251.366 529.085 251.366Z" fill="#FFA49A"/>
<path d="M534.224 243.619C535.52 240.621 535.74 236.817 531.049 235.114C531.049 235.114 529.447 229.405 522.497 229.95C512.576 230.73 506.869 237.618 511.585 244.369C511.585 244.369 525.066 244.468 525.763 239.259C525.763 239.259 525.349 243.98 528.754 246.187C528.754 246.187 529.86 248.774 529.911 250.952H534.566C533.397 248.689 533.194 246.001 534.224 243.619Z" fill="#182670"/>
<path d="M529.98 278.923L506.664 291.382L524.415 324.601L547.73 312.142L529.98 278.923Z" fill="#1A246E"/>
<path d="M532.055 279.27L507.703 289.559L522.362 324.254L546.714 313.965L532.055 279.27Z" fill="#2F397F"/>
<path d="M529.929 299.395L521.37 301.865C520.728 301.984 519.573 302.163 518.893 302.059C517.921 301.91 516.431 301.217 515.507 301.027C514.917 300.906 513.302 301.704 512.092 302.313C511.407 302.657 510.8 302.861 510.712 303C510.469 303.383 511.131 303.969 511.726 303.911C512.138 303.871 513.009 303.717 513.822 303.525L514.001 303.583C513.055 303.969 511.768 304.544 511.6 304.886C511.6 304.886 511.355 305.25 511.419 305.704C511.468 306.051 511.733 306.385 512.332 306.471C512.281 306.618 512.238 306.815 512.27 307.035C512.317 307.369 512.567 307.692 513.123 307.792C513.078 307.934 513.042 308.114 513.071 308.318C513.12 308.667 513.392 309.001 514.003 309.084C514.003 309.086 514.003 309.087 514.003 309.09C514.067 309.544 514.605 310.177 515.69 310.051C516.412 309.966 517.466 309.488 518.113 309.166C518.162 309.142 518.212 309.132 518.261 309.105C519.087 308.641 520.172 308.054 520.753 307.741L531.744 306.29L529.929 299.395Z" fill="#EF9795"/>
<path d="M550.131 304.548C548.76 305.587 545.744 306.063 542.373 306.295C538.681 306.56 531.872 306.919 528.629 306.873C527.358 303.992 526.917 301.871 526.689 300.102C529.506 299.216 540.738 296.585 540.738 296.585C540.738 296.585 537.434 281.749 536.616 278.103C535.268 272.025 536.926 267.414 537.356 264.698C540.51 265.917 543.78 267.683 546.366 271.656C550.176 277.509 553.734 301.841 550.131 304.548Z" fill="url(#paint30_linear_752_3733)"/>
<path d="M527.459 245.497C527.459 245.497 528.145 242.511 530.279 243.703C531.755 244.527 531.099 249.489 528.828 249.681" fill="#FFA49A"/>
<path d="M401.794 449.923L403.278 443.749C400.734 444.18 396.604 442.952 394.941 442.73L395.108 449.923C395.108 449.923 398.234 451.854 401.794 449.923Z" fill="#F3B2AD"/>
<path d="M438.537 326.796C438.533 326.775 438.531 326.761 438.531 326.761C438.531 326.761 438.534 326.784 438.537 326.796Z" fill="#203647"/>
<path d="M434.298 449.924L434.579 445.234C432.036 445.666 429.109 445.409 427.447 445.188L427.614 449.924C427.614 449.924 430.738 451.854 434.298 449.924Z" fill="#F3B2AD"/>
<path d="M394.354 443.921C396.096 444.92 401.172 445.695 403.625 444.898C403.625 444.898 414.532 395.449 415.924 389.364C417.751 381.419 420.926 371.829 422.816 363.163C422.794 367.655 423.187 373.496 423.623 378.466C423.623 378.477 423.623 378.477 423.623 378.488C424.122 384.234 424.664 388.812 424.664 388.812C424.282 392.444 423.527 410.042 424.983 421.225C425.928 428.426 425.981 445.186 425.981 445.186C427.925 445.632 431.748 446.003 435.561 445.302C435.561 445.302 441.541 390.054 441.805 385.753C442.9 367.666 442.114 327.594 442.029 326.809C442.029 327.096 439.947 328.902 433.564 328.541C424.77 328.052 408.178 326.797 408.178 326.797C403.309 329.536 402.403 343.607 402.576 350.422C402.778 353.63 401.117 375.483 400.066 388.016C396.858 395.559 396.826 408.411 396.195 417.841C395.21 432.551 394.354 443.921 394.354 443.921Z" fill="url(#paint31_linear_752_3733)"/>
<path d="M438.799 449.566C438.799 449.566 435.559 446.958 434.476 446.958C433.633 446.958 433.226 447.477 432.447 447.763C431.91 447.961 431.437 447.995 431.304 448.002C428.527 448.034 427.515 447.23 427.515 447.23C424.908 451.977 426.475 455.809 426.475 455.809H447.631C448.229 450.782 441.445 450.42 438.799 449.566Z" fill="#283770"/>
<path d="M404.43 448.465C404.43 448.465 403.608 447.538 402.015 446.958C400.636 446.456 398.97 446.126 396.153 447.222C395.4 447.244 395.035 447.161 395.035 447.161C394.818 447.871 394.416 448.437 393.94 448.937C389.891 453.186 392.281 455.809 392.281 455.809H405.199C407.037 453.595 407.395 449.706 404.43 448.465Z" fill="#283770"/>
<path opacity="0.5" d="M422.814 363.162C422.803 364.883 422.856 366.795 422.952 368.781L428.093 351.172C429.431 349.058 430.62 347.72 430.769 347.55L426.001 349.409C425.268 353.317 422.814 363.162 422.814 363.162Z" fill="url(#paint32_linear_752_3733)"/>
<path d="M445.34 292.848C448.012 291.833 451.505 290.32 456.143 287.504C456.824 289.128 458.966 294.337 459.611 295.769C466.192 288.688 474.371 279.935 474.371 279.935C474.371 279.935 479.857 283.111 478.961 283.986C478.065 284.862 462.132 310.534 457.663 310.537C453.903 310.539 450.239 303.689 445.34 292.848Z" fill="#FFA49A"/>
<path d="M457.116 288.645C453.838 290.964 449.995 292.652 447.218 293.686C446.325 294.024 445.552 294.296 444.932 294.492C444.561 293.817 444.191 293.131 443.821 292.434C442.525 290.017 440.805 289.962 440.01 290.093C439.727 290.136 439.553 290.213 439.553 290.213L446.489 268.86C446.489 268.86 449.32 271.637 452.891 279.346C454.013 281.774 455.679 285.215 457.116 288.645Z" fill="url(#paint33_linear_752_3733)"/>
<path opacity="0.5" d="M447.218 293.686C446.325 294.023 445.552 294.295 444.931 294.491C444.561 293.816 444.191 293.13 443.821 292.433C442.525 290.016 440.805 289.962 440.01 290.092L440.652 287.697L445.748 285.792L447.218 293.686Z" fill="url(#paint34_linear_752_3733)"/>
<path d="M446.49 268.864C444.72 266.961 438.958 263.799 435.632 262.969C434.245 262.909 434.252 262.726 432.29 262.788C429.649 262.872 426.521 262.905 422.018 263.537C416.965 264.247 408.808 271.424 407.902 273.405C405.424 278.827 408.568 296.976 407.482 314.208C405.021 322.785 405.787 328.103 405.999 328.349C407.707 330.328 424.772 330.461 430.257 330.461C435.14 330.461 441.697 329.062 442.118 327.497C442.38 326.527 442.716 320.328 442.676 310.539C443.713 298.106 446.05 282.675 446.797 280.665C447.772 278.046 448.478 271.001 446.49 268.864Z" fill="url(#paint35_linear_752_3733)"/>
<path opacity="0.5" d="M415.015 287.701L412.771 300.715L406.006 303.497L415.015 287.701Z" fill="url(#paint36_linear_752_3733)"/>
<path d="M422.018 263.538C422.018 263.538 426.922 269.555 433.116 268.165C435.935 267.52 435.631 262.97 435.631 262.97C435.631 262.97 434.38 262.843 433.849 261.983C433.736 261.807 433.545 261.136 433.344 260.315C432.965 258.684 432.523 256.459 432.523 256.459L430.361 255.65L423.624 253.122C423.624 253.122 423.611 259.328 422.954 262.337C422.751 263.26 422.018 263.538 422.018 263.538Z" fill="#FFA49A"/>
<path opacity="0.32" d="M427.326 255.793C427.326 255.793 427.748 259.638 433.345 260.314C432.966 258.683 432.524 256.458 432.524 256.458L430.363 255.649L427.326 255.793Z" fill="#D76B66"/>
<path d="M430.401 237.458C431.482 237.753 435.388 235.815 436.174 236.994C436.96 238.173 438.685 245.989 439.111 247.602C439.381 248.625 440.55 255.148 438.305 257.197C435.933 259.361 429.283 257.425 428.513 257.174C426.51 256.524 422.739 254.428 422.224 252.559L421.949 241.192L430.401 237.458Z" fill="#FFA49A"/>
<path d="M438.158 243.665C438.158 243.665 440.34 247.533 440.623 248.175C440.906 248.817 438.516 249.743 438.516 249.743" fill="#FFA49A"/>
<path d="M439.052 234.041C438.776 233.493 438.275 233.099 437.902 232.612C437.274 231.79 436.972 230.657 436.071 230.149C435.084 229.594 433.87 230.042 432.752 230.219C431.491 230.418 430.173 230.243 429.008 229.719C428.606 229.537 428.219 229.316 427.802 229.167C426.702 228.776 425.417 228.952 424.462 229.624C424.165 229.833 423.9 230.086 423.594 230.283C422.594 230.93 421.321 230.903 420.131 230.951C418.941 230.999 417.625 231.211 416.884 232.143C415.866 233.424 416.408 235.458 415.426 236.766C414.722 237.706 413.332 238.12 412.996 239.246C412.79 239.935 413.062 240.666 413.133 241.382C413.312 243.197 412.214 245.194 413.157 246.754C413.642 247.557 414.547 247.995 415.326 248.535C415.711 249.056 416.144 249.57 416.615 250.075C416.79 250.584 416.857 251.136 417.105 251.615C417.671 252.702 418.983 253.061 420.228 253.244C421.296 254.025 422.425 254.746 423.573 255.381L424.345 254.285C424.345 254.285 422.066 250.878 423.395 248.665C424.874 246.747 426.54 248.932 427.525 249.85C427.664 249.978 427.89 249.884 427.896 249.694C427.918 248.748 427.64 248.168 428.063 246.74C428.419 245.836 429.097 245.209 429.221 244.59C429.284 244.276 429.211 243.953 429.194 243.633C429.176 243.312 429.233 242.955 429.482 242.754C429.698 242.58 430.003 242.569 430.277 242.611C430.551 242.655 430.82 242.744 431.097 242.742C431.82 242.736 432.373 242.139 432.941 241.692C433.062 241.598 433.191 241.506 433.34 241.469C433.49 241.431 433.647 241.451 433.802 241.464C434.802 241.545 435.826 241.325 436.704 240.838C437.184 240.572 437.648 240.185 437.773 239.652C437.846 239.339 437.801 239.003 437.891 238.698C437.914 238.662 437.942 238.628 437.964 238.592C438.011 238.551 438.069 238.52 438.111 238.475C438.39 238.17 438.55 237.779 438.705 237.397C439.141 236.32 439.574 235.079 439.052 234.041Z" fill="#09085F"/>
<path d="M407.764 342.627C418.244 342.627 426.74 334.131 426.74 323.65C426.74 313.17 418.244 304.674 407.764 304.674C397.283 304.674 388.787 313.17 388.787 323.65C388.787 334.131 397.283 342.627 407.764 342.627Z" fill="url(#paint37_linear_752_3733)"/>
<path d="M417.472 336.411C410.424 341.773 400.364 340.406 395.002 333.359C389.641 326.311 391.007 316.251 398.056 310.89C405.104 305.528 415.163 306.895 420.525 313.943C425.886 320.99 424.52 331.05 417.472 336.411Z" fill="#E9C886"/>
<path d="M417.069 335.884C410.312 341.025 400.668 339.715 395.528 332.958C390.387 326.201 391.697 316.556 398.454 311.416C405.212 306.275 414.856 307.585 419.996 314.343C425.137 321.099 423.827 330.744 417.069 335.884Z" fill="url(#paint38_linear_752_3733)"/>
<path d="M415.817 322.954L415.781 322.658C415.69 321.9 415.465 321.17 415.099 320.447C414.854 319.964 414.992 319.375 415.422 319.049L415.686 318.847C416.184 318.47 416.28 317.76 415.902 317.262C415.523 316.764 414.813 316.669 414.317 317.046L413.826 317.42C413.449 317.706 412.931 317.728 412.535 317.468C410.868 316.37 408.939 316.372 407.404 317.541C405.333 319.116 405.664 321.503 406.329 323.843C406.854 325.779 406.699 326.849 405.794 327.537C404.807 328.289 403.461 327.951 402.521 326.716C401.794 325.762 401.335 324.544 401.263 323.377L401.234 322.926C401.234 322.926 401.057 321.553 399.658 321.986C398.685 322.288 398.845 323.681 398.845 323.681L398.853 323.947C398.878 324.784 399.185 325.803 399.678 326.756C399.935 327.252 399.815 327.858 399.371 328.196L399.04 328.448C398.543 328.827 398.447 329.537 398.825 330.033L398.84 330.053C399.219 330.55 399.929 330.646 400.425 330.268L400.977 329.848C401.352 329.563 401.868 329.537 402.261 329.796C404.005 330.943 406.085 330.948 407.683 329.731C409.494 328.354 409.921 326.483 409.113 323.479C408.492 321.128 408.552 320.267 409.379 319.639C410.042 319.134 411.183 319.026 412.214 320.383C413.17 321.639 413.318 322.767 413.382 323.25L413.436 323.659C413.436 323.659 413.606 325.082 415.005 324.649C415.977 324.348 415.817 322.954 415.817 322.954Z" fill="#E9C886"/>
<path d="M418.985 339.975C418.871 339.593 417.299 337.581 417.02 337.219C416.29 336.27 413.759 334.148 413.759 334.148L410.679 315.312C409.792 311.542 408.129 307.015 408.129 307.015C408.129 307.015 410.51 298.309 412.277 290.382C404.477 287.976 403.748 281.537 401.587 280.353C400.245 286.393 396.718 296.038 396.185 303.463L396.181 303.462C396.005 304.614 396.002 305.783 396.11 306.963C396.188 308.82 396.491 310.41 397.087 311.614C398.621 316.471 401.073 321.682 403.702 326.38C407.361 332.912 408.93 335.292 408.93 335.292C408.93 335.292 409.3 339.908 409.836 340.901C410.37 341.894 411.022 343.243 411.729 343.261C412.436 343.281 412.619 342.973 412.619 342.973C412.619 342.973 413.128 343.121 413.605 343.025C414.083 342.929 414.298 342.378 414.298 342.378C414.298 342.378 414.819 342.599 415.22 342.409C415.621 342.218 415.659 341.816 415.659 341.816C415.659 341.816 416.733 341.859 417.037 341.14C417.186 340.786 416.614 339.602 416.614 339.602C416.614 339.602 417.056 340.433 418.029 340.586C419.005 340.739 419.1 340.357 418.985 339.975Z" fill="#FFA49A"/>
<path d="M416.736 281.446L418.605 264.691C418.605 264.691 409.743 268.017 404.584 273.863C402.056 276.728 398.571 286.689 397.621 293.631C399.723 294.782 403.124 296.299 411.798 296.919C413.324 292.386 416.24 284.88 416.736 281.446Z" fill="url(#paint39_linear_752_3733)"/>
<path d="M426.92 249.249C426.92 249.249 427.279 249.679 427.399 251.262C427.519 252.844 427.305 255.053 426.388 255.305C425.471 255.558 423.717 254.227 423.152 252.627C422.66 251.232 422.188 248.765 423.969 247.978C425.75 247.192 426.92 249.249 426.92 249.249Z" fill="#FFA49A"/>
<path d="M449.221 309.339H474.813C475.386 309.339 475.877 308.927 475.974 308.361L482.495 270.513C482.619 269.793 482.065 269.136 481.334 269.136H455.742C455.169 269.136 454.679 269.548 454.581 270.114L448.06 307.962C447.937 308.682 448.491 309.339 449.221 309.339Z" fill="url(#paint40_linear_752_3733)"/>
<path d="M481.628 276.193C481.628 276.193 482.513 277.961 482.513 279.5C482.513 281.041 481.344 283.973 480.188 284.549C479.031 285.125 476.687 285.059 476.152 284.891C475.616 284.723 475.482 284.221 475.482 284.221C475.482 284.221 474.059 284.128 473.807 283.987C473.004 283.535 473.423 282.816 473.423 282.816C473.423 282.816 472.331 282.834 471.93 282.566C471.529 282.299 471.348 281.444 471.984 280.883C472.429 280.492 473.407 280.204 473.407 280.204C473.407 280.204 473.441 279.525 474.103 278.968C474.423 278.698 476.186 278.228 477.776 278.06C479.007 277.928 481.009 277.908 481.628 276.193Z" fill="#FFA49A"/>
<path d="M483.203 246.704C495.12 246.704 504.78 237.043 504.78 225.126C504.78 213.209 495.12 203.548 483.203 203.548C471.286 203.548 461.625 213.209 461.625 225.126C461.625 237.043 471.286 246.704 483.203 246.704Z" fill="url(#paint41_linear_752_3733)"/>
<path d="M507.885 219.923L483.203 225.126L477.07 200.673C479.029 200.177 481.09 199.923 483.203 199.923C495.34 199.923 505.48 208.498 507.885 219.923Z" fill="url(#paint42_linear_752_3733)"/>
<path d="M93.253 280.602H72.885C69.9081 280.602 67.4941 278.189 67.4941 275.212V254.844C67.4941 251.868 69.9081 249.454 72.885 249.454H93.253C96.2299 249.454 98.6428 251.867 98.6428 254.844V275.212C98.6428 278.188 96.2299 280.602 93.253 280.602Z" fill="white"/>
<path d="M69.6504 266.369C69.6504 266.369 78.4287 268.587 82.7166 277.276C82.7166 277.276 88.8849 261.898 101.907 255.462C101.907 255.462 92.1819 254.573 82.2462 269.295C82.2462 269.295 76.1835 264.573 69.6504 266.369Z" fill="url(#paint43_linear_752_3733)"/>
<path d="M377.309 133.241H356.941C353.964 133.241 351.551 130.828 351.551 127.851V107.483C351.551 104.506 353.964 102.093 356.942 102.093H377.31C380.287 102.093 382.701 104.506 382.701 107.483V127.851C382.699 130.827 380.285 133.241 377.309 133.241Z" fill="white"/>
<path d="M353.707 119.008C353.707 119.008 362.486 121.226 366.773 129.915C366.773 129.915 372.943 114.536 385.964 108.101C385.964 108.101 376.239 107.212 366.303 121.934C366.303 121.934 360.24 117.213 353.707 119.008Z" fill="url(#paint44_linear_752_3733)"/>
<path d="M335.734 170.404H278.446C277.276 170.404 276.326 169.455 276.326 168.284V94.0043C276.326 92.8327 277.276 91.8843 278.446 91.8843H335.734C336.904 91.8843 337.854 92.8338 337.854 94.0043V168.284C337.854 169.455 336.904 170.404 335.734 170.404Z" fill="url(#paint45_linear_752_3733)"/>
<path d="M332.226 166.321H281.955C281.193 166.321 280.574 165.702 280.574 164.94V96.8035C280.574 96.0402 281.193 95.4229 281.955 95.4229H332.226C332.988 95.4229 333.607 96.0413 333.607 96.8035V164.94C333.608 165.702 332.989 166.321 332.226 166.321Z" fill="white"/>
<path d="M319.531 97.8709H294.648V91.4478C294.648 90.2348 295.632 89.2505 296.846 89.2505H317.335C318.548 89.2505 319.532 90.2337 319.532 91.4478L319.531 97.8709Z" fill="#8FABD8"/>
<path d="M293.929 121.115H286.146C284.821 121.115 283.742 120.036 283.742 118.711V110.928C283.742 109.602 284.821 108.523 286.146 108.523H293.929C295.255 108.523 296.334 109.602 296.334 110.928V118.711C296.334 120.036 295.256 121.115 293.929 121.115ZM286.146 109.612C285.421 109.612 284.831 110.202 284.831 110.928V118.711C284.831 119.436 285.421 120.026 286.146 120.026H293.929C294.655 120.026 295.245 119.436 295.245 118.711V110.928C295.245 110.202 294.655 109.612 293.929 109.612H286.146Z" fill="url(#paint46_linear_752_3733)"/>
<path d="M328.387 111.971H299.714C299.414 111.971 299.17 111.727 299.17 111.426C299.17 111.126 299.414 110.882 299.714 110.882H328.387C328.687 110.882 328.931 111.126 328.931 111.426C328.931 111.728 328.689 111.971 328.387 111.971Z" fill="url(#paint47_linear_752_3733)"/>
<path d="M328.387 115.364H299.714C299.414 115.364 299.17 115.12 299.17 114.819C299.17 114.519 299.414 114.275 299.714 114.275H328.387C328.687 114.275 328.931 114.519 328.931 114.819C328.931 115.12 328.689 115.364 328.387 115.364Z" fill="url(#paint48_linear_752_3733)"/>
<path d="M315.138 118.755H299.712C299.412 118.755 299.168 118.511 299.168 118.21C299.168 117.91 299.412 117.666 299.712 117.666H315.138C315.439 117.666 315.683 117.91 315.683 118.21C315.683 118.511 315.44 118.755 315.138 118.755Z" fill="url(#paint49_linear_752_3733)"/>
<path d="M293.929 141.662H286.146C284.821 141.662 283.742 140.583 283.742 139.258V131.474C283.742 130.149 284.821 129.07 286.146 129.07H293.929C295.255 129.07 296.334 130.149 296.334 131.474V139.258C296.334 140.584 295.256 141.662 293.929 141.662ZM286.146 130.159C285.421 130.159 284.831 130.749 284.831 131.474V139.258C284.831 139.983 285.421 140.573 286.146 140.573H293.929C294.655 140.573 295.245 139.983 295.245 139.258V131.474C295.245 130.749 294.655 130.159 293.929 130.159H286.146Z" fill="url(#paint50_linear_752_3733)"/>
<path d="M328.387 132.519H299.714C299.414 132.519 299.17 132.275 299.17 131.975C299.17 131.674 299.414 131.43 299.714 131.43H328.387C328.687 131.43 328.931 131.674 328.931 131.975C328.931 132.275 328.689 132.519 328.387 132.519Z" fill="url(#paint51_linear_752_3733)"/>
<path d="M328.387 135.912H299.714C299.414 135.912 299.17 135.668 299.17 135.368C299.17 135.067 299.414 134.823 299.714 134.823H328.387C328.687 134.823 328.931 135.067 328.931 135.368C328.931 135.668 328.689 135.912 328.387 135.912Z" fill="url(#paint52_linear_752_3733)"/>
<path d="M315.138 139.303H299.712C299.412 139.303 299.168 139.059 299.168 138.759C299.168 138.458 299.412 138.214 299.712 138.214H315.138C315.439 138.214 315.683 138.458 315.683 138.759C315.683 139.059 315.44 139.303 315.138 139.303Z" fill="url(#paint53_linear_752_3733)"/>
<path d="M293.929 162.211H286.146C284.821 162.211 283.742 161.132 283.742 159.806V152.023C283.742 150.698 284.821 149.619 286.146 149.619H293.929C295.255 149.619 296.334 150.698 296.334 152.023V159.806C296.334 161.132 295.256 162.211 293.929 162.211ZM286.146 150.708C285.421 150.708 284.831 151.298 284.831 152.023V159.806C284.831 160.532 285.421 161.122 286.146 161.122H293.929C294.655 161.122 295.245 160.532 295.245 159.806V152.023C295.245 151.298 294.655 150.708 293.929 150.708H286.146Z" fill="url(#paint54_linear_752_3733)"/>
<path d="M328.387 153.067H299.714C299.414 153.067 299.17 152.823 299.17 152.523C299.17 152.222 299.414 151.979 299.714 151.979H328.387C328.687 151.979 328.931 152.222 328.931 152.523C328.931 152.823 328.689 153.067 328.387 153.067Z" fill="url(#paint55_linear_752_3733)"/>
<path d="M328.387 156.459H299.714C299.414 156.459 299.17 156.216 299.17 155.915C299.17 155.615 299.414 155.371 299.714 155.371H328.387C328.687 155.371 328.931 155.615 328.931 155.915C328.931 156.217 328.689 156.459 328.387 156.459Z" fill="url(#paint56_linear_752_3733)"/>
<path d="M315.138 159.851H299.712C299.412 159.851 299.168 159.607 299.168 159.307C299.168 159.006 299.412 158.762 299.712 158.762H315.138C315.439 158.762 315.683 159.006 315.683 159.307C315.683 159.608 315.44 159.851 315.138 159.851Z" fill="url(#paint57_linear_752_3733)"/>
<path d="M322.737 105.675H292.113C291.549 105.675 291.092 105.217 291.092 104.653V102.612C291.092 102.048 291.549 101.59 292.113 101.59H322.737C323.301 101.59 323.758 102.048 323.758 102.612V104.653C323.757 105.217 323.3 105.675 322.737 105.675Z" fill="url(#paint58_linear_752_3733)"/>
<path d="M282.992 112.734C282.992 112.734 287.4 113.847 289.552 118.21C289.552 118.21 292.65 110.488 299.189 107.257C299.189 107.257 294.305 106.81 289.316 114.202C289.316 114.202 286.273 111.832 282.992 112.734Z" fill="url(#paint59_linear_752_3733)"/>
<path d="M282.992 133.282C282.992 133.282 287.4 134.396 289.552 138.759C289.552 138.759 292.65 131.037 299.189 127.805C299.189 127.805 294.305 127.359 289.316 134.751C289.316 134.751 286.273 132.381 282.992 133.282Z" fill="url(#paint60_linear_752_3733)"/>
<path d="M215.405 397.63H154.201V456.231H215.405V397.63Z" fill="url(#paint61_linear_752_3733)"/>
<path d="M215.406 456.231H224.579V397.63H215.406V456.231Z" fill="url(#paint62_linear_752_3733)"/>
<path opacity="0.5" d="M189.946 397.63H179.664V406.505H189.946V397.63Z" fill="url(#paint63_linear_752_3733)"/>
<path opacity="0.5" d="M165.632 453.823H159.698C158.966 453.823 158.371 453.228 158.371 452.495V446.562C158.371 445.829 158.966 445.235 159.698 445.235H165.632C166.364 445.235 166.959 445.829 166.959 446.562V452.495C166.959 453.228 166.364 453.823 165.632 453.823Z" fill="url(#paint64_linear_752_3733)"/>
<path opacity="0.5" d="M176.18 453.823H170.247C169.514 453.823 168.92 453.228 168.92 452.495V446.562C168.92 445.829 169.514 445.235 170.247 445.235H176.18C176.913 445.235 177.508 445.829 177.508 446.562V452.495C177.508 453.228 176.913 453.823 176.18 453.823Z" fill="url(#paint65_linear_752_3733)"/>
<path opacity="0.5" d="M186.727 453.823H180.794C180.061 453.823 179.467 453.228 179.467 452.495V446.562C179.467 445.829 180.061 445.235 180.794 445.235H186.727C187.46 445.235 188.055 445.829 188.055 446.562V452.495C188.055 453.228 187.46 453.823 186.727 453.823Z" fill="url(#paint66_linear_752_3733)"/>
<path d="M262.243 339.03H201.039V397.63H262.243V339.03Z" fill="url(#paint67_linear_752_3733)"/>
<path d="M262.244 397.63H271.417V339.03H262.244V397.63Z" fill="url(#paint68_linear_752_3733)"/>
<path opacity="0.5" d="M236.784 339.03H226.502V347.904H236.784V339.03Z" fill="url(#paint69_linear_752_3733)"/>
<path opacity="0.5" d="M212.469 395.222H206.536C205.804 395.222 205.209 394.628 205.209 393.895V387.962C205.209 387.229 205.804 386.634 206.536 386.634H212.469C213.202 386.634 213.797 387.229 213.797 387.962V393.895C213.797 394.628 213.202 395.222 212.469 395.222Z" fill="url(#paint70_linear_752_3733)"/>
<path opacity="0.5" d="M223.018 395.222H217.085C216.352 395.222 215.758 394.628 215.758 393.895V387.962C215.758 387.229 216.352 386.634 217.085 386.634H223.018C223.751 386.634 224.346 387.229 224.346 387.962V393.895C224.346 394.628 223.751 395.222 223.018 395.222Z" fill="url(#paint71_linear_752_3733)"/>
<path opacity="0.5" d="M233.563 395.222H227.63C226.897 395.222 226.303 394.628 226.303 393.895V387.962C226.303 387.229 226.897 386.634 227.63 386.634H233.563C234.296 386.634 234.89 387.229 234.89 387.962V393.895C234.89 394.628 234.296 395.222 233.563 395.222Z" fill="url(#paint72_linear_752_3733)"/>
<path d="M281.612 397.63H220.408V456.231H281.612V397.63Z" fill="url(#paint73_linear_752_3733)"/>
<path d="M281.613 456.231H290.786V397.63H281.613V456.231Z" fill="url(#paint74_linear_752_3733)"/>
<path opacity="0.5" d="M256.153 397.63H245.871V406.505H256.153V397.63Z" fill="url(#paint75_linear_752_3733)"/>
<path opacity="0.5" d="M231.839 453.823H225.905C225.173 453.823 224.578 453.228 224.578 452.495V446.562C224.578 445.829 225.173 445.235 225.905 445.235H231.839C232.571 445.235 233.166 445.829 233.166 446.562V452.495C233.166 453.228 232.571 453.823 231.839 453.823Z" fill="url(#paint76_linear_752_3733)"/>
<path opacity="0.5" d="M242.387 453.823H236.454C235.721 453.823 235.127 453.228 235.127 452.495V446.562C235.127 445.829 235.721 445.235 236.454 445.235H242.387C243.12 445.235 243.715 445.829 243.715 446.562V452.495C243.715 453.228 243.12 453.823 242.387 453.823Z" fill="url(#paint77_linear_752_3733)"/>
<path opacity="0.5" d="M252.934 453.823H247.001C246.268 453.823 245.674 453.228 245.674 452.495V446.562C245.674 445.829 246.268 445.235 247.001 445.235H252.934C253.667 445.235 254.262 445.829 254.262 446.562V452.495C254.262 453.228 253.667 453.823 252.934 453.823Z" fill="url(#paint78_linear_752_3733)"/>
<path d="M98.4407 441.992C100.721 442.945 103.012 443.104 103.012 443.104L105.126 439.699L98.4069 433.486C98.4069 433.486 96.8281 437.872 95.957 439.68C95.957 439.68 96.1606 441.04 98.4407 441.992Z" fill="#EF9795"/>
<path d="M110.161 452.159C109.656 451.602 107.617 450.522 105.725 449.419C103.426 446.597 103.572 443.802 103.012 443.104C103.012 443.104 100.772 442.697 98.4918 441.744C96.2118 440.791 95.9559 439.678 95.9559 439.678C94.9008 440.427 91.9631 442.197 90.3984 446.347C90.3984 446.347 99.1996 453.743 101.693 455.727C101.693 455.727 109.142 455.719 111.042 455.727C111.346 454.788 111.483 453.613 110.161 452.159Z" fill="#222842"/>
<path d="M146.337 447.967C146.337 447.967 147.773 448.88 151.349 448.606C151.918 448.562 153.958 448.213 154.788 447.967C154.788 447.967 156.412 448.765 158.838 449.615C161.162 450.429 164.241 451.259 166.483 452.814C168.107 453.94 167.824 455.72 167.824 455.72L146.625 455.728C146.155 455.728 145.721 455.473 145.51 455.053C144.913 453.85 144.086 451.166 146.337 447.967Z" fill="#222842"/>
<path d="M119.973 322.702C117.788 327.186 116.427 331.636 116.152 337.427C115.954 341.557 116.546 345.805 116.76 350.211C116.943 353.996 117.337 385.342 117.337 385.342C117.337 385.342 110.805 396.579 108.426 403.294C106.047 410.01 96.8594 436.982 96.8594 436.982C99.7176 440.521 104.84 440.903 104.84 440.903C104.84 440.903 122.908 413.029 132.225 389.745C132.627 388.741 137.235 368.569 137.697 366.529C138.069 364.884 138.384 363.432 138.655 362.203C138.722 361.91 138.779 361.607 138.846 361.325C139.184 359.725 139.5 358.147 139.815 356.593C142.847 341.394 144.626 328.673 144.626 328.673L119.973 322.702Z" fill="url(#paint79_linear_752_3733)"/>
<path opacity="0.5" d="M139.813 356.593C139.497 358.148 139.183 359.725 138.844 361.325C138.776 361.607 138.72 361.911 138.652 362.204C138.382 363.432 138.066 364.885 137.694 366.53C136.86 361.73 135.377 355.888 134.336 350.292C132.843 342.268 135.7 343.004 135.7 343.004L139.813 356.593Z" fill="url(#paint80_linear_752_3733)"/>
<path d="M146.066 443.422C146.296 445.892 146.336 447.967 146.336 447.967C149.08 449.923 154.789 447.967 154.789 447.967C154.789 447.967 154.882 445.757 155.041 443.422H146.066Z" fill="#EF9795"/>
<path d="M157.226 324.337H132.784C131.431 329.132 131.107 332.316 131.845 340.308C132.582 348.299 136.866 355.414 137.849 359.716C138.832 364.019 143.313 386.052 143.313 386.052C143.313 386.052 141.567 399.821 141.444 406.944C141.346 412.628 143.85 435.673 145.136 444.628C145.136 444.628 151.138 445.342 155.253 444.602C155.253 444.602 158.321 411.402 159.776 385.871C160.424 374.502 159.997 364.729 160.13 359.958C160.763 337.162 157.226 324.337 157.226 324.337Z" fill="url(#paint81_linear_752_3733)"/>
<path d="M150.115 244.482C149.815 239.895 149.005 235.639 149.005 235.639C148.569 230.449 141.355 229.909 137.172 230.065C132.989 230.22 125.246 234.839 130.27 245.811C131.202 247.845 132.454 248.556 133.777 248.808C134.742 256.541 133.45 263.324 133.45 263.324C137.089 264.18 141.606 263.683 144.24 263.25C145.583 263.027 146.44 262.816 146.44 262.816C145.784 258.283 145.563 256.31 145.419 255.051C148.313 255.391 149.379 254.371 149.379 254.371C150.779 252.45 150.384 248.499 150.115 244.482Z" fill="#FFA49A"/>
<path d="M132.549 261.924L133.491 257.825C133.491 257.825 139.044 255.327 146.976 259.095L147.622 261.252" fill="url(#paint82_linear_752_3733)"/>
<path d="M116.145 290.311C116.145 290.311 114.988 299.218 115.396 301.055C115.804 302.892 124.243 308.609 124.243 308.609C124.243 308.609 124.651 292.753 123.902 291.188C123.153 289.623 116.145 290.311 116.145 290.311Z" fill="#FFA49A"/>
<path d="M128.332 294.59C124.891 294.611 122.224 294.328 120.209 293.958C116.507 293.272 115.016 292.281 115.016 292.281C117.008 273.901 123.04 267.826 123.04 267.826L127.799 291.889L128.332 294.59Z" fill="url(#paint83_linear_752_3733)"/>
<path opacity="0.5" d="M128.333 294.589C124.892 294.611 122.225 294.328 120.21 293.958C120.199 289.69 120.265 284.703 120.265 284.703L124.903 285.879L127.799 291.889L128.333 294.589Z" fill="url(#paint84_linear_752_3733)"/>
<path d="M155.686 312.196C156.656 321.636 158.3 327.69 158.648 329.335C132.592 337.251 118.067 331.327 116.945 330.064C117.806 325.807 123.957 303.191 121.812 293.925C119.45 283.679 119.45 274.914 121.518 270.221C124.524 263.448 136.414 260.291 136.414 260.291C138.602 259.681 146.66 259.256 150.874 261.739C156.002 264.755 159.508 266.802 159.508 266.802C160.967 271.005 156.1 276.95 154.87 281.883C154.848 281.948 154.837 282.035 154.826 282.133C154.685 283.08 154.587 285.541 154.587 288.862C154.576 295.047 154.87 304.226 155.686 312.196Z" fill="url(#paint85_linear_752_3733)"/>
<path opacity="0.5" d="M154.825 282.133C154.683 283.081 154.585 285.541 154.585 288.862L148.096 282.787L154.825 282.133Z" fill="url(#paint86_linear_752_3733)"/>
<path d="M201.994 253.588C201.824 252.805 200.836 252.329 200.836 252.329C200.631 251.036 199.802 250.914 199.598 250.709C199.395 250.504 199.317 249.976 198.872 249.727C198.327 249.421 197.64 249.228 197.64 249.228C197.64 249.228 199.704 246.143 200.359 245.082C201.21 243.703 201.001 242.459 200.41 242.368C199.82 242.278 198.33 244.548 197.513 245.456C196.696 246.363 194.165 247.899 193.43 249.041C192.637 250.272 191.915 254.164 191.698 255.424C190.736 256.477 186.947 260.63 183.796 264.163C182.532 265.578 180.001 268.332 178.361 269.952C177.541 270.762 174.635 274.011 173.455 275.517C172.349 274.816 171.166 274.062 169.928 273.277C169.928 273.281 168.749 278.829 164.232 285.753C170.592 287.991 176.628 289.288 178.506 288.085C178.684 287.97 178.855 287.837 179.018 287.691C179.08 287.659 179.138 287.615 179.193 287.559C182.39 284.266 187.254 275.012 191.155 268.083C193.527 263.871 195.712 260.613 196.306 259.743C199.09 259.636 199.748 257.366 199.748 257.366C199.748 257.366 199.782 259.204 200.667 259.096C200.974 259.059 201.209 258.428 201.501 257.741C201.829 256.97 202.301 255.7 202.301 255.409C202.3 254.858 202.164 254.371 201.994 253.588Z" fill="#FFA49A"/>
<path d="M154.509 264.05C149.666 261.821 144.936 263.257 143.065 265.734C143.065 265.734 137.886 271.613 141.844 277.558C144.596 281.694 154.271 286.631 164.732 290.312C170.473 281.512 171.971 274.46 171.971 274.456C166.203 270.796 159.621 266.68 154.509 264.05Z" fill="url(#paint87_linear_752_3733)"/>
<path d="M150.75 228.647C150.087 228.698 149.389 229.43 148.947 230.246C149.426 228.726 150.035 225.142 147.449 223.649C144.768 222.101 143.504 224.494 140.262 226.725C137.772 228.439 135.132 227.104 131.73 228.488C126.097 230.779 127.488 235.816 127.488 235.816C125.459 236.777 124.347 239.777 126.156 244.579C127.964 249.381 132.369 252.169 133.044 253.515C134.445 256.31 140.652 254.359 140.986 253.215C141.646 250.951 141.209 246.409 140.579 245.693C139.045 243.951 138.397 241.763 139.418 240.869C141.144 239.358 142.109 242.739 142.109 242.739L143.87 243.575C143.87 243.575 144.592 241.39 144.501 239.267C154.255 237.528 154.03 228.394 150.75 228.647Z" fill="url(#paint88_linear_752_3733)"/>
<path d="M143.117 243.709C143.061 242.865 142.882 241.306 141.91 240.441C140.937 239.577 138.454 240.279 138.705 242.853C138.957 245.427 141.125 247.053 142.438 246.448C143.198 246.098 143.163 244.382 143.117 243.709Z" fill="#FFA49A"/>
<path d="M444.25 204.029H360.502C358.246 204.029 356.418 202.201 356.418 199.945V152.897C356.418 150.641 358.247 148.812 360.502 148.812H444.25C446.506 148.812 448.334 150.641 448.334 152.897V199.945C448.334 202.2 446.505 204.029 444.25 204.029Z" fill="url(#paint89_linear_752_3733)"/>
<path d="M372.123 183.969H363.412V199.921H372.123V183.969Z" fill="url(#paint90_linear_752_3733)"/>
<path d="M385.967 174.708H377.256V199.922H385.967V174.708Z" fill="url(#paint91_linear_752_3733)"/>
<path d="M399.81 192.687H391.1V199.923H399.81V192.687Z" fill="url(#paint92_linear_752_3733)"/>
<path d="M413.656 177.227H404.945V199.923H413.656V177.227Z" fill="url(#paint93_linear_752_3733)"/>
<path d="M427.5 180.161H418.789V199.922H427.5V180.161Z" fill="url(#paint94_linear_752_3733)"/>
<path d="M441.346 163.248H432.635V199.922H441.346V163.248Z" fill="url(#paint95_linear_752_3733)"/>
<path d="M360.047 159.572H444.705" stroke="white" stroke-miterlimit="10" stroke-linecap="round" stroke-linejoin="round"/>
<path d="M439.233 156.375C440.399 156.375 441.343 155.43 441.343 154.264C441.343 153.099 440.399 152.154 439.233 152.154C438.068 152.154 437.123 153.099 437.123 154.264C437.123 155.43 438.068 156.375 439.233 156.375Z" fill="white"/>
<path d="M430.446 156.375C431.612 156.375 432.556 155.43 432.556 154.264C432.556 153.099 431.612 152.154 430.446 152.154C429.281 152.154 428.336 153.099 428.336 154.264C428.336 155.43 429.281 156.375 430.446 156.375Z" fill="white"/>
<path d="M421.657 156.375C422.822 156.375 423.767 155.43 423.767 154.264C423.767 153.099 422.822 152.154 421.657 152.154C420.492 152.154 419.547 153.099 419.547 154.264C419.547 155.43 420.492 156.375 421.657 156.375Z" fill="white"/>
<path d="M26.3906 456.233H592.047" stroke="#232230" stroke-miterlimit="10" stroke-linecap="round" stroke-linejoin="round"/>
<path d="M228.358 240.986H256.986V254.023H228.358V240.986ZM229.591 265.298H261.831V278.775H212.326V217.114H260.686V230.592H229.591V265.298ZM271.51 278.775V217.114H299.698C305.335 217.114 310.18 218.025 314.232 219.845C318.343 221.666 321.514 224.308 323.745 227.773C325.977 231.179 327.093 235.231 327.093 239.929C327.093 244.568 325.977 248.591 323.745 251.997C321.514 255.344 318.343 257.928 314.232 259.749C310.18 261.51 305.335 262.391 299.698 262.391H281.199L288.951 255.08V278.775H271.51ZM309.651 278.775L294.324 256.313H312.911L328.326 278.775H309.651ZM288.951 256.93L281.199 248.914H298.641C302.282 248.914 304.983 248.121 306.745 246.536C308.565 244.95 309.475 242.748 309.475 239.929C309.475 237.051 308.565 234.82 306.745 233.234C304.983 231.649 302.282 230.856 298.641 230.856H281.199L288.951 222.84V256.93ZM336.715 278.775V217.114H364.903C370.54 217.114 375.385 218.025 379.437 219.845C383.548 221.666 386.719 224.308 388.951 227.773C391.182 231.179 392.298 235.231 392.298 239.929C392.298 244.568 391.182 248.591 388.951 251.997C386.719 255.403 383.548 258.046 379.437 259.925C375.385 261.745 370.54 262.655 364.903 262.655H346.404L354.156 255.08V278.775H336.715ZM354.156 256.93L346.404 248.914H363.846C367.487 248.914 370.188 248.121 371.95 246.536C373.77 244.95 374.68 242.748 374.68 239.929C374.68 237.051 373.77 234.82 371.95 233.234C370.188 231.649 367.487 230.856 363.846 230.856H346.404L354.156 222.84V256.93Z" fill="#8FABD8"/>
<defs>
<linearGradient id="paint0_linear_752_3733" x1="109.376" y1="450.476" x2="109.376" y2="68.6099" gradientUnits="userSpaceOnUse">
<stop stop-color="#DFEDF2"/>
<stop offset="1" stop-color="#E8F8FF"/>
</linearGradient>
<linearGradient id="paint1_linear_752_3733" x1="502.695" y1="450.477" x2="502.695" y2="68.6107" gradientUnits="userSpaceOnUse">
<stop stop-color="#DFEDF2"/>
<stop offset="1" stop-color="#E8F8FF"/>
</linearGradient>
<linearGradient id="paint2_linear_752_3733" x1="309.217" y1="450.475" x2="309.217" y2="68.6101" gradientUnits="userSpaceOnUse">
<stop stop-color="#DFEDF2"/>
<stop offset="1" stop-color="#E8F8FF"/>
</linearGradient>
<linearGradient id="paint3_linear_752_3733" x1="605.89" y1="450.477" x2="605.89" y2="68.6096" gradientUnits="userSpaceOnUse">
<stop stop-color="#DFEDF2"/>
<stop offset="1" stop-color="#E8F8FF"/>
</linearGradient>
<linearGradient id="paint4_linear_752_3733" x1="70.112" y1="450.476" x2="70.112" y2="68.6097" gradientUnits="userSpaceOnUse">
<stop stop-color="#DFEDF2"/>
<stop offset="1" stop-color="#E8F8FF"/>
</linearGradient>
<linearGradient id="paint5_linear_752_3733" x1="525.736" y1="450.476" x2="525.736" y2="68.6098" gradientUnits="userSpaceOnUse">
<stop stop-color="#DFEDF2"/>
<stop offset="1" stop-color="#E8F8FF"/>
</linearGradient>
<linearGradient id="paint6_linear_752_3733" x1="383.301" y1="90.0322" x2="445.002" y2="172.784" gradientUnits="userSpaceOnUse">
<stop stop-color="#71D2F9"/>
<stop offset="1" stop-color="#51B9F8"/>
</linearGradient>
<linearGradient id="paint7_linear_752_3733" x1="309.218" y1="404.621" x2="309.218" y2="130.88" gradientUnits="userSpaceOnUse">
<stop stop-color="#CBE1F2"/>
<stop offset="1" stop-color="#AED2ED"/>
</linearGradient>
<linearGradient id="paint8_linear_752_3733" x1="309.216" y1="455.201" x2="309.216" y2="395.319" gradientUnits="userSpaceOnUse">
<stop stop-color="#CBE1F2"/>
<stop offset="1" stop-color="#AED2ED"/>
</linearGradient>
<linearGradient id="paint9_linear_752_3733" x1="281.082" y1="407.135" x2="337.354" y2="407.135" gradientUnits="userSpaceOnUse">
<stop stop-color="#CBE1F2"/>
<stop offset="1" stop-color="#AED2ED"/>
</linearGradient>
<linearGradient id="paint10_linear_752_3733" x1="309.219" y1="462.907" x2="309.219" y2="435.988" gradientUnits="userSpaceOnUse">
<stop stop-color="#CBE1F2"/>
<stop offset="1" stop-color="#AED2ED"/>
</linearGradient>
<linearGradient id="paint11_linear_752_3733" x1="108.832" y1="158.302" x2="212.24" y2="158.302" gradientUnits="userSpaceOnUse">
<stop stop-color="#CBE1F2"/>
<stop offset="1" stop-color="#AED2ED"/>
</linearGradient>
<linearGradient id="paint12_linear_752_3733" x1="226.617" y1="100.187" x2="133.799" y2="184.975" gradientUnits="userSpaceOnUse">
<stop stop-color="#DD5954"/>
<stop offset="1" stop-color="#E0483D"/>
</linearGradient>
<linearGradient id="paint13_linear_752_3733" x1="344.832" y1="325.44" x2="344.832" y2="386.602" gradientUnits="userSpaceOnUse">
<stop stop-color="#71D2F9"/>
<stop offset="1" stop-color="#51B9F8"/>
</linearGradient>
<linearGradient id="paint14_linear_752_3733" x1="344.836" y1="325.441" x2="344.836" y2="386.602" gradientUnits="userSpaceOnUse">
<stop stop-color="#71D2F9"/>
<stop offset="1" stop-color="#51B9F8"/>
</linearGradient>
<linearGradient id="paint15_linear_752_3733" x1="344.835" y1="325.441" x2="344.835" y2="386.602" gradientUnits="userSpaceOnUse">
<stop stop-color="#71D2F9"/>
<stop offset="1" stop-color="#51B9F8"/>
</linearGradient>
<linearGradient id="paint16_linear_752_3733" x1="326.868" y1="325.441" x2="326.868" y2="386.602" gradientUnits="userSpaceOnUse">
<stop stop-color="#71D2F9"/>
<stop offset="1" stop-color="#51B9F8"/>
</linearGradient>
<linearGradient id="paint17_linear_752_3733" x1="326.868" y1="325.441" x2="326.868" y2="386.601" gradientUnits="userSpaceOnUse">
<stop stop-color="#71D2F9"/>
<stop offset="1" stop-color="#51B9F8"/>
</linearGradient>
<linearGradient id="paint18_linear_752_3733" x1="344.835" y1="325.441" x2="344.835" y2="386.602" gradientUnits="userSpaceOnUse">
<stop stop-color="#71D2F9"/>
<stop offset="1" stop-color="#51B9F8"/>
</linearGradient>
<linearGradient id="paint19_linear_752_3733" x1="344.835" y1="325.441" x2="344.835" y2="386.601" gradientUnits="userSpaceOnUse">
<stop stop-color="#71D2F9"/>
<stop offset="1" stop-color="#51B9F8"/>
</linearGradient>
<linearGradient id="paint20_linear_752_3733" x1="362.8" y1="325.441" x2="362.8" y2="386.602" gradientUnits="userSpaceOnUse">
<stop stop-color="#71D2F9"/>
<stop offset="1" stop-color="#51B9F8"/>
</linearGradient>
<linearGradient id="paint21_linear_752_3733" x1="362.8" y1="325.441" x2="362.8" y2="386.601" gradientUnits="userSpaceOnUse">
<stop stop-color="#71D2F9"/>
<stop offset="1" stop-color="#51B9F8"/>
</linearGradient>
<linearGradient id="paint22_linear_752_3733" x1="344.834" y1="346.401" x2="344.834" y2="355.758" gradientUnits="userSpaceOnUse">
<stop stop-color="#CBE1F2"/>
<stop offset="1" stop-color="#AED2ED"/>
</linearGradient>
<linearGradient id="paint23_linear_752_3733" x1="559.12" y1="538.513" x2="543.207" y2="301.368" gradientUnits="userSpaceOnUse">
<stop stop-color="#283770"/>
<stop offset="1" stop-color="#141A5A"/>
</linearGradient>
<linearGradient id="paint24_linear_752_3733" x1="536.183" y1="386.182" x2="533.289" y2="343.05" gradientUnits="userSpaceOnUse">
<stop stop-color="#283770"/>
<stop offset="1" stop-color="#141A5A"/>
</linearGradient>
<linearGradient id="paint25_linear_752_3733" x1="511.358" y1="266.612" x2="511.358" y2="325.668" gradientUnits="userSpaceOnUse">
<stop stop-color="#49A5F7"/>
<stop offset="1" stop-color="#1C6CEB"/>
</linearGradient>
<linearGradient id="paint26_linear_752_3733" x1="511.56" y1="265.345" x2="489.969" y2="320.314" gradientUnits="userSpaceOnUse">
<stop stop-color="#49A5F7"/>
<stop offset="1" stop-color="#1C6CEB"/>
</linearGradient>
<linearGradient id="paint27_linear_752_3733" x1="511.198" y1="280.401" x2="511.198" y2="302.995" gradientUnits="userSpaceOnUse">
<stop stop-color="#49A5F7"/>
<stop offset="1" stop-color="#1C6CEB"/>
</linearGradient>
<linearGradient id="paint28_linear_752_3733" x1="528.216" y1="266.033" x2="528.216" y2="325.354" gradientUnits="userSpaceOnUse">
<stop stop-color="#49A5F7"/>
<stop offset="1" stop-color="#1C6CEB"/>
</linearGradient>
<linearGradient id="paint29_linear_752_3733" x1="539.97" y1="282.426" x2="539.97" y2="304.871" gradientUnits="userSpaceOnUse">
<stop stop-color="#49A5F7"/>
<stop offset="1" stop-color="#1C6CEB"/>
</linearGradient>
<linearGradient id="paint30_linear_752_3733" x1="539.158" y1="265.835" x2="539.158" y2="320.11" gradientUnits="userSpaceOnUse">
<stop stop-color="#49A5F7"/>
<stop offset="1" stop-color="#1C6CEB"/>
</linearGradient>
<linearGradient id="paint31_linear_752_3733" x1="418.368" y1="335.262" x2="418.368" y2="447.735" gradientUnits="userSpaceOnUse">
<stop stop-color="#283770"/>
<stop offset="1" stop-color="#141A5A"/>
</linearGradient>
<linearGradient id="paint32_linear_752_3733" x1="427.129" y1="366.651" x2="426.548" y2="348.823" gradientUnits="userSpaceOnUse">
<stop stop-color="#283770"/>
<stop offset="1" stop-color="#141A5A"/>
</linearGradient>
<linearGradient id="paint33_linear_752_3733" x1="448.334" y1="261.381" x2="448.334" y2="328.305" gradientUnits="userSpaceOnUse">
<stop stop-color="#49A5F7"/>
<stop offset="1" stop-color="#1C6CEB"/>
</linearGradient>
<linearGradient id="paint34_linear_752_3733" x1="440.01" y1="290.142" x2="447.218" y2="290.142" gradientUnits="userSpaceOnUse">
<stop stop-color="#49A5F7"/>
<stop offset="1" stop-color="#1C6CEB"/>
</linearGradient>
<linearGradient id="paint35_linear_752_3733" x1="426.739" y1="261.385" x2="426.739" y2="328.303" gradientUnits="userSpaceOnUse">
<stop stop-color="#49A5F7"/>
<stop offset="1" stop-color="#1C6CEB"/>
</linearGradient>
<linearGradient id="paint36_linear_752_3733" x1="406.245" y1="287.205" x2="413.899" y2="302.266" gradientUnits="userSpaceOnUse">
<stop stop-color="#49A5F7"/>
<stop offset="1" stop-color="#1C6CEB"/>
</linearGradient>
<linearGradient id="paint37_linear_752_3733" x1="422.074" y1="312.763" x2="393.626" y2="334.406" gradientUnits="userSpaceOnUse">
<stop stop-color="#F7CF00"/>
<stop offset="1" stop-color="#FFA900"/>
</linearGradient>
<linearGradient id="paint38_linear_752_3733" x1="383.878" y1="320.406" x2="427.91" y2="326.388" gradientUnits="userSpaceOnUse">
<stop stop-color="#FAE080"/>
<stop offset="1" stop-color="#F4BB58"/>
</linearGradient>
<linearGradient id="paint39_linear_752_3733" x1="408.114" y1="261.385" x2="408.114" y2="328.303" gradientUnits="userSpaceOnUse">
<stop stop-color="#49A5F7"/>
<stop offset="1" stop-color="#1C6CEB"/>
</linearGradient>
<linearGradient id="paint40_linear_752_3733" x1="465.278" y1="331.627" x2="465.278" y2="246.66" gradientUnits="userSpaceOnUse">
<stop stop-color="#283770"/>
<stop offset="1" stop-color="#141A5A"/>
</linearGradient>
<linearGradient id="paint41_linear_752_3733" x1="461.624" y1="225.126" x2="504.781" y2="225.126" gradientUnits="userSpaceOnUse">
<stop stop-color="#71D2F9"/>
<stop offset="1" stop-color="#51B9F8"/>
</linearGradient>
<linearGradient id="paint42_linear_752_3733" x1="477.429" y1="185.93" x2="499.932" y2="230.21" gradientUnits="userSpaceOnUse">
<stop stop-color="#49A5F7"/>
<stop offset="1" stop-color="#1C6CEB"/>
</linearGradient>
<linearGradient id="paint43_linear_752_3733" x1="85.779" y1="249.765" x2="85.779" y2="272.689" gradientUnits="userSpaceOnUse">
<stop stop-color="#71D2F9"/>
<stop offset="1" stop-color="#51B9F8"/>
</linearGradient>
<linearGradient id="paint44_linear_752_3733" x1="369.835" y1="103.905" x2="369.835" y2="128.414" gradientUnits="userSpaceOnUse">
<stop stop-color="#71D2F9"/>
<stop offset="1" stop-color="#51B9F8"/>
</linearGradient>
<linearGradient id="paint45_linear_752_3733" x1="346.622" y1="61.8138" x2="274.463" y2="188.361" gradientUnits="userSpaceOnUse">
<stop stop-color="#71D2F9"/>
<stop offset="1" stop-color="#51B9F8"/>
</linearGradient>
<linearGradient id="paint46_linear_752_3733" x1="280.492" y1="101.597" x2="326.087" y2="164.75" gradientUnits="userSpaceOnUse">
<stop stop-color="#CBE1F2"/>
<stop offset="1" stop-color="#AED2ED"/>
</linearGradient>
<linearGradient id="paint47_linear_752_3733" x1="297.887" y1="89.039" x2="343.483" y2="152.192" gradientUnits="userSpaceOnUse">
<stop stop-color="#CBE1F2"/>
<stop offset="1" stop-color="#AED2ED"/>
</linearGradient>
<linearGradient id="paint48_linear_752_3733" x1="296.277" y1="90.2017" x2="341.873" y2="153.355" gradientUnits="userSpaceOnUse">
<stop stop-color="#CBE1F2"/>
<stop offset="1" stop-color="#AED2ED"/>
</linearGradient>
<linearGradient id="paint49_linear_752_3733" x1="290.312" y1="94.507" x2="335.908" y2="157.66" gradientUnits="userSpaceOnUse">
<stop stop-color="#CBE1F2"/>
<stop offset="1" stop-color="#AED2ED"/>
</linearGradient>
<linearGradient id="paint50_linear_752_3733" x1="270.74" y1="108.637" x2="316.335" y2="171.79" gradientUnits="userSpaceOnUse">
<stop stop-color="#CBE1F2"/>
<stop offset="1" stop-color="#AED2ED"/>
</linearGradient>
<linearGradient id="paint51_linear_752_3733" x1="288.135" y1="96.0795" x2="333.731" y2="159.233" gradientUnits="userSpaceOnUse">
<stop stop-color="#CBE1F2"/>
<stop offset="1" stop-color="#AED2ED"/>
</linearGradient>
<linearGradient id="paint52_linear_752_3733" x1="286.525" y1="97.2421" x2="332.121" y2="160.395" gradientUnits="userSpaceOnUse">
<stop stop-color="#CBE1F2"/>
<stop offset="1" stop-color="#AED2ED"/>
</linearGradient>
<linearGradient id="paint53_linear_752_3733" x1="280.56" y1="101.548" x2="326.156" y2="164.701" gradientUnits="userSpaceOnUse">
<stop stop-color="#CBE1F2"/>
<stop offset="1" stop-color="#AED2ED"/>
</linearGradient>
<linearGradient id="paint54_linear_752_3733" x1="260.988" y1="115.678" x2="306.583" y2="178.831" gradientUnits="userSpaceOnUse">
<stop stop-color="#CBE1F2"/>
<stop offset="1" stop-color="#AED2ED"/>
</linearGradient>
<linearGradient id="paint55_linear_752_3733" x1="278.383" y1="103.12" x2="323.979" y2="166.273" gradientUnits="userSpaceOnUse">
<stop stop-color="#CBE1F2"/>
<stop offset="1" stop-color="#AED2ED"/>
</linearGradient>
<linearGradient id="paint56_linear_752_3733" x1="276.773" y1="104.283" x2="322.368" y2="167.436" gradientUnits="userSpaceOnUse">
<stop stop-color="#CBE1F2"/>
<stop offset="1" stop-color="#AED2ED"/>
</linearGradient>
<linearGradient id="paint57_linear_752_3733" x1="270.808" y1="108.588" x2="316.403" y2="171.742" gradientUnits="userSpaceOnUse">
<stop stop-color="#CBE1F2"/>
<stop offset="1" stop-color="#AED2ED"/>
</linearGradient>
<linearGradient id="paint58_linear_752_3733" x1="297.23" y1="89.5121" x2="342.825" y2="152.665" gradientUnits="userSpaceOnUse">
<stop stop-color="#CBE1F2"/>
<stop offset="1" stop-color="#AED2ED"/>
</linearGradient>
<linearGradient id="paint59_linear_752_3733" x1="282.993" y1="112.731" x2="299.19" y2="112.731" gradientUnits="userSpaceOnUse">
<stop stop-color="#71D2F9"/>
<stop offset="1" stop-color="#51B9F8"/>
</linearGradient>
<linearGradient id="paint60_linear_752_3733" x1="282.993" y1="133.28" x2="299.19" y2="133.28" gradientUnits="userSpaceOnUse">
<stop stop-color="#71D2F9"/>
<stop offset="1" stop-color="#51B9F8"/>
</linearGradient>
<linearGradient id="paint61_linear_752_3733" x1="157.187" y1="400.963" x2="219.81" y2="459.848" gradientUnits="userSpaceOnUse">
<stop stop-color="#FFE2B1"/>
<stop offset="1" stop-color="#FFD496"/>
</linearGradient>
<linearGradient id="paint62_linear_752_3733" x1="191.32" y1="426.931" x2="249.032" y2="426.931" gradientUnits="userSpaceOnUse">
<stop stop-color="#EEC787"/>
<stop offset="1" stop-color="#FFD496"/>
</linearGradient>
<linearGradient id="paint63_linear_752_3733" x1="152.665" y1="402.068" x2="217.356" y2="402.068" gradientUnits="userSpaceOnUse">
<stop stop-color="#FFE2B1"/>
<stop offset="1" stop-color="#FFD496"/>
</linearGradient>
<linearGradient id="paint64_linear_752_3733" x1="135.821" y1="449.529" x2="189.853" y2="449.529" gradientUnits="userSpaceOnUse">
<stop stop-color="#EEC787"/>
<stop offset="1" stop-color="#FFD496"/>
</linearGradient>
<linearGradient id="paint65_linear_752_3733" x1="146.37" y1="449.529" x2="200.401" y2="449.529" gradientUnits="userSpaceOnUse">
<stop stop-color="#EEC787"/>
<stop offset="1" stop-color="#FFD496"/>
</linearGradient>
<linearGradient id="paint66_linear_752_3733" x1="156.916" y1="449.529" x2="210.948" y2="449.529" gradientUnits="userSpaceOnUse">
<stop stop-color="#EEC787"/>
<stop offset="1" stop-color="#FFD496"/>
</linearGradient>
<linearGradient id="paint67_linear_752_3733" x1="204.025" y1="342.362" x2="266.648" y2="401.247" gradientUnits="userSpaceOnUse">
<stop stop-color="#FFE2B1"/>
<stop offset="1" stop-color="#FFD496"/>
</linearGradient>
<linearGradient id="paint68_linear_752_3733" x1="238.157" y1="368.33" x2="295.869" y2="368.33" gradientUnits="userSpaceOnUse">
<stop stop-color="#EEC787"/>
<stop offset="1" stop-color="#FFD496"/>
</linearGradient>
<linearGradient id="paint69_linear_752_3733" x1="199.503" y1="343.467" x2="264.194" y2="343.467" gradientUnits="userSpaceOnUse">
<stop stop-color="#FFE2B1"/>
<stop offset="1" stop-color="#FFD496"/>
</linearGradient>
<linearGradient id="paint70_linear_752_3733" x1="182.659" y1="390.928" x2="236.69" y2="390.928" gradientUnits="userSpaceOnUse">
<stop stop-color="#EEC787"/>
<stop offset="1" stop-color="#FFD496"/>
</linearGradient>
<linearGradient id="paint71_linear_752_3733" x1="193.208" y1="390.928" x2="247.239" y2="390.928" gradientUnits="userSpaceOnUse">
<stop stop-color="#EEC787"/>
<stop offset="1" stop-color="#FFD496"/>
</linearGradient>
<linearGradient id="paint72_linear_752_3733" x1="203.752" y1="390.928" x2="257.784" y2="390.928" gradientUnits="userSpaceOnUse">
<stop stop-color="#EEC787"/>
<stop offset="1" stop-color="#FFD496"/>
</linearGradient>
<linearGradient id="paint73_linear_752_3733" x1="223.394" y1="400.963" x2="286.017" y2="459.848" gradientUnits="userSpaceOnUse">
<stop stop-color="#FFE2B1"/>
<stop offset="1" stop-color="#FFD496"/>
</linearGradient>
<linearGradient id="paint74_linear_752_3733" x1="257.527" y1="426.931" x2="315.239" y2="426.931" gradientUnits="userSpaceOnUse">
<stop stop-color="#EEC787"/>
<stop offset="1" stop-color="#FFD496"/>
</linearGradient>
<linearGradient id="paint75_linear_752_3733" x1="218.872" y1="402.068" x2="283.563" y2="402.068" gradientUnits="userSpaceOnUse">
<stop stop-color="#FFE2B1"/>
<stop offset="1" stop-color="#FFD496"/>
</linearGradient>
<linearGradient id="paint76_linear_752_3733" x1="202.028" y1="449.529" x2="256.06" y2="449.529" gradientUnits="userSpaceOnUse">
<stop stop-color="#EEC787"/>
<stop offset="1" stop-color="#FFD496"/>
</linearGradient>
<linearGradient id="paint77_linear_752_3733" x1="212.577" y1="449.529" x2="266.608" y2="449.529" gradientUnits="userSpaceOnUse">
<stop stop-color="#EEC787"/>
<stop offset="1" stop-color="#FFD496"/>
</linearGradient>
<linearGradient id="paint78_linear_752_3733" x1="223.123" y1="449.529" x2="277.155" y2="449.529" gradientUnits="userSpaceOnUse">
<stop stop-color="#EEC787"/>
<stop offset="1" stop-color="#FFD496"/>
</linearGradient>
<linearGradient id="paint79_linear_752_3733" x1="120.741" y1="439.134" x2="120.741" y2="330.351" gradientUnits="userSpaceOnUse">
<stop stop-color="#283770"/>
<stop offset="1" stop-color="#141A5A"/>
</linearGradient>
<linearGradient id="paint80_linear_752_3733" x1="133.905" y1="354.758" x2="139.813" y2="354.758" gradientUnits="userSpaceOnUse">
<stop stop-color="#283770"/>
<stop offset="1" stop-color="#141A5A"/>
</linearGradient>
<linearGradient id="paint81_linear_752_3733" x1="145.832" y1="439.135" x2="145.832" y2="330.352" gradientUnits="userSpaceOnUse">
<stop stop-color="#283770"/>
<stop offset="1" stop-color="#141A5A"/>
</linearGradient>
<linearGradient id="paint82_linear_752_3733" x1="140.085" y1="256.325" x2="140.085" y2="342.136" gradientUnits="userSpaceOnUse">
<stop stop-color="#49A5F7"/>
<stop offset="1" stop-color="#1C6CEB"/>
</linearGradient>
<linearGradient id="paint83_linear_752_3733" x1="121.674" y1="262.392" x2="121.674" y2="335.973" gradientUnits="userSpaceOnUse">
<stop stop-color="#49A5F7"/>
<stop offset="1" stop-color="#1C6CEB"/>
</linearGradient>
<linearGradient id="paint84_linear_752_3733" x1="122.929" y1="284.498" x2="124.2" y2="293.753" gradientUnits="userSpaceOnUse">
<stop stop-color="#49A5F7"/>
<stop offset="1" stop-color="#1C6CEB"/>
</linearGradient>
<linearGradient id="paint85_linear_752_3733" x1="138.362" y1="257.458" x2="138.362" y2="332.716" gradientUnits="userSpaceOnUse">
<stop stop-color="#49A5F7"/>
<stop offset="1" stop-color="#1C6CEB"/>
</linearGradient>
<linearGradient id="paint86_linear_752_3733" x1="148.095" y1="285.498" x2="154.824" y2="285.498" gradientUnits="userSpaceOnUse">
<stop stop-color="#49A5F7"/>
<stop offset="1" stop-color="#1C6CEB"/>
</linearGradient>
<linearGradient id="paint87_linear_752_3733" x1="156.162" y1="257.388" x2="156.162" y2="332.624" gradientUnits="userSpaceOnUse">
<stop stop-color="#49A5F7"/>
<stop offset="1" stop-color="#1C6CEB"/>
</linearGradient>
<linearGradient id="paint88_linear_752_3733" x1="139.015" y1="218.733" x2="139.015" y2="250.129" gradientUnits="userSpaceOnUse">
<stop stop-color="#162959"/>
<stop offset="1" stop-color="#0B1B38"/>
</linearGradient>
<linearGradient id="paint89_linear_752_3733" x1="461.542" y1="215.221" x2="342.288" y2="137.015" gradientUnits="userSpaceOnUse">
<stop stop-color="#DFEDF2"/>
<stop offset="1" stop-color="#E8F8FF"/>
</linearGradient>
<linearGradient id="paint90_linear_752_3733" x1="367.767" y1="158.724" x2="367.767" y2="201.174" gradientUnits="userSpaceOnUse">
<stop stop-color="#71D2F9"/>
<stop offset="1" stop-color="#51B9F8"/>
</linearGradient>
<linearGradient id="paint91_linear_752_3733" x1="381.611" y1="158.725" x2="381.611" y2="201.174" gradientUnits="userSpaceOnUse">
<stop stop-color="#71D2F9"/>
<stop offset="1" stop-color="#51B9F8"/>
</linearGradient>
<linearGradient id="paint92_linear_752_3733" x1="395.455" y1="158.724" x2="395.455" y2="201.174" gradientUnits="userSpaceOnUse">
<stop stop-color="#71D2F9"/>
<stop offset="1" stop-color="#51B9F8"/>
</linearGradient>
<linearGradient id="paint93_linear_752_3733" x1="409.301" y1="158.725" x2="409.301" y2="201.174" gradientUnits="userSpaceOnUse">
<stop stop-color="#71D2F9"/>
<stop offset="1" stop-color="#51B9F8"/>
</linearGradient>
<linearGradient id="paint94_linear_752_3733" x1="423.144" y1="158.725" x2="423.144" y2="201.174" gradientUnits="userSpaceOnUse">
<stop stop-color="#71D2F9"/>
<stop offset="1" stop-color="#51B9F8"/>
</linearGradient>
<linearGradient id="paint95_linear_752_3733" x1="436.99" y1="158.725" x2="436.99" y2="201.174" gradientUnits="userSpaceOnUse">
<stop stop-color="#71D2F9"/>
<stop offset="1" stop-color="#51B9F8"/>
</linearGradient>
</defs>
</svg>
