<svg width="70" height="81" viewBox="0 0 70 81" fill="none" xmlns="http://www.w3.org/2000/svg">
<path d="M8.49316 61.2324C9.06215 60.0516 9.9751 59.9023 10.9355 60.8193C11.0718 60.9491 11.2038 61.0836 11.3379 61.2178C12.2581 62.1351 13.3246 62.3236 14.5361 61.7842C15.5463 61.3343 16.5631 60.902 17.5625 60.4326C18.1445 60.1579 18.6771 60.1816 19.2656 60.4434C20.4446 60.969 21.678 61.3867 22.8311 61.96L22.8291 61.9619C23.3092 62.2 23.7438 62.6695 24.0293 63.1367C24.9618 64.662 24.8169 66.1205 23.9883 67.7539C22.0866 71.501 20.3945 75.3539 18.627 79.168C18.3565 79.7543 18.0558 80.2979 17.3311 80.3477C16.5609 80.3996 16.1976 79.8605 15.8623 79.2764C14.774 77.3833 13.6549 75.5074 12.584 73.6035C12.3288 73.1495 12.0712 73.0433 11.5586 73.1406C9.33452 73.5668 7.10166 73.9414 4.87109 74.333C4.73917 74.3568 4.60248 74.3634 4.52246 74.3721C3.38908 74.3696 2.82696 73.4304 3.31152 72.377C4.60738 69.5603 5.92457 66.7565 7.2334 63.9463C7.65312 63.0419 8.06046 62.1303 8.49316 61.2324ZM59.2402 60.6514C60.0083 59.9591 60.9497 60.0957 61.3867 61.0195L61.3838 61.0215C63.0778 64.6021 64.7372 68.2003 66.4053 71.7939C66.483 71.9625 66.5115 72.1523 66.5439 72.2627C66.5613 73.1952 65.8342 73.7665 64.8779 73.6064C62.7253 73.243 60.5705 72.8906 58.4287 72.4688C57.6845 72.3216 57.2731 72.4641 56.8945 73.165C55.8971 75.0148 54.7979 76.8129 53.7529 78.6367C53.4263 79.2056 53.0415 79.6712 52.3125 79.6172C51.6224 79.5674 51.3174 79.0695 51.0557 78.5049C49.1993 74.4937 47.3424 70.4826 45.458 66.4844C45.1465 65.8224 45.1792 65.2381 45.3652 64.5459C45.8088 62.8973 46.7067 61.8281 48.4375 61.4365C49.238 61.2569 49.9827 60.8119 50.7334 60.4463C51.3131 60.163 51.8515 60.1645 52.4355 60.4326C53.805 61.0622 55.207 61.6294 56.5635 62.2871C57.126 62.5597 57.4766 62.4967 57.8682 62.0273C58.2836 61.5319 58.7599 61.0841 59.2402 60.6514ZM22.0127 65.0469C21.7655 64.1772 18.7053 62.7883 17.8721 63.1514C16.3165 63.8285 14.7563 64.5021 13.2158 65.2139C12.476 65.5556 11.8639 65.4731 11.3252 64.8652C10.992 64.4888 10.667 64.1061 10.2451 63.6172C8.99248 66.3128 7.85433 68.7639 6.64062 71.373C8.53805 71.0485 10.2565 70.7544 11.9766 70.458C13.48 70.1984 13.636 70.2678 14.3867 71.5615C15.2759 73.0911 16.1626 74.6233 17.0713 76.1875C17.1751 76.0512 17.2381 75.9942 17.2705 75.9229C18.8433 72.5523 20.4181 69.1837 21.9736 65.8066H21.9785C22.078 65.5925 22.0798 65.2805 22.0127 65.0469ZM53.4141 63.6826C52.2393 63.0336 51.1439 62.8449 49.9756 63.6367C49.716 63.8141 49.3808 63.8841 49.0801 64.001C47.9249 64.4445 47.6633 65.0672 48.1738 66.1641C49.381 68.7536 50.5856 71.3413 51.7949 73.9287C52.0307 74.4327 52.2715 74.9347 52.5527 75.5273C53.4894 73.9158 54.3677 72.4017 55.248 70.8896C56.0334 69.5418 56.2374 69.4617 57.793 69.7451H57.791C59.4979 70.0545 61.207 70.3375 63.0264 70.6533C61.9252 68.293 60.8819 66.0606 59.7764 63.6895C59.3611 64.1349 59.0428 64.459 58.7422 64.8008C58.1667 65.4585 57.5265 65.5822 56.7217 65.1885C55.6335 64.6563 54.4719 64.2667 53.4141 63.6826ZM41.25 0.00976562C41.9964 0.00111156 42.4726 0.336836 42.7344 1.02051C43.2147 2.27747 43.7183 3.52812 44.1748 4.7959C44.3349 5.23942 44.582 5.4515 45.0342 5.62891C47.0137 6.39909 48.9566 7.25548 50.9297 8.04297C51.2347 8.16413 51.6657 8.19907 51.96 8.08008C53.1864 7.58906 54.3933 7.05031 55.583 6.48145C56.3747 6.10289 57.0005 6.20641 57.6191 6.83789C59.4517 8.70717 61.3059 10.5577 63.1709 12.3945C63.7657 12.9829 63.9155 13.582 63.5479 14.3564C62.9703 15.5722 62.4206 16.8053 61.9209 18.0557C61.8041 18.3477 61.8447 18.7789 61.9658 19.084C62.7598 21.0829 63.5863 23.0688 64.4365 25.0439C64.5577 25.323 64.8108 25.6353 65.0791 25.75C66.3166 26.2757 67.5782 26.7552 68.8438 27.2139C69.6313 27.4973 70.0038 27.989 69.9951 28.8457L69.999 28.8516C69.9731 31.4975 69.9731 34.1421 69.999 36.7881C70.0076 37.6468 69.6379 38.1383 68.8506 38.4238C67.6089 38.8738 66.3733 39.3384 65.1641 39.8662C64.8526 40.0003 64.5557 40.3488 64.415 40.6689C63.5669 42.6161 62.7553 44.5786 61.9678 46.5518C61.8467 46.8567 61.8061 47.2849 61.9229 47.5791C62.4226 48.8296 62.9721 50.0634 63.5498 51.2793C63.9195 52.0536 63.7726 52.6529 63.1758 53.2412C61.3109 55.0801 59.4564 56.9277 57.624 58.7969C57.0053 59.4265 56.3797 59.5349 55.5879 59.1562C54.3958 58.5872 53.1884 58.0466 51.9639 57.5576C51.6696 57.4386 51.2387 57.4736 50.9336 57.5947C48.9368 58.393 46.9505 59.2214 44.9775 60.0781C44.679 60.208 44.3586 60.4914 44.2354 60.7812C43.7075 62.0187 43.238 63.2825 42.7686 64.5459C42.4873 65.3008 41.9855 65.6513 41.1699 65.6318C39.9562 65.6037 38.7401 65.6295 37.5264 65.623C36.3605 65.6165 35.9087 65.184 35.9043 64.0117C35.8913 61.3398 35.8994 58.6671 35.8994 55.9951C35.8994 53.3774 35.8929 50.7593 35.8994 48.1416C35.9038 46.8092 36.2913 46.4238 37.6367 46.374C44.6769 46.1122 50.4366 40.5067 50.7266 33.6289C51.0337 26.3056 45.945 20.2151 38.7666 19.3301C38.2863 19.2695 37.7971 19.2916 37.3125 19.2549C36.3757 19.1835 35.9104 18.7506 35.9082 17.8203C35.8952 12.3682 35.8952 6.91593 35.9082 1.46387C35.9104 0.490441 36.3994 0.0293901 37.3643 0.0185547C38.658 0.00341015 39.954 0.0292366 41.25 0.00976562ZM28.8506 0.000976562C29.9843 0.0334286 31.1183 0.00976669 32.252 0.00976562C33.7274 0.00976562 34.0976 0.381811 34.0977 1.88965C34.0998 4.48146 34.0977 7.07127 34.0977 9.66309C34.0977 12.2831 34.1044 14.9017 34.0957 17.5195C34.0913 18.8021 33.6841 19.211 32.4121 19.2607C25.5495 19.529 19.8939 24.758 19.2988 31.3848C18.6671 38.4227 23.1134 44.557 29.9805 46.0801C30.7916 46.2596 31.6352 46.307 32.4658 46.3633L32.4688 46.3613C33.6584 46.4414 34.0957 46.8309 34.0957 47.999C34.1044 53.3427 34.1065 58.6885 34.0957 64.0322C34.0935 65.1594 33.63 65.6078 32.5244 65.6143C31.2848 65.6229 30.0426 65.5971 28.8008 65.623C27.9789 65.6402 27.5005 65.2614 27.2236 64.5107C26.7585 63.2473 26.2869 61.9836 25.7568 60.7461C25.6335 60.4562 25.3026 60.1796 25.002 60.0498C23.0288 59.1974 21.0428 58.3728 19.0459 57.5723C18.7626 57.4576 18.3624 57.423 18.0898 57.5332C16.8156 58.0481 15.5605 58.6107 14.3145 59.1904C13.5724 59.5344 12.9836 59.3956 12.4189 58.8223C10.5606 56.9401 8.69099 55.0691 6.80664 53.2129C6.20301 52.6179 6.09942 52.012 6.46289 51.2461C7.0405 50.0303 7.58578 48.7951 8.08984 47.5469C8.20018 47.2721 8.17012 46.8713 8.05762 46.5879C7.24853 44.5673 6.41102 42.5556 5.54785 40.5566C5.42886 40.2797 5.16225 39.9828 4.88965 39.8682C3.64781 39.3446 2.38869 38.8661 1.12305 38.4053C0.33134 38.1175 -0.00859099 37.603 0 36.7529C0.025961 34.1071 0.0237951 31.4632 0 28.8174C-0.00865415 27.9952 0.348862 27.5105 1.09961 27.2314C2.36305 26.7642 3.62678 26.2947 4.86426 25.7646C5.15407 25.6413 5.43272 25.3141 5.5625 25.0156C6.41707 23.0426 7.24388 21.0566 8.04004 19.0576C8.1612 18.7547 8.18442 18.3237 8.06543 18.0273C7.56569 16.7769 7.01176 15.5482 6.43848 14.3281C6.09015 13.5904 6.21164 13.0016 6.78711 12.4326C8.68885 10.5547 10.5759 8.66205 12.4561 6.76465C13.0013 6.21512 13.5787 6.10007 14.2861 6.42676C15.4847 6.98059 16.7071 7.48459 17.9014 8.04492C18.3557 8.25909 18.7 8.22841 19.1738 8.01855C21.0646 7.17703 22.9836 6.39813 24.9111 5.64746C25.3783 5.46575 25.6601 5.24775 25.8311 4.76758C26.2637 3.54963 26.7718 2.35738 27.2109 1.1416C27.4965 0.349865 27.9984 -0.0227084 28.8506 0.000976562ZM38.5107 2.59961V16.6152C47.6493 17.5542 53.3351 25.23 53.3418 32.5771C53.3461 36.2702 52.3057 39.6024 50.0752 42.5361C47.1782 46.3439 43.2815 48.4189 38.5498 48.9512V63.0225C38.9847 63.0225 39.3658 62.977 39.7314 63.0332C40.3954 63.1326 40.6767 62.8474 40.8779 62.2354C41.2371 61.1363 41.7192 60.0779 42.1064 58.9854C42.3466 58.3103 42.7648 57.9258 43.4658 57.7549C45.9192 57.1599 48.2299 56.1987 50.3848 54.8877C51.0078 54.5114 51.5835 54.5046 52.2217 54.7988C53.3705 55.3289 54.5237 55.8592 55.6963 56.333C55.9149 56.4215 56.3323 56.3526 56.501 56.1904C57.8835 54.862 59.238 53.5075 60.5664 52.125C60.7264 51.9584 60.7927 51.539 60.7041 51.3184C60.2195 50.1198 59.6793 48.9445 59.1406 47.7676C58.8702 47.1813 58.8789 46.6406 59.2207 46.0781C60.5599 43.8735 61.5357 41.5129 62.1523 39.0098C62.3125 38.3629 62.6845 37.9867 63.2881 37.7617C64.5018 37.3117 65.7134 36.8588 66.9033 36.3525C67.1239 36.2593 67.3687 35.9115 67.373 35.6758L67.375 35.6738C67.4139 33.7851 67.3767 31.8936 67.4092 30.0049C67.4177 29.5248 67.2164 29.3451 66.8184 29.2002C65.6545 28.774 64.51 28.296 63.3418 27.8828C62.6627 27.6427 62.2909 27.2079 62.1221 26.5137C61.5249 24.0624 60.557 21.7537 59.248 19.5967C58.8911 19.0061 58.868 18.4474 59.1514 17.833C59.6684 16.7081 60.146 15.561 60.6738 14.4404C60.8684 14.0274 60.8819 13.7509 60.5166 13.3984C59.1752 12.109 57.8638 10.7841 56.5635 9.44922C56.2737 9.15087 56.0375 9.0951 55.6611 9.27246C54.4887 9.81974 53.2989 10.3258 52.1221 10.8623C51.5337 11.1305 50.997 11.1024 50.4346 10.7607C48.2537 9.43667 45.9208 8.46279 43.4414 7.86133C42.7732 7.69905 42.3596 7.3317 42.126 6.68945C41.6933 5.49952 41.2367 4.3152 40.7607 3.14258C40.6741 2.93074 40.4562 2.64599 40.2725 2.62402C39.6991 2.55695 39.1122 2.59961 38.5107 2.59961ZM30.2598 2.59082C29.6042 2.49563 29.3116 2.766 29.1104 3.38477C28.7534 4.48382 28.2691 5.5422 27.8818 6.63477C27.6438 7.30961 27.2282 7.69901 26.5273 7.87207C24.0761 8.47136 21.7652 9.42579 19.6104 10.7412C18.996 11.1153 18.4159 11.1261 17.7734 10.8232C16.6268 10.2824 15.4714 9.75896 14.2988 9.28516C14.0803 9.19647 13.663 9.26944 13.4941 9.43164C12.1138 10.76 10.7571 12.1167 9.42871 13.4971C9.26657 13.6658 9.19274 14.081 9.28125 14.3018C9.76588 15.5003 10.307 16.6756 10.8457 17.8525C11.1139 18.4366 11.1144 18.9796 10.7705 19.542C9.42911 21.7445 8.45548 24.1072 7.83887 26.6104C7.68091 27.255 7.31278 27.6383 6.70703 27.8633C5.51933 28.3025 4.34416 28.7785 3.1543 29.209C2.74137 29.3583 2.57945 29.5635 2.58594 30.0264C2.61622 31.889 2.61838 33.7516 2.58594 35.6143C2.57728 36.0881 2.76946 36.2748 3.17188 36.4219C4.33577 36.8481 5.48022 37.3261 6.64844 37.7393C7.32774 37.9794 7.70016 38.4099 7.87109 39.1064C8.47039 41.5598 9.43111 43.8684 10.7422 46.0254C11.0992 46.6139 11.1272 47.1725 10.8438 47.7891C10.3137 48.94 9.82642 50.1107 9.28125 51.2529C9.08464 51.6659 9.1565 51.9103 9.47656 52.2217C10.7942 53.5003 12.097 54.7921 13.3691 56.1162C13.7368 56.4989 14.0223 56.5146 14.4766 56.2939C15.567 55.7661 16.6941 55.3118 17.791 54.7969C18.4379 54.494 19.0157 54.5234 19.6279 54.8955C21.785 56.2066 24.0977 57.1591 26.5469 57.7627C27.2521 57.9358 27.6526 58.3381 27.8906 59.0088C28.3039 60.1771 28.7581 61.3329 29.2275 62.4795C29.3142 62.6915 29.533 62.9764 29.7168 62.998C30.29 63.065 30.8783 63.0225 31.458 63.0225H31.4512V49.0049C22.3992 48.135 16.2725 40.2641 16.6445 32.0732C16.9669 25.005 22.3084 17.6727 31.4385 16.6602V2.59961C31.0059 2.59961 30.6253 2.64482 30.2598 2.59082ZM35.0264 20.7256C41.6987 20.7364 47.131 26.1847 47.1094 32.8418L47.1113 32.8438C47.0897 39.5117 41.6507 44.9141 34.9697 44.9033C28.2975 44.8923 22.8672 39.4465 22.8867 32.7852C22.9063 26.1173 28.3433 20.7148 35.0264 20.7256ZM35.0391 23.3174C29.7839 23.3002 25.4917 27.5522 25.4766 32.79C25.4616 38.0191 29.7477 42.3096 34.9941 42.3096C40.2406 42.3116 44.5306 38.025 44.5176 32.7959C44.5044 27.5906 40.2466 23.3347 35.0391 23.3174ZM39.0645 28.6826C39.668 28.2436 40.3454 28.3173 40.8105 28.8408C41.2712 29.3579 41.2557 30.0393 40.7646 30.5996C40.6587 30.7207 40.533 30.8264 40.4141 30.9346C38.3155 32.8384 36.2172 34.745 34.1143 36.6445C33.2186 37.4537 32.6578 37.4448 31.8184 36.6162C31.0116 35.8202 30.2069 35.0199 29.4131 34.2109C28.7272 33.5143 28.6597 32.7911 29.207 32.2178C29.7804 31.6164 30.5287 31.6668 31.2578 32.4023C31.8246 32.9734 32.346 33.5855 32.9258 34.2236C34.7821 32.5404 36.498 30.9843 38.2158 29.4287C38.497 29.1756 38.7655 28.9033 39.0684 28.6826H39.0645Z" fill="url(#paint0_linear_752_3951)"/>
<defs>
<linearGradient id="paint0_linear_752_3951" x1="38.8577" y1="28.1557" x2="34.2173" y2="39.1796" gradientUnits="userSpaceOnUse">
<stop stop-color="#DC0017"/>
<stop offset="1" stop-color="#200094"/>
</linearGradient>
</defs>
</svg>
