<svg width="80" height="48" viewBox="0 0 80 48" fill="none" xmlns="http://www.w3.org/2000/svg">
<path d="M80 17.3141C80 15.9425 79.5835 15.527 78.2049 15.5247C76.2628 15.5203 74.3185 15.4957 72.3764 15.5381C71.735 15.5516 71.5635 15.3393 71.5969 14.7295C71.6437 13.8694 71.6013 13.0049 71.6102 12.1403C71.6169 11.4702 71.5301 10.8357 70.8485 10.5118C70.1648 10.1879 69.6414 10.5453 69.1091 10.9541C67.7016 12.0376 66.3808 13.2305 64.8842 14.1956C64.8864 11.4411 64.9176 8.68445 64.8842 5.93001C64.8441 2.49199 62.4588 0.135193 59.0245 0.130725C46.3408 0.12179 33.6592 0.12179 20.9755 0.130725C17.5457 0.132959 15.1514 2.4987 15.1158 5.93001C15.0869 8.68445 15.1158 11.4411 15.118 14.1956C13.5568 13.1791 12.1737 11.9281 10.6949 10.8022C10.2138 10.4358 9.71047 10.2616 9.14699 10.5185C8.57238 10.7821 8.39644 11.3048 8.39421 11.8991C8.38976 12.8463 8.35857 13.7934 8.40534 14.7384C8.4343 15.346 8.26949 15.5627 7.62583 15.5493C5.68374 15.5069 3.73942 15.5314 1.7951 15.5359C0.407572 15.5381 0.00222717 15.9425 0 17.3186C0 21.773 0 26.2297 0 30.6842C0 32.0603 0.412025 32.4736 1.79064 32.4758C3.76169 32.4803 5.73274 32.4959 7.70378 32.4646C8.25612 32.4557 8.42539 32.6411 8.40089 33.1795C8.36303 34.0686 8.39866 34.9622 8.38975 35.8513C8.38307 36.5215 8.46548 37.1581 9.14922 37.482C9.83073 37.806 10.3563 37.453 10.8886 37.0442C12.2962 35.963 13.6192 34.77 15.1136 33.8027C15.1114 36.5572 15.0824 39.3139 15.1136 42.0683C15.1514 45.4616 17.5167 47.8564 20.8953 47.8609C33.6325 47.881 46.3697 47.881 59.1069 47.8609C62.4877 47.8564 64.8441 45.4616 64.8797 42.0638C64.9087 39.3094 64.8797 36.5527 64.8753 33.7983C66.4476 34.8013 67.8241 36.059 69.2984 37.1894C69.7773 37.5558 70.2784 37.7345 70.8441 37.4776C71.4209 37.2162 71.5969 36.6912 71.6013 36.0992C71.608 35.1252 71.6303 34.149 71.5947 33.1772C71.5746 32.6366 71.7439 32.4557 72.294 32.4646C74.265 32.4937 76.2361 32.4803 78.2071 32.4736C79.5791 32.4691 79.9955 32.0469 79.9955 30.6752C79.9955 26.2208 79.9955 21.7663 79.9955 17.3119L80 17.3141ZM11.5189 33.251C11.3964 33.347 11.2962 33.5034 11 33.4632C11 32.7439 11.0111 32.0491 10.9978 31.3544C10.9777 30.358 10.5011 29.8733 9.50111 29.8666C7.44766 29.8532 5.39421 29.842 3.34076 29.8755C2.76615 29.8844 2.58574 29.7281 2.5902 29.1361C2.61692 25.7137 2.61692 22.2891 2.5902 18.8645C2.58574 18.2658 2.77728 18.1206 3.34521 18.1295C5.34299 18.1608 7.34075 18.1451 9.33853 18.1407C10.5479 18.1384 10.9889 17.6894 10.9978 16.4786C11.0022 15.8397 10.9978 15.2008 10.9978 14.5686C11.3007 14.4502 11.4254 14.6892 11.5857 14.8143C15.2762 17.714 18.9532 20.6315 22.6615 23.511C23.2004 23.9288 23.1737 24.0986 22.6548 24.5029C18.9287 27.4026 15.2294 30.3357 11.5189 33.2554V33.251ZM38.6949 32.0625C38.6949 36.2132 38.6837 40.3616 38.706 44.5122C38.7082 45.0774 38.5902 45.2628 37.9866 45.2606C32.2673 45.236 26.5457 45.2516 20.8263 45.2427C18.9621 45.2405 17.6949 43.9716 17.6837 42.0951C17.6637 38.6705 17.6637 35.2436 17.657 31.819C19.0379 30.4898 20.6281 29.4176 22.1069 28.2112C23.3742 27.1769 24.6815 26.1918 25.9577 25.1686C26.8975 24.4135 26.9042 23.5825 25.9577 22.8297C23.4388 20.8281 20.9065 18.8466 18.3808 16.8539C18.1203 16.6484 17.8263 16.4809 17.6592 16.177C17.6659 12.8351 17.6748 9.49313 17.6815 6.15341C17.6882 3.94405 18.8708 2.74666 21.0735 2.74443C26.6837 2.73996 32.2918 2.75559 37.902 2.72655C38.5768 2.72208 38.7127 2.92538 38.7082 3.55982C38.6793 7.68142 38.6927 11.803 38.6949 15.9246C38.6949 17.3141 39.0579 17.6961 40.4499 17.7877C43.7038 18.0044 46.2049 20.6985 46.2049 23.9913C46.2049 27.2819 43.6926 29.9984 40.4543 30.2017C39.0624 30.2888 38.6949 30.673 38.6949 32.0581V32.0625ZM62.3407 31.7163C62.3341 35.085 62.3296 38.4538 62.3207 41.8226C62.3163 44.0386 61.1292 45.2427 58.9443 45.2449C53.3363 45.2472 47.7283 45.236 42.1203 45.2606C41.49 45.2628 41.2828 45.1333 41.2895 44.4541C41.3274 40.7793 41.314 37.1023 41.2984 33.4274C41.2962 32.9427 41.392 32.7305 41.9243 32.6009C46.0445 31.6001 48.8196 28.1062 48.8174 23.9958C48.8174 19.8831 46.0401 16.3893 41.9198 15.3952C41.3719 15.2634 41.2984 15.0422 41.3007 14.5664C41.3163 10.8625 41.3229 7.15867 41.294 3.45705C41.2895 2.85166 41.4766 2.73326 42.0423 2.7355C47.706 2.7556 53.3697 2.74219 59.0334 2.75112C61.1114 2.75335 62.3163 3.99096 62.3229 6.09309C62.3341 9.49089 62.3363 12.8865 62.343 16.2843C59.6414 18.4132 56.9421 20.5422 54.2428 22.6733C53.0379 23.625 53.0401 24.3756 54.2428 25.3272C56.9421 27.4584 59.6436 29.5873 62.343 31.7185C62.9933 32.2189 63.6771 32.6836 64.2918 33.2286C63.6771 32.6836 62.9933 32.2211 62.343 31.7185L62.3407 31.7163ZM77.412 29.1316C77.4165 29.7191 77.2428 29.8844 76.6637 29.8755C74.6659 29.842 72.6681 29.8599 70.6704 29.8643C69.4543 29.8666 69.0111 30.3089 69.0022 31.5174C68.9978 32.1563 69.0022 32.7975 69.0022 33.6486C67.51 32.478 66.1626 31.4214 64.8196 30.3647C62.3096 28.3899 59.8085 26.404 57.2851 24.4471C56.833 24.0963 56.8085 23.9288 57.2784 23.5624C61.0445 20.6248 64.7906 17.6604 68.5434 14.7071C68.6459 14.6267 68.7639 14.5642 69.0045 14.4078C69.0045 15.2321 68.9933 15.9402 69.0067 16.6462C69.0267 17.647 69.4989 18.1317 70.4967 18.1362C72.5501 18.1496 74.6036 18.1585 76.657 18.1295C77.2249 18.1206 77.4187 18.2635 77.4143 18.8645C77.3875 22.2868 77.3875 25.7115 77.4143 29.1338L77.412 29.1316Z" fill="url(#paint0_linear_752_3958)"/>
<defs>
<linearGradient id="paint0_linear_752_3958" x1="40" y1="0.124024" x2="25.9599" y2="47.8548" gradientUnits="userSpaceOnUse">
<stop stop-color="#DC0017"/>
<stop offset="1" stop-color="#200094"/>
</linearGradient>
</defs>
</svg>
