<svg width="80" height="84" viewBox="0 0 80 84" fill="none" xmlns="http://www.w3.org/2000/svg">
<path d="M78.9227 41.2982C77.8557 41.2982 76.7862 41.2982 75.6644 41.2982C75.3237 31.5333 72.1027 22.9821 65.4792 15.8686C58.8059 8.70287 50.501 4.92474 40.6689 4.54171C40.6689 3.21601 40.7062 1.99228 40.6391 0.77602C40.6242 0.507398 40.2337 0.258673 40.0148 0C39.7884 0.248724 39.4875 0.465115 39.3532 0.756122C39.2437 0.997385 39.3283 1.32819 39.3283 1.6192C39.3283 2.59668 39.3283 3.57168 39.3283 4.54668C29.4017 4.97449 21.1341 8.75758 14.4832 15.9233C7.87462 23.0443 4.6785 31.6004 4.34273 41.2982C3.16129 41.2982 2.08681 41.2982 1.01232 41.2982C0.519845 41.2982 -0.0024784 41.343 8.84828e-06 41.9722C8.84828e-06 42.599 0.519847 42.6438 1.01481 42.6413C2.11168 42.6363 3.21104 42.6413 4.3502 42.6413C4.69592 52.4187 7.92188 60.9648 14.5504 68.0783C21.2087 75.2217 29.4913 78.9799 39.3283 79.3854C39.3283 79.7137 39.3283 79.9699 39.3283 80.226C39.3283 81.1861 39.2761 82.1537 39.3606 83.1063C39.388 83.4047 39.7835 83.6684 40.0098 83.9494C40.2287 83.6634 40.5122 83.4023 40.649 83.0789C40.7535 82.8302 40.6714 82.5044 40.6714 82.2133C40.6714 81.2657 40.6714 80.3206 40.6714 79.3605C44.3849 79.2237 47.8745 78.6566 51.2521 77.4602C51.6949 77.3035 52.1326 77.112 51.9685 76.5623C51.7869 75.9554 51.3069 76.0699 50.8194 76.2116C49.424 76.6171 48.0386 77.0921 46.6159 77.3508C44.6883 77.7015 42.7284 77.8781 40.7386 78.1368V71.0307C48.3097 70.6701 54.6646 67.7426 59.7784 62.2557C64.8897 56.7738 67.3968 50.1801 67.6953 42.6886H74.3412C74.2616 43.7954 74.2268 44.8102 74.1149 45.82C72.8514 57.0748 67.6829 66.0214 58.3234 72.4833C57.9379 72.7494 57.4404 73.0106 57.7762 73.5752C58.1418 74.1895 58.6069 73.8786 59.0372 73.5876C68.0286 67.4416 73.3165 58.9377 75.1247 48.2451C75.4331 46.4219 75.5426 44.5615 75.7515 42.6438C76.816 42.6438 77.888 42.6413 78.96 42.6438C79.45 42.6438 79.9873 42.6239 79.9997 41.9996C80.0146 41.3081 79.4401 41.3007 78.9252 41.3007L78.9227 41.2982ZM14.819 17.5152C21.2759 10.2002 29.4141 6.28775 39.2761 5.88731V12.9138C31.7148 13.2769 25.3301 16.1994 20.1989 21.7136C15.1125 27.1806 12.5954 33.737 12.3069 41.231H5.69579C5.947 32.2446 8.85709 24.268 14.819 17.5152ZM39.2611 77.8955C22.8627 78.2611 5.93209 63.2009 5.753 42.6886H12.3019C12.5929 50.1851 15.11 56.7713 20.2213 62.2532C25.3376 67.7376 31.69 70.6626 39.2611 71.0282V77.8955ZM63.8749 42.6438C64.6584 42.6363 65.4394 42.6438 66.2204 42.6438C66.5387 55.9978 55.2069 69.5284 40.6714 69.5906C40.6714 68.7275 40.6664 67.862 40.6714 66.9964C40.6764 66.4965 40.6167 65.9791 40.0023 65.9741C39.388 65.9692 39.3208 66.4865 39.3258 66.9864C39.3333 67.852 39.3258 68.7201 39.3258 69.5831C26.2131 69.6204 13.8888 57.8384 13.6948 42.6438C14.528 42.6438 15.3687 42.7035 16.192 42.6164C16.5402 42.5791 17.0924 42.2682 17.1346 42.0095C17.2366 41.4051 16.6994 41.2982 16.192 41.3007C15.3811 41.3032 14.5703 41.3007 13.7619 41.3007C13.4834 28.2451 24.3526 14.6001 39.3258 14.3365C39.3258 15.2617 39.3283 16.1298 39.3258 16.9953C39.3233 17.5027 39.4278 18.04 40.0272 17.948C40.2834 17.9082 40.6043 17.3535 40.6391 17.0078C40.7261 16.1497 40.6689 15.2742 40.6689 14.4111C52.6923 14.1101 65.9866 25.1038 66.3074 41.3007C65.5065 41.3007 64.7032 41.3007 63.8998 41.3007C63.3799 41.3007 62.8129 41.3181 62.8278 42.0046C62.8427 42.6264 63.3799 42.6488 63.8699 42.6463L63.8749 42.6438ZM67.6928 41.2335C67.4018 33.7494 64.8872 27.1632 59.7784 21.6838C54.6646 16.2019 48.3147 13.2744 40.7087 12.9163V6.05644C57.1593 5.52666 74.1945 20.965 74.2417 41.2335H67.6928Z" fill="url(#paint0_linear_752_3965)"/>
<path d="M53.8096 28.3593C52.5659 28.3867 51.2975 28.409 50.0762 28.2101C46.6214 27.6504 43.5596 26.1158 40.7167 24.1285C40.2267 23.7853 39.8412 23.6733 39.3338 24.1285C35.5482 27.5435 31.1184 28.9587 26.0519 28.327C25.3306 28.2374 25.0247 28.5434 24.9774 29.2249C24.8804 30.6476 24.6914 32.0703 24.6914 33.493C24.6914 35.0326 24.8332 36.5747 24.9924 38.1068C25.0197 38.363 25.4475 38.5794 25.6888 38.8132C25.8753 38.5346 26.1937 38.2685 26.2211 37.975C26.2733 37.4626 26.1066 36.9353 26.1017 36.413C26.0843 34.2143 26.0942 32.0131 26.0942 29.7845C26.4449 29.7596 26.5867 29.7347 26.7235 29.7447C31.5985 30.0904 35.9213 28.7349 39.692 25.6059C39.8536 25.4716 40.2964 25.484 40.4904 25.6109C44.5371 28.2001 48.8152 30.0282 53.8469 29.7372C53.8941 30.1849 53.9712 30.5307 53.9588 30.8739C53.8668 33.1099 53.929 35.3708 53.6205 37.577C52.4092 46.2849 48.1884 53.1795 40.9132 58.1838C40.2242 58.6564 39.7616 58.634 39.09 58.1739C33.7972 54.545 29.8947 49.8292 27.6761 43.7727C27.507 43.3151 27.3204 42.8326 26.711 43.0266C26.144 43.2081 26.236 43.6857 26.3927 44.1185C28.8998 50.9335 33.3172 56.1717 39.5079 59.9249C39.779 60.0891 40.3163 60.0592 40.6073 59.8975C41.3684 59.4772 42.0822 58.9623 42.7761 58.435C52.3893 51.1201 55.9934 41.2308 55.1577 29.4537C55.083 28.4066 54.8567 28.3419 53.8071 28.3668L53.8096 28.3593Z" fill="url(#paint1_linear_752_3965)"/>
<path d="M42.8758 34.4037C41.1745 33.0233 38.7768 33.0432 37.0879 34.4485C35.23 35.9956 34.7151 38.6495 35.9737 40.7611C36.4786 41.6043 36.5557 42.4176 36.4363 43.3404C36.2174 45.0417 36.0383 46.7479 35.8692 48.4567C35.7523 49.6331 36.5134 50.4937 37.6923 50.5335C38.4485 50.5584 39.2046 50.5385 39.9632 50.5385C40.7218 50.5385 41.4779 50.5534 42.234 50.5385C43.5274 50.5111 44.286 49.6804 44.1617 48.392C43.9975 46.6833 43.8433 44.9745 43.5946 43.2782C43.4578 42.3356 43.602 41.5446 44.0796 40.7089C45.2983 38.5749 44.7511 35.9284 42.8758 34.4087V34.4037ZM43.0126 39.8359C42.1694 41.2661 42.1669 42.6763 42.3808 44.2035C42.5698 45.5565 42.6494 46.927 42.821 48.2826C42.918 49.0362 42.6121 49.2874 41.9008 49.2526C41.2615 49.2203 40.6198 49.2451 39.9781 49.2451C39.3364 49.2451 38.6947 49.2227 38.0555 49.2501C37.3566 49.28 37.1228 48.9715 37.2024 48.295C37.4013 46.5887 37.5207 44.8726 37.7694 43.1763C37.9361 42.0396 37.67 41.0845 37.1103 40.1045C35.909 38.0003 37.0357 35.2817 39.2593 34.7893C40.5751 34.4983 41.6968 34.8863 42.5425 35.9185C43.52 37.1074 43.7737 38.5425 43.0126 39.8334V39.8359Z" fill="url(#paint2_linear_752_3965)"/>
<defs>
<linearGradient id="paint0_linear_752_3965" x1="59.16" y1="3.91895" x2="21.7518" y2="78.0228" gradientUnits="userSpaceOnUse">
<stop stop-color="#DC0017"/>
<stop offset="1" stop-color="#200094"/>
</linearGradient>
<linearGradient id="paint1_linear_752_3965" x1="47.3075" y1="25.5178" x2="30.061" y2="55.8005" gradientUnits="userSpaceOnUse">
<stop stop-color="#DC0017"/>
<stop offset="1" stop-color="#200094"/>
</linearGradient>
<linearGradient id="paint2_linear_752_3965" x1="42.2689" y1="34.1826" x2="32.8479" y2="44.9604" gradientUnits="userSpaceOnUse">
<stop stop-color="#DC0017"/>
<stop offset="1" stop-color="#200094"/>
</linearGradient>
</defs>
</svg>
