<svg width="85" height="84" viewBox="0 0 85 84" fill="none" xmlns="http://www.w3.org/2000/svg">
<path d="M11.3418 4.7168C15.2882 -1.35567 24.0614 -1.61152 28.377 4.21973C28.5757 4.48929 28.76 4.75906 29.0439 5.12793C29.2994 4.8017 29.5268 4.50393 29.7539 4.20605C32.0962 1.15569 35.1906 -0.319597 39.0234 0.0634766C43.0975 0.460769 45.9793 2.6593 47.5977 6.41895C47.8816 7.0716 48.1799 7.35558 48.8896 7.29883C49.6134 7.24211 50.3514 7.27046 51.0752 7.29883C52.9206 7.34139 54.199 8.54761 54.2842 10.4062C54.3551 11.9243 54.3125 13.457 54.3125 14.9893C54.3125 17.4721 54.3409 19.9694 54.3125 22.4521C54.3125 23.1613 54.4259 23.5586 55.1924 23.8281C56.7821 24.3956 57.6622 25.6581 57.7617 27.3037C58.2444 35.2916 56.0013 42.3291 50.1953 48.0186C46.4618 51.6649 41.9759 53.9207 36.8086 54.7578C35.1195 55.0274 35.0342 55.1133 35.0342 56.8584V58.8447C34.9914 61.0435 33.7425 62.2918 31.5566 62.3203H30.0518C30.0234 62.7176 29.9951 63.0726 29.9951 63.4131V79.0479C29.9951 81.1335 30.7046 81.8291 32.834 81.8291H37.8164C39.7896 81.8291 40.4854 81.105 40.4854 79.1045V70.2373C40.4854 67.9105 41.7349 66.6621 44.0488 66.6621H49.2021V65.3711C49.2447 63.7821 49.9966 63.0011 51.6006 62.9727C52.6368 62.9443 53.6591 62.9159 54.6953 62.9727C55.5044 63.0294 55.8879 62.7744 56.2002 61.9658C58.5709 55.7656 64.7323 51.9769 71.4043 52.5586C77.8206 53.1121 83.2428 57.9935 84.5488 64.3496C86.1102 71.9827 81.582 79.4875 74.1436 81.6299C66.6624 83.7865 58.812 79.8849 56.1006 72.6064C55.8309 71.8689 55.49 71.6278 54.752 71.6846C53.9571 71.7413 53.162 71.6846 52.3672 71.6846C49.8264 71.6846 49.4575 71.3723 49.0459 68.8047L49.0029 68.8184H43.665C42.7142 68.8185 42.5576 69.4854 42.5576 70.2656V78.9346C42.5576 82.3821 40.9541 83.9998 37.5049 84H32.4219C29.5688 83.9998 27.8369 82.2824 27.8369 79.4023C27.8227 74.1247 27.8369 68.847 27.8369 63.5693V62.3203H26.0342C24.2313 62.2777 22.9676 61.0855 22.8398 59.2979C22.7831 58.4325 22.8257 57.567 22.8115 56.7158C22.8115 55.1979 22.6697 55.0273 21.165 54.7861C14.5357 53.722 9.16942 50.5012 5.08105 45.1807C1.10649 39.9596 -0.313405 34.0008 0.0556641 27.5596C0.140839 26.0414 0.879465 24.8071 2.21387 24.0693C2.76726 23.7573 2.82419 23.4026 2.82422 22.8779V11.0303C2.82426 8.4907 4.01669 7.29934 6.5293 7.28516C7.59378 7.28517 8.82849 7.61085 9.66602 7.18555C10.4468 6.78828 10.7882 5.56808 11.3418 4.7168ZM70.708 54.5879C65.3563 54.1624 58.9119 58.4189 58.2021 62.959C58.8407 62.959 59.465 62.9023 60.0752 62.959C61.0121 63.0725 61.5382 62.7174 62.0635 61.9229C64.6187 58.064 69.6434 56.6313 73.8594 58.5039C78.1181 60.3909 80.4328 65.0019 79.3682 69.4854C78.4739 73.2309 75.45 76.1397 71.7734 76.7783C67.8271 77.4593 64.022 75.7993 61.8643 72.4795C61.6655 72.1674 61.3674 71.7413 61.0693 71.7129C60.1325 71.6136 59.1673 71.6699 58.2021 71.6699V71.6982C58.9829 76.4653 65.3988 80.4812 71.3184 79.999C77.6781 79.4741 82.7324 73.8552 82.7324 67.3145C82.7324 60.5326 77.6355 55.1554 70.708 54.5879ZM71.5312 59.9932C68.7206 59.3691 65.1999 60.7316 64.1211 62.959C65.1858 62.959 66.2084 62.9306 67.2305 62.959C68.6925 63.0158 69.5019 63.8243 69.5303 65.2715C69.5587 66.6618 69.5587 68.0521 69.5303 69.4424C69.5019 70.8328 68.6778 71.6415 67.2725 71.6699C66.2506 71.6841 65.2287 71.6699 64.0791 71.6699L64.0645 71.6846C65.4698 74.1532 69.0331 75.3877 72.0283 74.5508C75.3784 73.6144 77.607 70.5497 77.5078 67.0312C77.4084 63.6403 74.9524 60.7451 71.5312 59.9932ZM51.3027 69.542H67.3154V65.1719H51.3027V69.542ZM54.7383 25.999C53.3472 24.9208 51.4591 25.9419 51.3311 27.8145C51.2459 29.0063 51.3029 30.1988 51.2461 31.3906C50.8201 39.8182 44.0624 47.3521 35.7012 48.3027C31.8968 48.7425 28.0071 48.6291 24.1602 48.5439C15.5292 48.3594 7.89196 41.4636 6.77051 32.9082C6.55763 31.2342 6.62862 29.5319 6.5293 27.8438C6.45832 26.4675 5.5355 25.602 4.22949 25.6162C3.07966 25.6162 2.21351 26.5522 2.1709 27.8574C2.14251 28.7228 2.1567 29.5883 2.1709 30.4395C2.28446 36.1856 4.27254 41.1943 8.13379 45.4365C11.853 49.5226 16.4952 51.8783 21.9463 52.7012C23.8766 52.9992 24.8984 54.1482 24.9268 56.0635C24.941 56.9857 24.941 57.9225 24.9268 58.8447C24.9269 59.7524 25.3529 60.2065 26.2471 60.2207H28.9297C29.824 60.2207 30.7189 60.2349 31.6133 60.2207C32.4506 60.2065 32.891 59.7808 32.877 58.9014C32.8628 58.0785 32.877 57.2409 32.877 56.418C32.877 54.1906 33.8986 53.0696 36.0703 52.7148C37.3479 52.502 38.6259 52.2469 39.8467 51.8496C48.9319 48.9127 56.4981 40.2296 55.6748 27.7441C55.6322 27.1341 55.2208 26.3822 54.7383 25.999ZM4.98145 16.7197L4.95312 16.748C4.95312 18.8195 4.96732 20.735 4.95312 22.6504C4.95312 23.2179 5.06694 23.5021 5.69141 23.6865C7.46588 24.2257 8.51632 25.6584 8.62988 27.5312C8.67246 28.3258 8.64401 29.1205 8.6582 29.915C8.7719 38.8818 15.0753 45.7199 24.0186 46.3867C27.1842 46.6137 30.4066 46.6137 33.5723 46.415C40.5565 45.9894 45.4253 42.4144 48.165 35.9873C49.2155 33.5186 49.3298 30.9075 49.2588 28.2686C49.2021 26.3108 49.983 24.8065 51.7432 23.8418C51.9559 23.7281 52.1965 23.4309 52.2109 23.2041C52.2393 21.0902 52.2256 18.976 52.2256 16.7344C50.224 16.7344 48.3071 16.7339 46.3906 16.748C46.1778 16.7483 45.9369 16.9895 45.7666 17.1738C40.7556 22.1963 35.7444 27.2471 30.7334 32.2695C29.5552 33.4471 28.4332 33.4052 27.1982 32.1709C22.2014 27.1768 17.2048 22.168 12.208 17.1738C12.0093 16.9752 11.7247 16.7486 11.4834 16.7344C9.36828 16.706 7.23852 16.7197 4.98145 16.7197ZM26.4746 5.34082C23.7065 1.66621 18.5532 0.956673 14.8623 3.76562C11.2424 6.51811 10.3335 12.0379 13.4424 15.3438C18.4393 20.6501 23.8056 25.6158 29.1006 30.8086H29.1143C32.5212 27.4035 36.0283 23.899 39.5205 20.3945C41.0961 18.8198 42.7142 17.3015 44.1904 15.6416C46.5185 13.0168 46.8028 9.21399 45.0283 6.17773C43.268 3.15579 39.7898 1.61 36.3545 2.29102C33.9697 2.75924 32.2236 4.10655 30.875 6.09277C29.8529 7.58252 28.1355 7.58241 27.0566 6.14941C26.8579 5.87987 26.6733 5.61037 26.4746 5.34082ZM30.0303 8.58789C31.4454 8.6306 32.1179 9.28539 32.1465 10.6807C32.1608 11.478 32.1465 12.2756 32.1465 13.2295H34.6475C36.0482 13.2437 36.7635 13.9125 36.835 15.2793C36.8635 15.9484 36.8635 16.6176 36.835 17.2725C36.7778 18.5964 36.1057 19.2662 34.748 19.3232C33.9272 19.3655 33.1059 19.3241 32.1602 19.3232C32.1603 20.2567 32.1744 21.0781 32.1602 21.8994C32.1316 23.2235 31.4312 23.9358 30.1162 23.9785C29.4445 24.007 28.7727 24.007 28.1152 23.9785C26.8718 23.9216 26.1429 23.1955 26.1143 21.957C26.0857 21.1314 26.1142 20.3054 26.1143 19.3232C25.2568 19.3232 24.4706 19.3375 23.6846 19.3232C22.098 19.2805 21.4547 18.6252 21.4404 17.0449C21.4404 16.4185 21.4119 15.7778 21.4404 15.1514C21.4976 13.9555 22.2119 13.2723 23.4268 13.2295C24.2843 13.201 25.142 13.2295 26.0996 13.2295V10.666C26.1283 9.32796 26.8007 8.64483 28.1299 8.58789C28.7586 8.55944 29.4016 8.57366 30.0303 8.58789ZM28.2295 12.7881C28.2294 14.7383 27.5864 15.3788 25.6572 15.3789H23.584V17.2158H25.8564C27.5431 17.2158 28.2015 17.8706 28.2158 19.5791V21.7861H30.0166L30.0449 21.7578C30.0449 20.8894 30.0306 20.0634 30.0449 19.252C30.0878 17.8424 30.7314 17.1877 32.1465 17.1592C32.9754 17.1307 33.8046 17.1592 34.6621 17.1592V15.3789H32.5322C30.674 15.3789 30.0446 14.7525 30.0303 12.9443V10.752H28.2295V12.7881ZM6.0752 9.3418C5.39394 9.35598 4.95382 9.72495 4.93945 10.4482V14.5918H10.2061C9.92214 12.8325 9.6526 11.1295 9.35449 9.3418C8.31827 9.3418 7.19658 9.31343 6.0752 9.3418ZM51.1465 9.41309C50.2239 9.27123 49.2588 9.37009 48.4639 9.37012C48.1658 11.172 47.881 12.8609 47.6113 14.5635H52.0693V14.5488C52.0693 13.0875 52.1257 11.7252 52.0264 10.3916C51.9977 10.0227 51.5013 9.45564 51.1465 9.41309Z" fill="url(#paint0_linear_752_3692)"/>
<defs>
<linearGradient id="paint0_linear_752_3692" x1="42.4284" y1="8.64498e-07" x2="13.7135" y2="83.9996" gradientUnits="userSpaceOnUse">
<stop stop-color="#EE5622"/>
<stop offset="1" stop-color="#FAB511"/>
</linearGradient>
</defs>
</svg>
