<svg width="68" height="58" viewBox="0 0 68 58" fill="none" xmlns="http://www.w3.org/2000/svg">
<path d="M36.9883 57.3125C36.6784 57.3125 36.4349 57.2188 36.2578 57.0312C36.0807 56.8438 35.9922 56.625 35.9922 56.375V53.875C35.9922 53.7083 35.9258 53.5625 35.793 53.4375C35.6602 53.3125 35.4831 53.25 35.2617 53.25H32.6055C32.3841 53.25 32.207 53.3125 32.0742 53.4375C31.9414 53.5625 31.875 53.7083 31.875 53.875V56.375C31.875 56.625 31.7865 56.8438 31.6094 57.0312C31.4323 57.2188 31.1888 57.3125 30.8789 57.3125C30.6133 57.3125 30.3809 57.2188 30.1816 57.0312C29.9824 56.8438 29.8828 56.625 29.8828 56.375V53.875C29.8828 53.1667 30.1484 52.5625 30.6797 52.0625C31.2109 51.5625 31.8529 51.3125 32.6055 51.3125H35.2617C36.0143 51.3125 36.6562 51.5625 37.1875 52.0625C37.7188 52.5625 37.9844 53.1667 37.9844 53.875V56.375C37.9844 56.625 37.8848 56.8438 37.6855 57.0312C37.4863 57.2188 37.2539 57.3125 36.9883 57.3125ZM43.5625 22.875L48.543 29.1875C49.0742 29.8958 49.3288 30.7083 49.3066 31.625C49.2845 32.5417 48.9635 33.3333 48.3438 34L43.8945 38.75C44.4258 39 44.8685 39.375 45.2227 39.875C45.5768 40.375 45.7539 40.9375 45.7539 41.5625V46.0625C45.7539 46.7292 45.5547 47.3229 45.1562 47.8438C44.7578 48.3646 44.2487 48.7292 43.6289 48.9375L43.2969 56.4375C43.2969 56.6875 43.1973 56.8958 42.998 57.0625C42.7988 57.2292 42.5664 57.3125 42.3008 57.3125C42.0352 57.3125 41.8027 57.2188 41.6035 57.0312C41.4043 56.8438 41.3047 56.6042 41.3047 56.3125L41.5703 49.125H26.4297L26.6953 56.3125C26.6953 56.6042 26.5957 56.8438 26.3965 57.0312C26.1973 57.2188 25.9648 57.3125 25.6992 57.3125C25.4336 57.3125 25.2012 57.2292 25.002 57.0625C24.8027 56.8958 24.7031 56.6875 24.7031 56.4375L24.4375 49C23.7734 48.7917 23.2201 48.4167 22.7773 47.875C22.3346 47.3333 22.1133 46.7292 22.1133 46.0625V41.5625C22.1133 40.9375 22.2904 40.375 22.6445 39.875C22.9987 39.375 23.4414 39 23.9727 38.75L19.5234 34C18.9036 33.3333 18.5827 32.5417 18.5605 31.625C18.5384 30.7083 18.793 29.8958 19.3242 29.1875L31.1445 14.1875C31.4987 13.7292 31.9193 13.3854 32.4062 13.1562C32.8932 12.9271 33.4023 12.8125 33.9336 12.8125C34.4648 12.8125 34.974 12.9271 35.4609 13.1562C35.9479 13.3854 36.3685 13.7292 36.7227 14.1875L40.9727 19.625C41.1497 19.8333 41.2161 20.0625 41.1719 20.3125C41.1276 20.5625 40.9948 20.7708 40.7734 20.9375C40.5521 21.1042 40.3086 21.1667 40.043 21.125C39.7773 21.0833 39.556 20.9583 39.3789 20.75L37.1875 17.9375V25.0625C37.763 25.4792 38.2168 26.0104 38.5488 26.6562C38.8809 27.3021 39.0469 28 39.0469 28.75C39.0469 30.0417 38.5488 31.1562 37.5527 32.0938C36.5566 33.0312 35.3503 33.5 33.9336 33.5C32.5169 33.5 31.3105 33.0312 30.3145 32.0938C29.3184 31.1562 28.8203 30.0417 28.8203 28.75C28.8203 28 28.9974 27.2917 29.3516 26.625C29.7057 25.9583 30.1927 25.3958 30.8125 24.9375V17.8125L20.918 30.3125C20.6523 30.6875 20.5306 31.1042 20.5527 31.5625C20.5749 32.0208 20.7409 32.4167 21.0508 32.75L26.3633 38.5H41.4375L46.8164 32.75C47.1263 32.4167 47.2923 32.0208 47.3145 31.5625C47.3366 31.1042 47.1927 30.6875 46.8828 30.3125L41.9688 24C41.7917 23.7917 41.7253 23.5625 41.7695 23.3125C41.8138 23.0625 41.9466 22.8542 42.168 22.6875C42.3893 22.5208 42.6328 22.4583 42.8984 22.5C43.1641 22.5417 43.3854 22.6667 43.5625 22.875ZM33.9336 14.6875C33.7122 14.6875 33.513 14.7396 33.3359 14.8438C33.1589 14.9479 32.9818 15.0833 32.8047 15.25V25.4375C32.8047 25.6042 32.7604 25.7604 32.6719 25.9062C32.5833 26.0521 32.4727 26.1667 32.3398 26.25C31.8529 26.5 31.4766 26.8438 31.2109 27.2812C30.9453 27.7188 30.8125 28.2083 30.8125 28.75C30.8125 29.5417 31.1224 30.2188 31.7422 30.7812C32.362 31.3438 33.0924 31.625 33.9336 31.625C34.7747 31.625 35.5052 31.3438 36.125 30.7812C36.7448 30.2188 37.0547 29.5417 37.0547 28.75C37.0547 28.25 36.9219 27.7812 36.6562 27.3438C36.3906 26.9062 36.0586 26.5625 35.6602 26.3125C35.4831 26.2292 35.3613 26.1146 35.2949 25.9688C35.2285 25.8229 35.1953 25.6667 35.1953 25.5V15.4375L35.0625 15.3125C34.9297 15.1042 34.7637 14.9479 34.5645 14.8438C34.3652 14.7396 34.1549 14.6875 33.9336 14.6875ZM43.7617 46.0625V41.5625C43.7617 41.2292 43.64 40.9479 43.3965 40.7188C43.153 40.4896 42.8542 40.375 42.5 40.375H25.3672C25.013 40.375 24.7142 40.4896 24.4707 40.7188C24.2272 40.9479 24.1055 41.2292 24.1055 41.5625V46.0625C24.1055 46.3958 24.2272 46.6771 24.4707 46.9062C24.7142 47.1354 25.013 47.25 25.3672 47.25H42.5C42.8542 47.25 43.153 47.1354 43.3965 46.9062C43.64 46.6771 43.7617 46.3958 43.7617 46.0625ZM14.0117 23.1875C14.8529 23.3958 15.5612 23.8333 16.1367 24.5C16.7122 25.1667 17 25.9375 17 26.8125C17 27.8542 16.6126 28.7396 15.8379 29.4688C15.0632 30.1979 14.1224 30.5625 13.0156 30.5625C11.9089 30.5625 10.9681 30.1979 10.1934 29.4688C9.41862 28.7396 9.03125 27.8542 9.03125 26.8125C9.03125 25.9375 9.30794 25.1667 9.86133 24.5C10.4147 23.8333 11.1341 23.3958 12.0195 23.1875C12.0638 21.5208 12.3294 19.8854 12.8164 18.2812C13.3034 16.6771 13.9896 15.1667 14.875 13.75C15.0078 13.5417 15.207 13.3958 15.4727 13.3125C15.7383 13.2292 15.9818 13.25 16.2031 13.375C16.4688 13.5 16.6348 13.6875 16.7012 13.9375C16.7676 14.1875 16.7344 14.4375 16.6016 14.6875C15.8047 15.9792 15.196 17.3438 14.7754 18.7812C14.3548 20.2188 14.1003 21.6875 14.0117 23.1875ZM13.0156 28.6875C13.5469 28.6875 14.0117 28.5 14.4102 28.125C14.8086 27.75 15.0078 27.3125 15.0078 26.8125C15.0078 26.3125 14.8086 25.875 14.4102 25.5C14.0117 25.125 13.5469 24.9375 13.0156 24.9375C12.4401 24.9375 11.9642 25.125 11.5879 25.5C11.2116 25.875 11.0234 26.3125 11.0234 26.8125C11.0234 27.3125 11.2116 27.75 11.5879 28.125C11.9642 28.5 12.4401 28.6875 13.0156 28.6875ZM65.875 0.6875C66.4505 0.6875 66.9486 0.885417 67.3691 1.28125C67.7897 1.67708 68 2.14583 68 2.6875V5.6875C68 6.22917 67.7897 6.69792 67.3691 7.09375C66.9486 7.48958 66.4505 7.6875 65.875 7.6875H62.6875C62.0677 7.6875 61.5586 7.48958 61.1602 7.09375C60.7617 6.69792 60.5625 6.22917 60.5625 5.6875V5.125H43.1641C45.0234 5.91667 46.7057 6.9375 48.2109 8.1875C49.7604 9.4375 51.0996 10.8333 52.2285 12.375C53.3574 13.9167 54.2539 15.6042 54.918 17.4375C55.5378 19.2708 55.8919 21.1875 55.9805 23.1875C56.8659 23.3958 57.5853 23.8333 58.1387 24.5C58.6921 25.1667 58.9688 25.9375 58.9688 26.8125C58.9688 27.8542 58.5814 28.7396 57.8066 29.4688C57.0319 30.1979 56.0911 30.5625 54.9844 30.5625C53.8776 30.5625 52.9368 30.1979 52.1621 29.4688C51.3874 28.7396 51 27.8542 51 26.8125C51 25.9375 51.2878 25.1667 51.8633 24.5C52.4388 23.8333 53.1471 23.3958 53.9883 23.1875C53.8997 20.9792 53.4128 18.8958 52.5273 16.9375C51.6862 14.9792 50.5462 13.2188 49.1074 11.6562C47.6686 10.0938 45.9753 8.77083 44.0273 7.6875C42.0794 6.60417 39.9766 5.85417 37.7188 5.4375V5.6875C37.7188 6.22917 37.5085 6.69792 37.0879 7.09375C36.6673 7.48958 36.1693 7.6875 35.5938 7.6875H32.4062C31.8307 7.6875 31.3327 7.48958 30.9121 7.09375C30.4915 6.69792 30.2812 6.22917 30.2812 5.6875V5.4375C28.112 5.85417 26.0534 6.57292 24.1055 7.59375C22.1576 8.61458 20.4531 9.91667 18.9922 11.5C18.9036 11.625 18.793 11.7188 18.6602 11.7812C18.5273 11.8438 18.3945 11.875 18.2617 11.875C18.1289 11.875 18.0072 11.8542 17.8965 11.8125C17.7858 11.7708 17.6862 11.7083 17.5977 11.625C17.3763 11.4583 17.2546 11.2396 17.2324 10.9688C17.2103 10.6979 17.2878 10.4583 17.4648 10.25C18.4831 9.16667 19.612 8.19792 20.8516 7.34375C22.0911 6.48958 23.4193 5.75 24.8359 5.125H7.4375V5.6875C7.4375 6.22917 7.23828 6.69792 6.83984 7.09375C6.44141 7.48958 5.93229 7.6875 5.3125 7.6875H2.125C1.54948 7.6875 1.05143 7.48958 0.630859 7.09375C0.210286 6.69792 0 6.22917 0 5.6875V2.6875C0 2.14583 0.210286 1.67708 0.630859 1.28125C1.05143 0.885417 1.54948 0.6875 2.125 0.6875H5.3125C5.93229 0.6875 6.44141 0.885417 6.83984 1.28125C7.23828 1.67708 7.4375 2.14583 7.4375 2.6875V3.25H30.2812V2.6875C30.2812 2.14583 30.4915 1.67708 30.9121 1.28125C31.3327 0.885417 31.8307 0.6875 32.4062 0.6875H35.5938C36.1693 0.6875 36.6673 0.885417 37.0879 1.28125C37.5085 1.67708 37.7188 2.14583 37.7188 2.6875V3.25H60.5625V2.6875C60.5625 2.14583 60.7617 1.67708 61.1602 1.28125C61.5586 0.885417 62.0677 0.6875 62.6875 0.6875H65.875ZM5.44531 5.6875V2.6875C5.44531 2.64583 5.43424 2.61458 5.41211 2.59375C5.38997 2.57292 5.35677 2.5625 5.3125 2.5625H2.125C2.08073 2.5625 2.04753 2.57292 2.02539 2.59375C2.00326 2.61458 1.99219 2.64583 1.99219 2.6875V5.6875C1.99219 5.72917 2.00326 5.76042 2.02539 5.78125C2.04753 5.80208 2.08073 5.8125 2.125 5.8125H5.3125C5.35677 5.8125 5.38997 5.80208 5.41211 5.78125C5.43424 5.76042 5.44531 5.72917 5.44531 5.6875ZM56.9766 26.8125C56.9766 26.3125 56.7884 25.875 56.4121 25.5C56.0358 25.125 55.5599 24.9375 54.9844 24.9375C54.4531 24.9375 53.9883 25.125 53.5898 25.5C53.1914 25.875 52.9922 26.3125 52.9922 26.8125C52.9922 27.3125 53.1914 27.75 53.5898 28.125C53.9883 28.5 54.4531 28.6875 54.9844 28.6875C55.5599 28.6875 56.0358 28.5 56.4121 28.125C56.7884 27.75 56.9766 27.3125 56.9766 26.8125ZM35.7266 5.6875V2.6875C35.7266 2.64583 35.7155 2.61458 35.6934 2.59375C35.6712 2.57292 35.638 2.5625 35.5938 2.5625H32.4062C32.362 2.5625 32.3288 2.57292 32.3066 2.59375C32.2845 2.61458 32.2734 2.64583 32.2734 2.6875V5.6875C32.2734 5.72917 32.2845 5.76042 32.3066 5.78125C32.3288 5.80208 32.362 5.8125 32.4062 5.8125H35.5938C35.638 5.8125 35.6712 5.80208 35.6934 5.78125C35.7155 5.76042 35.7266 5.72917 35.7266 5.6875ZM66.0078 5.6875V2.6875C66.0078 2.64583 65.9967 2.61458 65.9746 2.59375C65.9525 2.57292 65.9193 2.5625 65.875 2.5625H62.6875C62.6432 2.5625 62.61 2.57292 62.5879 2.59375C62.5658 2.61458 62.5547 2.64583 62.5547 2.6875V5.6875C62.5547 5.72917 62.5658 5.76042 62.5879 5.78125C62.61 5.80208 62.6432 5.8125 62.6875 5.8125H65.875C65.9193 5.8125 65.9525 5.80208 65.9746 5.78125C65.9967 5.76042 66.0078 5.72917 66.0078 5.6875Z" fill="#00BCE0"/>
</svg>
