<svg width="60" height="64" viewBox="0 0 60 64" fill="none" xmlns="http://www.w3.org/2000/svg">
<path d="M58 34C58.5417 34 59.0104 34.1979 59.4062 34.5938C59.8021 34.9896 60 35.4583 60 36V38C60 38.5417 59.8021 39.0104 59.4062 39.4062C59.0104 39.8021 58.5417 40 58 40H57V62C57 62.5417 56.8021 63.0104 56.4062 63.4062C56.0104 63.8021 55.5417 64 55 64H5C4.45833 64 3.98958 63.8021 3.59375 63.4062C3.19792 63.0104 3 62.5417 3 62V40H2C1.45833 40 0.989583 39.8021 0.59375 39.4062C0.197917 39.0104 0 38.5417 0 38V36C0 35.4583 0.197917 34.9896 0.59375 34.5938C0.989583 34.1979 1.45833 34 2 34H3V32C3 31.4583 3.19792 30.9896 3.59375 30.5938C3.98958 30.1979 4.45833 30 5 30H17.5L21.6875 26.25C21.7708 26.1667 21.875 26.1042 22 26.0625C22.125 26.0208 22.25 26 22.375 26H37.625C37.75 26 37.875 26.0208 38 26.0625C38.125 26.1042 38.2292 26.1667 38.3125 26.25L42.1875 30H55C55.5417 30 56.0104 30.1979 56.4062 30.5938C56.8021 30.9896 57 31.4583 57 32V34H58ZM3 38V36H2V38H3ZM55 60H40V58H55V39V36H40V34H55V32H41.8125C41.6875 32 41.5625 31.9792 41.4375 31.9375C41.3125 31.8958 41.2083 31.8333 41.125 31.75L37.25 28H22.75L18.5625 31.75C18.4792 31.8333 18.375 31.8958 18.25 31.9375C18.125 31.9792 18 32 17.875 32H5V34H20V36H5V58H20V60H5V62H55V60ZM57 38H58V36H57V38ZM30 34C31.7917 34 33.4792 34.3333 35.0625 35C36.6458 35.7083 38.0208 36.6458 39.1875 37.8125C40.3542 38.9792 41.2917 40.3542 42 41.9375C42.6667 43.5208 43 45.2083 43 47C43 48.7917 42.6667 50.4792 42 52.0625C41.2917 53.6458 40.3542 55.0208 39.1875 56.1875C38.0208 57.3542 36.6458 58.2917 35.0625 59C33.4792 59.6667 31.7917 60 30 60C28.2083 60 26.5208 59.6667 24.9375 59C23.3542 58.2917 21.9792 57.3542 20.8125 56.1875C19.6458 55.0208 18.7083 53.6458 18 52.0625C17.3333 50.4792 17 48.7917 17 47C17 45.2083 17.3333 43.5208 18 41.9375C18.7083 40.3542 19.6458 38.9792 20.8125 37.8125C21.9792 36.6458 23.3542 35.7083 24.9375 35C26.5208 34.3333 28.2083 34 30 34ZM30 58C33.0417 58 35.6354 56.9271 37.7812 54.7812C39.9271 52.6354 41 50.0417 41 47C41 43.9583 39.9271 41.3646 37.7812 39.2188C35.6354 37.0729 33.0417 36 30 36C26.9583 36 24.3646 37.0729 22.2188 39.2188C20.0729 41.3646 19 43.9583 19 47C19 50.0417 20.0729 52.6354 22.2188 54.7812C24.3646 56.9271 26.9583 58 30 58ZM30 38C32.5 38 34.625 38.875 36.375 40.625C38.125 42.375 39 44.5 39 47C39 49.5 38.125 51.625 36.375 53.375C34.625 55.125 32.5 56 30 56C27.5 56 25.375 55.125 23.625 53.375C21.875 51.625 21 49.5 21 47C21 44.5 21.875 42.375 23.625 40.625C25.375 38.875 27.5 38 30 38ZM30 54C31.9167 54 33.5625 53.3125 34.9375 51.9375C36.3125 50.5625 37 48.9167 37 47C37 45.0833 36.3125 43.4375 34.9375 42.0625C33.5625 40.6875 31.9167 40 30 40C28.0833 40 26.4375 40.6875 25.0625 42.0625C23.6875 43.4375 23 45.0833 23 47C23 48.9167 23.6875 50.5625 25.0625 51.9375C26.4375 53.3125 28.0833 54 30 54ZM26 32V30H34V32H26ZM46 29V27H52V29H46ZM5 29V27H8V29H5ZM10 29V27H14V29H10ZM32 46V44H34V46H32ZM48 50V48H50V50H48ZM48 54V52H50V54H48ZM42 0C42.5417 0 43.0104 0.197918 43.4062 0.59375C43.8021 0.989582 44 1.45833 44 2V28H42V2H18V28H16V2C16 1.45833 16.1979 0.989582 16.5938 0.59375C16.9896 0.197918 17.4583 0 18 0H42ZM39.9375 22.625C39.9792 22.75 40 22.8958 40 23.0625C40 23.2292 39.9375 23.3958 39.8125 23.5625C39.7292 23.6875 39.6146 23.7917 39.4688 23.875C39.3229 23.9583 39.1667 24 39 24H21C20.8333 24 20.6667 23.9583 20.5 23.875C20.3333 23.7917 20.2083 23.6667 20.125 23.5C20.0417 23.3333 20 23.1667 20 23C20 22.8333 20.0417 22.6667 20.125 22.5L27.125 10.5C27.2083 10.375 27.3229 10.2604 27.4688 10.1562C27.6146 10.0521 27.7708 10 27.9375 10C28.1042 10 28.2604 10.0312 28.4062 10.0938C28.5521 10.1562 28.6667 10.25 28.75 10.375L32.1875 14.6875L34.4375 13.1875C34.5625 13.1042 34.6979 13.0521 34.8438 13.0312C34.9896 13.0104 35.125 13.0208 35.25 13.0625C35.4167 13.1042 35.5521 13.1667 35.6562 13.25C35.7604 13.3333 35.8542 13.4583 35.9375 13.625L39.9375 22.625ZM22.75 22H37.4375L34.5625 15.5L32.5625 16.8125C32.3542 16.9792 32.1146 17.0417 31.8438 17C31.5729 16.9583 31.375 16.8333 31.25 16.625L28.125 12.75L22.75 22ZM33.5 4C34.4583 4 35.2812 4.34375 35.9688 5.03125C36.6562 5.71875 37 6.54167 37 7.5C37 8.45833 36.6562 9.28125 35.9688 9.96875C35.2812 10.6562 34.4583 11 33.5 11C32.5417 11 31.7188 10.6562 31.0312 9.96875C30.3438 9.28125 30 8.45833 30 7.5C30 6.54167 30.3438 5.71875 31.0312 5.03125C31.7188 4.34375 32.5417 4 33.5 4ZM33.5 9C33.9167 9 34.2708 8.85417 34.5625 8.5625C34.8542 8.27083 35 7.91667 35 7.5C35 7.08333 34.8542 6.72917 34.5625 6.4375C34.2708 6.14583 33.9167 6 33.5 6C33.0833 6 32.7292 6.14583 32.4375 6.4375C32.1458 6.72917 32 7.08333 32 7.5C32 7.91667 32.1458 8.27083 32.4375 8.5625C32.7292 8.85417 33.0833 9 33.5 9ZM20 8V6H26V8H20Z" fill="#00BCE0"/>
</svg>
